<?xml version="1.0" encoding="utf-8"?>
<!-- Generator: Adobe Illustrator 22.0.1, SVG Export Plug-In . SVG Version: 6.00 Build 0)  -->
<svg version="1.1" id="Layer_1" xmlns="http://www.w3.org/2000/svg" xmlns:xlink="http://www.w3.org/1999/xlink" x="0px" y="0px"
	 viewBox="0 0 150 150" style="enable-background:new 0 0 150 150;" xml:space="preserve">
<style type="text/css">
	.st0{fill:#FFFFFF;}
</style>
<g>
	<path class="st0" d="M123.9,49.3c2.1-0.7,3.6-2.6,3.6-4.9c0-2.6-2.1-4.9-5.1-5.1c-0.7,0-1.2-0.2-1.7-0.8c-2.5-2.8-6.2-3.1-8.9-1
		c-10.4-7.4-22.9-12-36.5-12c-34.5-0.2-62.4,27.9-62.6,62C12.6,121.9,40.7,150,75,150s62.4-28,62.3-62.3
		C137.3,73.2,132.3,59.8,123.9,49.3z M115.3,38.1c1.9-0.1,3.5,0.6,4.5,2.3c0.5,0.8,1,1,1.9,0.7c1.8-0.4,3.6,0.8,3.8,2.6
		c0.3,2-0.9,3.7-2.8,3.8c-2.3,0.1-4.8,0-7.1,0l0,0c-2.1,0-4.3,0-6.5,0c-1.9,0-3.2-1.2-3.1-2.8c0.1-1.7,1.6-2.8,3.5-2.4
		c1,0.2,1.4,0,1.7-1c0.1-0.4,0.3-0.8,0.6-1.2l0,0c0.4-0.6,0.9-1.1,1.5-1.4l0,0C113.9,38.3,114.5,38.1,115.3,38.1z M75,147.9
		c-33.3,0-60.1-27-60.1-60.3c0.1-33.2,27-60,60.4-59.9c13,0,25.1,4.3,35,11.4c-0.1,0.1-0.1,0.2-0.2,0.2c-0.4,0.6-0.7,0.9-1.5,1
		c-2.8,0.3-4.7,2.3-4.6,4.9c0.1,2.6,2.2,4.5,5.2,4.5c2.1,0,4.2,0,6.3,0c2,0,4,0,6,0c8.6,10.5,13.7,24,13.6,38.9
		C134.7,121.3,108.1,147.9,75,147.9z"/>
	<path class="st0" d="M107.3,126.8c-0.4-0.1-0.8-0.1-1.1-0.1c-7.4,0-14.8,0-22.2,0c-0.9,0-1.1-0.3-1.1-1.2c0-5.7,0-11.4,0-17.1
		c0-0.8,0.2-1,1-1c3.4,0,6.7-0.1,10.1,0c4,0.1,6.6-3,6.5-6.5c-0.1-6.8,0-13.5,0-20.4c0-0.8,0.2-1.3,0.8-1.8c0.7-0.5,1.4-1.1,2-1.7
		c0.5-0.4,0.7-0.9,0.3-1.5c-0.5-0.6-1-0.5-1.6-0.1c-0.5,0.3-1,1.2-1.4,0.9c-0.4-0.3-0.1-1.1-0.2-1.8c0-0.1,0-0.2,0-0.3
		c-0.1-0.7,0.1-1.2,0.7-1.6c0.5-0.4,1-0.8,1.4-1.2c0.4-0.4,0.5-0.9,0.1-1.4c-0.4-0.5-0.9-0.5-1.4-0.2c-0.2,0.2-0.5,0.4-0.7,0.5
		c-0.1,0.1-0.2,0.2-0.4,0.1c-0.4-0.2-1-2-0.7-2.4c0.3-0.6,0.7-1.2,1-1.9c0.3-0.5,0-0.9-0.4-1.2c-0.4-0.3-0.9-0.2-1.2,0.1
		c-0.3,0.3-0.5,0.6-0.6,0.9c-0.6,1.1-0.6,1.1-1.9,0.7c-0.7-0.2-0.9-0.5-0.9-1.2c0-0.7,0-1.5,0-2.2c0-0.7-0.4-1.1-1-1.1
		c-0.7,0-1,0.5-1,1.1c0,0.8,0,1.6,0,2.4c0,0.5-0.1,0.8-0.7,1c-0.5,0.2-1,0.6-1.4,0.6c-0.5-0.1-0.6-0.8-0.9-1.2c0,0,0,0-0.1-0.1
		c-0.4-0.5-0.8-0.7-1.4-0.4c-0.5,0.3-0.6,0.8-0.4,1.4c0.2,0.5,0.5,0.9,0.7,1.3c0.3,0.5,0.4,0.9,0.1,1.4c-0.5,0.8-0.6,1.8-0.6,2.7
		c0,0.4,0.1,0.8-0.1,1.3c-0.3-0.3-0.6-0.6-0.9-0.8c-0.7-0.7-1.4-0.8-1.8-0.3c-0.6,0.7-0.2,1.3,0.3,1.8c0.7,0.7,1.4,1.4,2.1,2.1
		c0.3,0.3,0.4,0.5,0.4,0.9c0,5.7,0,11.4,0,17.1c0,0.6-0.2,0.8-0.8,0.8c-1.3,0-2.7,0-4.1,0c-0.6,0-0.8-0.3-0.8-0.9
		c0-8.4,0-16.9,0-25.3c0-0.5,0.2-0.8,0.5-1.1c0.7-0.6,1.4-1.2,2.1-1.8c0.5-0.4,0.6-0.9,0.2-1.4s-1-0.5-1.5-0.1
		c-0.4,0.2-0.7,0.7-1.3,0.9c0-0.8,0-1.4,0-2.1c-0.1-0.7,0.2-1.2,0.7-1.7c0.7-0.6,1.3-1.2,1.9-1.9c0.5-0.5,0.6-1,0.2-1.6
		c-0.5-0.6-1.1-0.3-1.6,0.1c-0.3,0.3-0.6,0.7-1,0.9c0-0.1-0.1-0.1-0.1-0.2s0-0.3,0-0.4c0-2-0.7-3.8-2-5.3c-0.4-0.4-0.5-0.8-0.2-1.3
		s0.2-1-0.4-1.3c-0.5-0.3-1-0.2-1.3,0.3c-0.3,0.5-0.7,0.5-1.2,0.3c-0.3-0.1-0.6-0.2-0.9-0.3c-0.6-0.1-0.7-0.4-0.7-0.9
		c0-0.8,0-1.5,0-2.3c0-0.7-0.2-1.3-1.1-1.3c-0.8,0-1,0.6-1.1,1.3c0,0.8,0,1.5,0,2.3c0,0.6-0.2,0.9-0.7,1c-1.1,0.3-2.1,0.7-3,1.5
		c-0.4,0.4-0.6,0.2-0.9-0.2c-0.3-0.6-0.6-1.1-1-1.7c-0.5-0.8-1.1-1-1.6-0.6c-0.6,0.4-0.6,1-0.2,1.6c0.2,0.4,0.4,0.9,0.7,1.2
		c0.8,1.1,1.2,2.2,0.4,3.6c-0.3,0.5-0.3,1.2-0.3,1.8c0,0.7,0,1.4,0,2.3c-0.5-0.5-0.9-0.9-1.3-1.2c-0.5-0.5-1-0.7-1.6-0.2
		c-0.5,0.4-0.4,1.1,0.2,1.7c0.8,0.8,1.5,1.6,2.3,2.3c0.3,0.3,0.4,0.5,0.4,0.9c0,6.2,0,12.5,0,18.7c0,0.6-0.2,0.8-0.8,0.8
		c-1.2,0-2.4,0-3.7,0s-1.2,0-1.2-1.2c0-8.4,0-16.9,0-25.4c0-0.7,0-1.5-0.3-2.1c-0.5-1-0.5-1.9,0.2-2.8c0.5-0.7,0-1.5-0.8-1.6
		c-0.5,0-0.9,0.3-1.1,0.7s-0.4,0.4-0.9,0.3c-1.6-0.5-2.1-1.5-1.8-3.2c0-0.1,0-0.3,0-0.4c0-0.7-0.3-1.1-1-1.1c-0.7,0-1,0.5-1,1.1
		c0,0.7,0,1.4,0,2c0,0.4-0.1,0.6-0.6,0.8c-0.9,0.2-1.8,0.7-2.5,1.3c-0.3,0.3-0.5,0.3-0.7-0.1c-0.3-0.5-0.5-0.9-0.8-1.4
		c-0.4-0.6-0.8-1-1.5-0.6c-0.7,0.4-0.6,1-0.3,1.6c0.3,0.5,0.5,1,0.8,1.4c1.2,1.4,0.5,3,0.6,4.7c-0.4-0.3-0.6-0.5-0.8-0.7
		c-0.5-0.4-1-0.7-1.6-0.1c-0.5,0.5-0.4,1.1,0.1,1.6s1,1.1,1.5,1.5c0.6,0.5,0.8,1.2,0.8,2c0,9,0,17.9,0,26.9c0,4,2.5,6.5,6.5,6.5
		c3.3,0,6.6,0,9.9,0c1.2,0,1.2,0,1.2,1.2c0,9.5,0,18.9,0,28.4c0,1.2,0,1.2-1.2,1.2c-7.3,0-14.8,0-22.1,0c-0.4,0-0.8,0-1.1,0.1
		c-0.5,0.1-0.8,0.4-0.8,0.9s0.3,0.9,0.8,1c0.4,0.1,0.8,0.1,1.1,0.1c20.8,0,41.4,0,62.2,0c0.4,0,0.8,0,1.1-0.1
		c0.5-0.1,0.8-0.4,0.8-0.9C108.2,127.3,107.9,127,107.3,126.8z M84,97.8c1.6,0.1,3.3,0,4.9,0c1.5,0,1.8-0.3,1.8-1.8
		c0-3.9,0-7.7,0-11.6c0-3.8,0-7.6,0-11.4c0-0.9-0.1-1.9,1.1-2.3c0.2-0.1,0.4-0.3,0.3-0.6c-0.1-0.8,0.6-1.1,1.2-1.2
		c1.3-0.3,2.6-0.5,3.5,0.9c0.3,0.5,1,0.5,1.2,1.2c0.1,0.6,0.3,1.1,0,1.7c-0.1,0.1-0.1,0.4,0,0.5c0.5,1.1,0.3,2.3,0.3,3.5
		c0,8,0,16.1,0,24c0,3.1-1.4,4.6-4.6,4.6c-3.3,0-6.6,0-9.9,0c-0.8,0-1.1-0.3-1-1.1c0.1-1.7,0.1-3.6,0-5.3C82.8,98.1,83,97.8,84,97.8
		z M67.2,92.9c0,0.6-0.2,0.8-0.8,0.8c-3.7,0-7.4,0-11.1,0c-2.1,0-3.6-1.7-3.6-4.1c0-5.4,0-10.9,0-16.3c0-5.4,0-10.7,0-16.1
		c0-2.2,1.2-3.8,3.3-4.2c0.7-0.1,1.4,0,2,0.3c0.7,0.2,1.1,0.5,0.7,1.4c-0.3,0.6,0.2,1.3,0.9,1.4c0.6,0,0.7,0.3,0.7,0.8
		c0,0.3,0,0.6,0,0.9c0,8.8,0,17.6,0,26.4c0,1.6,0.2,1.8,1.9,1.8c1.6,0,3.4,0,5,0c0.6,0,0.9,0.2,0.9,0.8
		C67.2,88.9,67.2,90.9,67.2,92.9z M80.7,91.2c0,11.4,0,22.8,0,34.3c0,1.2,0,1.2-1.2,1.2c-2.4,0-2.4,0-2.4-2.4c0-4.5,0-9,0-13.3
		c0-0.3,0-0.6,0-0.9c-0.1-0.6-0.5-0.9-1-0.9c-0.6,0-0.9,0.4-1,1c0,0.3,0,0.6,0,0.9c0,4.9,0,9.9,0,14.8c0,0.8-0.3,1.1-1.1,1
		c-1.2-0.1-2.3-0.1-3.6,0c-0.8,0-1.1-0.2-1.1-1c0-3.1,0-6.1,0-9.2c0-8.1,0-16.3,0-24.4c0-11,0-22,0-33c0-3.3,1.8-5.4,5-6
		c0.8-0.1,1.5,0,2.3,0.2c0.6,0.1,0.8,0.3,0.4,0.9c-0.2,0.4-0.4,0.8-0.2,1.2c0.3,0.8,1.3,0.9,1.8,0.1c0.5-0.8,0.8-0.5,1.1,0.1
		c0.7,1.1,1,2.2,1,3.6C80.7,69.8,80.7,80.5,80.7,91.2z"/>
	<path class="st0" d="M71,80.7c0,0.4,0,0.8,0.1,1.1c0.2,0.5,0.5,0.8,1,0.7c0.5,0,0.8-0.3,0.9-0.8c0.1-0.4,0.1-0.9,0.1-1.3
		c0-6.5,0-13,0-19.5c0-0.4,0-0.7-0.1-1.1c-0.1-0.6-0.4-1-1-1c-0.7,0-1,0.5-1.1,1.1c0,0.3,0,0.6,0,0.9c0,3.3,0,6.5,0,9.8
		C71,73.9,71,77.2,71,80.7z"/>
	<path class="st0" d="M71.4,96.5c-0.4,0.3-0.5,0.8-0.5,1.3c0,1.7,0,3.5,0,5.2l0,0c0,1.8,0,3.6,0,5.4c0,0.7,0.3,1.3,1,1.3
		c0.8,0,1-0.6,1.1-1.3c0-0.2,0-0.4,0-0.6c0-3.2,0-6.4,0-9.6c0-0.4,0-0.9-0.2-1.3C72.8,96.3,72,96.1,71.4,96.5z"/>
	<path class="st0" d="M75.9,68.2c-0.8,0.1-1,0.6-1,1.3c0,1.9,0,3.9,0,5.8s0,3.9,0,5.9c0,0.7,0.2,1.3,1,1.4c0.6,0.1,1.1-0.5,1.1-1.4
		c0-3.9,0-7.8,0-11.7C77,68.6,76.6,68.1,75.9,68.2z"/>
	<path class="st0" d="M72,113.7c-0.8,0-1,0.6-1,1.3c0,1.1,0,2.1,0,3.3c0,1.1,0,2.2,0,3.4c0,0.7,0.2,1.4,1,1.4
		c0.9,0.1,1.1-0.6,1.1-1.3c0-2.2,0-4.5,0-6.7C73.2,114.3,72.9,113.7,72,113.7z"/>
	<path class="st0" d="M75.9,84.1c-0.7,0-1,0.5-1,1.1c0,1,0,1.9,0,3s0,2,0,3c0,0.7,0.3,1.2,1,1.2c0.7,0,1.1-0.5,1.1-1.2
		c0-2,0-4.1,0-6C77,84.5,76.6,84.1,75.9,84.1z"/>
	<path class="st0" d="M76,96.3c-0.7,0-1,0.4-1,1.1c0,0.9,0,1.8,0,2.7s0,1.8,0,2.7c0,0.7,0.3,1.1,1,1.1s1-0.4,1.1-1.1
		c0-1.8,0-3.8,0-5.6C77,96.8,76.7,96.3,76,96.3z"/>
	<path class="st0" d="M72.2,86.5c-0.6,0-1,0.4-1,1c-0.1,1.3-0.1,2.6,0,4c0,0.6,0.4,1,1,1c0.6,0,1-0.4,1-1c0-0.6,0-1.2,0-1.9h0.1
		c0-0.7,0-1.4-0.1-2C73.1,86.9,72.8,86.5,72.2,86.5z"/>
	<path class="st0" d="M55.7,78.8c0-0.7-0.3-1.2-1.1-1.2c-0.7,0-1,0.6-1,1.2c0,0.2,0,0.4,0,0.5c0,3,0,5.9,0,8.9c0,0.4,0,0.7,0.1,1.1
		c0.1,0.5,0.4,0.8,0.9,0.8c0.5,0,0.8-0.3,1-0.7c0.1-0.3,0.1-0.7,0.1-1c0-1.5,0-3.1,0-4.5l0,0C55.7,82,55.7,80.4,55.7,78.8z"/>
	<path class="st0" d="M54.6,65.4c0.8,0,1-0.7,1.1-1.4c0-1,0-1.9,0-3c0-0.9,0-1.9,0-2.8c0-0.7-0.3-1.3-1.1-1.3c-0.8,0-1,0.6-1.1,1.3
		c0,1.9,0,4,0,5.9C53.5,64.8,53.8,65.4,54.6,65.4z"/>
	<path class="st0" d="M55.7,69.8c-0.1-0.6-0.4-0.9-1-0.9c-0.6,0-0.9,0.3-1,0.9c-0.1,1.2-0.2,2.5,0,3.8c0.1,0.6,0.5,0.9,1,0.9
		s0.9-0.4,1-0.9c0.1-0.6,0.1-1.2,0.1-1.8c0,0,0,0-0.1,0C55.7,71,55.7,70.4,55.7,69.8z"/>
	<path class="st0" d="M92.5,93.7c0.1,0.4,0.5,0.7,0.9,0.7c0.5,0,0.8-0.2,0.9-0.7c0.1-0.3,0.1-0.6,0.1-1c0-1.4,0-2.7,0-4.2
		c0-1.3,0-2.5,0-3.9s-0.3-1.9-1.1-1.9c-0.7,0-1.1,0.6-1.1,1.8c0,2.6,0,5.3,0,7.9C92.4,93,92.4,93.3,92.5,93.7z"/>
	<path class="st0" d="M93.5,79.8c0.8,0,1-0.7,1.1-1.4c0-0.9,0-1.9,0-2.8c0-0.9,0-1.8,0-2.7c0-0.7-0.2-1.3-1-1.4
		c-0.9,0-1.1,0.6-1.1,1.3c0,1.9,0,3.8,0,5.7C92.4,79.2,92.6,79.8,93.5,79.8z"/>
	<path class="st0" d="M94.5,100.1c0-0.7,0-1.4,0-2.1c0-0.7-0.3-1.2-1.1-1.2c-0.8,0-1,0.5-1,1.2c0,1.5,0,3.1,0,4.5
		c0,0.7,0.3,1.2,1.1,1.2c0.7,0,1-0.5,1.1-1.2C94.6,101.7,94.5,100.8,94.5,100.1L94.5,100.1z"/>
	<path class="st0" d="M40.9,101.4c-0.7,0-1.2-0.2-1.7-0.8c-3.2-3.5-7.9-3.1-10.5,0.8c-0.4,0.6-0.7,0.9-1.5,1
		c-2.8,0.3-4.7,2.3-4.6,4.9c0.1,2.6,2.2,4.5,5.2,4.5c2.1,0,4.2,0,6.3,0c2.1,0,4.2,0,6.3,0c0.1,0,0.2,0,0.3,0
		c3.1-0.1,5.3-2.4,5.3-5.3C46,103.8,43.9,101.6,40.9,101.4z M41.1,109.7c-2.3,0.1-4.8,0-7.1,0l0,0c-2.1,0-4.3,0-6.5,0
		c-1.9,0-3.2-1.2-3.1-2.8c0.1-1.7,1.6-2.8,3.5-2.4c1,0.2,1.4,0,1.7-1c0.6-1.9,2-3.1,4.1-3.3c1.9-0.1,3.5,0.6,4.5,2.3
		c0.5,0.8,1,1,1.9,0.7c1.8-0.4,3.6,0.8,3.8,2.6C44.3,108,43.1,109.6,41.1,109.7z"/>
</g>
</svg>
