<?xml version="1.0" encoding="utf-8"?>
<!-- Generator: Adobe Illustrator 22.0.1, SVG Export Plug-In . SVG Version: 6.00 Build 0)  -->
<svg version="1.1" id="Layer_1" xmlns="http://www.w3.org/2000/svg" xmlns:xlink="http://www.w3.org/1999/xlink" x="0px" y="0px"
	 viewBox="0 0 150 150" style="enable-background:new 0 0 150 150;" xml:space="preserve">
<style type="text/css">
	.st0{fill:#FFFFFF;}
</style>
<g>
	<path class="st0" d="M68.6,22c0-0.5,0-1,0-1.4c-0.1-1.7-0.1-3.3,1.5-4.4c0.3-0.2,0.6-0.7,0.7-1.1c0.5-2.2,1.9-4,1.7-6.4
		c-0.1-0.7,0.3-1.1,1-1.1s0.9-0.3,0.9-1c0-1,0-2.1,0-3c0-0.5,0-0.9,0.7-0.9s0.8,0.4,0.8,0.9c0,1,0,2,0,2.9c0,0.7,0.2,1.2,1,1.1
		c0.8,0,0.9,0.5,0.9,1.1c0.3,3.1,1,6.2,3.3,8.5c0.5,0.5,0.5,1.1,0.5,1.7c0,2.2,0,4.4,0,6.6c0,0.8,0.2,1.2,1.1,1.3
		c18.1,2.4,32.5,10.9,43.2,25.6c0.6,0.9,1.2,1.3,2.3,1.1c2.9-0.3,5.3,0.9,7.1,3.2c0.4,0.6,0.9,0.8,1.6,0.7c3.6-0.1,6.3,2.3,6.5,5.6
		c0.2,3.2-2.2,6-5.6,6.4c-0.5,0.1-1,0.1-1.6,0.1c-1.7,0-1.7,0-1.2,1.7c0.8,2.8,1.4,5.7,1.8,8.5c1.1,7.5,0.7,14.8-1,22.2
		c-2.7,11.3-8.1,21.1-16.2,29.5c-9.9,10-21.8,16.1-35.7,18C65.3,151.8,48.9,147,35,135c-11.2-9.6-18.2-21.9-20.5-36.5
		c-2.7-15.7,0.5-30.2,8.9-43.7c0.5-0.8,1-1.3-0.5-1.4c-1.6-0.1-2.7-1.6-2.7-3.2c0-1.5,1.1-2.9,2.6-3.2c0.9-0.2,1.7-0.5,2.4-1.2
		c1.3-1.1,2.8-1.4,4.4-0.5c0.8,0.5,1.3,0.2,1.8-0.4c7.4-7.5,16.1-12.8,26.2-15.9c3-1,6.3-1.7,9.4-2.1c1.7-0.2,1.7-0.2,1.7-1.9
		C68.6,24.1,68.6,23.1,68.6,22z M35.8,97.9c-0.7-0.9-1.2-1.6-1.7-2.2c-1-1.3-0.9-1.7,0.7-2.3c7.4-2.5,14.7-5,22.1-7.4
		c1.3-0.4,1.7-0.9,1.7-2.3c-0.1-5.5,0-11,0-16.5c0-0.6-0.3-1.6,0.7-1.6c1.1,0,0.7,0.9,0.8,1.5c0,0.3,0,0.6,0,0.8
		c0,0.3,0.2,0.4,0.4,0.5c1.4,0.5,2.3-0.1,2.3-1.5c0-7,0-13.9,0-20.9c0-2.7,0-5.4,0-8.2c0-0.5,0.1-1.1-0.7-1.2
		c-0.5,0-0.7-0.2-0.7-0.8s0.4-0.6,0.9-0.6c0.8,0.1,1.3-0.4,1.8-1c1.2-1.4,2.5-2.7,3.7-4.1c0.5-0.6,1.3-1.2,0.8-1.9
		c-0.4-0.7-1.3-0.2-1.9-0.1C53.2,30.5,41.7,36.3,32.1,46c-1,1-1,1.1,0.3,1.4c1.7,0.5,2.7,1.8,2.5,3.4c-0.2,1.5-1.5,2.6-3.1,2.6
		c-1.6,0-3.2,0-4.8,0c-0.6,0-1.1,0.1-1.4,0.7c-1.8,2.7-3.4,5.5-4.8,8.3c-2.8,6.1-4.6,12.3-5.4,18.9c-0.6,5.2-0.5,10.4,0.2,15.5
		c0.1,0.9,0.5,1.2,1.4,1.2c2.1-0.1,4.1,0,6.2,0C27.2,97.9,31.3,97.9,35.8,97.9z M87.3,52.7c0,4.8,0,9.7,0,14.5
		c0,1.1,0.3,1.5,1.4,1.5c1.1,0,1.6-0.3,1.4-1.4c0-0.3,0-0.6,0-1c0-0.4,0.3-0.6,0.7-0.6s0.6,0.2,0.6,0.6c0,0.4,0.1,0.8,0.1,1.2
		c0,5.5,0,11,0,16.5c0,1.2,0.4,1.7,1.5,2.1c7.5,2.5,14.9,5,22.4,7.6c1.4,0.5,1.5,0.9,0.7,2.1c-0.4,0.5-0.8,1-1.2,1.5
		c-0.2,0.2-0.5,0.4-0.3,0.7c0.1,0.1,0.4,0.1,0.7,0.1c6.3,0,12.6,0,18.8,0c0.6,0,0.9-0.3,1-0.9c0.4-2.3,0.6-4.6,0.7-7
		c0.2-6.5-0.6-12.9-2.5-19.2c-0.3-1.1-0.8-1.4-1.9-1.4c-3.5,0.1-7.1,0-10.6,0c-2,0-3.7-0.4-5-2c-1.4-1.8-1.8-3.7-0.8-5.8
		c0.9-2.1,2.7-3.2,4.9-3.2c0.9,0,1.5-0.2,1.9-1.1c0.5-1.2,1.5-2.2,2.7-2.8c0.8-0.4,0.9-0.8,0.3-1.5C114.2,39,100.4,30.7,82.8,28.3
		c-0.4-0.1-1-0.5-1.3,0.1c-0.3,0.6,0,1.1,0.4,1.6c1.5,1.6,2.8,3.1,4.3,4.7c0.4,0.5,0.8,0.8,1.5,0.8c0.3,0,0.6,0.1,0.7,0.5
		c0.1,0.3,0,0.7-0.3,0.8c-1,0.2-0.8,0.9-0.8,1.5C87.3,43,87.3,47.9,87.3,52.7z M75.3,99.4c-9.1,0-18.4,0-27.5,0c-2.7,0-5.5,0-8.2,0
		c-1,0-1.4,0.4-1.3,1.3c0,0.3,0,0.6,0,0.8c0,1.9,0,1.9,1.9,1.9c23.3,0,46.6,0,69.8,0c2.5,0,2.3,0.2,2.3-2.3c0-1.8,0-1.8-1.8-1.8
		C98.6,99.4,86.9,99.4,75.3,99.4z M128.5,68.2L128.5,68.2c2.9,0,5.9,0.1,8.8,0c2.8-0.1,4.7-2.6,4.3-5.5c-0.3-2.5-2.9-4.3-5.5-3.7
		c-1,0.2-1.4,0-1.9-0.8c-1.6-2.7-4.4-3.9-7.4-3c-2.2,0.6-3.7,2-4.3,4.1c-0.3,1.1-0.8,1.4-1.9,1c-0.4-0.2-0.9-0.2-1.4-0.1
		c-2.2,0.4-3.6,2.2-3.5,4.2c0.1,2.2,1.9,3.7,4,3.8C122.7,68.2,125.6,68.2,128.5,68.2z M99.1,93.9c0-0.1,0-0.1,0-0.2
		c-7.9-2.7-15.7-5.3-23.5-8c-0.6-0.2-1.1-0.1-1.6,0.1c-6.7,2.3-13.4,4.5-20,6.8c-1,0.4-2.1,0.7-3,1.1v0.1C67,93.9,83,93.9,99.1,93.9
		z M114.2,95.6c-26.1,0-52.2,0-78.4,0c0.8,1.8,2,2.5,3.9,2.5c23.5-0.1,46.9-0.1,70.4,0C112.2,98,113.4,97.4,114.2,95.6z M38.4,93.7
		c0,0.1,0,0.1,0,0.2c1.7,0,3.3-0.1,5,0c1.8,0.1,3.3-0.3,5-0.8c8.3-2.8,16.8-5.7,25.1-8.5c1-0.3,1.9-0.4,2.8,0c8.8,3,17.6,6,26.4,8.9
		c0.5,0.2,1,0.4,1.6,0.4c2.4,0,4.8,0,7.5,0c-0.4-0.2-0.5-0.2-0.7-0.3C99.5,89.7,87.7,85.8,76,81.7c-0.9-0.3-1.6-0.2-2.5,0.1
		c-3.5,1.3-7.2,2.5-10.7,3.6C54.8,88.2,46.6,91,38.4,93.7z M84.5,123.5c-0.1,0-0.2,0-0.3,0c0.2-3.8-0.2-7.7-0.2-11.6
		c0-1.8,0-1.8-1.9-1.8c-0.1,0-0.2,0-0.4,0c-1.1-0.1-1.7,0.2-1.6,1.4c0.1,1-0.1,1.9-0.1,2.8c-0.1,5.9-0.1,11.8-0.3,17.7
		c-0.2,4.9,0,9.8-0.4,14.7c-0.1,1.6,0,1.7,1.5,1.6c0.9,0,1.8-0.2,2.7-0.3c0.8-0.1,1.1-0.4,1.1-1.3c-0.1-1.6-0.2-3-0.2-4.6
		C84.5,136,84.5,129.7,84.5,123.5z M66.1,141.4c-0.3,1.9-0.2,3.8-0.4,5.7c-0.1,0.6,0.2,0.8,0.7,0.9c1,0.1,2,0.3,2.9,0.4
		c1.6,0.1,1.7,0.1,1.6-1.5c-0.1-7.1-0.3-14.1-0.4-21.1c-0.1-4.4-0.1-8.8-0.2-13.3c-0.1-2.5-0.1-2.5-2.6-2.4c-0.9,0-1.1,0.4-1.2,1.2
		c-0.3,4.7-0.2,9.5-0.3,14.2C66,130.8,66.1,136.2,66.1,141.4z M98.2,137.6c-0.1-2.5-0.1-4.9-0.2-7.5c-0.2-6.2-0.2-12.4-0.3-18.6
		c0-1.6,0-1.6-1.6-1.6c-0.2,0-0.4,0-0.6,0c-1.5,0-1.7,0.2-1.7,1.6c0,4.1-0.1,8.2-0.2,12.3c-0.1,7-0.2,14-0.5,21c0,0.8,0.3,1,1,0.7
		c1.1-0.4,2.2-0.8,3.2-1.2c0.7-0.2,1-0.7,1-1.4C98.2,141.3,98.2,139.5,98.2,137.6z M52.3,140.1c-0.1,4.2-0.1,4.2,3.9,5.4h0.1
		c0.8,0.3,1,0,1-0.7c0-1.7-0.1-3.3-0.1-4.9c-0.2-9.1-0.4-18.2-0.5-27.3c0-2.7,0-2.7-2.6-2.5c-0.1,0-0.2,0-0.2,0
		c-0.7,0-0.9,0.3-0.9,1c0,1.4-0.2,2.7-0.2,4C52.5,123.4,52.4,131.7,52.3,140.1z M58.3,127.3c0,2.4,0.1,4.8,0.2,7.2
		c0.1,3.4,0.1,6.9,0.1,10.3c0,1.1,0.4,1.7,1.5,1.9c1.2,0.2,2.4,0.5,3.4,0.8c0.7,0.2,0.8-0.1,0.9-0.7c0.2-8.1,0.3-16.1,0.5-24.1
		c0-0.9-0.3-1.2-1.2-1.2c-1.4,0-2.8,0-4.2,0c-0.9,0-1.2,0.4-1.1,1.2C58.4,124.2,58.3,125.7,58.3,127.3z M85.7,128.5
		c0,3.1,0.2,6.2,0.3,9.3c0.1,2.9,0.1,5.8,0.1,8.7c0,0.9,0.2,1.2,1.1,0.9c1.2-0.3,2.5-0.6,3.6-0.8c0.7-0.1,1-0.4,1-1.2
		c0-1.7,0-3.3,0-5.1c0.1-5.9,0.3-11.7,0.4-17.6c0-1-0.3-1.4-1.3-1.3c-1.5,0.1-2.9,0-4.5,0c-0.7,0-0.9,0.2-0.9,0.9
		C85.7,124.4,85.7,126.4,85.7,128.5z M102.7,121.5L102.7,121.5c-0.8,0-1.7,0-2.5,0c-0.7,0-0.9,0.3-0.9,0.9c0.1,1.1,0.1,2.2,0.2,3.1
		c0.1,5.5,0.2,11.1,0.3,16.6c0,1,0.3,1.2,1.2,0.7c1.3-0.7,2.6-1.3,3.8-2c0.7-0.3,0.9-0.8,0.9-1.5c0-2,0.1-4,0.2-6
		c0.1-3.6,0.1-7.3,0.3-10.8c0-1-0.3-1.3-1.2-1.2C104,121.5,103.3,121.5,102.7,121.5z M51.1,125.9c0-1-0.1-2,0-2.9
		c0.1-1.2-0.3-1.7-1.5-1.6c-1.2,0.1-2.4,0.1-3.5,0c-1.2-0.1-1.6,0.4-1.6,1.6c0.1,5.5,0.2,10.9,0.3,16.4c0,0.7,0.3,1.1,0.9,1.4
		c1.4,0.7,2.7,1.4,3.9,2.1c0.8,0.4,1,0.3,1.1-0.6C51,136.8,50.7,131.4,51.1,125.9z M107.1,135.6L107.1,135.6c-0.1,1-0.1,2.1-0.1,3
		c0,0.7,0.2,0.9,0.8,0.5c1.1-0.8,2.2-1.6,3.3-2.3c0.6-0.4,0.8-0.8,0.7-1.5c-0.1-1.3-0.1-2.6-0.2-3.7c-0.1-6.3-0.2-12.6-0.3-18.9
		c0-2.8,0-2.8-2.8-2.7c-0.8,0-1,0.4-1,1.1C107.4,119.4,107.3,127.4,107.1,135.6z M43.3,132.5c0-2.9-0.1-5.9-0.2-8.8
		c-0.2-3.7,0-7.6-0.2-11.3c-0.1-2.5,0.1-2.3-2.7-2.3c-0.8,0-1.1,0.3-1.1,1.1c0,1.8-0.2,3.6-0.2,5.4c-0.1,5.2-0.2,10.4-0.3,15.6
		c-0.1,4.2-0.1,4.2,3.5,6.5c0.1,0,0.1,0.1,0.2,0.1c0.8,0.6,1,0.2,1-0.6C43.3,136.3,43.3,134.5,43.3,132.5z M122.4,108.9
		c-2.8,0-5.7,0-8.5,0c-0.9,0-1.3,0.3-1.2,1.3c0.2,2.5,0.2,4.9,0.2,7.3c0,1.2,0.8,1,1.6,1c0.8,0.1,1.3-0.1,1.3-1.1
		c-0.1-1.6,0-3.2,0-4.8c0-0.8,0.3-1.1,1.1-1.1c2.2,0,4.2,0,6.4,0c0.7,0,1,0.3,1,1c0,1.3,0,2.6,0,3.9c0,2.4-0.3,2.1,2.2,2.2
		c1,0,1.6-0.3,2-1.2c1.3-2.4,2.4-4.7,3.3-7.2c0.4-1,0.3-1.3-0.8-1.3C128,109,125.2,108.9,122.4,108.9z M28.1,108.9
		c-2.7,0-5.6,0-8.3,0c-0.9,0-1.1,0.2-0.8,1.1c0.9,2.3,2.1,4.3,2.9,6.6c0.7,1.7,1.8,2.2,3.4,2c0.8-0.1,1.1-0.4,1.1-1.2
		c0-1.6,0-3,0-4.6c0-0.9,0.3-1.3,1.2-1.3c2,0,4,0,6,0c0.9,0,1.2,0.4,1.2,1.2c0,1.6,0,3.1,0,4.7c0,1.1,0.6,1.1,1.4,1.1
		c0.8,0,1.4,0,1.4-1.1c0-2.4,0-4.8,0.1-7.2c0-1.1-0.4-1.4-1.4-1.3C33.6,109,30.9,108.9,28.1,108.9z M85.9,66.1c0-0.2,0-0.5,0-0.7
		c0-1.9,0-1.9-1.9-1.9c-5.3,0-10.7,0-16,0c-3.8,0-3.8,0-3.7,3.8c0,0.2,0,0.4,0,0.6c0,0.3,0.2,0.5,0.5,0.6c1.5,0.4,2.2-0.1,2.3-1.6
		c0-0.2,0-0.3,0-0.5c0-0.5,0.2-0.9,0.8-0.9c0.5,0,0.7,0.4,0.7,0.8c0,0.2,0,0.5,0,0.7c-0.2,1.2,0.4,1.5,1.5,1.5c3.2-0.1,6.5,0,9.7,0
		c1.9,0,1.9,0,2.1-2c0-0.1,0-0.2,0-0.4c0-0.4,0.3-0.6,0.7-0.7c0.4,0,0.7,0.2,0.7,0.7c0,0.5,0,1,0.1,1.4c0,0.4,0.1,0.8,0.6,0.9
		c1.7,0.4,2.2,0,2.2-1.7C85.9,66.7,85.9,66.4,85.9,66.1z M124.1,99.4c-2.7,0-5.4,0-8.1,0c-2.7,0-2.5-0.3-2.5,2.5
		c0,1.6,0,1.6,1.6,1.6c5.3,0,10.6,0,15.9,0c2.8,0,2.6,0.6,3.2-2.6c0.3-1.3,0.2-1.4-1.2-1.4C130.2,99.4,127.1,99.4,124.1,99.4z
		 M26.7,103.4c2.6,0,5,0,7.6,0c2.7,0,2.4,0.3,2.5-2.5c0-1.2-0.4-1.6-1.6-1.6c-5.5,0.1-11,0-16.5,0c-2.8,0-2.7,0-2.1,2.8
		c0.2,1,0.7,1.3,1.7,1.3C21,103.4,23.9,103.4,26.7,103.4z M65.1,35.4c6.7,0,13.2,0,19.8,0c-1.5-1.7-2.8-3-4.1-4.5
		c-0.4-0.4-0.8-0.4-1.3-0.4c-3,0-6.1,0-9,0c-0.5,0-0.9,0.1-1.3,0.5C67.9,32.3,66.5,33.8,65.1,35.4z M78.7,111.8
		c0.2-1.8-0.2-3.8-0.5-5.8c-0.1-0.7-0.4-1.1-1.2-1c-1.3,0-2.6,0-3.7,0c-0.7,0-1,0.3-1.2,1c-0.7,3-0.4,6.1-0.4,9.1
		c0,0.7,0.4,0.9,1,0.9c1.7,0,3.3,0,4.9,0c0.8,0,1.1-0.3,1-1.1C78.7,114,78.7,113,78.7,111.8z M65,111.9c0.2-2-0.1-3.9-0.4-5.9
		c-0.1-0.8-0.5-1.1-1.3-1c-1.2,0-2.4,0-3.5,0c-0.9,0-1.1,0.4-1.3,1.2c-0.7,2.9-0.4,6-0.4,8.9c0,0.7,0.3,1,1,1c1.7,0,3.3,0,4.9,0
		c0.8,0,1-0.4,1-1.1C65,113.9,65,112.9,65,111.9z M44.4,111.9c0,1.2,0,2.2,0,3.1c0,0.7,0.3,0.9,0.9,0.9c1.7,0,3.3,0,5.1,0
		c0.6,0,1-0.2,1-0.9c0-3,0.3-6.1-0.4-9.1c-0.2-0.7-0.4-1-1.1-1c-1.3,0-2.6,0-3.9,0c-0.8,0-1,0.4-1.1,1.1
		C44.5,108.1,44.1,110,44.4,111.9z M75.1,19.1c-1.4,0-2.7,0-4.1,0c-0.7,0-1,0.3-1,1c0,2.7,0,5.3,0,8.1c0,0.7,0.3,0.9,0.9,0.9
		c2.7,0,5.4,0,8.2,0c0.7,0,1-0.3,1-1c0-2.7,0-5.3,0-7.9c0-0.8-0.3-1.1-1.1-1.1C77.6,19.1,76.3,19.1,75.1,19.1z M85.5,112
		c0,0.8,0,1.9,0,2.8c0,0.8,0.3,1.1,1.1,1.1c1.6,0,3,0,4.6,0c0.9,0,1.2-0.4,1.2-1.2c0-2.9,0.1-5.9-0.5-8.8c-0.1-0.7-0.4-1.1-1.2-1
		c-1.3,0-2.6,0-3.9,0c-0.6,0-0.9,0.3-1,0.9C85.6,107.8,85.4,109.8,85.5,112z M102.5,115.9c0.9,0,1.8,0,2.6,0c0.6,0,0.9-0.2,0.9-0.8
		c0.3-3.1,0.3-6.2-0.4-9.2c-0.1-0.7-0.5-1-1.2-1c-1.2,0-2.5,0-3.6,0c-0.7,0-1,0.3-1.2,1c-0.5,2.3-0.5,4.5-0.5,6.8
		C99.2,115.9,99.2,115.9,102.5,115.9z M75.1,75c-1.9,0-3.7,0-5.6,0c-0.6,0-1.1,0.1-1.1,0.9c0,1.9,0,3.7,0,5.6c0,0.6,0.3,0.7,0.9,0.6
		c2.3-0.6,2.4-0.6,2.4-2.9c0-0.1,0-0.2,0-0.4c0-0.5,0.1-1,0.8-1c0.6,0,0.7,0.4,0.7,0.9c0,0.6-0.1,1.2,0.2,1.6
		c0.4,0.6,1.1-0.3,1.6-0.1c1.9,0.8,2.2-0.2,2.1-1.8c0-0.4,0.3-0.6,0.7-0.7c0.5,0,0.7,0.3,0.8,0.7c0,0.4,0.1,0.9,0,1.3
		c-0.2,1.1,0.3,1.7,1.4,1.9c0.3,0.1,0.6,0.2,0.9,0.3c0.6,0.2,1,0.1,1-0.6c0-1.8,0-3.5,0-5.3c0-0.8-0.4-1-1.1-1
		C78.7,75,76.9,75,75.1,75z M77.1,49.4c0-2,0-3.9,0-5.9c0-2.7,0-2.7-2.7-2.7c-1.2,0-1.5,0.4-1.5,1.5c0.1,4.3,0,8.5,0,12.9
		c0,3.1-0.6,2.7,2.9,2.8c1,0,1.2-0.4,1.2-1.3C77,54.3,77.1,51.9,77.1,49.4z M75.1,36.9c-3.1,0-6.4,0-9.5,0c-1,0-1.3,0.3-1.3,1.3
		s0.2,1.5,1.3,1.4c6.4,0,12.8,0,19.2,0c1,0,1.3-0.3,1.3-1.3s-0.2-1.5-1.3-1.4C81.4,37,78.2,36.9,75.1,36.9z M78.4,49.3
		c0,2.5,0.1,4.9,0,7.3c-0.1,1.3,0.6,1.5,1.7,1.5c1.9-0.1,1.9,0,1.9-1.5c0-4.5,0-9,0-13.6c0-2.5,0.3-2.2-2.3-2.2
		c-1,0-1.2,0.4-1.2,1.3C78.5,44.5,78.4,46.9,78.4,49.3z M71.6,49.5c0-2.6,0-5,0-7.6c0-0.8-0.2-1.2-1.1-1.1c-0.3,0-0.6,0-0.8,0
		c-1.6,0-1.6,0-1.6,1.6c0,4.5,0,8.9,0,13.5c0,2.2,0,2.2,2.3,2.2c1,0,1.3-0.4,1.3-1.4C71.6,54.3,71.6,52,71.6,49.5z M75.1,59.5
		c-3.1,0-6.4,0-9.5,0c-1,0-1.3,0.3-1.3,1.3c0,1,0.3,1.3,1.3,1.3c6.4,0,12.8,0,19.2,0c1,0,1.3-0.3,1.3-1.3c0-1-0.4-1.3-1.3-1.3
		C81.4,59.5,78.2,59.5,75.1,59.5z M123.4,104.9c-2.8,0-5.7,0-8.4,0c-1.4,0-1.8,0.4-1.7,1.8c0,1.2,1,0.8,1.6,0.8c5.5,0,10.9,0,16.4,0
		c0.3,0,0.7,0,1,0c1-0.3,1-1.3,1.1-2.1c0.1-0.8-0.8-0.5-1.2-0.5C129.1,104.9,126.2,104.9,123.4,104.9z M72,125.3L72,125.3
		c0.1,1,0.1,2,0.1,2.9c0,0.7,0.3,0.9,0.9,0.9c1.5,0,2.9,0,4.4,0c0.7,0,1-0.3,1.1-1c0.2-2,0.1-3.9,0.1-5.9c0-0.6-0.3-0.9-0.9-0.9
		c-1.6,0-3.1,0-4.7,0c-0.7,0-1,0.3-1,1C72,123.5,72,124.4,72,125.3z M27.3,104.9c-2.9,0-5.8,0-8.7,0c-0.4,0-0.9-0.1-1.1,0.3
		c-0.3,0.7,0.7,2.2,1.5,2.2c5.8,0,11.7,0,17.5,0c0.3,0,0.7,0,0.8-0.3c0.4-0.8-0.4-2.3-1.3-2.3C33.1,104.9,30.2,104.9,27.3,104.9z
		 M27.6,52.1L27.6,52.1c1.4,0,2.7,0,4.1,0c1.2-0.1,1.9-0.9,1.8-1.8c-0.1-1-0.8-1.5-2.1-1.4c-0.6,0.1-0.9-0.1-1.2-0.7
		c-1.1-2.6-3.5-2.7-5.1-0.6c-0.3,0.4-0.6,0.6-1.2,0.6c-1.5-0.2-2.3,0.5-2.4,1.7c-0.1,1.3,0.7,2.2,2.2,2.2
		C25.1,52.1,26.3,52.1,27.6,52.1z M90.1,80.1c0-1.2-0.1-2.5,0-3.6c0.1-1.1-0.3-1.6-1.5-1.5c-0.9,0.1-1.8,0-2.6,0c-3,0-3,0-3,3
		c0,1.4,0,2.7,0,4c0,0.6,0.4,0.9,0.9,0.9c0.6,0,0.4-0.6,0.5-0.9c0-0.8,0-1.7,0-2.5c0-0.6-0.2-1.3,0.8-1.3c0.8,0,0.7,0.8,0.7,1.3
		c0,1.2,0,2.4,0,3.5c0,0.5,0.4,0.8,0.9,0.8c0.6,0,0.5-0.5,0.5-0.9c0-1.2,0-2.3,0-3.4c0-0.3,0.1-0.7,0.5-0.7c0.3-0.1,0.6-0.1,0.8,0.2
		c0.3,0.3,0.2,0.7,0.2,1c0,1.3,0,2.6,0,3.7c0,0.6,0.3,1,0.9,1c0.7,0,0.5-0.6,0.5-1C90.2,82.6,90.1,81.4,90.1,80.1z M59.9,79.9
		c0,1.4,0,2.7,0,4.1c0,0.3-0.1,0.8,0.5,0.8c0.4,0,0.8-0.2,0.8-0.7c0-0.3,0-0.6,0-1c0-1.2,0-2.3,0-3.4c0-0.5,0.1-0.9,0.7-0.9
		c0.7,0,0.8,0.4,0.8,0.9c0,1,0,2.1,0,3c0,0.4-0.2,1,0.4,1.1c0.7,0,0.9-0.5,0.9-1.1c0-1.2,0-2.5,0-3.6c0-0.5,0.2-0.9,0.8-0.9
		s0.7,0.4,0.7,0.9c0,0.9,0,1.8,0,2.7c0,0.4-0.3,1.1,0.5,1.1c0.6,0,0.9-0.5,0.8-1.1c0-2,0-3.9,0-5.9c0-0.7-0.2-1-1-1
		c-1.7,0-3.3,0-5.1,0c-0.7,0-1,0.3-1,1C59.9,77.2,59.9,78.6,59.9,79.9z M66.7,49.4c0-2.5,0-5,0-7.5c0-0.9-0.4-1.2-1.2-1.1
		c-0.8,0-1.4,0.1-1.4,1.1c0,5,0,9.9,0,14.9c0,1,0.4,1.2,1.3,1.2s1.3-0.3,1.3-1.2C66.7,54.4,66.7,51.9,66.7,49.4z M85.9,49.5
		c0-2.6,0-5,0-7.6c0-0.9-0.4-1.2-1.2-1.1c-0.8,0-1.4,0.1-1.4,1.1c0,5,0,9.9,0,14.9c0,1,0.4,1.2,1.3,1.2s1.3-0.2,1.3-1.2
		C85.9,54.4,85.9,52,85.9,49.5z M70.7,17.6c2.7,0,5.3,0,7.9,0c0.6,0,0.5-0.3,0.3-0.7c-0.8-1-1.3-2.2-1.6-3.4
		c-0.1-0.6-0.5-0.9-1.1-0.8c-1.1,0.2-2.4-0.5-3.3,0.5c0,0,0,0.2-0.1,0.2C72.4,14.9,71.8,16.1,70.7,17.6z M120.5,128.1
		c-2.4,0-4.6,0-6.8,0c-0.4,0-0.6,0.2-0.6,0.6c0,2.1,0,4.2,0,6.5C115.9,133,118.4,130.8,120.5,128.1z M30.2,128.1
		c2.1,2.5,4.2,4.4,6.4,6.3c0.4,0.3,0.7,0.3,0.7-0.3c0.1-1.8,0.1-3.5,0.2-5.3c0-0.5-0.2-0.8-0.7-0.8
		C34.6,128.1,32.5,128.1,30.2,128.1z M123.8,124.1c-3.2,0-6.3,0-9.4,0c-0.6,0-1.4-0.3-1.3,0.8c0.1,0.9-0.1,1.9,1.4,1.8
		c1.8-0.1,3.6-0.2,5.4,0C121.8,126.8,122.9,125.9,123.8,124.1z M32.1,124.1c-1.5,0-2.9,0-4.4,0c-0.3,0-0.8-0.1-0.7,0.5
		c0.3,1,1.7,2.1,2.7,2.1c2.2,0,4.2,0,6.4,0c1.1,0,1.1-0.6,1.1-1.4c0-0.8-0.2-1.3-1.1-1.3C34.9,124.1,33.5,124.1,32.1,124.1z
		 M75.8,144.6c0,1,0,2.1,0,3c0,0.8,0.4,0.9,1.1,0.9c0.6,0,1.2,0,1.2-0.9c0-2.1,0-4.1,0-6.2c0-0.8-0.5-0.9-1.1-0.9
		c-0.6,0-1.2,0-1.2,0.9C75.8,142.5,75.8,143.6,75.8,144.6z M74.5,144.7L74.5,144.7c0-1.1,0-2.2,0-3.3c0-0.8-0.5-0.8-1.1-0.7
		c-0.5,0-1.2-0.1-1.1,0.7c0,2.2-0.1,4.3,0.1,6.5c0.1,0.8,0.6,0.8,1.2,0.8c0.7,0,0.9-0.3,0.9-0.9C74.5,146.7,74.5,145.7,74.5,144.7z
		 M75.3,119.9L75.3,119.9c0.8,0,1.7,0,2.5,0c0.9,0,0.8-0.7,0.8-1.3c0-0.6,0.1-1.3-0.8-1.3c-1.7,0-3.3,0-5.1,0c-1,0-0.9,0.7-0.9,1.4
		c0,0.6-0.1,1.3,0.9,1.2C73.5,119.9,74.4,119.9,75.3,119.9z M88.8,119.9L88.8,119.9c0.8,0,1.7,0,2.5,0c1,0,1-0.5,1-1.3
		c0-0.7,0-1.4-1-1.4c-1.5,0-2.9,0-4.3,0c-1,0-1.4,0.2-1.4,1.3c0,1.1,0.5,1.4,1.5,1.3C87.5,119.9,88.2,119.9,88.8,119.9z
		 M102.6,119.9c0.8,0,1.6,0,2.4,0c0.9,0,1.1-0.4,1-1.2c0-0.7,0.1-1.4-1-1.4c-1.6,0-3.2,0-4.8,0c-0.4,0-0.8,0-0.9,0.5
		c-0.4,1.4,0.1,2,1.5,2.1C101.3,119.9,102,119.9,102.6,119.9z M61.6,119.9L61.6,119.9c0.8,0,1.6,0,2.4,0c0.9,0,1-0.6,1-1.3
		c0-0.7,0-1.3-0.9-1.3c-1.7,0-3.3,0-5,0c-0.4,0-0.7,0.1-0.8,0.5c-0.3,1.2,0.2,2,1.5,2C60.2,119.9,60.9,119.9,61.6,119.9z
		 M82.2,104.9c-0.6,0-1.1,0-1.7,0c-0.8,0-1.1,0.3-0.9,1.1c0.6,3-0.1,2.6,3,2.7c1,0,1.4-0.3,1.6-1.3
		C84.7,104.9,84.7,104.9,82.2,104.9z M54.8,104.9c-0.6,0-1.1,0-1.7,0c-0.7,0-1,0.2-0.9,1c0.6,3.3,0,2.6,3.2,2.7
		c0.9,0,1.3-0.3,1.4-1.2C57.3,104.6,57.8,104.9,54.8,104.9z M48,117.4c-0.9,0-1.8,0-2.6,0c-0.4,0-1,0-0.8,0.7
		c0.2,0.7-0.4,1.8,0.7,1.9c1.8,0.1,3.5,0.1,5.3,0c1-0.1,0.7-1.1,0.8-1.7c0.1-0.6-0.4-0.8-0.9-0.8C49.6,117.4,48.7,117.4,48,117.4z
		 M95.9,104.9c-0.5,0-1,0-1.6,0c-1-0.1-1.1,0.4-1,1.3c0.5,2.7-0.1,2.5,2.9,2.5h0.1c1,0.1,1.4-0.2,1.5-1.3
		C98.2,104.9,98.3,104.9,95.9,104.9z M68.5,104.9c-0.6,0-1.3,0-1.9,0c-0.5,0-0.7,0.3-0.7,0.8c0.1,2.7,0.3,2.9,3,2.9
		c0.1,0,0.2,0,0.2,0c0.9,0.1,1.2-0.3,1.4-1.2C70.9,104.9,71,104.9,68.5,104.9z M41,104.9c-0.6,0-1.2,0-1.8,0c-0.5,0-0.7,0.2-0.7,0.7
		c0.1,2.8,0.3,3,3.1,2.9c0.1,0,0.2,0,0.4,0c0.7,0.1,1-0.2,1.1-0.9C43.6,104.4,44,105,41,104.9z M109.5,104.9c-0.4,0-0.9,0-1.3,0
		c-1-0.1-1.4,0.3-1.2,1.3c0.6,2.6-0.1,2.4,2.8,2.4c0.1,0,0.2,0,0.4,0c0.9,0.1,1.3-0.3,1.4-1.2C112,104.9,112.1,104.9,109.5,104.9z
		 M75.4,136.6L75.4,136.6c-0.8,0-1.5,0-2.3,0c-1,0-0.8,0.8-0.8,1.4c0,0.6-0.2,1.4,0.8,1.4c1.4,0,2.8,0,4.2,0c0.5,0,0.8-0.3,0.9-0.8
		c0.4-1.5,0-2-1.5-2C76.2,136.6,75.7,136.6,75.4,136.6z M75,73.6c2,0,2,0,2-1.7c0-2,0-2-1.8-2c-2.1,0-2.1,0-2.1,1.7
		C73.2,73.6,73.2,73.6,75,73.6z M78.4,71.7c0,1.9,0,1.9,1.8,2c1.2,0.1,1.6-0.3,1.5-1.5c-0.1-0.5,0-1,0-1.4c0-0.3,0-0.6-0.4-0.7
		c-0.9-0.1-1.8-0.3-2.6,0.1C78.1,70.5,78.5,71.2,78.4,71.7z M71.6,71.8c0-1.9,0-1.9-1.6-1.9c-1.7,0-1.7,0-1.7,1.7
		c0,1.9,0,1.9,1.6,1.9C71.6,73.6,71.6,73.6,71.6,71.8z M75.8,133c0,0.5,0,1,0,1.4c0,0.2,0,0.6,0.2,0.7c0.6,0.4,1.2,0.2,1.9,0.2
		c0.5-0.1,0.4-0.6,0.5-1c0-0.8,0-1.5,0-2.3c0.1-0.9-0.2-1.4-1.2-1.4c-1.1,0-1.4,0.4-1.3,1.4C75.8,132.4,75.8,132.7,75.8,133z
		 M122.7,115.7c0-0.6,0-1.2,0-1.8c0-0.7-0.2-1-1-1c-0.7,0-1.2,0.2-1.1,1c0,1.2,0,2.3,0,3.4c0,0.7,0.1,1.2,1,1.2
		c0.9,0,1.1-0.4,1.1-1.2C122.7,116.8,122.7,116.3,122.7,115.7z M119.2,115.8L119.2,115.8c0-0.7,0-1.4,0-2c0-0.7-0.3-0.9-1-0.9
		c-0.6,0-1.1,0.1-1.1,0.9c0,1.2,0,2.4,0,3.5c0,0.8,0.1,1.2,1,1.2s1.1-0.5,1-1.2C119.2,116.9,119.2,116.3,119.2,115.8z M33.6,115.8
		c0-0.6,0-1.1,0-1.7c0-0.7-0.1-1.2-1-1.2c-0.9,0-1.1,0.4-1.1,1.2c0,1.1,0,2.2,0,3.3c0,0.8,0.2,1.2,1.1,1.2c0.9,0,1-0.5,1-1.2
		S33.6,116.3,33.6,115.8z M30.1,115.6c0-0.6,0-1.2,0-1.8c0-0.7-0.3-1-1-1c-0.7,0-1.1,0.2-1,0.9c0,1.2,0,2.4,0,3.5
		c0,0.8,0.2,1.1,1.1,1.1c0.8,0,1-0.4,1-1.1C30.1,116.8,30.1,116.2,30.1,115.6z M74.5,133c0-0.3,0-0.6,0-0.8c0.1-1-0.1-1.6-1.3-1.5
		c-1.2,0-1.2,0.7-1.2,1.5c0,0.7,0.1,1.4,0.1,2c0,1.1,0.6,1.2,1.5,1.2c1,0,0.9-0.6,0.9-1.3C74.5,133.7,74.5,133.4,74.5,133z
		 M85.9,71.8c0-1.7,0-1.7-0.5-1.9c-1.6-0.5-2.3,0.1-2.3,1.7c0,0.3,0,0.6,0,1c0,0.7,0.2,1,1,1C85.8,73.7,85.9,73.7,85.9,71.8z
		 M90.1,71.7c-0.2-0.5,0.4-1.3-0.5-1.7c-1.4-0.6-2.3,0.1-2.4,1.6c0,0.2,0,0.3,0,0.5c-0.2,1.2,0.3,1.6,1.5,1.6
		C90.5,73.7,90.1,72.7,90.1,71.7z M67,71.7c-0.2-0.4,0.4-1.3-0.5-1.7c-1.3-0.6-2.3,0-2.3,1.5c0,0.2,0,0.4,0,0.6c0,1.5,0,1.5,1.5,1.6
		C67.3,73.7,66.9,72.7,67,71.7z M62.7,71.7c-0.1-0.5,0.3-1.3-0.4-1.7c-1.2-0.7-2.4,0.1-2.4,1.4c0,0.3,0,0.6,0,0.8
		c-0.1,1,0.2,1.5,1.3,1.4C62.7,73.5,62.7,73.6,62.7,71.7z M114.3,120c-0.9-0.1-1.5,0-1.5,1.2c0,0.9,0.1,1.5,1.3,1.5
		c0.9-0.1,1.6,0,1.5-1.2C115.6,120.4,115.4,119.8,114.3,120z M35,121.4c-0.3,1.1,0.4,1.2,1.3,1.2c1,0,1.3-0.4,1.3-1.4
		c0-1-0.4-1.3-1.4-1.3C35.1,119.9,34.8,120.4,35,121.4z M122.7,121.1c0.1-0.7-0.1-1.2-1.1-1.2c-1,0-1,0.7-1,1.4
		c0,0.8,0.2,1.3,1.1,1.3C122.8,122.6,122.8,121.9,122.7,121.1z M119.2,121.6c0-0.8,0.2-1.6-1-1.6c-0.9,0-1.1,0.4-1.1,1.2
		c0,0.7-0.2,1.4,0.9,1.4C118.9,122.6,119.3,122.3,119.2,121.6z M33.6,121.3c0.1-0.8,0-1.3-1-1.3c-1,0-1.1,0.6-1.1,1.3
		c0,0.8,0.1,1.3,1.1,1.3C33.6,122.6,33.6,122,33.6,121.3z M30.1,121.4c0-0.7,0.1-1.4-1-1.4c-0.9,0-1.2,0.4-1.1,1.2
		c0,0.7-0.1,1.4,1,1.4C29.9,122.6,30.2,122.2,30.1,121.4z M75.1,9.2c-0.8-0.1-1.2,0.2-1.2,1.1s0.5,1,1.2,1c0.8,0,1.2-0.2,1.2-1.1
		C76.1,9.3,75.7,9.1,75.1,9.2z"/>
	<path class="st0" d="M62.1,138.9c0,0.8,0,1.5,0,2.3c0,0.4-0.2,0.7-0.7,0.7c-0.4,0-0.7-0.3-0.7-0.7c0-1.6,0-3,0-4.6
		c0-0.4,0.2-0.7,0.7-0.7c0.4,0,0.7,0.3,0.7,0.7C62.1,137.3,62.1,138.1,62.1,138.9z"/>
	<path class="st0" d="M89.5,138.9c0,0.7,0,1.4,0,2.2c0,0.5-0.2,0.8-0.7,0.8c-0.5,0-0.8-0.3-0.8-0.7c0-1.5,0-2.9,0-4.5
		c0-0.4,0.3-0.7,0.8-0.7c0.5,0,0.7,0.3,0.7,0.8C89.5,137.4,89.5,138.1,89.5,138.9z"/>
	<path class="st0" d="M77.8,24c0,1.6-1.4,2.8-2.8,2.8c-1.6,0-2.8-1.4-2.8-2.9c0-1.5,1.4-2.7,2.8-2.7C76.4,21.1,77.8,22.5,77.8,24z
		 M75.1,25.4c0.7,0,1.3-0.4,1.3-1.4c0-0.9-0.5-1.4-1.4-1.4s-1.5,0.6-1.4,1.4C73.6,24.8,74,25.4,75.1,25.4z"/>
</g>
</svg>
