<?xml version="1.0" encoding="utf-8"?>
<!-- Generator: Adobe Illustrator 22.0.1, SVG Export Plug-In . SVG Version: 6.00 Build 0)  -->
<svg version="1.1" id="Layer_1" xmlns="http://www.w3.org/2000/svg" xmlns:xlink="http://www.w3.org/1999/xlink" x="0px" y="0px"
	 viewBox="0 0 150 150" style="enable-background:new 0 0 150 150;" xml:space="preserve">
<style type="text/css">
	.st0{fill:#FFFFFF;}
</style>
<g>
	<path class="st0" d="M76,18.6c2.2,0,4.5,0,6.7,0c0.9,0,1.4-0.3,1.3-1.3c0-0.4,0-0.7,0-1.2c0-0.6,0.3-0.9,0.8-0.8
		c0.8,0.1,0.9-0.5,0.9-1.1c0-1.2,0-2.4,0-3.7c0-0.5-0.1-1,0.7-1c0.7,0,0.7,0.6,0.7,1c0,1.2,0,2.4,0,3.7c0,0.7,0,1.2,0.9,1.1
		c0.7,0,0.7,0.6,0.7,1c0.1,3.4,0.2,6.7,0.4,10c0.1,1.2,0.6,1.7,1.7,2c7.4,1.8,14.2,5,20.5,9.4c8.7,6.2,15.5,14.1,20.1,23.7
		c0.6,1.2,1.3,2,2.6,2.4c1.9,0.7,3.5,2.1,5.4,2.7c1.4,0.5,2,2.3,1.7,3.8c-0.4,1.7-1.6,2.9-3.3,3.1c-0.3,0-0.6,0.1-0.8,0
		c-1-0.1-1.2,0.3-1,1.2c0.9,4.1,1.5,8.2,1.6,12.6c0.1,9.1-1.7,17.8-5.4,26.1c-5.8,12.8-14.9,22.7-27.3,29.3
		c-7.3,3.9-15.2,6.4-23.5,7c-13.3,1.2-25.8-1.6-37.3-8.4c-10.8-6.4-18.9-15.4-24.3-26.7c-4.4-9.2-6.4-18.8-5.9-29
		c0.4-8.9,2.5-17.3,6.7-25.3c0.5-0.8,0.7-1.3-0.7-1.7c-2.4-0.7-4-3.2-3.7-5.5c0.4-2.6,2.5-4.6,5.2-4.6c0.8,0,1.4-0.3,2-0.9
		c1.7-2.1,3.9-2.7,6.5-2.3c0.8,0.1,1.3,0,1.9-0.6c8.3-8.1,18.1-13.6,29.4-16.4c0.9-0.2,1.3-0.6,1.3-1.6c0.2-3.4,0.4-6.7,0.4-10.1
		c0-0.7,0.1-1.2,1-1.2c0.7,0,0.7-0.6,0.7-1c0-1.2,0-2.5,0-3.7c0-0.5,0-1,0.7-1c0.7,0,0.7,0.6,0.7,1c0,1.2,0,2.4,0,3.7
		c0,0.7,0.1,1.2,0.9,1.1c0.8,0,0.8,0.7,0.8,1.2c0,2.3-0.1,2.1,2.2,2.1C72,18.6,74,18.6,76,18.6z M90.2,29.4c-0.5,0-0.5,0-0.4,0.7
		c0.8,7.1,2.7,14.1,5.3,20.7c4,10.1,9.7,19.2,17.2,27.3c6.6,7.1,14.2,12.8,22.6,17.4c0.7,0.4,0.8,0.3,0.9-0.5
		c0.8-6.9,0.4-13.8-1-20.5c-0.2-0.8-0.6-1.1-1.5-1.1c-2,0-4,0.1-6,0c-1.6-0.1-2.8-1.1-3.2-2.5c-0.4-1.4,0-3.3,1.3-3.7
		c1.9-0.7,3.2-2,4.8-3.1c0.7-0.6,0.8-0.8,0.5-1.6c-8-16.3-20.5-27.1-37.9-32.4C91.8,29.9,91,29.7,90.2,29.4z M15.4,87.9
		c0,2.3,0.1,4.7,0.3,6.9c0.2,1.2,0.4,1.3,1.3,0.7c7.8-4.2,14.7-9.4,20.9-15.7C51.4,66.1,59.4,49.6,62,30.6c0.2-1.3-0.3-1.1-1.1-0.9
		c-10.6,2.7-19.7,7.8-27.5,15.5c-0.8,0.8-0.9,1.2,0.1,2c0.5,0.3,0.8,0.8,1.1,1.4c0.4,0.7,0.7,0.9,1.5,0.8c1.1-0.1,2.2,0.4,3,1.1
		c1.5,1.3,2,3.3,1.4,5.1c-0.7,2-2.3,3.2-4.5,3.2c-3.8,0.1-7.7,0.2-11.6,0.3c-1,0-1.7,0.4-2.2,1.3C17.7,68.9,15.4,78.1,15.4,87.9z
		 M126,121.9c-0.3-0.1-0.4-0.1-0.5-0.1c-10.9,0-21.7,0-32.5,0c-0.4,0-0.7,0-0.9,0.4c-0.6,1.4-1.5,2.6-1.5,4.2c0,4.4,0,8.7,0,13.1
		c0,0.4-0.1,0.7,0.2,1c0.7,0.6,0.6,1.3,0.6,2.1c0,0.8,0,1.7,0,2.6c0,1.5,0,1.5,1.4,1.1c7.6-2.2,14.5-5.8,20.7-10.8
		C118.3,131.6,122.4,127.2,126,121.9z M42.6,121.8c-5.2,0-10.3,0-15.5,0c-0.4,0-1-0.3-1.2,0.2c-0.2,0.4,0.3,0.7,0.6,1.1
		c8,11.2,18.5,18.7,31.6,22.9c2.3,0.7,2.3,0.7,2.3-1.8c0-0.7,0-1.5,0-2.2c0-0.4,0-0.7,0.2-1c0.6-0.6,0.5-1.3,0.5-2
		c0-3.7-0.1-7.3,0-11c0-1.8-0.2-3.4-1-5c-0.5-0.8-0.9-1.2-1.9-1.2C53,121.8,47.9,121.8,42.6,121.8z M82.4,132.9c0-2.2,0-4.3,0-6.5
		c0-1.6-0.9-2.9-1.6-4.3c-0.1-0.3-0.5-0.4-0.7-0.4c-2.8,0-5.6,0-8.4,0c-0.4,0-0.7,0.1-0.7,0.4c-0.6,1.4-1.5,2.7-1.5,4.4
		c0.1,4.2,0,8.3,0,12.6c0,0.4-0.1,0.9,0.1,1.1c0.9,0.9,0.6,2.1,0.7,3.1c0,1.3,0,2.7,0,4c0,0.7,0.3,0.9,0.9,0.9
		c3.2,0.3,6.5,0.3,9.7,0c0.7-0.1,0.9-0.4,0.9-1c0-1.8,0-3.6,0-5.3c0-0.3-0.1-0.7,0.1-0.9c1-1,0.6-2.2,0.7-3.4
		C82.4,136.1,82.4,134.5,82.4,132.9z M88.9,34.6c-0.6,1.9,0.4,3.7,0.4,5.6c0,6.3,0,12.6,0,18.7c0,0.4-0.1,0.9,0.1,1.1
		c0.7,0.7,0.6,1.4,0.6,2.2c0,4.7,0,9.5,0,14.2c0,0.7,0.1,1.2,0.6,1.8c2.2,2.4,4.6,4.7,7,6.8c0.3,0.3,0.5,0.6,1,0.6
		c0-0.4,0-0.7,0-1.2c0-7.1,0-14.2,0-21.4c0-0.9-0.2-1.7-0.7-2.4c-2.7-5-4.9-10.2-6.6-15.7C90.4,41.5,89.7,38.1,88.9,34.6z
		 M53.1,86.2c3.1-2.5,5.6-5.2,8.2-7.9c0.3-0.4,0.4-0.7,0.4-1.2c0.4-5.9-0.8-11.8,0.7-17.6c0.2-8.2-0.5-16.4,0.5-24.7
		c-0.2,0.2-0.2,0.4-0.3,0.6c-1.7,9-4.7,17.5-9.1,25.6C53.1,61.6,53,62.2,53,63c0,7.1,0,14.2,0,21.4C53.1,84.9,53.1,85.4,53.1,86.2z
		 M61.9,100.9c0,3.9,0,8,0,11.9c0,1,0.4,1.4,1.4,1.3c1.5-0.1,2.9-0.1,4.4,0c0.8,0,1.1-0.3,1.1-1.1c0-0.8,0-1.7,0-2.4
		c0-7,0-14.1,0-21c0-1.7,0-1.7-1.7-1.7c-1.3,0-2.6,0.1-3.9,0c-1-0.1-1.3,0.4-1.3,1.3C61.9,93,61.9,96.9,61.9,100.9z M83.1,100.8
		c0,4,0,8.1,0,12.1c0,0.8,0.2,1.3,1.2,1.2c1.5-0.1,3-0.1,4.5,0c0.9,0,1.1-0.4,1.1-1.2c0-2.1,0-4.2,0-6.3c0-5.8,0-11.5,0-17.3
		c0-1.5,0-1.5-1.6-1.5c-1.3,0-2.6,0.1-3.9,0c-1-0.1-1.4,0.4-1.3,1.4C83.1,93,83.1,96.8,83.1,100.8z M24,57.6c0-0.1,0-0.2,0-0.3
		c3.4,0,6.7,0,10,0c0.8,0,1.7,0,2.6-0.1c2.1-0.5,3.1-2.1,2.6-4.1c-0.4-1.7-2.2-2.8-4-2.2c-0.7,0.2-1.1,0.1-1.4-0.7
		c-0.7-2.1-2.2-3.3-4.3-3.5c-2.3-0.2-4.3,0.7-5.4,2.7c-0.4,0.7-0.7,0.9-1.6,0.7c-2.1-0.6-4.2,0.9-4.6,2.8c-0.4,2.4,1,4.5,3.4,4.6
		C22.2,57.6,23.1,57.6,24,57.6z M51.6,64.6c-0.1,0.1-0.2,0.2-0.3,0.3c-2,3.2-4,6.2-6.4,9.1c-0.4,0.4-0.5,0.8-0.5,1.4
		c0,5.3,0,10.6,0,15.9c0,0.8,0.2,1.1,0.9,0.6c1.9-1.2,3.6-2.6,5.3-3.9c0.7-0.5,0.9-1,0.9-1.9c0-6.8,0-13.7,0-20.5
		C51.8,65.2,51.9,64.9,51.6,64.6z M100,64.5c0,7.3,0,14.6,0,21.9c0,0.5,0.2,0.8,0.6,1.1c1.9,1.4,3.8,2.8,5.7,4.2
		c0.2,0.2,0.5,0.5,0.7,0.3c0.4-0.2,0.2-0.6,0.2-0.8c0-5.2,0-10.6,0-15.8c0-0.6-0.1-1-0.4-1.4C104.4,71,102.3,67.8,100,64.5z
		 M76,38.2c1.7,0,3.4,0,5.1,0c0.7,0,1.1-0.2,1.2-0.9c0.4-2.6,0.8-5.2,1.2-7.8c0.1-0.8-0.2-1.2-1.1-1.3c-4.3-0.4-8.5-0.4-12.8,0
		c-1,0.1-1.4,0.5-1.2,1.4c0.4,2.5,0.8,5.1,1.2,7.6c0.1,0.8,0.6,1.1,1.4,1C72.6,38.1,74.3,38.2,76,38.2z M108.9,76.5
		c-0.1,0.3-0.2,0.4-0.2,0.4c0,5.2,0,10.5,0,15.7c0,0.4,0.1,0.7,0.5,1c2.2,1.3,4.3,2.6,6.6,3.7c0.1-0.2,0.1-0.3,0.1-0.4
		c0-4.1,0-8.2,0-12.4c0-0.4,0-0.7-0.3-0.9C113.2,81.4,111.1,79,108.9,76.5z M42.9,76.6c-2.2,2.5-4.4,4.8-6.7,7.1
		c-0.3,0.3-0.3,0.7-0.3,1c0,3.9,0,7.9,0,11.8c0,0.8,0.3,0.9,0.9,0.6c1.8-1,3.5-2,5.2-2.9c0.8-0.5,1.1-0.9,1.1-1.9
		c0-4.9,0-9.7,0-14.5C43.1,77.3,43.3,77,42.9,76.6z M88.8,74.1c0-3.1,0-6.2,0-9.2c0-3.2,0-3.2-3.2-3.2c-0.9,0-1.2,0.4-1.2,1.2
		c0,7.4,0,14.8,0,22.2c0,0.8,0.2,1.3,1.2,1.2c0.7-0.1,1.3-0.1,2,0c0.9,0.1,1.2-0.4,1.2-1.2C88.7,81.5,88.8,77.8,88.8,74.1z
		 M90.1,79.7c0,2.2,0,4,0,5.8c0,0.3,0,0.7,0.3,0.7c1.3,0.2,1,1.1,1,2c0,8.2,0,16.4,0,24.6c0,1.1,0.5,1.3,1.4,1.3s1.4-0.2,1.4-1.3
		c0-9.4,0-18.7,0-28c0-0.5,0-0.9-0.4-1.3C92.7,82.3,91.5,81.1,90.1,79.7z M61.8,80.2c-0.1-0.1-0.2-0.2-0.4-0.3c-0.9,1-1.8,2.1-2.8,3
		c-0.7,0.7-1,1.4-1,2.4c0,7.6,0,15.3,0,22.9c0,1.5,0,3.1,0,4.6c0,0.5,0,0.8,0.6,1c1.6,0.5,2.2-0.1,2.2-1.7c0-8.1,0-16.1,0-24.2
		c0-0.7-0.3-1.7,1-1.9c0.4,0,0.3-0.5,0.3-0.8C61.8,83.7,61.8,82,61.8,80.2z M117.4,85.2c-0.1,0.3-0.2,0.4-0.2,0.5
		c0,3.9,0,7.8,0,11.7c0,0.6,0.3,0.8,0.7,1c1.8,0.7,3.7,1.6,5.4,2.3c0.8,0.4,1,0.1,1-0.7c0-2.7,0-5.5,0-8.2c0-0.7-0.3-1.2-0.8-1.6
		c-1.2-0.8-2.3-1.8-3.5-2.6C119.3,86.8,118.5,86.1,117.4,85.2z M34.6,85.2c-2.4,1.9-4.6,3.7-6.7,5.3c-0.4,0.3-0.5,0.7-0.5,1
		c0,2.9,0,5.7,0,8.6c0,0.7,0.2,0.9,0.9,0.7c1.9-0.8,3.7-1.6,5.6-2.3c0.4-0.2,0.7-0.4,0.7-0.8C34.6,93.6,34.6,89.5,34.6,85.2z
		 M95.9,85.5c-0.1,0.3-0.1,0.4-0.1,0.5c0,9,0,18,0,27.1c0,1.4,0.9,0.9,1.6,1c0.8,0.1,1.3-0.1,1.3-1.1c0-8.2,0-16.2,0-24.4
		c0-0.4,0-0.7-0.4-1.1C97.6,86.9,96.8,86.2,95.9,85.5z M56.1,99.8c0-4.2,0-8.5,0-12.7c0-0.3,0-0.7,0-0.9c0-0.2-0.1-0.4-0.4-0.3
		c-0.8,0.2-2.5,2.3-2.5,3.3c0,7.9,0,15.7,0,23.6c0,1.1,0.4,1.4,1.4,1.4c1,0,1.6-0.1,1.6-1.4C56,108.4,56.1,104.2,56.1,99.8z
		 M83.7,133.3c0,2.1,0,4.2,0,6.3c0,0.8,0.2,1.1,1,1.1c1.1,0,2.2,0,3.3,0c0.7,0,1-0.3,1-1c0-4.2,0-8.3,0-12.6c0-0.7-0.4-1-1.1-1
		c-1,0-2.2,0-3.2,0c-0.8,0-1.1,0.3-1.1,1.1C83.7,129.2,83.7,131.2,83.7,133.3z M67.9,133.4c0-2.1,0-4.2,0-6.3c0-0.7-0.2-1.2-1-1.1
		c-1.1,0.1-2.2,0-3.3,0c-0.7,0-0.9,0.3-0.9,1c0,4.2,0,8.4,0,12.7c0,0.7,0.3,1,1,0.9c1,0,2.2,0,3.2,0c0.8,0,1.2-0.4,1.1-1.2
		C67.9,137.4,67.9,135.5,67.9,133.4z M78.7,76.7c0,2.3,0,4.7,0,6.9c0,2.8,0,2.7,2.8,2.8c1,0,1.4-0.4,1.3-1.4c0-4.4,0-8.7,0-13.1
		c0-0.5,0-1-0.3-1.5c-0.7-1-1.4-2-2.1-3c-0.4-0.6-0.8-0.6-1.3-0.5c-0.6,0.1-0.5,0.7-0.5,1C78.7,70.9,78.7,73.8,78.7,76.7z
		 M73.1,76.7c0-2.9,0-5.7,0-8.6c0-0.4,0.2-0.9-0.4-1.1c-0.6-0.2-1,0.1-1.4,0.6c-0.5,0.7-0.9,1.5-1.4,2.2c-0.7,0.9-0.9,1.9-0.9,3.1
		c0.1,3.6,0,7.1,0,10.8c0,3.4-0.5,2.8,3,2.9c0.9,0,1.2-0.3,1.2-1.2C73.1,82.3,73.1,79.5,73.1,76.7z M132.5,72L132.5,72
		c1.7,0,3.4,0,5.1,0c1.5,0,2.5-1.3,2.3-2.6c-0.2-1.5-1.6-2.4-3-2.2c-0.7,0.2-1,0.1-1.3-0.5c-0.8-1.4-2-2-3.6-1.8
		c-1.5,0.2-2.4,1-2.9,2.4c-0.2,0.7-0.5,0.8-1.2,0.7c-1.4-0.3-2.5,0.5-2.7,1.8c-0.1,1.2,0.8,2.2,2.3,2.2
		C129.3,72.1,130.9,72,132.5,72z M100.2,89.1c-0.1,0.2-0.2,0.3-0.2,0.4c0,7.9,0,15.8,0,23.7c0,1.4,1,0.8,1.7,0.9
		c0.8,0.1,1.2-0.2,1.2-1c0-7,0-14,0-21c0-0.5,0-0.8-0.4-1.1C101.8,90.3,101,89.7,100.2,89.1z M51.8,101.5c0-3.7,0-7.6,0-11.3
		c0-0.3,0.3-0.9-0.4-0.8c-1,0.2-2.5,2.1-2.5,3.2c0,6.7,0,13.5,0,20.2c0,1.2,0.5,1.3,1.5,1.3c0.9,0,1.5-0.1,1.5-1.3
		C51.8,109,51.8,105.3,51.8,101.5z M68.2,52.1c0,2.3,0,4.7,0,7.1c0,0.8,0.3,1.2,1.2,1.1c1.1-0.1,2.2,0,3.3,0c1.6,0,2.7-1.8,2.1-3.3
		c-1.9-3.9-3.5-8.1-4.7-12.2c-0.2-0.6-0.5-1-1.1-0.9c-0.8,0.1-0.7,0.7-0.7,1.2C68.2,47.5,68.2,49.8,68.2,52.1z M83.6,52.2
		c0-2.2,0-4.6,0-6.8c0-0.6,0.3-1.3-0.7-1.4c-0.8-0.2-1,0.5-1.2,1.1c-1.2,4-2.7,8.1-4.5,11.9c-0.7,1.7,0.4,3.5,2.2,3.5
		c0.9,0,1.9-0.1,2.8,0c1,0.1,1.4-0.3,1.4-1.3C83.6,56.8,83.6,54.5,83.6,52.2z M47.6,103.3c0-3.4,0-6.7,0-10c0-0.3,0.3-0.8-0.4-0.7
		c-1.1,0.2-2.5,1.9-2.5,3c0,5.8,0,11.6,0,17.3c0,1.3,0.7,1.2,1.6,1.2c0.9,0,1.5-0.1,1.4-1.2C47.5,109.7,47.6,106.5,47.6,103.3z
		 M88,49.9c0-3.1-0.1-6.2,0-9.2c0-1.1-0.6-1.2-1.4-1.2c-0.9,0-1.6,0-1.5,1.3c0.1,6.1,0.1,12.3,0,18.5c0,1.3,0.7,1.2,1.6,1.2
		s1.4-0.2,1.4-1.3C88,56.1,88,53,88,49.9z M63.8,50c0,3.1,0,6.2,0,9.2c0,1.1,0.5,1.3,1.4,1.2c0.9,0,1.6,0,1.6-1.2
		c-0.1-6.2-0.1-12.3-0.1-18.5c0-1.3-0.7-1.2-1.6-1.2s-1.4,0.1-1.4,1.2C63.8,43.8,63.8,46.9,63.8,50z M126,96.7c0,1.3,0,2.7,0,4
		c0,0.7,0.3,1,0.8,1.2c1.8,0.6,3.7,1.1,5.4,1.7c0.7,0.2,0.9,0.1,0.9-0.7c0-2,0-3.8,0-5.8c0-0.7-0.3-1-0.7-1.3
		c-1.9-1.1-3.7-2.2-5.5-3.5c-0.7-0.5-0.9-0.2-0.9,0.6C126,94.2,126,95.5,126,96.7z M25.9,96.9c0-1.3,0-2.6,0-3.9
		c0-0.7-0.2-1-0.9-0.6c-1.8,1.2-3.7,2.3-5.5,3.5c-0.6,0.4-0.8,0.7-0.8,1.4c0,1.9,0,3.7,0,5.5c0,0.7,0.2,1,0.9,0.7
		c1.8-0.6,3.7-1.1,5.4-1.7c0.7-0.2,0.8-0.6,0.8-1.2C25.9,99.6,25.9,98.2,25.9,96.9z M75.9,56.2c1.8-3.8,3.2-7.6,4.3-11.3
		c0.2-0.7,0.1-1-0.7-1c-2.5,0-5.1,0-7.6,0c-0.6,0-0.7,0.3-0.6,0.8C72.7,48.7,74.1,52.4,75.9,56.2z M73.1,103.9c0-3,0-6.1,0-9.1
		c0-1-0.4-1.3-1.3-1.2c-0.8,0-1.7-0.2-1.7,1.2c0,6.1,0.1,12.1,0,18.2c0,1.4,0.8,1.1,1.7,1.1c0.9,0.1,1.4-0.1,1.3-1.2
		C73.1,109.9,73.1,106.9,73.1,103.9z M74.4,103.8c0,3,0,6.1,0,9.1c0,1.1,0.5,1.3,1.4,1.3c0.8,0,1.6,0.1,1.6-1.2
		c-0.1-6-0.1-12,0-17.9c0-1.1-0.5-1.4-1.5-1.4c-0.9,0-1.5,0.1-1.5,1.3C74.5,97.9,74.4,100.8,74.4,103.8z M78.7,103.8
		c0,3.1,0,6.2,0,9.2c0,1.1,0.7,1.1,1.4,1.1c0.7,0,1.6,0.2,1.6-1.1c0-6.1,0-12.1,0-18.2c0-1.2-0.7-1.2-1.5-1.2s-1.5,0-1.5,1.2
		C78.7,97.8,78.7,100.8,78.7,103.8z M77.4,76.8c0-2.9-0.1-5.7,0-8.6c0-1.1-0.5-1.3-1.4-1.2c-0.8,0-1.6,0-1.6,1.2
		c0.1,5.6,0.1,11.3,0,17c0,1.1,0.5,1.3,1.4,1.2c0.8,0,1.6,0.1,1.6-1.2C77.3,82.4,77.4,79.6,77.4,76.8z M104.4,103.1
		c0,3.2,0,6.5,0,9.7c0,0.4-0.1,0.8,0.4,1.1c1.2,0.7,2.4-0.1,2.4-1.5c0-5.4-0.1-11,0-16.4c0-1.5-0.4-2.5-1.8-3.2
		c-0.3-0.1-0.6-0.6-0.9-0.4c-0.2,0.1-0.1,0.6-0.1,0.9C104.4,96.7,104.4,99.9,104.4,103.1z M86.4,115.4c-1.4,0-2.8,0-4.2,0
		c-0.7,0-1.2,0.2-1.1,1c0.1,0.9,0,1.9,0,2.8c0,0.7,0.3,1,0.9,1c2.9,0,5.9,0,8.8,0c0.7,0,0.9-0.4,0.9-1c0-0.8-0.1-1.7,0-2.6
		c0.1-0.9-0.3-1.3-1.2-1.3C89.2,115.5,87.8,115.4,86.4,115.4z M63.1,75.9c0.1,0,0.2,0,0.3,0.1c0.5-0.6,0.9-1.2,1.5-1.8
		c2.1-2.1,3.1-4.4,2.6-7.3c-0.1-0.7,0-1.3,0-2c-0.1-3.7,0.7-3.1-3.4-3.2c-0.7,0-0.9,0.3-0.9,1c0,1.3,0,2.7,0,4
		C63.1,69.7,63.1,72.8,63.1,75.9z M108.7,104.5c0,2.8,0,5.6,0,8.3c0,0.4-0.1,0.9,0.3,1c0.7,0.3,1.4,0.3,2.1,0
		c0.7-0.2,0.4-0.8,0.4-1.3c0-4.7-0.1-9.4,0.1-14.1c0-1.5-0.4-2.3-1.7-2.9c-0.8-0.4-1.1-0.5-1.1,0.7
		C108.7,99,108.7,101.7,108.7,104.5z M76,92.2c0.8,0,1.7,0,2.4,0c3.7-0.1,3.1,0.7,3.2-3.3c0-0.8-0.3-1.1-1.1-1.1c-2.4,0-4.9,0-7.3,0
		c-3.7,0.1-3-0.7-3.1,3.3c0,0.7,0.3,1,1,1C72.8,92.1,74.4,92.2,76,92.2z M43.1,104.5c0-2.8,0-5.6,0-8.4c0-0.3,0.2-0.7-0.4-0.8
		c-0.8-0.1-2.4,1.6-2.4,2.4c0,5,0,10,0,15c0,1.1,0.5,1.3,1.4,1.3c1,0,1.5-0.2,1.5-1.4C43.1,110,43.1,107.2,43.1,104.5z M113,105.7
		c0,2.4,0.1,4.8,0,7.2c-0.1,1.3,0.7,1.2,1.5,1.2c0.9,0,1.4-0.1,1.4-1.2c-0.1-4.2,0-8.5,0-12.7c0-0.7-0.2-1.3-0.9-1.6
		c-0.4-0.2-0.7-0.4-1.1-0.6c-0.7-0.4-0.8-0.3-0.8,0.5C113,100.9,113,103.2,113,105.7z M38.9,105.8c0-2.4,0-4.8,0-7.2
		c0-0.3,0.2-0.7-0.4-0.8c-0.8-0.1-2.5,1.4-2.5,2.2c0,4.3,0,8.6,0,13c0,1.2,0.7,1.1,1.4,1.1c0.8,0,1.6,0.1,1.5-1.1
		C38.8,110.6,38.9,108.2,38.9,105.8z M67.5,73.1c-0.7,0.8-1,1.5-1.5,1.9c-2.6,2.2-3.1,5-2.9,8.2c0.3,3.7-0.7,3.1,3.5,3.2
		c0.7,0,0.9-0.3,0.9-1C67.5,81.5,67.5,77.4,67.5,73.1z M75.9,22.9c2.2,0,4.6-0.1,6.8,0c1.2,0,1.3-0.7,1.3-1.5c0-0.9-0.3-1.3-1.3-1.3
		c-4.6,0-9.2,0-13.9,0c-0.9,0-1.3,0.4-1.2,1.2c0.1,0.8,0,1.7,1.3,1.6C71.3,22.8,73.6,22.9,75.9,22.9z M117.3,106.9
		c0,2.1,0,4.1,0,6.3c0,1.1,0.7,1,1.4,1s1.6,0.3,1.5-1c0-3.7,0-7.5,0-11.3c0-0.6-0.3-0.9-0.7-1.1s-0.8-0.4-1.3-0.6
		c-0.7-0.4-0.8-0.2-0.8,0.6C117.3,102.7,117.3,104.7,117.3,106.9z M34.6,107c0-2.1,0-4.1,0-6.1c0-0.3,0.2-0.7-0.3-0.8
		c-0.8-0.2-2.6,1.2-2.6,2.1c0,3.7,0,7.3,0,11c0,1.1,0.6,1.1,1.4,1.1c0.7,0,1.6,0.2,1.6-1.1C34.5,111,34.6,108.9,34.6,107z M75,39.5
		c-1.8,0-3.6,0.1-5.3,0c-1.1-0.1-1.5,0.3-1.5,1.5c0,1.1,0.3,1.5,1.5,1.5c3.2-0.1,6.4,0,9.6,0c1.9,0,1.9,0,2.2-1.9
		c0.2-0.8,0-1.1-0.8-1.1C78.8,39.5,76.9,39.5,75,39.5z M86.5,142.1c-0.8,0-1.7,0-2.6,0c-0.7,0-0.9,0.3-0.9,1c0,1.4,0,2.7,0,4.1
		c0,0.7,0.3,0.9,1,0.8c1.5-0.3,3-0.7,4.5-0.7c1.1-0.1,1.5-0.7,1.4-1.8C89.9,142.1,89.9,142.1,86.5,142.1z M66.3,29.2
		c0-2.7,0-5.3,0-8.1c0-0.7-0.1-1.2-1-1.2s-1,0.5-1,1.2c0,5.2,0,10.5,0,15.8c0,0.7,0.1,1.1,0.9,1.1c0.8,0,1-0.4,1-1.1
		C66.3,34.4,66.3,31.9,66.3,29.2z M85.6,29.2c0,2.6,0,5.2,0,7.9c0,0.7,0.1,1.1,0.9,1.1s1-0.4,1-1.1c0-5.2,0-10.5,0-15.8
		c0-0.7-0.1-1.2-1-1.2s-1,0.5-1,1.2C85.6,23.8,85.6,26.4,85.6,29.2z M65.3,142.1c-3.4,0-3.4,0-3.4,3.4c0,0.2,0,0.3,0,0.5
		c-0.1,0.7,0.3,1.1,0.9,1.2c1,0.2,2.1,0.5,3.1,0.6c2.9,0.4,2.7,1,2.7-2.2C68.7,142.1,68.7,142.1,65.3,142.1z M77.7,65.6
		c0.8,0,1.7,0,2.6,0c2.9-0.1,2.6,0.7,2.6-2.8v-0.1c0-0.7-0.3-0.9-0.9-0.9c-1.2,0-2.5,0-3.7,0c-3.5,0-3.5,0-5.1,3c0,0,0,0.1-0.1,0.1
		c-0.5,0.7-0.1,0.7,0.5,0.7C74.9,65.5,76.3,65.5,77.7,65.6z M30.3,107.9c0-1.7,0-3.5,0-5.2c0-0.3,0.2-0.7-0.4-0.9
		c-0.7-0.2-2.6,1-2.6,1.8c0,3.2,0,6.3,0,9.5c0,1.2,0.8,1,1.5,1s1.5,0.2,1.4-0.9C30.3,111.4,30.3,109.6,30.3,107.9z M76,24.3
		c-2.3,0-4.7,0-7.1,0c-0.7,0-1.3,0-1,0.9c0.2,0.7-0.1,1.7,1.2,1.5c4.5-0.7,9.1-0.6,13.6,0c1.4,0.2,1-0.9,1.2-1.7
		c0.2-0.8-0.5-0.8-1-0.8C80.6,24.3,78.4,24.3,76,24.3z M121.7,107.9c0,1.6,0.1,3.2,0,4.9c-0.1,1.1,0.5,1.4,1.5,1.4s1.4-0.3,1.4-1.3
		c-0.1-2.8-0.1-5.6,0-8.3c0.1-1.3-0.4-2-1.7-2.3c-0.8-0.3-1.2-0.2-1.2,0.7C121.8,104.5,121.7,106.2,121.7,107.9z M25.9,108.8
		c0-1.5,0-2.9,0-4.4c0-0.4,0.1-0.7-0.3-0.9c-0.6-0.4-2.5,0.7-2.5,1.5c0,2.7,0,5.4,0,8.2c0,1.1,0.7,1,1.4,1c0.7,0,1.4,0.1,1.4-1
		C25.9,111.7,25.9,110.2,25.9,108.8z M126,108.7c0,1.4,0.1,2.7,0,4.1c-0.1,1.1,0.4,1.3,1.4,1.3c0.9,0,1.5-0.2,1.4-1.3
		c-0.1-2.3,0-4.7,0-6.9c0-1.8,0-1.8-1.8-2.3c-0.7-0.2-1,0-1,0.7C126,105.7,126,107.2,126,108.7z M86.4,121.8L86.4,121.8
		c-1.1,0-2.2,0-3.4,0c-0.6,0-0.7,0.2-0.5,0.7c0.7,2.1,0.8,2.2,3.1,2.2c0.6,0,1.2,0,1.8,0c2.1,0,2.3-0.2,3-2.2c0.2-0.7,0-0.7-0.6-0.7
		C88.7,121.8,87.5,121.8,86.4,121.8z M65.3,121.8c-1.1,0-2.2,0-3.3,0c-0.5,0-0.7,0.1-0.6,0.7c0.4,1.8,1,2.2,2.8,2.2
		c0.7,0,1.4,0,2.2,0c2,0,2.2-0.2,2.9-2.2c0.2-0.7,0-0.7-0.6-0.8C67.5,121.8,66.4,121.8,65.3,121.8z M21.2,113.9
		c0.1,0,0.3-0.1,0.4-0.1c0-2.9,0-5.7,0-8.6c0-0.2,0-0.4-0.3-0.5c-0.9-0.4-2.7,0.8-2.6,1.8C18.8,109.3,20.2,111.6,21.2,113.9z
		 M130.3,113.7c1.3-2,2.1-4.1,2.8-6.3c0.2-0.5,0.1-1,0.1-1.5c0-0.6-2.2-1.6-2.7-1.2c-0.1,0.1-0.2,0.4-0.2,0.6
		C130.3,108.1,130.3,110.9,130.3,113.7z M71.2,61.7c-2.3,0-2.2-0.3-2.2,2.2c0,0.2,0,0.3,0,0.5c0,0.5-0.2,1,0.5,1.1s1.3,0.3,1.8-0.5
		c0.3-0.5,0.7-1,0.9-1.5c0.3-0.6,1-1.1,0.7-1.6C72.5,61.4,71.7,61.9,71.2,61.7z M51.6,115.4c-2.5,0-2.5,0-1.3,2.1
		c0.4,0.7,0.6,1.7,1.2,1.7c0.6,0,0.8-1.1,1.2-1.8C54,115.4,54,115.4,51.6,115.4z M32.3,115.4c-1.5,0-2.8,0-4,0
		c-0.6,0-0.6,0.3-0.4,0.7c0.6,0.9,1.1,1.9,1.7,2.9c0.2,0.3,0.5,0.6,0.7,0.1C30.9,117.9,31.6,116.7,32.3,115.4z M44.4,115.4
		c-2.5,0-2.5,0-1.3,2.2c0.4,0.7,0.6,1.7,1.2,1.7c0.6,0,0.7-1,1.1-1.7c0.4-0.7,1.2-1.3,0.8-2C46,115.1,45.1,115.5,44.4,115.4z
		 M66.1,115.4c-0.7,0.1-1.8-0.4-2.2,0.2c-0.4,0.6,0.5,1.3,0.8,2c1.2,2.1,1.2,2.1,2.3,0c0.4-0.7,1.2-1.3,0.8-2
		C67.8,115.1,66.7,115.5,66.1,115.4z M99.6,115.4c-2.4,0-2.4,0-1.2,2.1c0,0,0,0.1,0.1,0.1c0.4,0.6,0.6,1.7,1.1,1.7
		c0.7,0,0.8-1,1.2-1.7C102.1,115.4,102.1,115.4,99.6,115.4z M106.8,115.4c-0.7,0.2-1.7-0.4-2.1,0.3c-0.3,0.6,0.5,1.2,0.8,1.9
		c1.2,2.2,1.2,2.2,2.4,0c0.4-0.6,1.1-1.3,0.8-1.8C108.6,115,107.6,115.5,106.8,115.4z M114.1,115.4c-0.7,0.1-1.8-0.4-2.1,0.3
		c-0.3,0.5,0.6,1.2,0.8,1.8c1.2,2.2,1.2,2.2,2.4,0c0.4-0.6,1.1-1.3,0.8-1.9C115.8,115,114.8,115.6,114.1,115.4z M37,115.4
		c-0.7,0.1-1.7-0.4-2,0.2c-0.3,0.6,0.6,1.3,0.9,1.9c0.4,0.6,0.6,1.7,1.1,1.7c0.7,0,0.8-1.1,1.2-1.7C39.5,115.4,39.5,115.4,37,115.4z
		 M123.7,115.4c-1.5,0-2.8,0-4.1,0c-0.6,0-0.6,0.3-0.3,0.7c0.6,0.9,1.1,1.9,1.7,2.8c0.2,0.3,0.4,0.6,0.7,0.1
		C122.2,117.9,122.9,116.7,123.7,115.4z M58.7,115.4c-0.6,0.1-1.6-0.4-1.9,0.2c-0.4,0.7,0.5,1.3,0.8,2c0.4,0.6,0.6,1.7,1.1,1.7
		c0.7,0,0.8-1,1.2-1.7C61.2,115.4,61.2,115.4,58.7,115.4z M70.8,115.4c0.7,1.3,1.4,2.4,2.1,3.5c0.3,0.6,0.6,0.5,0.8,0
		c0.6-0.9,1-1.9,1.6-2.8c0.3-0.5,0.2-0.7-0.5-0.7C73.5,115.4,72.3,115.4,70.8,115.4z M76.7,120.3c0.7-0.1,1.7,0.3,2.1-0.2
		c0.4-0.7-0.5-1.3-0.8-2c-1.1-2-1.1-2-2.3,0c-0.4,0.6-1.1,1.2-0.8,1.9C75.1,120.7,76,120.2,76.7,120.3z M40.7,120.3
		c2.4,0,2.4,0,1.2-2.1c-0.4-0.6-0.6-1.6-1.1-1.6c-0.7,0-0.8,1-1.2,1.7C38.2,120.4,38.1,120.3,40.7,120.3z M124.8,116.2
		c-0.7,1.3-1.4,2.4-2.1,3.6c-0.3,0.5-0.1,0.7,0.4,0.7c1,0,2.1,0,3.1,0c0.7,0,0.7-0.3,0.5-0.8C126.2,118.4,125.6,117.4,124.8,116.2z
		 M96.1,116.2c-0.7,1.2-1.3,2.2-2,3.4c-0.3,0.5-0.1,0.7,0.5,0.7c1,0,2.1,0,3.1,0c0.6,0,0.7-0.2,0.4-0.7
		C97.4,118.5,96.8,117.5,96.1,116.2z M69.5,116.2c-0.7,1.2-1.3,2.2-1.9,3.3c-0.3,0.6-0.2,0.8,0.5,0.8c1,0,2.1,0,3.1,0
		c0.5,0,0.7-0.2,0.5-0.7C70.9,118.6,70.3,117.5,69.5,116.2z M48,116.2c-0.3,0.5-0.5,0.8-0.7,1.1c-0.4,1-1.8,2.1-1.3,2.8
		c0.6,0.7,2.2,0.2,3.3,0.2h0.1c0.7,0,0.7-0.3,0.5-0.8C49.3,118.4,48.6,117.4,48,116.2z M33.5,116.2c-0.7,1.3-1.4,2.3-2.1,3.5
		c-0.3,0.5,0,0.7,0.4,0.7c1,0,2.1,0,3.1,0c0.7,0,0.7-0.3,0.5-0.8C34.9,118.4,34.3,117.4,33.5,116.2z M62.4,120.3
		c0.6-0.2,1.6,0.4,2-0.3c0.3-0.6-0.5-1.1-0.7-1.7c-0.4-0.7-0.6-1.7-1.2-1.7s-0.8,1.1-1.2,1.7C60,120.3,60,120.3,62.4,120.3z
		 M103.2,120.3L103.2,120.3c0.7-0.1,1.8,0.4,2.1-0.2c0.4-0.6-0.5-1.2-0.7-1.8c-0.4-0.6-0.6-1.7-1.1-1.7c-0.7,0-0.9,1.1-1.3,1.8
		C100.8,120.3,100.8,120.3,103.2,120.3z M117.8,120.3c0.6-0.1,1.5,0.4,1.9-0.3c0.4-0.6-0.5-1.2-0.7-1.9c-1.2-2.1-1.2-2.1-2.3,0
		C115.3,120.3,115.3,120.3,117.8,120.3z M110.5,116.2c-0.7,1.2-1.3,2.2-2,3.3c-0.3,0.5-0.2,0.7,0.4,0.7c1,0,2.2,0,3.2,0
		c0.5,0,0.7-0.2,0.4-0.7C111.8,118.6,111.3,117.5,110.5,116.2z M55.2,116.2c-0.7,1.2-1.3,2.2-1.9,3.3c-0.3,0.6-0.2,0.8,0.5,0.8
		c0.9,0,2,0,2.9,0c0.7,0,0.7-0.3,0.5-0.8C56.4,118.4,55.9,117.4,55.2,116.2z M26.5,120.4c0.7-0.2,1.5,0.3,1.9-0.3
		c0.3-0.5-0.5-1.1-0.7-1.7c-0.1-0.1-0.1-0.2-0.2-0.3c-1.1-1.9-1.1-1.9-2.2,0c-0.4,0.6-1.1,1.1-0.7,1.9
		C24.9,120.7,25.9,120.2,26.5,120.4z M128,118.7c0.5-0.9,0.9-1.8,1.4-2.6c0.3-0.6,0-0.7-0.5-0.7c-0.8,0-1.7,0.1-2.5,0.1
		c0,0.8,0.7,1.4,1,2.2C127.6,117.9,127.8,118.2,128,118.7z M23.5,115.4c-0.5,0.3-1.1-0.4-1.4,0.5c-0.1,0.3,1.1,2.2,1.3,2.2
		c0.2,0,1.5-2,1.4-2.2C24.6,115,24,115.6,23.5,115.4z"/>
</g>
</svg>
