<?xml version="1.0" encoding="utf-8"?>
<!-- Generator: Adobe Illustrator 22.0.1, SVG Export Plug-In . SVG Version: 6.00 Build 0)  -->
<svg version="1.1" id="Layer_1" xmlns="http://www.w3.org/2000/svg" xmlns:xlink="http://www.w3.org/1999/xlink" x="0px" y="0px"
	 viewBox="0 0 150 150" style="enable-background:new 0 0 150 150;" xml:space="preserve">
<style type="text/css">
	.st0{fill:#FFFFFF;}
</style>
<path class="st0" d="M69.3,27.8c3.5-0.3,7-0.3,10.8,0c-0.7-1-1.6-0.9-2.3-1c-0.5-0.1-0.9-0.1-0.8-0.8c0-0.7,0.5-0.6,1-0.6
	c0.2,0,0.5,0.1,0.7,0c0.5-0.1,1.2,0.8,1.4-0.3c0.3-1.5,0-2.2-1-2.4c-0.4-0.1-0.9-0.2-1.3-0.2c-0.5-0.1-0.8-0.3-0.8-0.8
	c0-0.6,0.4-0.7,0.8-0.6c2,0.6,3.9,0.5,6-0.1c0.3-0.1,0.5,0.1,0.8,0.1c1.4,0.2,1.4,0.2,1.4-1.2c0-0.8-0.3-1.1-1.1-1
	c-0.4,0-0.7,0-1.1,0c-0.5,0-1-0.2-0.9-0.8c0-0.6,0.4-0.7,0.9-0.7c2,0,3.9,0,5.9,0c1.7,0,1.7,0,1.7-1.7c0-1.9,0-3.6,0-5.5
	c0-0.9,0.2-1.4,1.2-1.3c0.9,0.1,1.2-0.3,1.2-1.2c0-1.2,0-2.4,0-3.6c0-0.5-0.2-1.2,0.7-1.2c0.8,0,0.8,0.6,0.8,1.2c0,1.2,0,2.4,0,3.6
	c0,0.9,0.3,1.3,1.2,1.3c1.9-0.1,3.6,0,5.5,0c1.1,0,1.4,0.4,1.4,1.4c-0.1,2,0,4,0,6c0,0.9,0.3,1.2,1.2,1.2c2.7,0,5.6,0,8.3,0
	c0.3,0,0.6,0,1,0c0.5,0,0.8,0.2,0.8,0.8c0,0.6-0.4,0.7-0.9,0.7c-0.4,0-0.9,0-1.3,0c-0.8-0.1-1.1,0.3-1.1,1.1
	c-0.1,1.1,0.2,1.5,1.4,1.2c0.6-0.2,1.3-0.3,1.9,0c1.7,0.7,3.2,0.3,4.9,0c0.5-0.1,1-0.1,1.1,0.6c0,0.7-0.4,0.7-0.9,0.8
	c-0.9,0.2-2.1-0.1-2.2,1.4c-0.1,1.7-0.1,1.7,1.6,1.5c0.3,0,0.6,0,0.8,0c0.4,0,0.7,0.2,0.7,0.7c0,0.5-0.3,0.6-0.7,0.7
	c-0.5,0.1-0.9,0.2-1.4,0.3c-0.7,0.1-1,0.5-1,1.2c-0.1,1.7-0.1,1.7,1.6,1.5c0.3,0,0.6,0,1,0c0.3,0,0.5,0.2,0.5,0.5
	c0,0.3,0,0.6-0.4,0.7c-0.5,0.1-1.1,0.2-1.6,0.3c-0.6,0.1-1,0.4-1,1.1c-0.1,1.9-0.1,1.9,1.7,1.6c0.5-0.1,1.2-0.3,1.3,0.5
	c0.1,0.9-0.6,0.9-1.2,0.9c-2.2,0.2-1.9,0.8-1.8,2.6c0,0.5,0.3,0.5,0.8,0.4c0.5-0.1,1.1-0.2,1.7-0.2c0.3,0,0.6,0.1,0.6,0.5
	s0,0.7-0.5,0.8c-0.2,0-0.5,0.1-0.7,0.1c-1.8,0.2-2.3,1-1.9,2.7c0.1,0.5,0.4,0.4,0.7,0.3c0.5-0.2,1.1-0.2,1.7-0.2
	c0.4,0,0.7,0.1,0.7,0.6c0,0.4-0.1,0.7-0.6,0.7c-0.2,0-0.5,0.1-0.7,0.1c-1.7,0.3-2.2,1.1-1.8,2.7c0.1,0.5,0.4,0.4,0.7,0.4
	c0.5-0.1,1.1-0.2,1.6-0.2c0.4,0,0.8,0.1,0.7,0.6c0,0.7,0.4,1.2,0.9,1.6c8,9.5,12.8,20.4,14.3,32.7c0.3,2.4,0.3,4.7,0.5,7.1
	c0,0.7,0.2,1.2,0.9,1.4c0,0,0.1,0,0.1,0.1c1.1,0.6,1.7,1.7,2.5,2.4c0.9,0.7,2.3,0.2,3.3,0.6c2.3,1,3.6,3.3,3.2,5.9
	c-0.4,2.4-2.6,4.4-5.3,4.5c-1.8,0.1-3.5,0.1-5.3,0c-1.1-0.1-1.6,0.3-1.9,1.4c-2.4,9-6.8,17.1-12.9,24.1c-10,11.2-22.3,18-36.9,20.2
	c-17,2.5-32.7-1.4-46.4-11.8C24.7,127.7,17,114.7,14.2,99c-1.8-9.9-0.9-19.7,2.2-29.2c0.3-0.8,0.2-1.2-0.8-1.1s-2.1,0-3,0
	c-1.9-0.1-3.2-1.4-3.3-3.1c-0.1-1.8,1.2-3.2,2.9-3.4c0.6-0.1,1-0.2,1.5-0.6c1.6-1.6,3.6-1.8,5.4-0.5c0.6,0.4,0.8,0.4,1.1-0.3
	c2.3-4.3,4.9-8.2,8-11.9c0.2-0.2,0.5-0.5,0.5-0.8c0.1-1.5,1.1-1.2,2-1.1c0.4,0,1,0.7,1.3-0.2c0.3-0.9,0-2.3-0.7-2.4
	c-0.6-0.2-1.2-0.3-1.9-0.4c-0.4-0.1-0.7-0.3-0.6-0.7c0-0.4,0.3-0.6,0.7-0.6c0.4,0,0.7,0.1,1.1,0c0.5-0.1,1.2,0.9,1.4-0.2
	c0.3-1.5,0-2.2-1-2.4c-0.5-0.1-0.9-0.2-1.4-0.2c-0.5-0.1-0.8-0.3-0.8-0.8c0.1-0.5,0.4-0.6,0.9-0.6c0.3,0,0.6,0.1,0.9,0.1
	c0.5-0.1,1.1,0.7,1.4-0.3c0.3-1.3,0-2.2-0.9-2.4c-0.5-0.1-1-0.2-1.5-0.3c-0.4-0.1-0.8-0.3-0.7-0.8c0-0.6,0.4-0.7,0.9-0.7
	c0.2,0,0.4,0.1,0.6,0.1c0.6-0.1,1.4,0.9,1.7-0.3c0.4-1.6,0-2.3-1.4-2.5c-0.4-0.1-0.7-0.1-1.1-0.2c-0.5-0.1-0.8-0.2-0.7-0.7
	c0-0.6,0.5-0.7,0.9-0.6c0.5,0,1,0.1,1.5,0.3c0.5,0.1,0.7,0,0.7-0.6c0.2-2,0-2.3-2.1-2.5c-0.5-0.1-1.2,0.1-1.1-0.7
	c0.1-0.9,0.8-0.6,1.3-0.6c0.1,0,0.2,0,0.2,0c0.5-0.1,1.2,0.6,1.5,0.1c0.3-0.4,0.1-1.2,0.1-1.7c0-0.6-0.3-0.8-0.8-1
	c-0.6-0.2-1.2-0.2-1.8-0.3c-0.5-0.1-0.7-0.4-0.6-0.8c0-0.5,0.4-0.6,0.8-0.6c0.4,0,0.7,0,1.1,0.1c1.4,0.5,2.6,0.5,3.9,0
	c0.8-0.3,1.6-0.1,2.4,0c0.4,0.1,1,0.3,0.9-0.5c-0.1-0.6,0.5-1.6-0.7-1.8c-0.5-0.1-1,0-1.4,0c-0.5,0-0.9-0.1-0.9-0.7
	c0-0.7,0.4-0.8,0.9-0.8c1.9,0,3.7,0,5.6,0s1.9,0,1.9-2c0-1.8,0-3.5,0-5.3c0-0.9,0.3-1.4,1.2-1.3c1.2-0.2,1.5-0.6,1.4-1.4
	c-0.1-1.2,0-2.3,0-3.4c0.1-0.6-0.3-1.5,0.7-1.5C47.3,3.1,47,4,47,4.6c0,1.2,0,2.3,0,3.4c0,0.8,0.3,1.1,1.1,1.1c1.8,0,3.6,0,5.4,0
	c1.6,0,1.6,0,1.6,1.6c0,1.9,0,3.7,0,5.6c0,1,0.4,1.3,1.3,1.3c2.7,0,5.6,0,8.3,0c0.3,0,0.6,0,1,0c0.4,0,0.7,0.3,0.7,0.7
	c0,0.5-0.2,0.7-0.7,0.8c-0.5,0-1,0.1-1.6,0c-0.8,0-1,0.3-1.1,1.1c0,1.4,0,1.4,1.4,1.2c0.6-0.1,1.3-0.2,1.9,0c1.6,0.6,3,0.4,4.5,0
	c0.5-0.1,1.3-0.4,1.4,0.5s-0.7,0.8-1.2,0.9c-0.8,0.1-1.7,0.1-1.8,1.2c-0.3,1.7,0,1.9,1.7,1.8c0.2,0,0.5,0,0.7,0
	c0.4,0,0.7,0.2,0.7,0.6c0,0.4-0.2,0.7-0.6,0.7c-0.7,0.1-1.3,0.2-2,0.5c-0.1,0.1-0.2,0.2-0.4,0.3C69.3,27.6,69.3,27.7,69.3,27.8z
	 M74.6,29.2L74.6,29.2c-1.6,0-3.1,0-4.7,0c-0.4,0-0.8,0.1-0.7,0.6c0.1,0.5,0.5,0.2,0.8,0.2c0.5-0.1,1.1-0.2,1.7-0.2
	c0.4,0,0.6,0.2,0.6,0.6c0,0.4-0.1,0.6-0.5,0.7c-0.4,0.1-0.9,0.2-1.3,0.2c-1.3,0.3-1.7,1-1.3,2.4c0.3,1.1,1,0.2,1.5,0.3h0.1
	c0.6,0,1.3-0.3,1.4,0.6c0.1,0.8-0.6,0.8-1.2,0.8c-1.9,0.2-2.1,0.5-1.9,2.4c0,0.6,0.2,0.9,0.9,0.7c0.5-0.1,1-0.2,1.5-0.2
	c0.4,0,0.7,0.2,0.7,0.6c0,0.4-0.2,0.7-0.6,0.8c-0.5,0.1-1,0.1-1.4,0.2c-1.1,0.3-1.3,0.8-1.1,2.3c0.2,1.2,0.9,0.4,1.5,0.5
	c0.3,0,0.6,0,0.8,0c0.4,0,0.7,0.1,0.8,0.5c0,0.5-0.2,0.7-0.7,0.8c-0.6,0.1-1.1,0.2-1.6,0.3c-0.7,0.2-1.1,1.4-0.8,2.4
	c0.3,0.9,0.8,0.2,1.3,0.2c0.6,0.1,1.6-0.5,1.8,0.5c0.2,1-0.9,0.8-1.5,0.9c-1.5,0.3-1.8,0.6-1.5,2.4c0.2,1.4,1.2,0.2,1.8,0.4
	c0.1,0,0.3,0,0.5,0c0.4,0,0.8,0.1,0.8,0.6s-0.2,0.7-0.7,0.8c-0.3,0-0.6,0.1-0.8,0.1c-1.5,0.2-1.8,0.7-1.6,2.4
	c0.2,1.4,1.1,0.3,1.7,0.5c0.2,0.1,0.5-0.1,0.7-0.1c0.4,0,0.7,0.1,0.7,0.6c0,0.4-0.1,0.7-0.6,0.8c-0.5,0.1-1.1,0.2-1.6,0.3
	c-0.4,0.1-0.8,0.2-0.8,0.6c-0.1,0.7-0.3,1.6,0.1,2.2c0.3,0.5,0.9-0.1,1.4-0.1c0.5,0.1,1.3-0.4,1.5,0.5c0.2,1-0.7,0.7-1.2,0.9
	c-0.2,0-0.3,0.1-0.5,0.1c-1.4,0.3-1.7,0.8-1.4,2.4c0.2,1.2,1.1,0.2,1.6,0.3c0.1,0,0.3,0,0.5,0c0.5,0,1,0,1,0.7
	c0,0.6-0.4,0.7-0.8,0.8c-0.2,0-0.5,0-0.7,0.1c-1.5,0.2-1.8,0.7-1.5,2.4c0.2,1.3,1.1,0.3,1.7,0.4c0.2,0.1,0.5-0.1,0.7-0.1
	c0.4,0,0.7,0.2,0.7,0.6c0,0.4-0.1,0.7-0.5,0.8c-0.3,0.1-0.6,0.1-1,0.1c-1.5,0.2-1.8,0.7-1.6,2.4c0.2,1.4,1.1,0.3,1.7,0.5
	c0.2,0.1,0.5-0.1,0.7-0.1c0.4,0,0.7,0.1,0.7,0.6s-0.1,0.8-0.6,0.8c-0.4,0-0.8,0.1-1.2,0.1c-1.4,0.8-1.8,1.4-1.4,3
	c0.2,1.2,1,0.1,1.5,0.3c0.3,0.1,0.6,0,0.8,0c0.4,0,0.7,0.1,0.7,0.6c0,0.4-0.2,0.7-0.6,0.7s-0.7,0.1-1.1,0.2
	c-1.6,0.3-1.6,0.6-1.4,2.5c0.1,1.2,1.1,0.1,1.6,0.3c0.2,0,0.4,0,0.6,0c0.4,0,0.8,0.1,0.9,0.6c0.1,0.6-0.2,0.8-0.7,0.9
	s-1.1,0.1-1.6,0.3c-1.2,0.5-0.7,1.6-0.7,2.4c0,0.9,0.8,0.3,1.2,0.4c0.6,0.1,1.6-0.7,1.8,0.4c0.2,1.3-0.9,0.8-1.6,1
	c-1.3,0.2-1.6,0.7-1.5,2.3c0.1,1.4,1,0.5,1.6,0.6c0.2,0.1,0.5,0,0.7,0c0.4,0,0.8,0,0.8,0.6c0,0.5-0.2,0.8-0.7,0.8
	c-0.6,0-1.1,0.1-1.6,0.3c-0.7,0.3-1.1,1.6-0.8,2.5c0.3,0.8,0.9,0.1,1.3,0.1c0.3,0,0.6,0,0.8,0c0.5,0,0.9,0,0.9,0.7
	c0,0.5-0.3,0.7-0.8,0.7c-0.4,0-0.7,0.1-1.1,0.2c-1.2,0.3-1.6,1-1.3,2.5c0.3,1.1,1,0.2,1.5,0.3c0.2,0,0.5,0,0.7,0
	c0.5,0,0.8,0.1,0.8,0.6s-0.2,0.7-0.7,0.8c-0.3,0-0.6,0.1-0.8,0.1c-1.5,0.2-1.8,0.6-1.6,2.4c0.2,1.5,1.2,0.2,1.8,0.5
	c0.1,0,0.2,0,0.4,0c0.5,0,0.9,0,1,0.6c0.1,0.6-0.3,0.9-0.9,0.9c-0.2,0-0.5,0-0.7,0.1c-1.4,0.2-1.7,0.7-1.5,2.4
	c0.1,1.4,1.1,0.4,1.6,0.5c0.2,0.1,0.4,0,0.6,0c0.4,0,0.8-0.1,0.9,0.5c0,0.5-0.2,0.8-0.7,0.9c-0.6,0.1-1.1,0.1-1.6,0.3
	c-1.3,0.5-0.7,1.7-0.7,2.4c0.1,0.9,0.8,0.2,1.2,0.2c0.6,0.1,1.5-0.5,1.7,0.4c0.3,1.2-0.9,0.9-1.5,1c-1.8,0.3-1.7,0.7-1.5,2.5
	c0.1,1.3,1.1,0.1,1.7,0.3h0.1c0.5,0,1.1-0.2,1.2,0.6c0.1,0.8-0.5,0.8-1.1,0.9c-0.2,0-0.3,0-0.5,0c-1.4,0.2-1.8,0.8-1.5,2.4
	c0.2,1.3,1.2,0.2,1.7,0.4h0.1c0.5-0.1,1.2-0.3,1.3,0.6c0.1,0.8-0.6,0.8-1.2,0.8c-1.8,0.2-2.1,0.6-1.9,2.4c0,0.6,0.2,0.9,0.9,0.7
	c0.4-0.1,0.9-0.1,1.3-0.1c0.5,0,0.9,0,0.9,0.7c0,0.5-0.3,0.7-0.8,0.7c-0.2,0-0.5,0.1-0.7,0.1c-1.2,0.1-1.7,0.7-1.6,2
	c0.1,2.4,0.1,4.7,0,7.1c0,1,0.2,1.5,1.3,1.4c0.5-0.1,1.2-0.2,1.2,0.7c0,0.8-0.7,0.5-1.2,0.6c-0.5,0.1-1.2-0.2-1.3,0.5
	c-0.1,0.8-0.3,1.6,0.1,2.4c0.3,0.6,1,0.3,1.5,0.3c0.5,0.1,0.8,0.2,0.8,0.8c0,0.5-0.3,0.7-0.8,0.7c-0.2,0-0.5,0-0.7,0
	c-0.7,0-1,0.3-1,1c0,0.4,0,0.9,0,1.3c0,0.7,0.3,0.9,0.9,0.9c3,0,6.1,0,9.1,0c0.3,0,0.7,0,0.8-0.4c0.2-0.8,0.3-1.7,0-2.4
	c-0.2-0.7-1-0.3-1.5-0.4c-0.5-0.1-1,0-1-0.7c0-0.8,0.5-0.8,1-0.8c1.1,0.1,1.7-0.2,1.6-1.5c-0.1-1.5,0.2-1.9-1.7-1.8
	c-0.2,0-0.3,0-0.5,0c-0.3,0-0.5-0.2-0.5-0.6c0-0.4,0.1-0.6,0.5-0.7c0.3,0,0.6-0.1,0.8,0c1.1,0.1,1.4-0.4,1.3-1.4c-0.1-2,0-3.8,0-5.8
	c0-2.6,0-2.6-2.5-3.3c-0.4-0.1-0.5-0.3-0.5-0.7c0-0.5,0.2-0.6,0.7-0.7c0.6,0,1.1,0,1.7,0.2c0.3,0.1,0.6,0.2,0.8-0.2
	c0.6-1.5-0.1-2.6-1.8-2.8c-0.3,0-0.6-0.1-0.9-0.1c-0.4-0.1-0.4-0.4-0.4-0.8s0.2-0.6,0.6-0.6c0.3,0,0.6,0.1,0.8,0.1
	c2.1,0.4,1.6,0.2,1.7-1.5c0-1.4-1-1.3-1.9-1.4c-0.6-0.1-1.3,0-1.2-0.9c0.1-0.9,0.8-0.6,1.3-0.5c1.9,0.2,1.9,0.2,1.8-1.6
	c0-0.7-0.4-1-1-1.1c-0.5-0.1-1.1-0.2-1.6-0.3c-0.4-0.1-0.5-0.4-0.5-0.7c0-0.4,0.2-0.6,0.6-0.6c0.6,0,1.2,0,1.8,0.2
	c0.3,0.1,0.6,0.2,0.7-0.3c0.5-1.5-0.1-2.4-1.6-2.7c-0.4-0.1-0.7-0.1-1.1-0.1c-0.4-0.1-0.4-0.4-0.4-0.8c0-0.4,0.2-0.6,0.6-0.6
	c0.3,0,0.6,0,0.8,0.1c1.7,0.2,1.9-0.1,1.7-1.8c-0.2-1.1-1.1-1.1-1.9-1.2c-0.6-0.1-1.3,0-1.2-0.9c0.1-0.9,0.8-0.5,1.3-0.5
	c1.9,0.3,1.9,0.2,1.8-1.7c-0.1-0.7-0.5-1-1-1.1c-0.4-0.1-0.9-0.1-1.3-0.2c-0.5-0.1-0.8-0.2-0.8-0.8c0-0.6,0.4-0.7,0.9-0.7
	c0.5,0.1,1,0.1,1.5,0.3c0.4,0.1,0.6,0,0.7-0.4c0.4-1.6-0.1-2.4-1.7-2.6c-0.3-0.1-0.5-0.1-0.8-0.2c0-0.6-0.1-0.9-0.1-1.3
	c0-0.5,0.3-0.6,0.7-0.6c0.6,0,1.1,0.1,1.7,0.2c0.3,0.1,0.6,0.1,0.7-0.3c0.4-1.6-0.1-2.4-1.8-2.7c-0.3-0.1-0.6-0.1-0.9-0.1
	C77,90.9,77,90.5,77,90.2c0-0.4,0.2-0.6,0.6-0.6c0.3,0,0.6,0,0.8,0.1c1.7,0.1,1.9-0.1,1.7-1.8c-0.2-1.1-1.1-1-1.9-1.2
	c-0.6-0.1-1.3,0-1.1-0.9c0.1-0.9,0.8-0.6,1.3-0.5c1.9,0.3,1.9,0.2,1.8-1.7c-0.1-0.8-0.6-1-1.2-1.2c-0.5,0-1-0.1-1.5-0.1
	c-0.4-0.1-0.6-0.4-0.6-0.8s0.3-0.7,0.7-0.6c0.6,0,1.1,0.1,1.7,0.2c0.4,0.1,0.7,0.1,0.8-0.4c0.4-1.7-0.1-2.4-1.7-2.6
	c-0.2,0-0.5-0.1-0.7-0.1c-0.5,0-0.7-0.3-0.7-0.8c0-0.6,0.4-0.6,0.9-0.6c0.5,0,1,0.1,1.5,0.2c0.3,0,0.6,0.1,0.7-0.3
	c0.4-1.6-0.1-2.4-1.8-2.7c-0.3-0.1-0.6,0-0.9-0.1C77,73.7,77,73.4,77,73s0.2-0.6,0.6-0.6c0.3,0,0.6,0,0.8,0.1
	c1.7,0.1,1.9-0.1,1.7-1.8c-0.2-1.1-1.1-1.1-1.9-1.2c-0.6-0.1-1.3,0-1.2-0.9c0.1-0.9,0.8-0.6,1.3-0.5c1.9,0.3,1.9,0.2,1.8-1.6
	c-0.1-0.8-0.5-1-1.1-1.2c-0.5-0.1-0.9-0.1-1.4-0.2C77.2,65.2,77,65,77,64.5c0-0.4,0.2-0.7,0.7-0.7c0.6,0,1.1,0.1,1.7,0.2
	c0.4,0.1,0.7,0.2,0.8-0.4c0.4-1.6-0.1-2.4-1.7-2.6c-0.2,0-0.4-0.1-0.6-0.1c-0.5,0-0.9-0.2-0.8-0.8c0.1-0.7,0.6-0.6,1-0.6
	c0.5,0,0.9,0.1,1.4,0.2c0.3,0.1,0.6,0.1,0.7-0.4c0.5-1.7-0.1-2.5-1.9-2.7c-0.2,0-0.4,0-0.6-0.1c-0.5-0.1-0.7-0.4-0.6-0.8
	c0-0.5,0.4-0.6,0.8-0.6c0.2,0,0.5,0.1,0.7,0.1c1.7,0.2,1.7,0.2,1.7-1.6c-0.1-1.4-1.1-1.2-2-1.4c-0.5-0.1-1.2-0.1-1.1-0.9
	c0.1-0.9,0.8-0.6,1.3-0.5c1.9,0.3,1.9,0.3,1.8-1.6c0-0.6-0.3-1-0.9-1.1c-0.5-0.1-1-0.2-1.5-0.3c-0.4-0.1-0.8-0.2-0.7-0.7
	c0-0.5,0.4-0.7,0.8-0.6c0.5,0,1,0.1,1.5,0.2c0.5,0.1,0.7,0,0.8-0.5c0.2-1.9,0-2.3-1.9-2.5c-0.2,0-0.5-0.1-0.7-0.1
	c-0.5-0.1-0.6-0.4-0.5-0.8c0-0.4,0.3-0.5,0.7-0.5c0.6,0,1.1,0,1.7,0.2c0.3,0.1,0.7,0.2,0.8-0.4c0.4-1.8-0.1-2.4-1.9-2.7
	c-0.2,0-0.5,0-0.7-0.1c-0.5-0.1-0.5-0.4-0.5-0.8c0-0.4,0.3-0.6,0.7-0.5c0.6,0,1.1,0.1,1.7,0.2c0.3,0.1,0.6,0.1,0.8-0.3
	c0.6-1.5-0.1-2.5-1.7-2.7c-0.3,0-0.6-0.1-0.8-0.1c-0.4-0.1-0.6-0.4-0.5-0.8c0-0.4,0.3-0.6,0.6-0.6s0.6,0,0.8,0.1
	c1.8,0.3,1.7,0.3,1.7-1.5c0-0.7-0.3-1.1-1-1.3c-0.5-0.1-1-0.2-1.5-0.3c-0.4-0.1-0.6-0.3-0.6-0.7c0-0.5,0.3-0.6,0.7-0.6
	c0.6,0,1.1,0.1,1.6,0.2c0.3,0,0.6,0.3,0.7-0.2c0.1-0.3-0.2-0.5-0.5-0.6C79.8,29,79.5,29,79.3,29C77.4,29.2,75.9,29.2,74.6,29.2z
	 M32,130.8c0-0.9,0-1.5,0-2.1c-0.1-1,0.3-2.1-0.2-2.8c-0.5-0.7-1.6-0.6-2.4-0.7c-0.4-0.1-0.5-0.3-0.5-0.7c0-0.4,0.2-0.6,0.7-0.7
	c0.6,0,1.1,0,1.7,0.2c0.7,0.3,0.9-0.1,0.9-0.7c0-1.9-0.2-2.2-2.1-2.4c-0.2,0-0.3,0-0.5,0c-0.5,0-0.7-0.3-0.7-0.8
	c0-0.5,0.3-0.7,0.8-0.6c0.6,0.1,1.1,0.2,1.6,0.3c0.4,0.1,0.6,0,0.7-0.4c0.5-1.6-0.1-2.4-1.8-2.6c-0.3,0-0.6-0.1-0.9-0.1
	c-0.4-0.1-0.5-0.5-0.5-0.8c0-0.4,0.3-0.6,0.7-0.5c0.3,0,0.6,0,0.8,0.1c1.8,0.3,1.8,0.3,1.7-1.5c0-0.7-0.3-1-0.9-1.2
	c-0.6-0.1-1.2-0.2-1.8-0.3c-0.5-0.1-0.6-0.4-0.5-0.8c0-0.4,0.3-0.5,0.6-0.6c0.6,0,1.2,0.1,1.8,0.2c0.3,0.1,0.7,0.2,0.8-0.4
	c0.4-1.8-0.1-2.4-1.9-2.7c-0.2,0-0.3,0-0.5,0c-0.5,0-0.9-0.2-0.8-0.8c0-0.6,0.4-0.7,0.9-0.6c0.5,0.1,1.1,0.2,1.6,0.3
	c0.3,0.1,0.6,0.1,0.7-0.4c0.4-1.9-0.1-2.5-2-2.7c-0.2,0-0.4,0-0.6-0.1c-0.5-0.1-0.6-0.4-0.6-0.9c0.1-0.4,0.4-0.6,0.8-0.6
	c0.6,0.1,1.1,0.1,1.6,0.3c0.4,0.1,0.7,0.1,0.8-0.4c0-1.8,0.4-2.4-1.8-2.6c-0.3,0-0.6-0.1-0.9-0.2c-0.4-0.1-0.4-0.4-0.4-0.8
	c0-0.4,0.2-0.6,0.6-0.6c0.3,0,0.6,0,1,0.1c1.7,0.2,1.7,0.2,1.7-1.5c0-0.7-0.3-1.1-1-1.3c-0.5-0.1-1.1-0.2-1.6-0.3
	c-0.4-0.1-0.6-0.3-0.6-0.7c0-0.5,0.3-0.6,0.7-0.6c0.3,0,0.6,0,0.8,0c1.8,0.2,1.8,0.2,1.7-1.6c0-0.6-0.3-1-0.9-1.1
	c-0.5-0.1-1.1-0.2-1.6-0.3c-0.6-0.1-0.8-0.3-0.7-0.9c0.1-0.5,0.4-0.6,0.9-0.5c0.5,0.1,1.1,0.2,1.6,0.3c0.3,0.1,0.6,0.1,0.7-0.4
	c0.4-1.9-0.1-2.5-2-2.7c-0.2,0-0.4,0-0.6-0.1c-0.5-0.1-0.7-0.4-0.6-0.9c0.1-0.4,0.3-0.6,0.8-0.6c0.6,0.1,1.1,0.1,1.6,0.3
	c0.4,0.1,0.8,0.1,0.8-0.4c0-1.8,0.3-2.4-1.8-2.6c-0.3,0-0.6-0.1-0.9-0.1c-0.4-0.1-0.4-0.4-0.4-0.8c0-0.4,0.2-0.6,0.6-0.6
	c0.3,0,0.6,0,1,0c1.8,0.2,1.8,0.3,1.7-1.6c0-0.6-0.3-1-0.9-1.1s-1.2-0.3-1.8-0.3c-0.4-0.1-0.6-0.3-0.6-0.7s0.3-0.6,0.7-0.6
	c0.6,0,1.2,0,1.8,0.2c0.3,0.1,0.6,0.2,0.7-0.3c0.4-1.6-0.2-2.5-1.9-2.7c-0.2,0-0.5,0-0.7,0c-0.5,0-0.7-0.4-0.6-0.8
	c0-0.4,0.3-0.6,0.7-0.6c0.6,0.1,1.2,0.2,1.8,0.3c0.3,0,0.5,0.2,0.7-0.2c0.6-1.4-0.2-2.7-1.7-2.8c-0.3,0-0.6,0-1-0.1
	c-0.4-0.1-0.6-0.4-0.5-0.8c0-0.4,0.2-0.6,0.6-0.6c0.3,0,0.6,0,0.8,0.1c1.9,0.3,1.9,0.3,1.8-1.6c0-0.8-0.5-1-1.1-1.2
	c-0.5-0.1-0.9-0.1-1.4-0.2c-0.5-0.1-0.7-0.3-0.7-0.8c0-0.5,0.3-0.7,0.8-0.7c0.6,0.1,1.1,0.1,1.6,0.2c0.5,0.1,0.7,0,0.8-0.5
	c0.2-1.9,0-2.3-1.8-2.5c-0.2,0-0.5-0.1-0.7-0.1c-0.4,0-0.7-0.2-0.7-0.7s0.3-0.7,0.8-0.7c0.6,0,1.1,0,1.7,0.2
	c0.3,0.1,0.6,0.2,0.8-0.3c0.5-1.6-0.1-2.5-1.8-2.8c-0.2,0-0.4,0-0.6,0c-0.5,0-0.8-0.3-0.8-0.9c0.1-0.5,0.4-0.6,0.9-0.6
	c0.5,0.1,1,0.1,1.5,0.2c0.4,0.1,0.8,0,0.8-0.5c0-1.9,0.3-2.4-1.9-2.6c-0.2,0-0.5-0.1-0.7-0.1c-0.5-0.1-0.7-0.4-0.6-0.9
	c0.1-0.4,0.4-0.6,0.8-0.6c0.6,0.1,1.1,0.1,1.6,0.3c0.5,0.1,0.8-0.1,0.8-0.6c0-0.4,0-0.7,0-1.1c0-0.6-0.1-1-0.7-1.2
	c-0.6-0.2-1,0-1.4,0.4c-3.5,3.9-6.5,8.3-8.8,13c-0.3,0.5-0.2,0.7,0.4,0.8c1.7,0.4,2.5,1.7,2.4,3.2s-1.3,2.6-3,2.7
	c-0.6,0-1.3,0-1.9,0c-0.7,0-1,0.3-1.2,0.9c-2.8,8.5-3.8,17.2-2.7,26.1c1.2,9.9,4.6,18.9,10.2,27C27.3,125.6,29.4,128.2,32,130.8z
	 M117.2,130.3c0.4,0.1,0.5-0.2,0.7-0.3c7-7.2,11.7-15.8,14.4-25.4c0.2-0.8,0-1.1-0.8-1.1c-1.9,0-3.6,0.1-5.5,0
	c-3-0.1-5.1-2.2-5.1-4.9c0-2.6,2.2-4.7,5.1-4.7c0.7,0,1-0.3,1.3-0.8c1.3-2.4,3.3-3.6,6.1-3.6c0.8,0,1.1-0.3,1.1-1.1
	c0-2.6-0.2-5.2-0.6-7.8c-1-7.2-3.3-14.2-6.9-20.7c-2.2-3.9-4.8-7.5-7.8-11c-0.6-0.7-1.6-0.7-1.9,0c-0.3,0.7-0.3,1.6,0,2.2
	c0.3,0.7,1,0,1.5,0c0.2,0,0.5-0.1,0.7-0.1c0.4,0,0.7,0.1,0.8,0.5c0.1,0.5-0.1,0.8-0.6,0.9c-0.3,0.1-0.6,0.1-0.9,0.1
	c-1.4,0.2-1.8,0.8-1.5,2.4c0.2,1.4,1.2,0.2,1.7,0.4c0.1,0,0.2,0,0.4,0c0.5-0.1,1-0.1,1,0.6c0,0.7-0.4,0.8-0.9,0.8
	c-0.6,0-1.1,0.1-1.6,0.4c-1,0.6-0.5,1.7-0.5,2.4c0.1,0.7,0.8,0.1,1.2,0.1c0.4,0,0.8,0,1.2,0c0.4,0,0.6,0.1,0.6,0.5
	c0,0.4-0.1,0.7-0.6,0.8c-0.6,0.1-1.1,0.2-1.6,0.3c-0.6,0.1-0.8,0.5-0.9,1.1c-0.1,1.8-0.1,1.8,1.7,1.6c0.2,0,0.3,0,0.5,0
	c0.5,0,0.9,0.1,0.9,0.7s-0.3,0.7-0.8,0.8s-1.1,0-1.6,0.3c-1.1,0.6-0.7,1.6-0.6,2.4c0.1,0.9,0.8,0.2,1.3,0.2c0.6,0.1,1.6-0.6,1.7,0.5
	c0.2,1.2-0.9,0.8-1.6,0.9c-1.4,0.2-1.7,0.7-1.5,2.4c0.1,1.4,1.1,0.3,1.6,0.5c0.1,0,0.2,0,0.2,0c0.5,0,1.1-0.3,1.2,0.5
	s-0.5,0.8-1.1,0.9c-1.8,0.2-2,0.5-2,2.3c0,0.9,0.3,1,1.1,0.8c0.4-0.1,0.9-0.1,1.4-0.1c0.4,0,0.6,0.2,0.6,0.6c0,0.4-0.1,0.7-0.6,0.8
	s-0.9,0.1-1.4,0.2c-1.1,0.3-1.5,1.1-1.1,2.5c0.3,1.1,1,0.1,1.5,0.2c0.3,0.1,0.6,0,0.9,0c0.4,0,0.7,0.2,0.7,0.7
	c0,0.4-0.1,0.7-0.6,0.8c-0.3,0-0.6,0.1-0.8,0.1c-1.6,0.2-1.9,0.6-1.7,2.4c0.2,1.5,1.2,0.2,1.8,0.4c0.1,0,0.2,0,0.4,0
	c0.5,0,0.9,0,1,0.6s-0.3,0.9-0.8,0.9c-0.2,0-0.5,0-0.7,0.1c-1.4,0.2-1.7,0.7-1.5,2.4c0.1,1.4,1.1,0.4,1.6,0.5c0.2,0.1,0.4,0,0.6,0
	c0.5-0.1,0.9,0,0.9,0.6s-0.3,0.7-0.8,0.8c-0.5,0.1-1.1,0.2-1.6,0.4c-0.6,0.2-1,1.8-0.6,2.4c0.3,0.7,0.8,0.1,1.2,0.1
	c0.4,0,0.8,0,1.2,0c0.4,0,0.6,0.1,0.6,0.5c0,0.4-0.1,0.7-0.5,0.8c-0.5,0.1-0.9,0.1-1.4,0.3c-1.1,0.3-1.5,1.1-1.1,2.5
	c0.3,1.1,1,0.1,1.5,0.2c0.3,0.1,0.6-0.1,0.9-0.1c0.4,0,0.7,0.2,0.7,0.7c0,0.4-0.1,0.7-0.6,0.8c-0.3,0-0.6,0.1-0.8,0.1
	c-1.6,0.2-1.9,0.6-1.7,2.4c0.2,1.5,1.2,0.2,1.8,0.5c0.1,0,0.2,0,0.2,0c0.5-0.1,1-0.2,1.1,0.5c0.1,0.7-0.4,0.9-1,0.9
	c-0.2,0-0.5,0-0.7,0.1c-1.3,0.2-1.7,0.9-1.4,2.4c0.2,1.3,1.1,0.3,1.6,0.4c0.1,0,0.2,0,0.2,0c0.5,0,1.1-0.4,1.2,0.5
	c0.1,0.8-0.5,0.8-1,0.9c-1.9,0.2-2.1,0.5-2.1,2.4c0,0.8,0.3,0.9,0.9,0.7c0.4-0.1,0.9-0.1,1.3-0.2c0.4,0,0.8,0,0.9,0.6
	c0,0.5-0.2,0.7-0.7,0.8c-0.5,0.1-1,0.2-1.5,0.3c-0.9,0.3-1.2,1.2-0.9,2.4c0.3,1,0.9,0.2,1.4,0.2c0.4,0,0.8-0.1,1.2-0.1
	c0.3,0,0.5,0.2,0.5,0.5c0,0.3,0,0.7-0.4,0.8c-0.3,0.1-0.7,0.1-1.1,0.2c-1.6,0.2-1.9,0.7-1.7,2.4c0.2,1.4,1.2,0.2,1.8,0.4
	c0.1,0,0.2,0,0.3-0.1c0.5-0.1,0.9,0,0.9,0.6c0,0.5-0.2,0.8-0.8,0.8c-0.6,0-1.2,0.1-1.7,0.3c-1.1,0.6-0.6,1.6-0.5,2.4
	c0,0.9,0.8,0.3,1.2,0.3c0.4,0,0.8,0,1.2,0c0.4,0,0.6,0.2,0.6,0.6c0,0.4-0.1,0.7-0.6,0.7c-0.4,0.1-0.9,0.1-1.3,0.2
	c-0.5,0.1-1.2,0.2-1.2,1C117.2,127.7,117.2,128.9,117.2,130.3z M133.1,102.1L133.1,102.1c2.4,0,5,0.1,7.4,0c2.5-0.1,4.3-2,4-4.3
	c-0.3-2.4-2.4-3.9-4.9-3.4c-0.8,0.1-1.2,0-1.5-0.7c-1.1-2.2-3-3-5.3-2.9c-2.4,0.2-4.1,1.6-4.9,3.9c-0.2,0.8-0.6,1-1.4,0.8
	c-1-0.3-2.1-0.3-3,0.5c-1.2,0.9-1.7,2.4-1.3,3.7c0.4,1.4,1.6,2.4,3.1,2.4C128,102.1,130.6,102.1,133.1,102.1z M97.3,10.5
	c-1.2,0-2.4,0-3.5,0c-0.8,0-1.1,0.3-1,1.1c0,1.7,0,3.3,0,5c0,0.7,0.2,1.1,1,1.1c2.4,0,4.7,0,7.1,0c0.7,0,1-0.2,1-1
	c0-1.8,0-3.5,0-5.3c0-0.7-0.3-1-1-1C99.6,10.5,98.5,10.5,97.3,10.5z M49.2,10.5c-1.2,0-2.3,0-3.4,0c-0.7,0-1.1,0.2-1.1,1
	c0,1.7,0,3.4,0,5.1c0,0.8,0.3,1,1.1,1c2.3,0,4.5,0,6.8,0c0.7,0,1.1-0.3,1.1-1c0-1.7,0-3.4,0-5.1c0-0.8-0.3-1-1.1-1
	C51.5,10.5,50.3,10.5,49.2,10.5z M98.6,19.1c-2.2,0-4.4,0-6.6,0c-1.3,0-2.5-0.1-3.8,0c-1.4,0.1-0.7,1.3-0.8,2
	c-0.1,0.9,0.6,0.4,1,0.4c1.7-0.4,3.3-0.4,5,0.2c0.7,0.2,1.3,0.3,2,0c2.2-0.7,4.4-0.7,6.6,0c0.5,0.2,1,0.3,1.5,0.1
	c1.8-0.7,3.5-0.8,5.4-0.4c0.3,0.1,0.6,0.1,0.8-0.3c0.5-1.1-0.1-2.1-1.3-2.1C105,19.1,101.8,19.1,98.6,19.1z M50.4,19.1
	c-1.8,0-3.5,0-5.3,0c-1.6,0-3.2,0-4.8,0c-1.4,0-0.9,1.2-0.9,1.9c-0.1,1,0.7,0.6,1.2,0.5c1.7-0.3,3.2-0.3,4.8,0.3
	c0.6,0.2,1.2,0.3,1.9,0.1c2.3-0.8,4.5-0.7,6.8,0c0.5,0.2,1,0.2,1.5,0c1.7-0.6,3.4-0.7,5.2-0.3c0.3,0.1,0.7,0.2,0.8-0.2
	c0.2-0.6,0.2-1.3,0-1.9c-0.2-0.5-0.7-0.4-1.2-0.4C56.9,19.1,53.6,19.1,50.4,19.1z M16.8,67.4c1.5-0.1,3,0.2,4.5-0.2
	c0.9-0.2,1.4-0.9,1.3-1.9c-0.1-0.9-1.1-1.5-2-1.3c-0.8,0.2-1-0.1-1.3-0.7c-1-2.4-3.5-2.5-5-0.5c-0.4,0.5-0.7,0.7-1.4,0.6
	c-0.5-0.1-1-0.1-1.4,0.2c-0.7,0.5-1.1,1.1-0.9,1.9s0.6,1.4,1.5,1.6C13.8,67.5,15.2,67.3,16.8,67.4z M50.6,129.1c-0.9,0-1.8,0-2.5,0
	c-0.7,0-1,0.3-1,1c0,1.5,0,2.9,0,4.4c0,0.7,0.3,1,1,1c1.7,0,3.3,0,5,0c0.7,0,1-0.3,1-1c0-1.5,0-2.9,0-4.4c0-0.7-0.2-1-1-1
	C52.2,129.1,51.5,129.1,50.6,129.1z M98.6,129.1c-0.9,0-1.8,0-2.5,0c-0.7,0-0.9,0.3-0.9,0.9c0,1.6,0,3,0,4.6c0,0.6,0.2,1,0.9,1
	c1.8,0,3.4,0,5.2,0c0.7,0,0.9-0.3,0.9-0.9c0-1.6,0-3,0-4.6c0-0.7-0.3-1-1-1C100.2,129.1,99.4,129.1,98.6,129.1z M45.6,132.4
	c0-0.8,0-1.7,0-2.4c0-0.6-0.2-0.9-0.9-0.9c-1.5,0-3,0-4.5,0c-0.6,0-0.9,0.3-0.9,0.9c0,0.8,0,1.7,0,2.4c0,3.1,0,3.1,3.1,3.1
	S45.6,135.5,45.6,132.4z M93.6,132.4c0-0.8,0-1.5,0-2.3c0-0.7-0.2-1-1-1c-1.5,0-2.8,0-4.3,0c-0.7,0-1,0.3-1,1c0,0.8,0,1.6,0,2.4
	c0,3.1,0,3.1,3,3.1C93.6,135.5,93.6,135.5,93.6,132.4z M103.6,132.3c0,0.8,0,1.7,0,2.4c0,0.6,0.3,0.9,0.9,0.9c1.5,0,2.8,0,4.3,0
	c0.7,0,0.9-0.4,0.9-1c0-0.9,0-1.7,0-2.5c0-2.8,0-2.8-2.9-2.8C103.6,129.1,103.6,129.1,103.6,132.3z M61.5,132.4c0-0.8,0-1.6,0-2.4
	c0-0.7-0.3-1-1-1c-1.4,0-2.7,0-4.1,0c-0.8,0-1,0.4-1,1.1c0,0.8,0,1.7,0,2.4c0,2.8,0,2.8,2.9,2.8C61.5,135.5,61.5,135.5,61.5,132.4z
	 M63,132.3c0,3.3,0,3.3,3.3,3.2c0.1,0,0.2,0,0.2,0c0.8,0.1,1.1-0.3,1.1-1.1c0-1.3,0-2.4,0-3.7c0-1.6,0-1.6-1.6-1.6
	C63,129.1,63,129.1,63,132.3z M74.6,146c-1.5,0-2.9,0-4.4,0c-0.9,0-1.1,0.4-1.1,1.2c0,0.7,0,1.3,1,1.4c3,0.2,6,0.2,9,0
	c1-0.1,1-0.6,1-1.3c0-0.8-0.2-1.2-1-1.2C77.5,146,76,146,74.6,146z M85.9,132.4c-0.1-3.8,0.8-3.1-3.3-3.2c-0.8,0-1.1,0.3-1.1,1
	c0,1.5,0,2.8,0,4.3c0,0.8,0.3,1.1,1.1,1.1C85.9,135.6,85.9,135.6,85.9,132.4z M111.1,132.2c0,0.8,0,1.6,0,2.4c0,0.3-0.1,0.8,0.3,0.9
	c0.3,0.1,0.6-0.1,0.9-0.3c1.1-1,2.3-1.9,3.2-2.8c0.8-0.8,0.5-1.9,0.3-2.7c-0.2-0.8-1.1-0.4-1.7-0.4
	C111.1,129.1,111.1,129.1,111.1,132.2z M37.8,132.4c0-0.8,0-1.7,0-2.4c0-0.5-0.2-0.8-0.8-0.8c-1,0-2.1,0-3,0c-0.2,0-0.5,0-0.6,0.3
	c-0.2,0.4-0.2,2.6,0.2,2.9c1.1,1,2.2,2,3.3,2.9c0.5,0.4,0.9,0.3,0.9-0.5C37.8,134,37.8,133.2,37.8,132.4z M50.6,140c0.5,0,1,0,1.4,0
	c2.2,0,2.2,0,2.1-2.2v-0.1c0-0.6-0.2-0.9-0.8-0.9c-1.8,0-3.5,0-5.3,0c-0.4,0-0.7,0.1-0.9,0.6c-0.5,1.9,0,2.5,2,2.5
	C49.5,140,50.1,140,50.6,140z M98.6,136.9c-0.5,0-1,0-1.4,0c-2.3,0-2.3,0.1-2.1,2.3c0.1,0.6,0.3,0.9,0.9,0.9c1.8,0,3.5,0,5.3,0
	c0.4,0,0.7-0.1,0.9-0.6c0.5-2,0-2.5-2-2.5C99.5,136.9,99,136.9,98.6,136.9z M98.6,123.9c0.9,0,1.7,0,2.5,0.2c0.3,0.1,0.5,0.2,0.8,0
	c0.5-0.5,0-2.5-0.7-2.7c-1.4-0.5-2.8-0.5-4.3-0.3c-1.8,0.2-2,0.7-1.9,2.4c0.1,0.6,0.3,0.8,0.8,0.6C96.8,123.9,97.7,123.8,98.6,123.9
	z M98.6,39.6c-0.6,0.1-1.2,0.1-1.8,0.2C95,40.1,95,40.2,95,42.1c0,0.9,0.3,1,1.1,0.8c1.4-0.4,2.7-0.3,4.2-0.1
	c1.8,0.2,1.8,0.3,1.8-1.5c0-0.7-0.3-1.1-1-1.2C100.2,39.7,99.4,39.6,98.6,39.6z M50.6,22.5c-0.6,0.1-1.3,0.1-1.9,0.2
	C47,23,47,23.1,47,24.8c0,1,0.4,1.2,1.2,0.9c1.4-0.4,2.7-0.3,4-0.1c1.9,0.2,1.8,0.3,1.8-1.6c0-0.6-0.2-0.9-0.8-1.1
	C52.3,22.7,51.5,22.6,50.6,22.5z M50.6,103.9L50.6,103.9c-0.5,0-1,0-1.5,0c-1.8,0.2-2.2,0.8-2,2.5c0.1,0.5,0.3,0.7,0.8,0.6
	c1.9-0.4,3.7-0.4,5.6,0c0.5,0.1,0.6-0.1,0.7-0.5c0.3-1.9-0.2-2.4-2.1-2.6C51.5,103.8,51,103.9,50.6,103.9z M95.1,24.4
	c0,1.5,0,1.6,0.9,1.4c1.8-0.4,3.5-0.4,5.3,0c0.2,0.1,0.5,0.1,0.7-0.1c0.5-0.6,0-2.5-0.8-2.7c-1.6-0.5-3.1-0.4-4.7-0.1
	C95.4,23,94.8,23.4,95.1,24.4z M98.7,103.9c-0.5,0-1,0-1.5,0c-1.9,0.2-2.2,0.6-2.1,2.4c0,0.6,0.2,0.8,0.8,0.7c1.8-0.4,3.6-0.4,5.4,0
	c0.5,0.1,0.7,0,0.8-0.6c0.2-1.8-0.2-2.4-2.1-2.5C99.5,103.8,99.1,103.9,98.7,103.9z M50.6,120.9c-0.6,0-1.1,0-1.7,0.1
	c-1.8,0.3-1.9,0.5-1.9,2.3c0,0.8,0.3,1,1,0.8c1.4-0.4,2.8-0.3,4.2-0.2c2,0.2,1.9,0.3,1.9-1.6c0-0.6-0.3-0.9-0.9-1.1
	C52.3,121,51.5,120.9,50.6,120.9z M50.6,73.8c-0.6,0.1-1.2,0.1-1.8,0.2C47,74.3,47,74.5,47,76.3c0,0.7,0.3,0.9,1,0.7
	c1.4-0.4,2.8-0.4,4.3-0.1c1.9,0.3,1.9,0.3,1.8-1.6c0-0.7-0.3-1-0.9-1.1C52.2,74,51.5,73.8,50.6,73.8z M50.6,86.7
	c-0.6,0-1.2,0-1.8,0.1C47.1,87.1,47,87.3,47,89c0,1,0.4,1,1.2,0.8c1.4-0.4,2.7-0.3,4-0.1C54,89.9,54,90,53.9,88c0-0.6-0.3-0.9-0.8-1
	C52.4,86.8,51.6,86.7,50.6,86.7z M54,41.5c0.3-1.1-0.4-1.4-1.5-1.6c-1.3-0.2-2.5-0.3-3.8-0.1C47,40.1,47,40.2,47,42
	c0,0.9,0.4,1,1.2,0.9c1.5-0.4,3-0.3,4.5,0C54,43.1,54,43.1,54,41.5z M98.7,86.7c-0.5,0-1,0-1.5,0c-1.9,0.2-2.3,0.7-2.1,2.5
	c0.1,0.6,0.3,0.7,0.8,0.6c1.8-0.4,3.6-0.4,5.4,0c0.6,0.1,0.7-0.1,0.8-0.7c0.1-1.9-0.2-2.3-2.1-2.4C99.5,86.7,99,86.7,98.7,86.7z
	 M50.5,56.8c-0.6,0.1-1.2,0.1-1.8,0.2C47,57.3,47,57.4,47,59.1c0,0.8,0.3,1.1,1.1,0.9c1.4-0.4,2.7-0.3,4.2-0.2
	c1.9,0.2,1.9,0.3,1.8-1.7c0-0.6-0.3-0.9-0.8-1C52.3,56.9,51.5,56.8,50.5,56.8z M98.6,72.4c0.8,0.1,1.7,0,2.5,0.3
	c0.3,0.1,0.6,0.2,0.9-0.1c0.5-0.6,0-2.5-0.8-2.7c-1.4-0.4-2.8-0.4-4.3-0.2c-1.7,0.2-1.8,0.5-1.8,2.2c0,0.8,0.2,1.1,1,0.9
	C96.9,72.4,97.7,72.6,98.6,72.4z M102,58.7c0.4-1.2-0.4-1.6-1.5-1.8c-1.3-0.2-2.4-0.3-3.7,0C95,57.4,95,57.4,95,59.1
	c0,0.8,0.2,1,1.1,0.8c1.6-0.4,3.1-0.4,4.6,0C101.8,60.1,102.3,59.9,102,58.7z M98.5,108c-0.5,0.1-1.1,0.1-1.6,0.2
	c-1.8,0.3-1.8,0.4-1.9,2.2c0,0.9,0.4,1.1,1.2,0.9c1.4-0.3,2.7-0.4,4-0.1c1.9,0.3,2,0.3,1.8-1.7c0-0.6-0.3-0.9-0.9-1.1
	C100.3,108.2,99.4,108,98.5,108z M98.6,73.8c-0.6,0.1-1.2,0.1-1.8,0.2C95,74.3,95,74.4,95,76.2c0,0.9,0.3,1,1.1,0.8
	c1.4-0.4,2.7-0.3,4.2-0.1c1.9,0.3,1.9,0.3,1.8-1.6c0-0.6-0.3-0.9-0.9-1.1C100.3,74,99.4,73.8,98.6,73.8z M54,54.2
	c0.3-1-0.3-1.4-1.4-1.6c-1.3-0.3-2.4-0.2-3.7-0.1c-1.7,0.1-2,0.5-2,2.3c0,0.8,0.3,1.1,1.1,0.9c1.5-0.4,3-0.4,4.5-0.1
	C54,55.8,54,55.8,54,54.2z M50.6,69.7L50.6,69.7c-0.5,0-1,0-1.5,0c-1.9,0.2-2.2,0.6-2.1,2.4c0,0.6,0.2,0.8,0.8,0.7
	c1.8-0.4,3.6-0.4,5.4,0c0.6,0.1,0.7-0.1,0.8-0.7c0.1-1.9-0.2-2.4-2.2-2.4C51.5,69.6,51.1,69.7,50.6,69.7z M50.5,90.9
	c-0.6,0.1-1.2,0.1-1.8,0.2c-1.8,0.3-2,0.7-1.7,2.4c0.1,0.5,0.2,0.7,0.8,0.6c1.8-0.5,3.6-0.4,5.4,0c0.5,0.1,0.7,0,0.8-0.5
	c0.3-1.9,0-2.2-1.8-2.5C51.7,91,51.1,90.9,50.5,90.9z M90.5,136.9c-0.4,0-0.9,0-1.3,0c-1.9,0-1.9,0-1.9,2c0,0.1,0,0.2,0,0.2
	c-0.1,0.8,0.3,1.1,1.1,1c1.3,0,2.5-0.1,3.8,0c1.1,0.1,1.4-0.4,1.4-1.5c-0.1-1.8,0-1.8-1.7-1.8C91.5,136.9,91,136.9,90.5,136.9z
	 M50.6,108c-0.6,0.1-1.2,0.1-1.7,0.2c-2,0.3-1.9,0.3-1.9,2.4c0,0.5,0.2,0.7,0.8,0.6c1.8-0.4,3.6-0.5,5.4,0c0.5,0.1,0.7,0,0.8-0.5
	c0.3-1.9,0-2.2-1.8-2.5C51.7,108.1,51.1,108.1,50.6,108z M98.6,90.9C98,91,97.4,91,96.8,91.1C95,91.4,95,91.5,95,93.3
	c0,0.8,0.2,1.1,1.1,0.9c1.4-0.4,2.7-0.4,4.1-0.1c1.8,0.3,1.7,0.7,1.8-1.5c0-0.7-0.3-1.1-1-1.2C100.2,91.1,99.4,90.9,98.6,90.9z
	 M90.4,144.6c0.4,0,0.9,0,1.3,0c1.9,0,1.9,0,1.9-2c0-1-0.4-1.3-1.3-1.3c-1.1,0.1-2.3,0-3.3,0c-1.6,0-1.6,0-1.6,1.6
	c0,1.7,0,1.7,1.6,1.7C89.5,144.6,89.9,144.6,90.4,144.6z M98.4,52.6c-0.3,0-0.8,0-1.3,0.1c-1.8,0.2-2,0.5-2,2.3c0,0.9,0.3,1,1.1,0.8
	c1.4-0.4,2.7-0.3,4.2-0.2c1.9,0.2,1.9,0.2,1.8-1.7c0-0.6-0.3-0.8-0.8-1C100.4,52.6,99.5,52.6,98.4,52.6z M50.4,35.4
	c-0.7,0-1.7,0-2.6,0.4c-1.2,0.5-0.7,1.5-0.7,2.3c0,0.9,0.8,0.6,1.3,0.5c1.3-0.3,2.6-0.2,3.9-0.1c1.9,0.2,1.8,0.2,1.7-1.6
	c0-0.6-0.3-0.9-0.9-1.1C52.3,35.5,51.6,35.4,50.4,35.4z M50.2,26.8c-0.4,0-0.9,0.1-1.5,0.2c-1.6,0.3-1.7,0.4-1.7,2.1
	c0,0.8,0.2,1.2,1.1,0.9c1.4-0.4,2.7-0.4,4.1-0.1c1.8,0.3,1.8,0.3,1.8-1.5c0-0.7-0.3-1.1-1-1.2C52.2,27,51.4,26.8,50.2,26.8z
	 M98.5,35.4c-0.4,0-0.9,0-1.4,0.1c-1.8,0.2-2,0.5-2,2.3c0,0.8,0.3,1,1,0.8c1.4-0.4,2.8-0.3,4.3-0.2c1.9,0.2,1.9,0.3,1.7-1.6
	c0-0.6-0.3-0.9-0.9-1.1C100.3,35.5,99.4,35.4,98.5,35.4z M102,118.7c-0.1-0.6,0.3-1.3-0.6-1.6c-2-0.6-3.9-0.7-5.9,0
	c-1.1,0.4-0.6,1.6-0.5,2.3c0.1,0.8,0.8,0.4,1.3,0.3c1.5-0.2,2.8-0.3,4.3,0C101.7,119.9,102.3,119.8,102,118.7z M102.1,45.7
	c0.3-1-0.4-1.4-1.5-1.6c-1.3-0.2-2.4-0.3-3.7-0.1c-1.8,0.4-1.9,0.5-1.9,2.3c0,0.7,0.2,1,1,0.8c1.6-0.4,3-0.4,4.6-0.1
	C102,47.3,102.1,47.3,102.1,45.7z M98.7,26.8C98.1,26.9,97.5,27,97,27c-1.8,0.3-1.9,0.4-1.9,2.3c0,0.7,0.2,1,1,0.8
	c1.4-0.4,2.8-0.5,4.3-0.1c2.1,0.5,1.6,0.1,1.7-1.6c0-0.7-0.3-1.1-1-1.2C100.2,27,99.3,26.9,98.7,26.8z M54,101.5
	c-0.1-0.5,0.3-1.3-0.5-1.5c-2-0.6-3.9-0.7-5.9,0c-1.1,0.4-0.6,1.5-0.5,2.3c0.1,0.8,0.8,0.4,1.3,0.3c1.5-0.2,2.8-0.3,4.3,0.1
	C53.8,102.9,54.2,102.7,54,101.5z M54,62.9c0.4-1.2-0.4-1.6-1.4-1.7c-1.3-0.2-2.4-0.3-3.7-0.1c-1.8,0.3-1.9,0.5-1.8,2.2
	c0,0.8,0.2,1.1,1.1,0.8c1.6-0.4,3.1-0.5,4.6,0C53.9,64.5,54.2,64,54,62.9z M50.5,116.6c-0.6,0-1.1,0-1.7,0.1c-1.7,0.2-2,0.7-1.8,2.4
	c0.1,0.6,0.3,0.9,0.9,0.8c1.8-0.4,3.5-0.4,5.3,0.1c0.4,0.1,0.7,0.1,0.8-0.4c0.3-1.8-0.1-2.4-1.9-2.6
	C51.6,116.7,51.1,116.7,50.5,116.6z M54,45.9c0.3-1.3-0.5-1.6-1.5-1.8c-1.3-0.2-2.5-0.3-3.8,0c-1.6,0.3-1.6,0.4-1.6,2
	c0,0.9,0.2,1.2,1.2,1c1.5-0.4,3-0.4,4.5,0C53.8,47.4,54.2,47.1,54,45.9z M54,79.9c0.3-1-0.5-1.4-1.5-1.6c-1.3-0.2-2.4-0.3-3.7-0.1
	c-1.7,0.3-2,0.6-1.8,2.3c0.1,0.7,0.3,0.9,1,0.7c1.6-0.4,3-0.4,4.6-0.1C54,81.5,54,81.5,54,79.9z M50.4,115.1L50.4,115.1
	c0.2,0.1,0.5,0,0.7,0.1c0.7,0.1,1.3,0.2,2,0.3c0.3,0,0.5,0.2,0.8-0.1c0.5-0.5,0.1-2.5-0.6-2.7c-1.5-0.4-2.8-0.5-4.4-0.3
	c-1.8,0.3-2,0.5-1.9,2.3c0,0.8,0.3,1,1.1,0.8C48.8,115.3,49.6,115.2,50.4,115.1z M54,33.1c0.3-1.1-0.3-1.6-1.3-1.7
	c-1.3-0.2-2.4-0.3-3.7-0.1c-1.8,0.2-2.1,0.6-1.9,2.4c0.1,0.7,0.3,0.9,1,0.7c1.6-0.4,3.1-0.5,4.6-0.1C53.8,34.5,54.2,34.2,54,33.1z
	 M102,114.3c0.3-1.2-0.5-1.7-1.5-1.8c-1.2-0.2-2.4-0.2-3.6,0c-1.7,0.3-1.9,0.5-1.9,2.2c0,0.9,0.3,1.1,1.2,0.9c1.5-0.4,3-0.4,4.5,0
	C101.9,115.7,102.2,115.3,102,114.3z M95.1,97.2c0.2,0.5-0.4,1.5,0.9,1.2c1.8-0.4,3.4-0.4,5.2,0c0.3,0.1,0.5,0.2,0.8-0.1
	c0.5-0.7,0-2.4-0.8-2.7c-1.7-0.4-3.1-0.4-4.7-0.1C95.5,95.7,94.8,96,95.1,97.2z M50.5,82.4c-0.6,0-1.3,0.1-1.9,0.2
	c-0.3,0-0.5,0.1-0.8,0.2c-0.6,0.3-1,1.5-0.7,2.4c0.3,0.8,0.8,0.4,1.3,0.3c1.3-0.2,2.6-0.3,3.9-0.1c1.9,0.3,1.8,0.3,1.7-1.6
	c0-1.3-1.1-1.1-1.8-1.3C51.8,82.4,51.2,82.5,50.5,82.4z M95.1,49.9c0,1.6,0,1.7,1.5,1.4c1.4-0.3,2.7-0.2,4.2,0
	c0.5,0.1,1.1,0.6,1.3-0.4c0.3-1.2,0-2.1-0.8-2.4c-1.7-0.5-3.2-0.4-4.9-0.1C95.3,48.6,94.9,49.1,95.1,49.9z M102.1,84.2
	c0.2-1-0.4-1.4-1.3-1.5c-1.3-0.2-2.6-0.2-3.9-0.1c-1.6,0.2-1.7,0.5-1.7,2.1c0,0.8,0.2,1.2,1.1,1c1.5-0.4,2.9-0.3,4.4-0.1
	C102.1,85.7,102.1,85.7,102.1,84.2z M54,50.1c-0.1-0.5,0.2-1.3-0.5-1.5c-1.9-0.6-3.8-0.6-5.7-0.1c-0.7,0.2-1,1.5-0.6,2.4
	c0.3,0.8,0.8,0.4,1.3,0.3c1.5-0.3,2.8-0.4,4.3,0C53.8,51.6,54.2,51.3,54,50.1z M102,67.2c0.4-1.2-0.5-1.5-1.5-1.7
	c-1.2-0.2-2.4-0.2-3.6-0.1c-1.7,0.2-2,0.5-1.9,2.3c0,0.7,0.3,1,1,0.8c1.6-0.4,3.1-0.5,4.6-0.1C101.8,68.7,102.2,68.4,102,67.2z
	 M102.1,62.7c0.3-1-0.4-1.4-1.4-1.5c-1.3-0.2-2.5-0.3-3.8-0.1c-1.7,0.3-1.8,0.4-1.8,2.2c0,0.8,0.2,1.1,1.1,0.9
	c1.5-0.4,3-0.4,4.5-0.1C102.1,64.4,102.1,64.4,102.1,62.7z M54,97c0.3-1.1-0.5-1.4-1.5-1.6c-1.3-0.2-2.4-0.3-3.7-0.1
	c-1.7,0.3-2,0.6-1.8,2.3c0.1,0.7,0.2,0.9,1,0.7c1.6-0.4,3-0.4,4.6-0.1C54,98.6,54,98.6,54,97z M102.1,79.9c0.3-1-0.4-1.4-1.4-1.6
	c-1.3-0.2-2.4-0.3-3.7-0.1c-1.8,0.3-2,0.5-1.9,2.3c0,0.7,0.2,1,1,0.8c1.6-0.4,3-0.4,4.6-0.1C102.1,81.5,102.1,81.5,102.1,79.9z
	 M102.1,101.3c0.3-1-0.4-1.4-1.4-1.6c-1.3-0.2-2.5-0.2-3.8-0.1c-1.6,0.2-1.8,0.5-1.8,2.1c0,0.9,0.3,1.1,1.2,0.9
	c1.5-0.4,2.9-0.3,4.4-0.1C102,102.8,102,102.8,102.1,101.3z M51.1,65.4c-0.8-0.2-1.5,0-2.3,0.1c-1.7,0.2-2.1,0.7-1.9,2.4
	c0.1,0.6,0.3,0.8,0.9,0.7c1.8-0.4,3.4-0.4,5.2,0c0.4,0.1,0.8,0.1,0.9-0.5c0.4-1.6-0.1-2.4-1.8-2.5C51.8,65.4,51.5,65.4,51.1,65.4z
	 M95.1,32.9c0,1.6,0,1.6,1.4,1.3c1.5-0.3,3-0.3,4.5,0.1c0.3,0.1,0.7,0.3,0.9,0c0.4-0.6,0.2-1.3,0.2-2c0-0.5-0.4-0.7-0.8-0.8
	c-1.6-0.4-3.1-0.4-4.7-0.2C95.5,31.5,94.8,31.9,95.1,32.9z M58.5,144.6c0.4,0,0.7,0,1.1,0c2.2,0,2.1,0,2-2.2c0-0.7-0.2-1-1-1
	c-1.4,0-2.8,0-4.2,0c-0.4,0-0.7,0.1-0.9,0.5c-0.6,1.6,0.1,2.6,1.8,2.6C57.7,144.6,58.1,144.6,58.5,144.6z M58.6,140
	c0.3,0,0.6,0,0.8,0c2.3,0,2.3-0.1,2.1-2.4c-0.1-0.6-0.3-0.9-0.9-0.9c-1.5,0-2.8,0-4.3,0c-0.4,0-0.7,0.1-0.8,0.5
	c-0.6,1.7,0.1,2.6,1.9,2.6C57.8,140,58.2,140,58.6,140z M42.6,22.6c-2.8,0-3.4,0.5-3.3,2.4c0,0.6,0.2,0.9,0.9,0.7
	c1.6-0.4,3-0.4,4.6,0c0.3,0.1,0.7,0.2,0.8-0.4c0.4-1.7-0.1-2.5-1.9-2.7C43.3,22.6,42.9,22.6,42.6,22.6z M42.5,103.9
	C42.5,103.8,42.5,103.8,42.5,103.9c-0.6,0-1.2,0-1.8,0.1c-1.3,0.3-1.9,1.6-1.4,2.7c0.1,0.3,0.3,0.4,0.6,0.3c1.7-0.4,3.4-0.4,5.1,0
	c0.3,0.1,0.5,0,0.6-0.4c0.5-1.7-0.2-2.6-2-2.7C43.3,103.8,42.9,103.9,42.5,103.9z M93.6,105.8c0-1.6-0.1-1.8-1.6-2
	c-0.9-0.1-1.8-0.1-2.6-0.1c-1.8,0.1-2.1,0.5-2.1,2.4c0,0.8,0.3,1,1,0.8c1.3-0.4,2.6-0.4,3.9-0.1C93.4,107.1,93.9,106.9,93.6,105.8z
	 M93.6,123c0-1.6-0.2-1.9-1.6-2.1c-0.9-0.1-1.8-0.1-2.6,0c-1.8,0.2-2.1,0.6-2,2.4c0,0.7,0.2,0.9,0.9,0.7c1.4-0.4,2.7-0.4,4-0.1
	C93.4,124.2,93.8,124,93.6,123z M42.7,120.9c-2.8,0-3.4,0.5-3.3,2.4c0,0.8,0.3,1,1,0.8c1.2-0.4,2.4-0.3,3.6-0.2
	c1.8,0.2,1.8,0.2,1.7-1.6c0-0.6-0.3-0.9-0.9-1.1C44,120.9,43.2,120.9,42.7,120.9z M90.5,86.7L90.5,86.7c-0.4,0-0.7,0-1.1,0.1
	c-1.9,0.1-2.4,0.7-2.2,2.5c0.1,0.5,0.3,0.7,0.8,0.6c1.6-0.4,3.1-0.4,4.7,0c0.3,0.1,0.6,0.2,0.8-0.3c0.5-1.4-0.2-2.5-1.7-2.8
	C91.5,86.7,91,86.7,90.5,86.7z M45.6,41.6c0.4-1.2-0.4-1.6-1.5-1.9c-1-0.2-2-0.2-2.9-0.1c-1.8,0.3-2,0.7-1.9,2.4
	c0,0.7,0.3,0.9,1,0.7c1.4-0.4,2.7-0.4,4-0.1C45.4,43.1,45.8,42.8,45.6,41.6z M90.5,56.8L90.5,56.8c-0.4,0-0.9,0-1.3,0
	c-1.8,0.3-2.1,0.7-1.9,2.4c0,0.5,0.2,0.8,0.8,0.7c1.6-0.4,3.1-0.4,4.7,0c0.5,0.1,0.7,0,0.8-0.6c0.2-1.9-0.2-2.4-2.1-2.5
	C91.2,56.8,90.9,56.8,90.5,56.8z M93.6,24.5c0.3-1.2-0.4-1.6-1.4-1.8c-1-0.2-2-0.2-2.9-0.1c-1.8,0.2-2,0.6-2,2.4c0,0.8,0.3,1,1,0.8
	c1.3-0.4,2.6-0.4,3.9-0.1C93.4,25.9,93.9,25.7,93.6,24.5z M42.5,52.6c-0.4,0-0.8,0-1.2,0.1c-1.8,0.2-2.2,0.7-2.1,2.4
	c0,0.6,0.2,0.8,0.8,0.7c1.6-0.4,3.1-0.4,4.7,0c0.3,0.1,0.6,0.2,0.8-0.3c0.5-1.6-0.2-2.5-1.8-2.8C43.4,52.6,42.9,52.6,42.5,52.6z
	 M45.6,88.6c0.4-1.4-0.5-1.7-1.6-1.9c-0.9-0.1-1.9-0.1-2.8,0c-1.7,0.1-1.9,0.5-1.9,2.2c0,1,0.3,1.1,1.2,0.9c1.3-0.3,2.5-0.4,3.8,0
	C45.4,90.1,45.8,89.8,45.6,88.6z M45.6,71.5c0.4-1.2-0.4-1.6-1.4-1.8c-1-0.2-2-0.2-2.9-0.1c-1.7,0.2-2,0.5-2,2.3
	c0,0.8,0.2,1.1,1.1,0.9c1.3-0.4,2.6-0.4,3.9-0.1C45.5,73,45.8,72.6,45.6,71.5z M90.6,42.7c0.4,0,0.9,0,1.3,0
	c1.8,0.2,1.9,0.1,1.8-1.7c0-0.6-0.3-0.8-0.8-1c-1.3-0.4-2.5-0.4-3.8-0.2c-1.6,0.3-1.7,0.4-1.7,2.1c0,0.8,0.2,1.2,1.1,0.9
	C89.2,42.6,89.8,42.6,90.6,42.7z M90.7,69.6c-2.8,0-3.4,0.5-3.3,2.5c0,0.7,0.3,0.8,0.9,0.7c1.6-0.4,3-0.4,4.6,0
	c0.3,0.1,0.6,0.2,0.8-0.3c0.5-1.4-0.2-2.5-1.7-2.8C91.5,69.6,91,69.6,90.7,69.6z M93.6,75.9c0.3-1.2-0.4-1.6-1.5-1.8
	c-1-0.2-2-0.2-2.9-0.1c-1.8,0.3-2,0.6-1.9,2.4c0,0.7,0.2,0.9,0.9,0.7c1.4-0.4,2.7-0.5,4-0.1C93.4,77.2,93.8,76.9,93.6,75.9z
	 M42.5,73.8c-0.4,0-0.9,0.1-1.4,0.1c-1.8,0.3-2,0.7-1.8,2.4c0.1,0.5,0.2,0.8,0.8,0.6c1.6-0.4,3.1-0.4,4.7,0c0.4,0.1,0.7,0.1,0.7-0.4
	c0.3-1.8-0.1-2.4-1.8-2.6C43.4,73.9,42.9,73.9,42.5,73.8z M93.6,92.7c0.3-1-0.3-1.4-1.4-1.6c-1.1-0.2-2.1-0.3-3.1-0.1
	c-1.8,0.4-1.9,0.5-1.8,2.2c0,0.8,0.2,1.1,1,0.8c1.3-0.4,2.5-0.4,3.8-0.1C93.7,94.3,93.6,94.3,93.6,92.7z M42.5,93.9
	c0.8,0,1.5,0.1,2.2,0.2c0.3,0.1,0.5,0.2,0.8,0c0.5-0.6,0-2.5-0.8-2.7c-1.2-0.4-2.4-0.5-3.7-0.2c-1.7,0.4-2,0.8-1.7,2.5
	c0.1,0.5,0.3,0.7,0.8,0.6C40.9,94,41.7,93.8,42.5,93.9z M93.6,110c0.3-1.1-0.3-1.6-1.4-1.8c-1-0.2-2-0.2-3-0.1
	c-1.9,0.4-2,0.5-1.9,2.4c0,0.7,0.3,0.9,1,0.7c1.4-0.4,2.7-0.5,4-0.1C93.4,111.4,93.8,111.1,93.6,110z M42.4,26.8
	c-2.5,0-3.3,0.6-3.1,2.5c0.1,0.7,0.3,0.9,1,0.7c1.2-0.4,2.4-0.4,3.6-0.2c1.9,0.3,1.9,0.3,1.8-1.6c0-0.6-0.2-1-0.8-1.1
	C44,27,43.2,26.8,42.4,26.8z M93.6,54.4c0.4-1.3-0.5-1.7-1.5-1.8c-0.9-0.1-1.9-0.1-2.8,0c-1.7,0.1-1.9,0.5-2,2.2
	c0,0.9,0.3,1.1,1.1,0.9c1.3-0.4,2.5-0.4,3.8-0.1C93.4,55.8,93.9,55.7,93.6,54.4z M42.3,59.6c0.5,0,1,0,1.5,0.1
	c1.9,0.3,1.8,0.3,1.7-1.6c0-0.6-0.3-0.9-0.9-1.1c-1.2-0.4-2.4-0.4-3.5-0.2c-1.8,0.3-2,0.7-1.9,2.4c0,0.6,0.2,0.9,0.9,0.7
	C40.9,59.7,41.7,59.6,42.3,59.6z M42.6,81c0.7,0,1.4,0.1,2.2,0.3c0.2,0.1,0.5,0.2,0.7,0c0.4-0.6,0.1-1.3,0.2-2
	c0-0.5-0.3-0.7-0.8-0.9c-1.5-0.5-2.9-0.5-4.3-0.1c-1,0.3-1.6,1.9-1,2.7c0.2,0.4,0.5,0.2,0.8,0.2C41,81.2,41.8,81,42.6,81z
	 M45.6,62.8c0.3-1.1-0.4-1.5-1.5-1.6c-1-0.2-2-0.3-3-0.1c-1.8,0.4-2,0.5-1.9,2.3c0,0.7,0.3,1,1,0.8c1.3-0.4,2.6-0.4,3.9-0.1
	C45.6,64.4,45.6,64.4,45.6,62.8z M45.6,84.3c0.3-1.3-0.5-1.7-1.6-1.8c-0.9-0.1-1.9-0.2-2.7,0c-1.8,0.2-2.1,0.6-2,2.4
	c0.1,0.7,0.3,0.9,1,0.8c1.3-0.3,2.6-0.4,3.9-0.1C45.3,85.8,45.8,85.5,45.6,84.3z M87.5,29c0.2,0.2-0.6,1.4,0.8,1.1
	c1.6-0.4,3-0.4,4.6,0c0.3,0.1,0.5,0.2,0.7-0.1c0.6-0.9-0.1-2.5-1.1-2.8c-1.3-0.3-2.4-0.3-3.7,0C87.8,27.2,87.2,27.6,87.5,29z
	 M87.4,37.2c0,1.6,0,1.6,1.4,1.3c1.2-0.2,2.4-0.2,3.6,0c0.5,0.1,1.2,0.5,1.2-0.3c0.1-0.8,0.6-1.9-0.6-2.4c-1.4-0.5-2.8-0.4-4.3-0.2
	C87.8,35.8,87.2,36.2,87.4,37.2z M45.6,50.2c-0.1-0.5,0.2-1.3-0.5-1.5c-1.7-0.6-3.4-0.7-5.1,0c-1.1,0.4-0.6,1.5-0.5,2.3
	c0.1,0.8,0.8,0.4,1.2,0.3c1.3-0.2,2.4-0.4,3.7,0C45.5,51.7,45.8,51.2,45.6,50.2z M45.6,45.9c0.3-1.2-0.4-1.7-1.5-1.8
	c-1-0.2-2-0.2-3,0c-1.7,0.3-1.9,0.5-1.8,2.3c0,0.8,0.3,1,1.1,0.8c1.3-0.4,2.6-0.4,3.9,0C45.5,47.4,45.8,47,45.6,45.9z M42.4,110.9
	c0.6,0.1,1.3,0.2,1.9,0.2c0.4,0,1.2,0.6,1.2-0.2c0.1-0.8,0.6-1.9-0.5-2.4c-1.7-0.7-3.3-0.7-5,0c-1.2,0.5-0.7,1.6-0.6,2.4
	c0.1,0.9,0.8,0.3,1.2,0.3C41.3,111.1,41.9,110.9,42.4,110.9z M45.6,37.5c0-1.6-0.2-1.9-1.6-2c-0.9-0.1-1.8-0.1-2.6,0
	c-1.8,0.1-2,0.5-2,2.3c0,0.8,0.3,1,1,0.8c1.4-0.4,2.7-0.4,4-0.1C45.5,38.8,45.8,38.4,45.6,37.5z M93.6,67.3c0-1.5-0.2-1.7-1.6-2
	c-0.9-0.1-1.9-0.2-2.7,0c-1.8,0.2-2.1,0.6-1.9,2.4c0,0.7,0.3,0.9,1,0.8c1.4-0.4,2.7-0.5,4-0.1C93.6,68.7,93.7,68.2,93.6,67.3z
	 M45.6,67.3c-0.1-0.5,0.2-1.3-0.5-1.5c-1.7-0.6-3.4-0.7-5.1,0c-1.1,0.5-0.6,1.5-0.5,2.3c0.1,0.8,0.8,0.4,1.2,0.3
	c1.3-0.2,2.4-0.4,3.7,0C45.5,68.7,45.7,68.2,45.6,67.3z M87.4,45.7c0,1.6,0,1.6,1.4,1.3c1.3-0.3,2.6-0.3,3.9,0
	c0.3,0.1,0.6,0.3,0.9-0.1c0.6-0.7,0-2.5-0.9-2.7c-1.3-0.3-2.5-0.4-3.8-0.1C87.8,44.3,87.1,44.7,87.4,45.7z M93.6,62.9
	c0.3-1.2-0.4-1.6-1.5-1.8c-1-0.1-2-0.2-2.9,0c-1.8,0.4-2,0.6-1.8,2.4c0,0.7,0.2,0.9,1,0.7c1.4-0.4,2.7-0.5,4-0.1
	C93.5,64.5,93.8,64,93.6,62.9z M90.6,116.6c-0.3,0-0.8,0-1.2,0.1c-1.9,0.2-2.2,0.6-2.1,2.4c0,0.7,0.2,0.9,0.9,0.7
	c1.5-0.4,3-0.4,4.5-0.1c0.4,0.1,0.7,0.1,0.9-0.3c0.6-1.4-0.1-2.4-1.6-2.7C91.6,116.7,91.1,116.7,90.6,116.6z M87.4,97
	c0,1.6,0,1.6,1.5,1.3c1.3-0.3,2.5-0.2,3.8,0.1c0.3,0.1,0.6,0.3,0.9-0.1c0.6-0.7,0-2.5-0.9-2.8c-1.3-0.3-2.6-0.4-3.9,0
	C87.7,95.7,87.2,96,87.4,97z M45.6,101.3c0.4-1.2-0.4-1.5-1.4-1.7c-1-0.2-2-0.2-2.9-0.1c-1.7,0.2-2.1,0.7-1.9,2.4
	c0.1,0.7,0.3,0.9,1,0.7c1.3-0.3,2.6-0.4,3.9-0.1C45.4,102.9,45.8,102.6,45.6,101.3z M93.6,33.1c0.3-1.2-0.4-1.6-1.5-1.8
	c-0.5-0.1-0.9-0.2-1.4-0.2c-2.4-0.2-3.5,0.6-3.4,2.4c0.1,0.7,0.3,0.9,1,0.7c1.3-0.3,2.6-0.5,3.9-0.1C93.3,34.4,93.9,34.3,93.6,33.1z
	 M90.6,99.6c-2.8,0-3.3,0.4-3.3,2.4c0,0.8,0.3,0.9,1,0.7c1.2-0.3,2.4-0.4,3.6-0.2c1.8,0.3,1.8,0.2,1.7-1.6c0-0.6-0.3-0.9-0.9-1.1
	C92,99.6,91.3,99.6,90.6,99.6z M93.6,50c0.3-1.2-0.4-1.5-1.4-1.7c-0.5-0.1-1-0.2-1.5-0.2c-2.4-0.2-3.4,0.6-3.3,2.4
	c0,0.7,0.3,1,1,0.8c1.3-0.3,2.6-0.5,3.9-0.1C93.5,51.6,93.8,51.2,93.6,50z M87.4,84.3c-0.2,1.1,0,1.6,1.3,1.2c1-0.3,2.2-0.3,3.2-0.1
	c1.8,0.3,1.9,0.2,1.8-1.7c0-0.9-0.6-1-1.2-1.2c-1.2-0.3-2.4-0.3-3.6,0C87.9,82.8,87.1,83.1,87.4,84.3z M93.6,114.3
	c0.3-1.2-0.4-1.6-1.5-1.8c-1-0.2-1.9-0.2-2.9,0c-1.8,0.3-2,0.5-1.9,2.3c0,0.8,0.3,0.9,1,0.8c1.3-0.3,2.6-0.5,3.9-0.1
	C93.4,115.7,93.8,115.3,93.6,114.3z M93.6,79.9c0.2-1-0.4-1.4-1.4-1.6c-1.1-0.2-2.1-0.2-3.1,0c-1.7,0.3-1.8,0.5-1.8,2.2
	c0,0.9,0.3,1.1,1.1,0.9c1.2-0.4,2.4-0.4,3.7-0.1C93.7,81.5,93.7,81.5,93.6,79.9z M42.5,115.1c0.7,0.1,1.4,0.2,2.1,0.4
	c0.3,0,0.5,0.2,0.8,0c0.5-0.5,0.1-2.5-0.6-2.7c-1.2-0.4-2.4-0.5-3.7-0.3c-1.8,0.3-2.1,0.7-1.9,2.4c0.1,0.5,0.3,0.8,0.8,0.7
	C41,115.3,41.8,115.2,42.5,115.1z M45.6,97.1c0.4-1.2-0.4-1.6-1.5-1.8c-1-0.2-2-0.2-3,0c-1.6,0.3-1.8,0.5-1.8,2.2
	c0,0.8,0.2,1.1,1.1,0.9c1.3-0.4,2.6-0.5,3.9-0.1C45.4,98.7,45.8,98.3,45.6,97.1z M42.4,116.6c-2.6,0-3.2,0.5-3.1,2.4
	c0,0.7,0.3,0.8,0.9,0.7c1.2-0.3,2.4-0.4,3.7-0.2c1.8,0.3,1.9,0.1,1.7-1.7c0-0.5-0.3-0.8-0.7-0.9C44.1,116.7,43.2,116.7,42.4,116.6z
	 M39.3,32.9c0,1.5,0,1.6,1.4,1.3c1.4-0.3,2.6-0.2,3.9,0.1c0.3,0.1,0.6,0.2,0.9-0.1c0.6-0.8,0-2.5-1-2.7c-1.3-0.4-2.5-0.3-3.8-0.1
	C39.8,31.5,39.1,31.9,39.3,32.9z M61.5,123c0-1.7-0.2-1.9-1.7-2.1c-0.8-0.1-1.7-0.1-2.4,0c-1.7,0.1-2,0.5-2,2.3
	c0,0.8,0.3,1.1,1.1,0.9c1.2-0.3,2.4-0.3,3.7-0.1C61.2,124.1,61.7,124,61.5,123z M58.6,103.9c-2.7,0-3.2,0.4-3,2.4
	c0.1,0.6,0.3,0.8,0.8,0.7c1.5-0.4,3-0.3,4.5,0c0.3,0.1,0.6,0.1,0.7-0.3c0.5-1.6-0.2-2.5-1.8-2.7C59.4,103.8,59,103.9,58.6,103.9z
	 M106.8,22.6c-2.8,0-3.5,0.5-3.3,2.5c0.1,0.6,0.3,0.7,0.8,0.6c1.5-0.3,2.9-0.3,4.4,0c0.3,0.1,0.7,0.2,0.8-0.4
	c0.4-1.5-0.2-2.5-1.8-2.7C107.5,22.6,107.1,22.6,106.8,22.6z M61.5,24.6c0.3-1.2-0.4-1.7-1.5-1.9c-1-0.2-2-0.2-2.9,0
	c-1.6,0.3-1.7,0.5-1.7,2.1c0,1,0.3,1.2,1.2,0.9c1.2-0.3,2.4-0.3,3.6,0C61.3,25.9,61.7,25.7,61.5,24.6z M106.8,39.6
	c-2.7,0-3.3,0.4-3.2,2.4c0,0.8,0.3,1,1,0.8c1.1-0.3,2.3-0.3,3.3-0.2c1.8,0.2,1.9,0.1,1.7-1.7c0-0.6-0.3-0.9-0.8-1
	C108.1,39.7,107.4,39.6,106.8,39.6z M58.7,39.6c-2.8,0-3.4,0.6-3.2,2.5c0.1,0.5,0.3,0.7,0.8,0.6c1.6-0.4,3-0.4,4.6,0
	c0.3,0.1,0.6,0,0.7-0.4c0.4-1.7-0.1-2.4-1.8-2.6C59.4,39.6,58.9,39.7,58.7,39.6z M58.8,56.8c-2.8,0-3.4,0.5-3.3,2.4
	c0,0.6,0.2,0.9,0.9,0.7c1.5-0.4,2.9-0.3,4.4,0c0.3,0.1,0.7,0.2,0.8-0.4c0.4-1.6-0.1-2.4-1.8-2.7C59.4,56.8,59,56.8,58.8,56.8z
	 M106.6,103.8c-2.6,0-3.1,0.4-3,2.4c0,0.7,0.3,0.9,0.9,0.7c1.2-0.3,2.4-0.3,3.5-0.2c1.7,0.1,1.8,0,1.7-1.7c-0.1-0.6-0.3-0.8-0.8-1
	C108.1,103.9,107.3,103.8,106.6,103.8z M58.8,108.1c-2.8,0-3.5,0.6-3.3,2.5c0.1,0.5,0.2,0.8,0.8,0.7c1.5-0.4,3-0.4,4.5,0
	c0.6,0.2,0.7-0.1,0.8-0.7c0.1-1.9-0.1-2.2-1.9-2.4C59.3,108.1,58.9,108.1,58.8,108.1z M106.6,86.7c-2.7,0-3.2,0.4-3,2.4
	c0,0.6,0.3,0.8,0.8,0.6c1.5-0.4,2.9-0.4,4.4,0c0.5,0.1,0.8-0.1,0.9-0.7c0.2-1.7-0.2-2.3-1.9-2.4C107.4,86.7,107,86.7,106.6,86.7z
	 M58.9,90.9c-2.9,0-3.4,0.4-3.3,2.4c0,0.8,0.3,0.9,1,0.8c1.4-0.4,2.7-0.4,4,0c0.8,0.2,1-0.1,1-0.9c0-1.8,0-1.9-1.9-2.2
	C59.4,90.9,59,90.9,58.9,90.9z M103.6,58.5c0,1.6,0,1.5,1.4,1.3c1-0.2,2-0.2,2.9-0.1c1.9,0.2,1.9,0.2,1.8-1.7c0-0.6-0.3-0.9-0.9-1.1
	c-1.3-0.4-2.5-0.3-3.8-0.1C103.8,57.2,103.3,57.6,103.6,58.5z M106.9,120.9c-2.9,0-3.5,0.5-3.3,2.5c0,0.5,0.2,0.8,0.7,0.6
	c1.5-0.4,3-0.4,4.5-0.1c0.4,0.1,0.7,0,0.8-0.5c0.4-1.4-0.1-2.3-1.5-2.5C107.6,120.9,107.1,120.9,106.9,120.9z M107,90.9
	c-2.9,0-3.5,0.5-3.4,2.4c0,0.6,0.2,0.9,0.9,0.7c1.5-0.4,2.9-0.4,4.4,0c0.3,0.1,0.7,0.2,0.8-0.4c0.4-1.6-0.1-2.4-1.7-2.6
	C107.5,91,107.1,90.9,107,90.9z M106.9,76.8c0.1,0,0.6,0,1.1,0.1c1.8,0.2,1.7,0.2,1.7-1.5c0-0.7-0.3-1.1-1-1.3
	c-1.1-0.3-2.2-0.3-3.2-0.2c-1.8,0.3-2,0.6-1.9,2.4c0,0.8,0.3,0.9,1,0.7C105.1,76.8,105.8,76.8,106.9,76.8z M106.6,69.7
	c-2.7,0-3.3,0.4-3,2.5c0.1,0.5,0.2,0.7,0.7,0.6c1.5-0.4,2.9-0.4,4.5,0c0.4,0.1,0.7,0,0.8-0.4c0.5-1.5-0.1-2.4-1.7-2.6
	C107.5,69.6,107,69.7,106.6,69.7z M98.5,127.8c0.8,0,1.7,0,2.4,0c0.5,0,1.1,0.1,1.1-0.7c0-0.7,0.1-1.4-0.9-1.7
	c-1.8-0.4-3.4-0.4-5.2,0c-0.9,0.2-0.9,0.8-0.9,1.5c0,0.8,0.6,0.8,1.2,0.8C97,127.8,97.7,127.8,98.5,127.8z M58.4,69.6
	c-0.3,0-0.7,0-1.1,0.1c-1.7,0.2-2,0.6-1.9,2.3c0,0.7,0.3,1,1,0.8c1.1-0.3,2.3-0.2,3.3-0.1c1.8,0.1,1.8,0.1,1.7-1.6
	c0-0.6-0.3-0.9-0.9-1.1C60,69.7,59.3,69.6,58.4,69.6z M58.4,35.4c-0.4,0-1,0-1.6,0.1c-1.2,0.2-1.8,1.7-1.3,2.6
	c0.1,0.2,0.3,0.4,0.6,0.3c1.6-0.3,3.1-0.4,4.7,0c0.4,0.1,0.6-0.1,0.7-0.5c0.4-1.7-0.1-2.4-1.8-2.5C59.3,35.4,58.9,35.4,58.4,35.4z
	 M58.8,73.9c-2.8,0-3.5,0.5-3.3,2.4c0,0.5,0.2,0.8,0.8,0.7c1.5-0.4,3-0.4,4.5,0c0.6,0.1,0.8-0.1,0.8-0.7c0.1-1.9-0.1-2.2-1.9-2.4
	C59.3,73.9,58.9,73.9,58.8,73.9z M50.6,127.8c0.9,0,1.8,0,2.5,0c0.5,0,0.9-0.1,0.9-0.7s0.3-1.3-0.5-1.5c-1.9-0.6-3.8-0.7-5.8-0.1
	c-0.9,0.3-0.7,1-0.7,1.6c0,0.7,0.5,0.7,1,0.7C48.9,127.8,49.7,127.8,50.6,127.8z M106.6,52.6c-0.4,0-0.8,0-1.2,0.1
	c-1.7,0.2-2.1,0.7-1.9,2.4c0.1,0.5,0.2,0.8,0.8,0.7c1.5-0.3,2.9-0.3,4.4,0c0.4,0.1,0.7,0,0.8-0.4c0.5-1.5-0.1-2.4-1.7-2.6
	C107.5,52.6,107,52.6,106.6,52.6z M61.5,28.7c0.3-1-0.4-1.5-1.4-1.6c-1-0.2-2-0.2-2.9,0c-1.8,0.2-1.9,0.5-1.8,2.3
	c0.1,0.6,0.3,0.8,0.9,0.7c1.3-0.3,2.5-0.4,3.8-0.1C61.5,30.1,61.5,30.1,61.5,28.7z M109.5,109.9c0.3-1.1-0.3-1.6-1.4-1.8
	c-1-0.2-2-0.2-2.9,0c-1.8,0.3-1.8,0.4-1.8,2.1c0,0.8,0.2,1.2,1.1,0.9c1.2-0.4,2.4-0.4,3.7-0.1C109.3,111.4,109.7,111.1,109.5,109.9z
	 M58.6,86.7c-2.7-0.1-3.2,0.4-3.1,2.4c0,0.6,0.2,0.8,0.8,0.7c1.5-0.4,2.9-0.3,4.4,0c0.4,0.1,0.8,0,0.9-0.5c0.4-1.6-0.2-2.4-1.8-2.5
	C59.4,86.7,59,86.7,58.6,86.7z M106.8,26.8c-2.8,0-3.5,0.7-3.3,2.6c0.1,0.5,0.2,0.7,0.8,0.6c1.5-0.4,3-0.4,4.5,0
	c0.4,0.1,0.7,0.1,0.8-0.4c0.4-1.6-0.1-2.4-1.7-2.6C107.5,26.9,107,26.8,106.8,26.8z M106.6,35.4c-0.4,0-0.7,0-1.1,0.1
	c-1.8,0.2-2.2,0.6-2,2.4c0.1,0.6,0.3,0.8,0.9,0.7c1.4-0.3,2.8-0.3,4.2,0c0.4,0.1,0.7,0.1,0.9-0.4c0.5-1.5-0.1-2.4-1.6-2.6
	C107.5,35.4,107.1,35.4,106.6,35.4z M58.5,116.6c-0.4,0-0.8,0-1.2,0.1c-1.7,0.2-2.1,0.7-1.9,2.4c0.1,0.6,0.3,0.9,0.9,0.7
	c1.4-0.4,2.8-0.4,4.3,0c0.4,0.1,0.8,0.1,0.9-0.5c0.4-1.7-0.1-2.4-1.9-2.5C59.3,116.7,58.9,116.7,58.5,116.6z M61.5,54.2
	c0-0.5,0.2-1.2-0.6-1.4c-1.6-0.5-3.2-0.6-4.8,0.1c-1.1,0.4-0.6,1.5-0.6,2.3c0.1,0.8,0.7,0.4,1.2,0.4c1.1-0.2,2.3-0.2,3.3,0
	C61.5,55.7,61.5,55.7,61.5,54.2z M55.6,114.5c0.2,0.2-0.5,1.3,0.7,1c1.5-0.3,3-0.4,4.5,0c0.4,0.1,0.7,0,0.8-0.5
	c0.4-1.7-0.1-2.4-1.8-2.6c-1-0.2-1.9-0.1-2.7,0.1C56,112.6,55.3,113.1,55.6,114.5z M103.6,45.7c0,1.5,0,1.6,0.7,1.4
	c1.6-0.4,3-0.4,4.6,0c0.4,0.1,0.6,0,0.7-0.4c0.4-1.6,0-2.3-1.7-2.6c-1-0.2-2-0.1-3,0.1C103.8,44.2,103.4,44.7,103.6,45.7z
	 M109.5,62.7c0.3-1-0.4-1.4-1.4-1.5s-1.9-0.3-2.9-0.1c-1.8,0.4-1.9,0.5-1.8,2.3c0,0.7,0.2,0.9,0.9,0.7c1.3-0.3,2.5-0.4,3.8-0.1
	C109.5,64.3,109.5,64.3,109.5,62.7z M61.5,97.3c0-1.6-0.1-1.7-1.5-1.9c-0.4-0.1-0.9-0.2-1.3-0.2c-2.4-0.2-3.3,0.5-3.3,2.3
	c0,0.8,0.2,1.1,1.1,0.9c1.2-0.3,2.4-0.5,3.7-0.1C61.3,98.6,61.7,98.3,61.5,97.3z M106.6,98c0.8,0.1,1.5,0.2,2.3,0.3
	c0.4,0.1,0.7,0.1,0.8-0.4c0.4-1.6-0.1-2.4-1.7-2.6c-0.9-0.2-1.7-0.2-2.5,0c-2,0.4-1.9,0.4-1.8,2.4c0,0.5,0.2,0.7,0.8,0.6
	C105,98.3,105.8,98.2,106.6,98z M61.5,45.9c0.3-1.2-0.3-1.7-1.5-1.8c-1-0.1-1.9-0.2-2.7,0c-1.8,0.3-1.9,0.5-1.8,2.2
	c0,0.9,0.3,1,1.1,0.8c1.2-0.3,2.4-0.4,3.7,0C61.2,47.3,61.7,47.1,61.5,45.9z M61.5,33c0.3-1.2-0.4-1.6-1.5-1.7
	c-0.4,0-0.9-0.1-1.3-0.2c-2.4-0.2-3.4,0.5-3.3,2.4c0,0.6,0.2,0.9,0.9,0.8c1.3-0.3,2.5-0.5,3.8-0.1C61.3,34.5,61.7,34.1,61.5,33z
	 M106.6,116.6c-0.4,0-0.8,0-1.2,0.1c-1.8,0.2-2.2,0.7-1.9,2.4c0.1,0.6,0.3,0.8,0.9,0.6c1.5-0.4,2.9-0.3,4.4,0c0.4,0.1,0.7,0,0.8-0.4
	c0.5-1.6-0.1-2.4-1.7-2.5C107.5,116.7,107,116.7,106.6,116.6z M61.5,101.4c0.3-1.3-0.5-1.7-1.6-1.8c-0.9-0.1-1.7-0.1-2.5,0
	c-1.8,0.1-2.1,0.6-2,2.3c0.1,0.7,0.3,0.9,1,0.8c1.3-0.3,2.5-0.4,3.8-0.1C61.4,102.9,61.6,102.4,61.5,101.4z M58.4,63.8
	c0.6,0.1,1,0.1,1.5,0.1c1.9,0.3,1.9,0.3,1.8-1.6c0-0.7-0.4-1-1-1.1c-1.1-0.2-2.2-0.4-3.2-0.2c-1.9,0.4-2.1,0.6-1.9,2.4
	c0,0.6,0.2,0.9,0.9,0.7C57,64,57.8,63.9,58.4,63.8z M61.5,79.9c0.3-1-0.4-1.4-1.5-1.6c-0.9-0.1-1.9-0.2-2.7-0.1
	c-1.8,0.4-2,0.5-1.9,2.3c0,0.8,0.3,0.9,1,0.7c1.2-0.3,2.4-0.3,3.7-0.1C61.5,81.5,61.5,81.5,61.5,79.9z M103.7,80.2
	c0.2,0.2-0.6,1.4,0.8,1.1c1.5-0.4,2.9-0.4,4.4,0c0.3,0.1,0.5,0.2,0.8-0.1c0.6-0.9-0.1-2.5-1.1-2.8c-1.2-0.3-2.3-0.2-3.4,0
	C103.9,78.5,103.3,78.9,103.7,80.2z M103.7,114.4c0.2,0.2-0.6,1.4,0.7,1.1c1.5-0.3,2.9-0.4,4.4,0c0.3,0.1,0.5,0.2,0.8-0.1
	c0.6-0.8,0-2.5-1-2.7c-1.2-0.3-2.4-0.3-3.7-0.1C103.8,112.7,103.4,113.1,103.7,114.4z M106.7,99.6c-0.4,0-0.8,0-1.2,0.1
	c-1.8,0.1-2.2,0.6-2,2.4c0.1,0.6,0.3,0.8,0.9,0.7c1.4-0.4,2.8-0.4,4.3,0c0.4,0.1,0.7,0.1,0.9-0.3c0.5-1.4-0.1-2.4-1.6-2.6
	C107.5,99.6,107.1,99.6,106.7,99.6z M103.6,50.1c-0.1,1,0,1.6,1.3,1.2s2.5-0.3,3.8,0c0.3,0.1,0.5,0.2,0.8,0c0.5-0.5,0.1-2.5-0.6-2.7
	c-1.3-0.4-2.5-0.4-3.8-0.2C103.9,48.5,103.3,48.9,103.6,50.1z M106.8,82.4c-0.6,0-1,0-1.4,0.1c-1.7,0.2-2,0.5-1.9,2.2
	c0,0.8,0.3,1,1.1,0.8c1.1-0.3,2.3-0.3,3.3-0.1c1.7,0.3,1.7,0.2,1.7-1.5c0-0.8-0.3-1.2-1-1.3C107.9,82.5,107.3,82.5,106.8,82.4z
	 M61.5,50.1c0.3-1.2-0.4-1.7-1.4-1.8c-0.5-0.1-0.9-0.1-1.4-0.2c-2.4-0.2-3.4,0.6-3.2,2.4c0.1,0.6,0.3,0.8,0.9,0.7
	c1.3-0.3,2.5-0.5,3.8-0.1C61.2,51.6,61.7,51.3,61.5,50.1z M106.7,65.3c-0.4,0-0.8,0.1-1.2,0.1c-1.8,0.2-2.2,0.6-2,2.4
	c0.1,0.5,0.2,0.8,0.8,0.7c1.5-0.4,3-0.4,4.5,0c0.4,0.1,0.6,0,0.7-0.4c0.5-1.5-0.1-2.4-1.6-2.6C107.5,65.4,107.1,65.4,106.7,65.3z
	 M106.6,34c0.7,0.1,1.4,0.2,2.2,0.4c0.4,0.1,0.7,0.1,0.8-0.4c0.5-1.6-0.1-2.4-1.8-2.6c-0.4,0-0.7-0.1-1.1-0.1
	c-2.4-0.2-3.4,0.6-3.2,2.4c0.1,0.6,0.2,0.9,0.9,0.7C105.1,34.1,105.8,34.1,106.6,34z M58.4,82.4c-0.5,0-1.1,0-1.7,0.2
	c-1.2,0.2-1.8,1.7-1.3,2.7c0.1,0.2,0.3,0.4,0.6,0.3c1.6-0.4,3.1-0.4,4.7,0c0.4,0.1,0.6-0.1,0.7-0.5c0.4-1.7-0.1-2.4-1.8-2.6
	C59.3,82.5,58.9,82.5,58.4,82.4z M61.5,67.3c0.3-1.2-0.4-1.7-1.5-1.8c-0.9-0.1-1.8-0.1-2.6,0c-1.7,0.1-2.1,0.6-1.9,2.4
	c0.1,0.6,0.2,0.9,0.9,0.7c1.3-0.3,2.5-0.4,3.8-0.1C61.2,68.6,61.7,68.4,61.5,67.3z M42.4,127.8c0.7,0,1.4,0,2,0
	c0.5,0,1.1,0.2,1.2-0.6c0-0.7,0.2-1.4-0.8-1.7c-1.6-0.4-3-0.4-4.6,0c-0.9,0.3-0.9,0.9-0.8,1.6c0,0.9,0.7,0.7,1.2,0.7
	C41.2,127.8,41.8,127.8,42.4,127.8z M90.4,127.8c0.7,0,1.4,0,2,0c0.5,0,1.2,0.1,1.2-0.7c0-0.8,0-1.4-0.9-1.7c-1.5-0.4-2.9-0.4-4.4,0
	c-0.9,0.2-1,0.9-1,1.6c0,0.9,0.7,0.7,1.2,0.7C89.2,127.8,89.8,127.8,90.4,127.8z M106.5,127.8c0.6,0,1.3,0,1.9,0s1.2,0.1,1.2-0.8
	c0-0.7,0.1-1.4-0.9-1.7c-1.4-0.3-2.7-0.3-4.1,0c-1,0.2-1.1,0.9-1,1.7c0.1,0.9,0.7,0.7,1.2,0.7C105.3,127.8,105.9,127.8,106.5,127.8z
	 M58.5,127.8c0.6,0,1.3,0,1.9,0c0.5,0,1.2,0.1,1.2-0.7c0-0.7,0.1-1.4-0.9-1.7c-1.5-0.4-2.8-0.4-4.3,0c-1,0.2-1,0.9-0.9,1.7
	s0.7,0.7,1.2,0.7C57.3,127.8,57.9,127.8,58.5,127.8z M65.4,144.6c2.4,0,2.4,0,2.4-2.2c0-0.7-0.3-1-1-1c-1,0-1.9,0-2.8,0
	c-0.4,0-0.7,0.1-0.9,0.6c-0.5,2,0,2.5,2,2.5C65.1,144.6,65.2,144.6,65.4,144.6z M65.3,140L65.3,140c0.6,0,1.1,0,1.7,0
	c0.4,0,0.7-0.2,0.8-0.6c0.5-1.9,0-2.5-2-2.5c-0.6,0-1.3,0-1.9,0c-0.4,0-0.7,0.1-0.8,0.5c-0.5,1.8,0.1,2.6,1.9,2.6
	C65.1,140,65.2,140,65.3,140z M47.1,141.9c1.5,1,3,1.6,4.6,2.3c2.3,1,2.4,0.8,2.3-1.7c0-0.7-0.3-1-1-1c-1.5,0-2.8,0-4.3,0
	C48.2,141.5,47.7,141.3,47.1,141.9z M39.6,136.9c0,0.1-0.1,0.2-0.1,0.4c1.4,1,2.6,2.2,4.3,2.7c1.4,0.5,1.8,0,1.8-1.5
	c0-0.4,0-0.7,0-1.1c0-0.4-0.2-0.6-0.6-0.6C43.2,136.9,41.4,136.9,39.6,136.9z M98.7,141.5L98.7,141.5c-0.5,0-1,0-1.4,0
	c-2.3,0-2.4,0.2-2.2,2.4c0.1,0.7,0.5,0.9,1,0.7c1.9-0.7,3.6-1.5,5.3-2.4c0.2-0.1,0.5-0.2,0.4-0.5c-0.1-0.2-0.3-0.2-0.5-0.2
	C100.4,141.5,99.5,141.5,98.7,141.5z M115.8,122.9c-0.1-0.5,0.2-1-0.2-1.5c-0.6-0.6-2.7-0.7-3.8-0.3c-1.1,0.4-0.6,1.3-0.7,2.1
	c-0.1,0.9,0.2,1,1,0.8c0.8-0.3,1.8-0.3,2.5,0C115.7,124.2,116,124,115.8,122.9z M113.5,103.8c-2.3,0-2.7,0.6-2.5,2.4
	c0.1,0.6,0.3,0.8,0.8,0.6c1.1-0.2,2.1-0.2,3.1,0c0.3,0.1,0.6,0.1,0.8-0.3c0.6-1.3-0.1-2.5-1.5-2.7
	C114,103.8,113.7,103.8,113.5,103.8z M115.8,24.6c-0.1-0.5,0.2-1-0.3-1.5c-0.6-0.6-2.8-0.7-3.8-0.2c-1.1,0.5-0.6,1.4-0.7,2.2
	c-0.1,0.7,0.2,0.9,0.8,0.7c0.9-0.3,1.9-0.3,2.7-0.1C115.8,25.9,116,25.5,115.8,24.6z M113.6,86.7c-2.3,0-2.7,0.5-2.6,2.4
	c0.1,0.6,0.3,0.8,0.9,0.7c1.1-0.3,2.1-0.2,3.1,0c0.3,0.1,0.5,0.1,0.7-0.2c0.6-0.9-0.1-2.5-1.2-2.7C114.2,86.7,113.8,86.7,113.6,86.7
	z M83.7,144.6c2.3,0,2.4-0.1,2.2-2.4c0-0.1,0-0.2,0-0.2c0-0.4-0.3-0.6-0.6-0.6c-1.1,0-2.1,0-3.1,0c-0.3,0-0.5,0.2-0.6,0.5
	c-0.6,1.7,0.1,2.6,1.9,2.6C83.5,144.6,83.6,144.6,83.7,144.6z M83.6,140c2.4,0,2.5-0.1,2.3-2.4c-0.1-0.8-0.6-1-1.1-0.8
	c-1.1,0.3-2.7-0.9-3.2,0.8C80.9,139.6,81.4,140,83.6,140L83.6,140z M111.1,41.8c0.2,0.2-0.6,1.3,0.6,1.1c1.2-0.2,2.3-0.3,3.3,0
	c0.2,0.1,0.5,0.2,0.7-0.2c0.6-1.3-0.1-2.6-1.6-2.8c-0.5-0.1-1.1-0.1-1.7,0C111.6,39.9,110.8,40.2,111.1,41.8z M115.8,28.8
	c-0.1-0.5,0.2-1-0.3-1.4c-0.6-0.6-2.7-0.7-3.8-0.2s-0.6,1.4-0.7,2.2c-0.1,0.7,0.2,0.9,0.8,0.7c0.9-0.3,1.8-0.4,2.6-0.1
	C115.6,30.1,116,29.9,115.8,28.8z M115.8,58.6c0-0.4,0.2-0.9-0.2-1.3c-0.6-0.6-2.6-0.8-3.8-0.3c-1.2,0.5-0.6,1.5-0.7,2.3
	c-0.1,0.6,0.2,0.8,0.8,0.6c0.9-0.3,1.8-0.3,2.6-0.1C115.6,60,116.1,59.9,115.8,58.6z M115.8,75.8c0-0.4,0.2-0.9-0.2-1.4
	c-0.6-0.6-2.6-0.8-3.8-0.3c-1.2,0.4-0.6,1.4-0.7,2.1s0.2,0.9,0.9,0.7c0.9-0.3,1.8-0.3,2.6-0.1C115.7,77.2,116,76.8,115.8,75.8z
	 M113.5,69.6c-2.2,0-2.7,0.5-2.5,2.4c0.1,0.5,0.2,0.8,0.8,0.7c1.1-0.2,2.2-0.2,3.2,0c0.3,0.1,0.5,0.1,0.7-0.2
	c0.6-1.1-0.1-2.5-1.3-2.7C114.1,69.6,113.7,69.6,113.5,69.6z M115.8,92.9c-0.1-0.5,0.3-1.1-0.3-1.4c-1.2-0.7-2.5-0.8-3.8-0.2
	c-1.1,0.4-0.6,1.4-0.7,2.2c-0.1,0.7,0.2,0.8,0.8,0.7c0.9-0.3,1.8-0.3,2.6-0.1C115.6,94.3,116,94.1,115.8,92.9z M103.6,138.4
	c0,1.6,0.8,2.2,2.3,1.3c1.1-0.6,2.2-1.4,3.2-2.1c0.2-0.1,0.4-0.3,0.4-0.5c-0.1-0.3-0.4-0.2-0.6-0.2c-1.3,0-2.4,0-3.7,0
	C103.6,136.9,103.6,136.9,103.6,138.4z M115.8,45.9c-0.1-0.5,0.2-1.1-0.3-1.4c-1.2-0.8-2.5-0.7-3.8-0.2c-1.1,0.4-0.6,1.3-0.7,2.1
	c-0.1,0.8,0.3,1,1,0.7c0.9-0.3,1.7-0.3,2.5-0.1C115.6,47.3,116,47,115.8,45.9z M115.8,109.9c0-0.4,0.1-0.9-0.2-1.3
	c-0.6-0.6-2.6-0.8-3.8-0.3c-1.2,0.5-0.6,1.5-0.7,2.3c-0.1,0.6,0.2,0.8,0.8,0.6c0.9-0.3,1.9-0.4,2.7-0.1
	C115.8,111.4,116,110.9,115.8,109.9z M113.4,35.4c-2.1,0-2.6,0.6-2.4,2.4c0.1,0.5,0.2,0.7,0.8,0.6c1.1-0.3,2.2-0.3,3.2,0
	c0.6,0.1,0.8,0,0.8-0.6C116,36,115.5,35.4,113.4,35.4z M113.7,99.6c-2.3-0.1-2.8,0.5-2.6,2.4c0,0.6,0.2,0.8,0.9,0.7
	c0.7-0.2,1.5-0.3,2.2-0.2c1.8,0.3,2.1-0.1,1.7-1.9C115.5,99.5,114.4,99.8,113.7,99.6z M115.8,54.4c-0.1-0.4,0.1-0.9-0.2-1.4
	c-0.5-0.6-2.9-0.8-3.9-0.3c-1.1,0.5-0.5,1.4-0.6,2.2c-0.1,0.6,0.2,0.8,0.8,0.6c0.9-0.2,1.9-0.3,2.7-0.1
	C115.8,55.8,115.9,55.3,115.8,54.4z M115.8,62.9c-0.1-0.4,0.2-1-0.2-1.3c-1.2-0.8-2.5-0.8-3.8-0.3c-1.1,0.4-0.6,1.4-0.7,2.2
	s0.3,0.9,0.9,0.7c0.8-0.3,1.7-0.4,2.5-0.1C115.6,64.4,116.1,64.1,115.8,62.9z M111.1,114c0,1.6,0,1.6,1.5,1.3
	c0.8-0.2,1.7-0.1,2.4,0.1c0.3,0.1,0.5,0.2,0.8,0c0.5-0.5,0-2.5-0.6-2.7c-0.9-0.3-1.8-0.4-2.7-0.2C111.4,112.7,110.9,113.1,111.1,114
	z M115.8,118.6c-0.1-0.4,0.1-0.9-0.2-1.4c-0.5-0.6-2.7-0.8-3.8-0.3c-1.2,0.5-0.6,1.5-0.7,2.3c-0.1,0.6,0.2,0.8,0.8,0.6
	c0.9-0.2,1.9-0.4,2.7-0.1C115.7,119.9,116,119.5,115.8,118.6z M111.1,32.8c0,1.6,0,1.6,1.4,1.3c0.9-0.2,1.8-0.1,2.6,0.1
	c0.3,0.1,0.6,0.2,0.8-0.3c0.5-1.4-0.1-2.4-1.5-2.7c-0.6-0.1-1.2-0.1-1.9,0C111.5,31.4,110.8,31.8,111.1,32.8z M115.8,50.1
	c-0.1-0.4,0.1-0.9-0.2-1.3c-0.5-0.6-2.7-0.7-3.8-0.3c-1.1,0.4-0.6,1.4-0.7,2.2c-0.1,0.6,0.2,0.8,0.9,0.7c0.9-0.2,1.8-0.4,2.6-0.1
	C115.6,51.6,116,51.2,115.8,50.1z M115.8,67.3c0-0.4,0.1-0.9-0.2-1.3c-0.5-0.6-2.7-0.7-3.8-0.3c-1.1,0.5-0.6,1.4-0.7,2.2
	c-0.1,0.6,0.2,0.9,0.9,0.7c0.9-0.2,1.8-0.4,2.6-0.1C115.6,68.7,116,68.3,115.8,67.3z M115.8,80c-0.1-0.4,0.2-0.9-0.2-1.3
	c-0.6-0.6-2.8-0.7-3.9-0.2s-0.5,1.4-0.6,2.2c-0.1,0.6,0.2,0.8,0.8,0.6c0.9-0.3,1.8-0.4,2.6-0.1C115.5,81.5,116.1,81.3,115.8,80z
	 M115.8,97c0-0.4,0.2-1-0.3-1.3c-1.2-0.7-2.5-0.8-3.8-0.2c-1.1,0.4-0.6,1.4-0.7,2.2c-0.1,0.7,0.2,0.8,0.8,0.6
	c0.9-0.3,1.8-0.4,2.6-0.1C115.8,98.7,116,98.2,115.8,97z M113.6,82.4c-2.3,0-2.8,0.6-2.5,2.5c0.1,0.5,0.2,0.7,0.8,0.6
	c1.1-0.3,2.3-0.3,3.3,0c0.2,0.1,0.5,0.1,0.6-0.2c0.6-1-0.1-2.6-1.3-2.8C114.1,82.5,113.8,82.5,113.6,82.4z M36.5,123.9
	c0,0,0.4,0,0.7,0.1c0.3,0.1,0.5,0,0.6-0.3c0.6-1.5-0.1-2.6-1.8-2.7c-0.5,0-1.1,0-1.6,0.1c-1.1,0.2-1.4,0.9-1.2,2.4
	c0.2,1.2,1,0.4,1.5,0.5C35.2,123.9,35.7,123.9,36.5,123.9z M63.1,41.5c-0.3,1.2,0.1,1.6,1.3,1.2c0.8-0.2,1.6-0.1,2.4,0
	c0.3,0.1,0.6,0.1,0.8-0.3c0.6-1.2-0.1-2.5-1.4-2.7c-0.6-0.1-1.2-0.1-1.8,0C63.5,39.8,62.8,40.2,63.1,41.5z M63,122.7
	c-0.1,1,0.1,1.5,1.3,1.2c0.8-0.2,1.7-0.2,2.5,0c0.3,0.1,0.6,0.1,0.8-0.3c0.6-1.3-0.1-2.5-1.5-2.7c-0.5,0-1,0-1.5,0
	C63.5,121,62.8,121.5,63,122.7z M35.7,22.6c-0.2,0-0.5,0-0.7,0c-1.6,0.1-2.3,1.3-1.7,2.7c0.2,0.4,0.4,0.4,0.8,0.3c1-0.2,2-0.2,3,0
	c0.5,0.1,0.7-0.1,0.8-0.6C38.1,23.2,37.6,22.6,35.7,22.6z M65.4,22.6c-2,0-2.5,0.5-2.4,2.4c0.1,0.6,0.3,0.9,0.9,0.7
	c1-0.2,2-0.2,2.9,0c0.6,0.1,0.8-0.1,0.9-0.6C67.9,23.2,67.3,22.6,65.4,22.6z M65.6,103.8c-2.2,0-2.6,0.5-2.5,2.4
	c0,0.7,0.3,0.9,1,0.7c0.7-0.1,1.4-0.1,2.1-0.1c1.6,0.1,2-0.5,1.6-2C67.3,103.7,66.2,103.9,65.6,103.8z M35.7,86.7
	c-0.2,0-0.5,0-0.7,0c-1.6,0.1-2.3,1.3-1.7,2.7c0.2,0.4,0.4,0.4,0.8,0.3c1-0.2,2.1-0.2,3,0c0.5,0.1,0.7-0.1,0.8-0.6
	C38.1,87.2,37.6,86.7,35.7,86.7z M37.8,105.6c-0.1-0.5,0.2-1.1-0.3-1.4c-1.2-0.7-2.4-0.6-3.6-0.2c-1.1,0.4-0.5,1.4-0.6,2.2
	c-0.1,0.6,0.2,0.8,0.8,0.6c0.9-0.2,1.8-0.3,2.5-0.1C37.8,107.1,37.9,106.6,37.8,105.6z M33.3,41.5c-0.3,1.2,0.2,1.5,1.4,1.2
	c0.8-0.2,1.6-0.1,2.4,0.1c0.3,0.1,0.6,0.1,0.8-0.3c0.6-1.5-0.1-2.6-1.7-2.7c-0.5,0-1,0-1.4,0C33.8,39.9,33,40.2,33.3,41.5z M63.1,93
	c0.2,0.2-0.6,1.2,0.6,1c1.1-0.2,2.2-0.3,3.2,0c0.3,0.1,0.5,0,0.7-0.3c0.6-1.1-0.1-2.4-1.3-2.6c-0.6-0.1-1.2-0.1-1.8,0
	C63.5,91.1,62.7,91.5,63.1,93z M67.6,54.3c0-0.4,0.1-1-0.3-1.3c-0.5-0.5-2.8-0.6-3.7-0.2C62.5,53.3,63,54.2,63,55
	c-0.1,0.6,0.2,0.8,0.8,0.6c0.9-0.2,1.8-0.3,2.5-0.1C67.6,55.8,67.8,55.3,67.6,54.3z M37.8,58.6c-0.1-0.5,0.2-1.1-0.3-1.4
	c-1.2-0.7-2.4-0.6-3.6-0.1c-1,0.4-0.5,1.3-0.6,2c-0.1,0.7,0.1,1.1,0.9,0.8s1.7-0.3,2.4-0.1C37.8,60,37.9,59.5,37.8,58.6z M63.1,58.8
	c0.2,0.2-0.6,1.3,0.6,1.1c1.1-0.2,2.1-0.3,3.1,0c0.3,0.1,0.6,0.1,0.8-0.3c0.6-1.3-0.1-2.5-1.5-2.6c-0.6-0.1-1.2,0-1.8,0
	C63.5,57,62.8,57.5,63.1,58.8z M63.1,110.2c0.1,0.2-0.6,1.2,0.7,1c1.1-0.2,2.1-0.3,3.1,0c0.3,0.1,0.5,0.2,0.7-0.2
	c0.5-1-0.1-2.5-1.2-2.7c-0.7-0.2-1.3-0.2-2,0C63.5,108.3,62.7,108.8,63.1,110.2z M63.1,75.8c-0.3,1.2,0.2,1.5,1.3,1.1
	c0.7-0.2,1.6-0.1,2.4,0c0.4,0.1,0.7,0.2,0.9-0.2c0.6-1.1-0.1-2.4-1.3-2.6c-0.6-0.1-1.2-0.1-1.8,0C63.6,74.1,62.7,74.5,63.1,75.8z
	 M33.4,76c0.2,0.2-0.6,1.3,0.5,1.1c1.1-0.2,2.2-0.3,3.2,0c0.3,0.1,0.5,0,0.6-0.2c0.6-1-0.1-2.6-1.3-2.7c-0.5-0.1-1.1-0.1-1.7,0
	C33.8,74.1,33,74.4,33.4,76z M67.6,71.4c0-0.4,0.2-1-0.3-1.3c-1.2-0.7-2.4-0.6-3.6-0.3c-1.1,0.4-0.7,1.4-0.8,2.1
	c-0.1,0.7,0.3,0.9,1,0.7c0.8-0.2,1.7-0.3,2.4,0C67.6,72.9,67.8,72.3,67.6,71.4z M65.6,86.7c-0.7,0-1.3,0-1.9,0.3
	c-1.1,0.6-0.7,1.6-0.6,2.4c0.1,0.9,0.8,0.3,1.2,0.3c0.6,0,1.2,0,1.8,0c1.6,0.1,2-0.4,1.6-2C67.3,86.6,66.2,86.8,65.6,86.7z M36,69.6
	c-2.3,0-2.7,0.4-2.6,2.4c0,0.7,0.3,0.9,1,0.7c0.6-0.1,1.3-0.1,2-0.1c1.8,0.1,1.8,0.1,1.7-1.7C37.8,69.4,36.7,69.8,36,69.6z
	 M33.3,92.6c0,1.5,0,1.5,1.3,1.3c0.8-0.1,1.6-0.1,2.4,0.1c0.3,0.1,0.6,0.2,0.8-0.2c0.6-1-0.1-2.4-1.2-2.7c-0.6-0.1-1.2-0.1-1.8,0
	C33.8,91.1,33,91.5,33.3,92.6z M33.3,110c0.3,0.3-0.5,1.3,0.7,1.1c1.1-0.2,2.1-0.3,3.1,0c0.5,0.1,0.7-0.1,0.8-0.6
	c0.3-1.8-0.3-2.4-2.1-2.4C33.9,108,33.3,108.5,33.3,110z M65.5,35.4c-2.1,0-2.5,0.5-2.4,2.4c0.1,0.5,0.2,0.8,0.8,0.7
	c1-0.2,2-0.3,3,0c0.7,0.1,0.8-0.1,0.9-0.7C67.8,35.9,67.3,35.4,65.5,35.4z M35.7,52.6c-0.1,0-0.2,0-0.4,0c-1.9,0.1-2.4,0.7-2,2.5
	c0.1,0.5,0.3,0.6,0.7,0.5c1.1-0.3,2.1-0.3,3.1,0c0.5,0.1,0.7-0.1,0.7-0.6C38,53.1,37.6,52.6,35.7,52.6z M67.6,45.8
	c-0.1-0.5,0.2-1-0.3-1.4c-0.7-0.6-2.7-0.7-3.7-0.2c-1,0.5-0.5,1.4-0.6,2.1c-0.1,0.6,0.2,0.9,0.8,0.7c0.9-0.2,1.7-0.4,2.5-0.1
	C67.5,47.3,67.8,46.9,67.6,45.8z M37.8,97c0-0.4,0.2-1-0.2-1.3c-1.2-0.7-2.4-0.7-3.6-0.2c-1.1,0.4-0.6,1.3-0.7,2
	c-0.1,0.8,0.2,1,0.9,0.8c0.8-0.2,1.6-0.3,2.3-0.1C37.6,98.6,38.1,98.2,37.8,97z M67.6,97.1c-0.1-0.5,0.2-1.1-0.3-1.4
	c-1.2-0.7-2.4-0.7-3.7-0.2c-1.1,0.4-0.5,1.4-0.6,2.2c-0.1,0.6,0.2,0.8,0.8,0.6c0.9-0.3,1.8-0.4,2.6-0.1
	C67.5,98.6,67.8,98.1,67.6,97.1z M67.6,28.8c-0.1-0.5,0.2-1.1-0.3-1.4c-1.2-0.7-2.4-0.7-3.7-0.2c-1,0.4-0.5,1.4-0.6,2.1
	c-0.1,0.8,0.3,0.9,0.9,0.7c0.8-0.2,1.7-0.3,2.4-0.1C67.4,30.1,67.9,29.9,67.6,28.8z M33.4,28.9c0.2,0.2-0.6,1.3,0.6,1.1
	c1.1-0.2,2.1-0.3,3.1,0c0.3,0.1,0.5,0,0.7-0.3c0.5-1.2-0.1-2.4-1.3-2.6c-0.6-0.1-1.2-0.1-1.9,0C33.6,27.1,33.1,27.6,33.4,28.9z
	 M67.6,114.3c-0.1-0.5,0.2-1-0.3-1.4c-0.6-0.5-2.7-0.6-3.7-0.2c-1,0.5-0.5,1.5-0.6,2.2c-0.1,0.6,0.2,0.8,0.8,0.6
	c0.9-0.2,1.8-0.4,2.6-0.1C67.5,115.6,67.8,115.2,67.6,114.3z M63,63c-0.2,1.1,0.1,1.5,1.3,1.1c0.5-0.2,1.2-0.1,1.8-0.1
	c1.7,0.2,1.7,0.2,1.6-1.6c0-1.3-1.1-1.3-1.8-1.4C63.8,61,62.7,61.4,63,63z M33.3,80.2c-0.3,1.1,0.3,1.3,1.4,0.9
	c0.5-0.2,1.1-0.1,1.6-0.1c1.7,0.2,1.6,0.2,1.6-1.5c0-1.4-1-1.2-1.8-1.4C34.3,77.8,33.3,78.5,33.3,80.2z M67.6,80
	c-0.1-0.4,0.1-0.9-0.3-1.3c-0.6-0.5-2.7-0.6-3.7-0.2c-1,0.4-0.6,1.3-0.7,2c-0.1,0.8,0.2,1.1,1,0.8c0.8-0.3,1.6-0.3,2.3-0.1
	C67.4,81.5,67.9,81.2,67.6,80z M37.8,45.7c-0.1-0.5,0.2-1.1-0.3-1.4c-1.2-0.7-2.4-0.6-3.6-0.1c-1,0.4-0.5,1.4-0.6,2.1
	c-0.1,0.8,0.3,0.9,0.9,0.7c0.8-0.2,1.6-0.3,2.3-0.1C37.6,47.2,38.1,47,37.8,45.7z M63,49.9c0,1.6,0,1.6,1.4,1.3
	c0.8-0.2,1.6,0,2.4,0.1c0.3,0.1,0.6,0.2,0.8-0.2c0.6-1.1-0.1-2.5-1.4-2.7c-0.6-0.1-1.2-0.1-1.9,0C63.5,48.5,62.8,48.8,63,49.9z
	 M63,67c0,1.6,0,1.6,1.4,1.3c0.8-0.2,1.6-0.1,2.4,0.1c0.3,0.1,0.7,0.2,0.8-0.3c0.5-1.6-0.1-2.4-1.8-2.6c-0.5-0.1-1,0-1.5,0.1
	C63.4,65.6,62.8,66,63,67z M33.3,67.2c-0.3,1.1,0.1,1.6,1.3,1.2c0.8-0.3,1.6-0.1,2.4,0c0.3,0.1,0.7,0.2,0.8-0.3
	c0.5-1.7-0.1-2.5-1.8-2.6c-0.4,0-0.9,0-1.3,0.1C33.7,65.5,33,66,33.3,67.2z M37.8,37.2c0-0.4,0.2-0.9-0.2-1.3
	c-0.5-0.5-2.8-0.6-3.7-0.2c-1.1,0.6-0.5,1.5-0.6,2.3c-0.1,0.5,0.3,0.6,0.7,0.5c0.9-0.2,1.7-0.3,2.5-0.1C37.6,38.7,38,38.3,37.8,37.2
	z M67.6,33c0-0.4,0.1-0.9-0.3-1.3c-0.5-0.6-2.6-0.6-3.7-0.2c-1,0.4-0.6,1.3-0.7,1.9c-0.1,0.8,0.2,1.1,1,0.9c0.8-0.2,1.6-0.3,2.3-0.1
	C67.4,34.4,67.9,34.2,67.6,33z M65.4,99.6c-0.2,0-0.4,0-0.6,0c-1.6,0.1-2.3,1.2-1.7,2.7c0.1,0.3,0.3,0.4,0.6,0.3
	c1.1-0.3,2.2-0.3,3.2-0.1c0.5,0.1,0.7-0.1,0.8-0.6C67.9,100.2,67.4,99.6,65.4,99.6z M37.8,62.8c-0.1-0.5,0.2-1-0.3-1.4
	c-0.7-0.5-2.8-0.6-3.7-0.1c-0.9,0.5-0.4,1.4-0.5,2.2c-0.1,0.6,0.2,0.8,0.8,0.6c0.9-0.2,1.7-0.4,2.5-0.1C37.8,64.4,38,63.9,37.8,62.8
	z M37.8,118.5c-0.1-0.5,0.2-1.1-0.3-1.4c-1.2-0.7-2.4-0.6-3.6-0.1c-1,0.4-0.5,1.3-0.6,2c-0.1,0.7,0.1,1,0.9,0.8
	c0.8-0.2,1.6-0.3,2.4-0.1C37.6,119.8,38.1,119.6,37.8,118.5z M65.4,116.6c-2.1,0-2.4,0.5-2.4,2.4c0,0.7,0.3,0.9,1,0.7
	s1.4-0.3,2.1-0.1c1.8,0.3,1.8,0.2,1.6-1.6C67.6,117,67,116.7,65.4,116.6z M37.8,33c-0.1-0.5,0.2-1.1-0.3-1.4
	c-1.2-0.6-2.4-0.6-3.6-0.1c-1.1,0.4-0.5,1.3-0.6,2.1c-0.1,0.7,0.2,0.9,0.9,0.7c0.8-0.2,1.6-0.4,2.4-0.1C37.7,34.4,38,34,37.8,33z
	 M33.3,101.4c0.2,0.4-0.5,1.4,0.7,1.2c1.1-0.2,2.1-0.2,3.1,0c0.3,0.1,0.5,0.1,0.7-0.3c0.6-1.5-0.1-2.6-1.7-2.7c-0.4,0-0.9,0-1.3,0
	C33.5,99.8,33.3,100,33.3,101.4z M37.8,114.2c0-0.4,0.2-1-0.2-1.3c-1.2-0.7-2.4-0.6-3.6-0.2c-1.1,0.4-0.6,1.3-0.7,2s0.2,1,0.9,0.8
	c0.8-0.2,1.6-0.3,2.3-0.1C37.6,115.6,38.1,115.2,37.8,114.2z M63.1,84.3c-0.3,1.1,0.2,1.6,1.3,1.2c0.8-0.3,1.7-0.1,2.4,0.1
	c0.7,0.2,0.9-0.1,0.9-0.8c0.1-1.8-0.2-2.2-2-2.3c-0.4,0-0.8,0-1.2,0C63.5,82.6,62.8,83,63.1,84.3z M35.7,82.4
	c-2.1,0-2.5,0.5-2.4,2.4c0,0.6,0.2,0.8,0.8,0.6c1-0.3,2-0.3,3,0c0.6,0.2,0.7-0.1,0.8-0.7C38,82.9,37.6,82.5,35.7,82.4z M33.3,49.8
	c0,1.6,0,1.6,1.5,1.3c0.8-0.2,1.6-0.1,2.4,0.1c0.3,0.1,0.6,0.2,0.8-0.3c0.5-1.5-0.1-2.5-1.7-2.7c-0.5-0.1-1,0-1.5,0.1
	C33.7,48.5,33.1,48.8,33.3,49.8z M85.8,105.5c0-0.4,0.1-0.9-0.3-1.3c-0.5-0.5-2.6-0.6-3.5-0.2c-1,0.5-0.6,1.4-0.6,2.1
	c-0.1,0.6,0.2,0.8,0.9,0.7c0.7-0.1,1.5-0.2,2.2-0.1C85.6,107,86.1,106.7,85.8,105.5z M85.8,122.7c-0.1-0.5,0.2-1.2-0.5-1.5
	c-1.1-0.4-2.3-0.5-3.3,0s-0.6,1.5-0.6,2.3c0.1,0.9,0.8,0.3,1.2,0.4c0.6,0,1.3-0.1,1.9,0C85.6,124.1,86,123.8,85.8,122.7z M85.8,88.5
	c-0.1-0.6,0.2-1.3-0.6-1.6c-1.1-0.3-2.1-0.4-3,0c-1.2,0.5-0.7,1.6-0.6,2.4c0.1,0.9,0.8,0.3,1.2,0.3c0.6,0,1.3-0.1,1.9,0
	C85.6,89.9,86.1,89.6,85.8,88.5z M83.7,22.6c-2,0-2.4,0.5-2.2,2.4c0.1,0.6,0.3,0.8,0.9,0.7c0.9-0.2,1.8-0.2,2.6,0
	c0.7,0.1,0.8-0.1,0.9-0.7C86,23,85.6,22.6,83.7,22.6z M83.8,56.8c-0.5,0-1,0-1.5,0.2c-1.2,0.5-0.8,1.5-0.7,2.3c0,1,0.8,0.4,1.3,0.4
	c0.5,0,1,0,1.5,0c1.7,0.1,1.7,0.1,1.6-1.6C85.8,57.1,85.2,56.8,83.8,56.8z M85.8,71.4c-0.1-0.5,0.2-1.2-0.5-1.5
	c-1.1-0.4-2.3-0.5-3.3,0s-0.6,1.5-0.5,2.3c0.1,0.9,0.8,0.3,1.2,0.3c0.6,0,1.3-0.1,1.9,0C85.6,72.8,86.1,72.5,85.8,71.4z M83.4,73.9
	c-0.1,0-0.6,0.1-1,0.2c-1.4,0.3-1,1.5-0.9,2.3c0.1,1.1,0.9,0.5,1.4,0.5c0.5,0,1,0,1.6,0c1.6,0.1,1.6,0.1,1.5-1.5
	C85.8,74.2,85.3,73.9,83.4,73.9z M83.8,39.6c-1.9,0-2.4,0.5-2.3,2.4c0.1,0.6,0.2,0.9,0.9,0.7c0.7-0.1,1.3-0.1,2-0.1
	c1.7,0.1,1.7,0.1,1.6-1.6C85.8,40,85.2,39.7,83.8,39.6z M81.5,45.7c0,1.4,0,1.4,1.4,1.2c0.5-0.1,1-0.1,1.4,0
	c1.7,0.1,1.7,0.1,1.7-1.6c-0.1-1.4-1.2-1.2-2-1.3C82.2,43.7,81.5,44.3,81.5,45.7z M84.5,38.4c0.4-0.2,1.2,0.6,1.4-0.3
	c0.2-0.7,0.3-1.6-0.2-2.3c-0.4-0.5-2.6-0.6-3.5-0.2c-1,0.5-0.6,1.4-0.6,2.1c-0.1,0.6,0.2,0.9,0.9,0.7C83,38.3,83.7,38.2,84.5,38.4z
	 M85.8,92.7c0-0.4,0.1-0.9-0.3-1.3c-0.6-0.6-2.5-0.7-3.5-0.2s-0.6,1.4-0.6,2.1c0,0.6,0.3,0.9,0.9,0.7c0.7-0.2,1.5-0.2,2.2-0.1
	C85.7,94.2,86,93.8,85.8,92.7z M85.8,54.3c-0.1-0.5,0.2-1-0.3-1.4c-0.5-0.5-2.6-0.6-3.5-0.2c-1,0.5-0.5,1.4-0.6,2.1
	c-0.1,0.6,0.3,0.8,0.9,0.7c0.8-0.2,1.6-0.3,2.4,0C85.7,55.8,86,55.4,85.8,54.3z M85.8,109.8c0-0.4,0.1-0.9-0.3-1.3
	c-0.6-0.5-2.5-0.6-3.5-0.2c-1,0.5-0.6,1.4-0.6,2.1c0,0.6,0.3,0.9,0.9,0.7c0.7-0.2,1.5-0.3,2.2-0.1C85.7,111.3,86,110.9,85.8,109.8z
	 M84,29.7c0.3,0,0.7,0.1,1.2,0.2c0.3,0.1,0.6,0,0.8-0.4c0.5-1.4-0.1-2.4-1.6-2.6c-0.5-0.1-1,0-1.5,0.1c-1.3,0.3-1.5,0.8-1.3,2.3
	c0.2,1.2,1,0.5,1.6,0.5C83.3,29.7,83.5,29.7,84,29.7z M81.5,62.8c0,1.4,0,1.4,1.4,1.2c0.5-0.1,1-0.1,1.4,0c1.7,0.1,1.7,0.1,1.7-1.6
	c0-1.4-1.1-1.2-1.9-1.3C82.4,60.8,81.5,61.5,81.5,62.8z M85.9,67.2c-0.1-0.5,0.2-1-0.3-1.4c-0.5-0.5-2.6-0.6-3.5-0.2
	c-1,0.5-0.6,1.4-0.7,2.2c-0.1,0.6,0.2,0.8,0.8,0.6c0.8-0.2,1.6-0.3,2.4-0.1C85.6,68.6,86.1,68.2,85.9,67.2z M81.5,80
	c0,1.4,0,1.4,1.3,1.2c0.5-0.1,1-0.1,1.5,0c1.7,0.2,1.6,0.2,1.6-1.5c0-1.3-0.9-1.3-1.7-1.4C82.4,78,81.2,78.4,81.5,80z M83.9,99.6
	c-2.2,0-2.6,0.5-2.4,2.4c0.1,0.5,0.2,0.7,0.7,0.6c0.7-0.1,1.3-0.3,2-0.2c1.8,0.2,2,0,1.7-1.8C85.6,99.3,84.6,99.8,83.9,99.6z
	 M85.9,118.8c-0.1-0.8,0.1-1.3-0.3-1.7c-0.5-0.5-2.8-0.6-3.6-0.1c-0.9,0.6-0.5,1.5-0.5,2.3c0,0.5,0.3,0.6,0.7,0.5
	c0.8-0.1,1.6-0.3,2.4-0.1C85.6,119.8,86.1,119.6,85.9,118.8z M83.9,82.4c-2.1,0-2.5,0.4-2.4,2.3c0,0.6,0.2,0.9,0.9,0.7
	c0.6-0.1,1.2-0.3,1.9-0.2c1.8,0.3,2,0.1,1.7-1.8C85.6,82.2,84.6,82.6,83.9,82.4z M85.8,33c-0.1-0.5,0.2-1.1-0.3-1.4
	C84.5,31,83.2,31,82,31.5c-1,0.4-0.5,1.4-0.6,2.1c-0.1,0.7,0.3,0.8,0.9,0.7c0.8-0.2,1.6-0.3,2.3-0.1C85.7,34.4,86,34,85.8,33z
	 M85.8,50c-0.1-0.5,0.2-1.1-0.3-1.4c-1.1-0.6-2.4-0.6-3.5-0.2c-1,0.3-0.5,1.3-0.6,2c-0.1,0.7,0.2,1,1,0.8c0.7-0.2,1.5-0.3,2.2-0.1
	C85.6,51.5,86.1,51.2,85.8,50z M85.9,97.1c-0.1-0.5,0.2-1-0.3-1.4c-0.6-0.6-2.7-0.6-3.6-0.2c-0.9,0.5-0.4,1.4-0.5,2.1
	c-0.1,0.6,0.2,0.8,0.8,0.6c0.8-0.2,1.7-0.3,2.4-0.1C85.7,98.5,86,98.1,85.9,97.1z M81.5,114.3c-0.2,0.9,0.1,1.4,1.3,1
	c0.5-0.2,1-0.1,1.5-0.1c1.7,0.2,1.7,0.2,1.6-1.5c0-1.4-1.1-1.3-1.9-1.4C82.3,112.1,81.5,112.7,81.5,114.3z M113.4,127.8
	c0.5,0,1,0,1.4,0c0.8,0.1,1-0.3,1-1.1c0-0.8-0.3-1.2-1.1-1.5c-1-0.3-1.9-0.2-2.7,0c-1,0.3-1,0.9-1,1.8c0.1,1,0.8,0.7,1.3,0.7
	C112.7,127.8,113.1,127.8,113.4,127.8z M35.5,127.8c0.4,0,0.7,0,1.1,0c1.1,0.1,1.4-0.4,1.3-1.4c0-0.6-0.2-0.9-0.8-1.1
	c-0.9-0.3-1.9-0.2-2.7,0c-1,0.2-1,0.9-1,1.7c0,1,0.7,0.7,1.3,0.8C34.9,127.8,35.2,127.8,35.5,127.8z M65.3,127.8c0.4,0,0.8,0,1.2,0
	c1.2,0.1,1.3-0.5,1.2-1.5c0-0.6-0.4-0.8-0.9-1c-1-0.4-2-0.3-2.9,0c-1,0.3-0.9,1-0.8,1.7c0,0.9,0.7,0.7,1.2,0.7
	C64.6,127.8,65,127.8,65.3,127.8z M83.7,127.8L83.7,127.8c0.5,0,1,0,1.4,0c0.6,0,0.8-0.3,0.9-0.9c0.1-1-0.2-1.6-1.3-1.8
	c-0.8-0.1-1.6-0.1-2.3,0.1c-1,0.3-0.9,1-0.9,1.8c0.1,0.8,0.7,0.7,1.2,0.7C83,127.8,83.4,127.8,83.7,127.8z M65.4,146
	c-0.4,0-0.9,0-1.3,0c-0.5,0-1-0.1-1.1,0.6c-0.1,0.7,0.3,1,1,1.1c0.9,0.1,1.9,0.3,2.7,0.4c0.6,0.1,0.9-0.1,0.9-0.7
	c0.1-0.9-0.1-1.6-1.3-1.4C66,146,65.8,146,65.4,146z M81.5,147.1c0,0.5-0.1,1.1,0.7,1c1.1-0.1,2.1-0.3,3.1-0.5
	c0.5-0.1,0.6-0.5,0.6-1c0-0.5-0.3-0.7-0.8-0.7c-0.9,0-1.7,0-2.5,0C81.7,145.9,81.4,146.3,81.5,147.1z"/>
</svg>
