<?xml version="1.0" encoding="utf-8"?>
<!-- Generator: Adobe Illustrator 22.0.1, SVG Export Plug-In . SVG Version: 6.00 Build 0)  -->
<svg version="1.1" id="Layer_1" xmlns="http://www.w3.org/2000/svg" xmlns:xlink="http://www.w3.org/1999/xlink" x="0px" y="0px"
	 viewBox="0 0 150 150" style="enable-background:new 0 0 150 150;" xml:space="preserve">
<style type="text/css">
	.st0{fill:#FFFFFF;}
</style>
<path class="st0" d="M30.3,106.2c0.1-3.3-0.6-3,2.9-3s2.9-0.3,2.9,2.9c0,3.4,0.5,3-2.9,3C30.3,109.2,30.3,109.2,30.3,106.2z
	 M33.3,104.7c-1.7,0-1.7,0-1.7,1.3c0,1.6,0,1.7,1.5,1.7s1.5-0.1,1.5-1.5C34.6,105.1,34.4,104.5,33.3,104.7z"/>
<path class="st0" d="M48.6,109.2c-3.3,0-2.9,0.4-2.9-3c0-3.2-0.5-3,2.9-3s3-0.4,3,3C51.6,109.7,51.8,109.1,48.6,109.2z M48.8,104.7
	c-1.7,0-1.7,0-1.7,1.5s0.1,1.5,1.5,1.5c1.1,0.1,1.5-0.3,1.5-1.5C50.1,105.2,50,104.4,48.8,104.7z"/>
<path class="st0" d="M75.2,150c-7.7,0.1-15.1-1.3-22.2-4.1c-17.1-6.8-28.9-18.8-35.6-35.8c-2.5-6.3-3.7-12.9-3.9-19.6
	c-0.3-8,1-15.8,3.8-23.3c0.1-0.2,0.2-0.4,0.2-0.7c0.2-0.6,0.1-0.8-0.6-0.8c-2.8,0.1-4.6-1.2-5.5-3.6c-1.1-3.2,1.3-6.7,4.7-6.7
	c1,0,1.6-0.3,2.3-1.1c1.4-1.7,3.4-2.5,5.6-2.3c0.9,0.1,1.5-0.1,2-0.9c9.3-12.1,21.4-19.8,36.3-23c1.5-0.3,2.6-1.5,4-1.9
	c2.1-0.5,2.7-1.8,2.4-3.8c-0.2-1-0.1-2,1.4-1.9c0.6,0.1,0.6-0.5,0.6-0.9c0.2-2.5,0-5-1.4-7.3c-0.4-0.6-0.7-1.3,0.5-1.4
	c0.4-0.1,0.4-0.5,0.5-0.8c0.6-1.9,1.8-3.2,3.7-3.7c0.8-0.2,1-0.6,0.9-1.4c0-1.4,0-2.8,0-4.2c0-0.5,0.1-0.9,0.8-0.9
	c0.6,0,0.7,0.4,0.7,0.9c0,1.4,0,2.7,0,4.1c0,0.8,0.2,1.3,1,1.6c1.8,0.6,3,1.8,3.6,3.6c0.1,0.5,0.3,0.9,0.9,0.9s0.7,0.4,0.5,0.9
	c-0.1,0.2-0.2,0.4-0.3,0.6c-1.6,2.2-1.5,4.6-1.4,7.1c0,0.5,0.2,1,0.8,0.9c0.7,0,1.1,0.3,0.9,1c-0.5,2.6,0.6,4,3.1,5
	c2.1,0.9,4.2,1.8,6.4,2.5c23.3,7.5,37.9,23.1,43.3,46.9c3.6,15.7,0.6,30.7-7.7,44.4c-7.7,12.7-18.8,21.4-32.9,26.3
	c-5.9,2-12.1,3.2-18.4,3.2C75.9,150,75.6,150,75.2,150z M60.5,30.2c-0.3-0.2-0.5-0.1-0.6,0c-8,2.1-15.3,5.7-21.8,10.8
	c-4,3.1-7.6,6.7-10.7,10.8c-0.3,0.3-0.8,0.8-0.2,1.2c1.8,1.1,2.5,3.8,5.3,3.4c0.1,0,0.1,0.1,0.2,0.1c2,0.8,3.2,3.1,2.9,5.1
	c-0.4,2.3-2.3,3.9-4.9,4c-3.4,0.1-6.7,0.2-10.1,0.2c-0.9,0-1.3,0.3-1.7,1.1c-3.3,8.7-4.6,17.7-3.8,27c0.1,0.7,0.3,1,1,0.9
	c1.3,0,2.7,0,4,0c2.3,0,2.4,0,2.7-2.3c0.2-0.9,0.5-1.3,1.5-1.3c3.3,0.1,6.6-0.1,9.9,0.1c3.4,0.1,6.5-0.4,9.7-1.5
	c0.9-0.3,1.3-0.7,1.3-1.7c0-4.8-0.1-9.7,0-14.5c0-2.9,0.2-5.8-1.5-8.4v-0.1c-0.3-0.6-0.1-0.9,0.6-0.9c0.9,0,1-0.5,1-1.2
	c0-2.3,0.1-2.3,2.4-2.3h0.1c0.8,0.1,1-0.3,1-1.1c0-3.3,0.5-6.6-1.5-9.6c-0.1-0.1-0.1-0.2-0.1-0.3c-0.1-0.3,0-0.6,0.4-0.6
	c1.5,0.2,1.3-0.9,1.3-1.8c0-3.2-0.2-2.7,2.7-2.7c1.1,0,1.5-0.3,1.7-1.3c0.9-4.1,2.8-7.8,5.6-11C59.3,31.5,59.9,30.9,60.5,30.2z
	 M91.2,30.7c0.1,0.1,0.2,0.3,0.4,0.4c3.4,3.4,5.6,7.5,6.6,12.1c0.2,1,0.7,1.4,1.7,1.3c0.3,0,0.6,0,0.8,0c0.8-0.1,1,0.4,1,1.1
	c0,0.8,0,1.6,0,2.5c0,0.5,0.1,0.9,0.8,0.9c1.1,0,1,0.6,0.6,1.2c-1.3,2.1-1.5,4.3-1.4,6.7c0.1,0.7,0,1.4,0,2.1c0,1.6,0,1.6,1.6,1.6
	c2,0,2,0,2,1.9c0,0.3,0,0.5,0,0.8c0,0.5,0.2,0.8,0.7,0.7c1.3-0.1,0.9,0.6,0.6,1.3c-0.5,1.2-1.3,2.2-1.3,3.5c0,6.5,0,13,0,19.5
	c0,0.5,0.1,0.9,0.7,1.1c2.7,0.7,5.2,1.8,8.1,1.7c3.4-0.2,6.9,0,10.4,0c2.6,0,2.7,0,3,2.6c0.1,0.7,0.3,0.9,1,0.9c1.6,0,3.3,0,4.9,0
	c1.5,0,1.6-0.1,1.7-1.6c0.2-5.3,0.2-10.6-0.9-15.8c-3.9-18.8-14.2-32.8-31-42C99.5,33.2,95.5,31.6,91.2,30.7z M75.2,96.2
	c11.2,0,22.4,0,33.6,0c2.8,0,2.2,0.2,2-2.4c-0.1-0.9-0.3-1.4-1.4-1.4c-22.8,0-45.5,0-68.3,0c-1,0-1.4,0.4-1.4,1.3
	c0,0.3,0,0.5-0.1,0.8c-0.2,1.6-0.2,1.6,1.5,1.6C52.5,96.2,63.9,96.2,75.2,96.2z M18.1,64.3c4.3-0.4,8.6-0.1,12.9-0.4
	c1.7-0.1,2.6-0.9,3-2.6c0.3-1.3-0.2-2.6-1.4-3.4c-0.9-0.6-1.8-0.6-2.8-0.3c-0.7,0.2-1,0-1.2-0.6c-0.2-0.7-0.6-1.4-1.1-1.9
	c-2.4-2.6-6.8-2.1-8.7,1.1c-0.4,0.6-0.7,0.9-1.5,0.7c-2.3-0.5-4.4,0.9-4.6,3.1c-0.3,2.5,1.3,4.3,3.8,4.4
	C17,64.3,17.6,64.3,18.1,64.3z M75.1,133.8c11.3,0,22.6,0,33.9,0c1.3,0,1.5-0.2,1.4-1.4c-0.1-1.1-0.9-0.8-1.5-0.8
	c-16.2,0-32.3,0-48.5,0c-6.5,0-13,0-19.4,0c-0.9,0-1.2,0.3-1.2,1.2c0,1.1,0.7,1,1.4,1C52.5,133.8,63.8,133.8,75.1,133.8z M75.2,49
	c1.9,0,3.8,0,5.8,0c6,0,11.9,0,17.9,0c0.4,0,1.1,0.2,1.3-0.3c0.3-0.8,0.3-1.7,0-2.4c-0.2-0.7-0.9-0.4-1.5-0.4c-15.7,0-31.3,0-47,0
	c-0.3,0-0.5,0-0.8,0c-0.2,0-0.5,0-0.6,0.3c-0.2,0.8-0.3,1.7,0,2.4c0.2,0.7,1,0.4,1.5,0.4C59.6,49,67.4,49,75.2,49z M75.3,97.7
	c-11.3,0-22.7,0-34,0c-0.4,0-0.7,0-1.1,0c-0.6,0-0.7,0.2-0.7,0.8c0.1,1.2,0.8,1.3,1.8,1.3c18.8,0,37.7,0,56.5,0c3.9,0,7.8,0,11.7,0
	c1.1,0,1.4-0.6,1.4-1.5c0-1.1-0.9-0.6-1.3-0.6C98.2,97.6,86.7,97.7,75.3,97.7z M75.2,84.5c-8.7,0-17.5,0-26.2,0
	c-2.6,0-2.3-0.3-2.3,2.3c0,2.4,0,2.2,2,1.4c3.3-1.2,6.6-1.6,10.1-1.6c11.3,0.1,22.6,0.1,33.9,0c2.9,0,5.6,0.4,8.3,1.3
	c2.8,1,2.8,0.9,2.9-2c0-1.2-0.4-1.5-1.5-1.5C93.3,84.5,84.2,84.5,75.2,84.5z M75.1,121c-11.1,0-22.3,0-33.4,0c-0.4,0-0.7,0-1.1,0
	c-0.5,0-0.8,0.2-0.8,0.8c-0.1,1.1,0.1,1.3,1.6,1.3c22.3,0,44.6,0,66.9,0c0.4,0,0.8,0,1.2,0c0.8-0.1,1.3-1,0.8-1.7
	c-0.4-0.5-0.9-0.3-1.4-0.3C97.7,121,86.4,121,75.1,121z M75.1,91.2c6.3,0,12.6,0,18.8,0c1.2,0,1.5-0.4,1.4-1.5c0-1,0-1.7-1.4-1.7
	c-12.5,0.1-25,0-37.6,0c-1.3,0-1.4,0.5-1.4,1.6s0.1,1.6,1.4,1.6C62.7,91.1,68.9,91.2,75.1,91.2z M75.3,65.6c-9.3,0-18.7,0-28,0
	c-0.4,0-0.7,0-1.1,0c-0.5,0-0.6,0.2-0.5,0.7c0.3,1,0.8,1.4,2,1.4c18.3,0,36.7,0,55,0c0.2,0,0.4,0,0.6,0c0.7,0,1.7-0.9,1.5-1.6
	c-0.2-0.8-0.9-0.4-1.4-0.4C94,65.6,84.7,65.6,75.3,65.6z M38.5,110.3c0-2.7,0-5.3,0-8c0-0.8-0.2-1.2-1-1.2c-2.8,0-5.6,0-8.5,0
	c-0.7,0-1,0.3-1,1c0,5.4,0,10.9,0,16.3c0,0.8,0.4,1,1.1,1s1.1-0.1,1.1-1c0-1.3,0-2.5,0-3.8c0-0.5,0.1-0.9,0.5-1.3
	c0.6-0.6,1.2-1.2,1.8-1.8c0.4-0.4,0.7-0.4,1.2,0c1.5,1.3,2.8,2.7,2.3,5c-0.1,0.6,0,1.2,0,1.8c-0.1,0.9,0.4,1.1,1.2,1.1
	c0.9,0,1.3-0.2,1.3-1.2C38.5,115.7,38.5,113,38.5,110.3z M75.2,50.3c-8.2,0-16.4,0-24.6,0c-0.5,0-1.2-0.3-1.4,0.3
	c-0.2,0.5,0.3,1.1,0.6,1.6s0.8,0.3,1.3,0.3c16.1,0,32.2,0,48.3,0c0.2,0,0.5,0,0.7,0c0.9-0.2,1.1-1.1,1.1-1.7
	c0.1-0.8-0.8-0.4-1.2-0.4C91.8,50.3,83.5,50.3,75.2,50.3z M122.2,110.4c0-2.7,0-5.4,0-8.1c0-0.7-0.2-1.1-1-1.1c-2.7,0-5.5,0-8.2,0
	c-0.7,0-1,0.2-1,1c0,5.5,0,10.9,0,16.4c0,0.8,0.4,1,1.1,1s1.1-0.1,1.1-1c0-1.3,0-2.5,0-3.8c0-0.5,0.2-1,0.6-1.4
	c0.6-0.6,1.2-1.1,1.7-1.7c0.4-0.4,0.7-0.4,1.2,0c1.6,1.3,2.8,2.7,2.3,5c-0.1,0.5,0,1.1,0,1.6c-0.1,0.8,0.2,1.2,1.1,1.2
	s1.1-0.4,1.1-1.2C122.1,115.7,122.2,113,122.2,110.4z M80.3,110.3c0-2.7,0-5.3,0-8c0-0.8-0.2-1.2-1.1-1.1c-2.7,0-5.3,0-8,0
	c-0.8,0-1,0.3-1,1.1c0,5.4,0,10.8,0,16.2c0,0.8,0.4,1,1.1,1s1-0.3,1-1c0-1.3,0-2.6,0-3.9c0.1-1.9,1.3-3.3,3-3.3
	c1.6,0,2.8,1.3,2.9,3.2c0.1,1.2,0,2.4,0,3.6c0,0.7,0,1.3,1,1.3s1.1-0.5,1-1.3C80.2,115.6,80.3,113,80.3,110.3z M96.8,110.3
	c0,2.6,0,5.3,0,7.9c0,0.8,0.1,1.3,1.1,1.3s1-0.6,1-1.3c0-1.3-0.1-2.6,0-3.9c0.1-1.8,1.5-3,3-2.9c1.6,0.1,2.8,1.3,2.8,3.2
	c0,1.3,0,2.5,0,3.8c0,0.7,0.1,1.2,1,1.2s1.1-0.5,1.1-1.2c0-5.3,0-10.5,0-15.8c0-1-0.3-1.3-1.3-1.3c-2.5,0.1-5,0-7.5,0
	c-1,0-1.3,0.3-1.3,1.3C96.9,105.1,96.8,107.7,96.8,110.3z M68.7,110.4c0-2.7,0-5.4,0-8.1c0-0.7-0.1-1.1-1-1.1c-2.7,0-5.4,0-8.1,0
	c-0.7,0-1,0.3-1,1c0,5.5,0,10.9,0,16.4c0,0.8,0.4,1,1.1,1c0.7,0,1-0.3,1-1c0-1.3,0-2.5,0-3.8c0-0.8,0.1-1.5,0.6-2.1
	c0.7-1,1.7-1.4,2.9-1.2c1.2,0.2,2,1,2.3,2.2c0.3,1.5,0.1,3.1,0.2,4.7c0,0.8,0.2,1.2,1.1,1.2s1-0.4,1-1.2
	C68.7,115.7,68.7,113.1,68.7,110.4z M53.6,110.4c0-2.7,0-5.4,0-8.1c0-0.7-0.2-1.1-1-1.1c-2.7,0-5.3,0-8,0c-0.8,0-1.1,0.3-1.1,1
	c0,5.4,0,10.8,0,16.2c0,0.8,0.3,1,1.1,1s1-0.4,1-1.1c0-1.4,0-2.7,0-4.1c0.1-1.7,1.2-2.8,2.8-2.9c1.5-0.1,2.7,1,3,2.6
	c0.3,1.5,0.1,3,0.1,4.5c0,0.8,0.3,1.1,1.1,1.1s1-0.5,0.9-1.1C53.6,115.7,53.6,113,53.6,110.4z M81.8,110.3c0,2.7,0,5.3,0,8
	c0,0.7,0.1,1.2,1,1.2c1,0,1.1-0.5,1.1-1.3c0-1.2,0-2.4,0-3.5c0.1-2,1.2-3.3,2.9-3.3c1.7,0,3,1.3,3,3.4c0,1.2,0,2.4,0,3.5
	c0,0.8,0.1,1.3,1.1,1.3c0.9,0,1-0.5,1-1.2c0-5.3,0-10.6,0-15.9c0-0.8-0.3-1.2-1.1-1.2c-2.6,0-5.2,0-7.8,0c-0.9,0-1.2,0.3-1.1,1.2
	C81.8,105,81.8,107.6,81.8,110.3z M68.7,141.7c0-1.8,0-3.6,0-5.4c0-0.9-0.3-1.2-1.2-1.2c-3.2,0-6.4,0-9.5,0c-1,0-1.3,0.4-1.2,1.3
	c0.1,2.2,0,4.5,0,6.7c0,2.9,0,2.8,2.8,3.5c0.9,0.2,1.1,0,1.1-0.9c0-1.5,0-3,0-4.5c0.1-1.9,1.5-3.2,3.3-3c1.5,0.2,2.5,1.3,2.6,3.3
	c0.1,1.8,0,3.7,0,5.5c0,0.8,0.3,1.1,1.1,1.1c0.9,0,1-0.4,1-1.1C68.7,145.3,68.7,143.5,68.7,141.7z M81.8,141.7c0,1.8,0,3.7,0,5.5
	c0,1,0.5,1.1,1.3,1c0.7-0.1,0.8-0.7,0.8-1.2c0-2-0.1-3.9,0.1-5.9c0.1-1.7,1.3-2.7,2.8-2.8c1.5,0,2.6,0.9,3,2.5
	c0.2,1,0.1,2.1,0.1,3.2c0.1,3.3-0.7,3.2,3,2.1c0.7-0.2,0.9-0.6,0.9-1.3c0-2.9,0-5.7,0-8.6c0-0.8-0.3-1-1.1-1c-3.3,0-6.5,0-9.8,0
	c-0.8,0-1.1,0.3-1.1,1.1C81.8,138,81.8,139.8,81.8,141.7z M48.5,135.1c-1.9,0-3.8,0-5.8,0c-0.5,0-0.9,0-1,0.7
	c-0.1,1.6-0.2,3.2,1.7,3.9c0.3,0.1,0.5,0.3,0.8,0.5c0.8,0.6,1.4,0.7,1.8-0.5c0.1-0.3,0.5-0.6,0.8-0.9c1.9-1.3,4.5-0.3,4.5,2
	c0.1,2.3,0.7,3.8,3.1,4.2c0.8,0.1,1,0.1,1-0.7c0-2.7,0-5.4,0-8.1c0-0.8-0.3-1.1-1.1-1.1C52.4,135.2,50.5,135.1,48.5,135.1z
	 M80.3,141.8c0-1.9,0-3.8,0-5.6c0-0.7-0.2-1-0.9-1c-2.7,0-5.5,0-8.2,0c-0.6,0-0.9,0.3-0.9,0.9c0,3.8,0,7.7,0,11.5
	c0,1,0.8,0.9,1.4,0.9c0.8,0.1,0.6-0.5,0.6-1c0-2,0-3.9,0-5.9c0-0.8,0.1-1.7,0.7-2.3c0.8-1,1.9-1.3,3.1-1c1.3,0.3,2.1,1.4,2.1,2.9
	c0.1,2,0,4.1,0,6.1c0,0.5-0.1,1.2,0.8,1.1c0.8,0,1.4-0.1,1.3-1.2C80.2,145.5,80.3,143.7,80.3,141.8z M102,135.1c-2,0-3.9,0-5.9,0
	c-0.7,0-1.1,0.1-1.1,1c0,2.7,0,5.4,0,8.1c0,0.8,0.2,0.9,1,0.7c2.7-0.9,2.7-0.8,3-3.6c0.1-1.6,0.9-2.7,2.2-3c1.4-0.3,2.5,0.2,3.4,1.7
	c0.2,0.3,0.2,0.7,0.6,0.5c1.2-0.6,2.3-1.2,3.3-2.1c0.6-0.6,0.2-1.5,0.3-2.3c0.1-0.8-0.3-1-1-1C105.8,135.2,103.9,135.1,102,135.1z
	 M83.8,76.2c0-1.9-0.1-3.8,0-5.8c0-1.1-0.4-1.4-1.4-1.3c-0.8,0.1-1.6,0-2.5,0c-0.7,0-1,0.2-1,0.9c0,4,0,8.1,0,12.1
	c0,0.7,0.3,1,1,0.9c0.9,0,1.9,0,2.8,0c0.8,0,1-0.3,1-1.1C83.8,80.1,83.8,78.2,83.8,76.2z M77.6,76.2c0-1.2,0-2.4,0-3.5
	c0-3.6,0-3.6-3.6-3.5c-0.9,0-1.2,0.3-1.2,1.2c0,3.1,0,6.1,0,9.2c0,3.7,0,3.7,3.7,3.6c0.8,0,1.1-0.3,1.1-1.1
	C77.6,80.1,77.6,78.1,77.6,76.2z M60.6,76.2c0,2,0,3.9,0,5.9c0,0.8,0.2,1.2,1.1,1.1c0.8-0.1,1.6-0.1,2.4,0s1.2-0.2,1.2-1.1
	c0-3.9,0-7.9,0-11.8c0-0.8-0.3-1.2-1.1-1.1c-0.8,0-1.6,0-2.4,0c-0.9-0.1-1.2,0.3-1.2,1.1C60.6,72.2,60.6,74.2,60.6,76.2z M71.4,76.2
	c0-1.3,0-2.5,0-3.8c0-3.3,0-3.2-3.3-3.3c-1.2,0-1.5,0.4-1.4,1.5c0.1,3,0,6,0,9c0,3.6,0,3.5,3.5,3.5c1,0,1.2-0.4,1.2-1.3
	C71.3,80,71.3,78.1,71.4,76.2z M72.8,26.4c-1.7,0.9-2.6,1.9-3.5,3.1c-3,4.2-4.3,9-5,14c-0.1,0.8,0.2,1.1,1,1c0.9,0,1.9,0,2.8,0
	c0.7,0,1-0.2,1-0.9C69.7,37.8,70.2,32,72.8,26.4z M85.3,76.1c0,1.3,0,2.7,0,4c0,3.1,0,3.1,3.1,3.1c1,0,1.4-0.4,1.3-1.4
	c0-3.2,0-6.4,0-9.5c0-3.7,0.6-3.1-3.3-3.1c-0.9,0-1.2,0.4-1.1,1.2C85.3,72.2,85.3,74.2,85.3,76.1z M76.6,35.5c0,2.6,0,5.3,0,7.9
	c0,0.8,0.2,1.2,1.1,1.1c0.9,0,1.7,0,2.6,0c0.6,0,0.9-0.1,0.8-0.9c-0.2-2.6-0.4-5.2-0.9-7.8c-0.5-2.9-1.1-5.8-2.5-8.4
	c-0.2-0.3-0.3-0.8-0.8-0.7c-0.5,0.1-0.3,0.6-0.3,1C76.6,30.3,76.6,32.9,76.6,35.5z M75.1,35.6c0-2.7,0-5.4,0-8.1
	c0-0.3,0.1-0.7-0.3-0.8c-0.4-0.1-0.6,0.3-0.8,0.6c-0.4,0.9-0.9,1.8-1.2,2.7c-1.3,3.9-1.9,8-2.1,12.1c-0.2,2.9-0.4,2.5,2.4,2.5
	c0.2,0,0.5,0,0.7,0c1,0.1,1.3-0.4,1.3-1.3C75.1,40.7,75.1,38.1,75.1,35.6z M91.2,76.1c0,1.4,0,2.8,0,4.2c0,2.9,0,2.8,2.9,2.9
	c1,0,1.4-0.3,1.4-1.4c0-3.3,0-6.5,0-9.8c0-3.4,0.5-2.9-3-2.9c-0.9,0-1.2,0.3-1.2,1.2C91.2,72.2,91.2,74.2,91.2,76.1z M59.3,76.2
	c0-1.4,0-2.9,0-4.3c0-3.1,0.5-2.6-2.7-2.7c-1.1,0-1.4,0.3-1.4,1.4c0.1,3.2,0,6.4,0,9.6c0,3.5-0.6,2.9,3.1,3c0.8,0,1.1-0.3,1.1-1.1
	C59.2,80.1,59.3,78.2,59.3,76.2z M79,26.6c2.2,4.8,2.9,9.6,3.3,14.5c0.3,3.6,0.3,3.7,3.9,3.4c0.7,0,0.9-0.2,0.8-0.9
	c-0.5-3.5-1.3-7-2.8-10.3C83,30.8,81.6,28.4,79,26.6z M30.9,96.2c1.5,0,3.1,0,4.6,0c2.6,0,2.5,0,2.8-2.5c0.1-0.9-0.2-1.3-1.1-1.2
	c-3.4,0-6.9,0-10.3,0c-3.2,0-2.4-0.2-2.9,2.5c-0.2,0.9,0.1,1.2,1,1.2C26.9,96.2,28.9,96.2,30.9,96.2z M118.9,92.5
	c-1.6,0-3.1,0-4.7,0c-2.3,0-2.2,0-1.9,2.3c0.1,1.2,0.7,1.4,1.7,1.4c3.3-0.1,6.5,0,9.8,0c2.7,0,2.6,0,2.2-2.7c-0.1-0.9-0.5-1.1-1.3-1
	C122.8,92.5,120.9,92.5,118.9,92.5z M68.8,27.5c-0.5,0.3-1,0.6-1.4,1c-4.4,3.4-6.7,8.1-8.1,13.3c-0.7,2.7-0.7,2.6,2.1,2.7
	c1.2,0,1.6-0.4,1.7-1.5C63.8,37.5,65.3,32.2,68.8,27.5z M82.4,27.5c0.1,0.3,0.2,0.4,0.2,0.5c3.2,4,4.6,8.8,5.5,13.7
	c0.5,3,0.4,2.9,3.4,2.8c0.9,0,1.1-0.4,0.9-1.2c-0.8-4.1-2.3-7.9-4.9-11.2C86.1,30.3,84.5,28.7,82.4,27.5z M53.6,76.3
	c0-2,0-3.9,0-5.9c0-0.9-0.3-1.3-1.2-1.2c-0.3,0-0.6,0-0.8,0c-1.1-0.1-1.4,0.3-1.4,1.4c0.1,3.5,0,6.9,0,10.4c0,2.5-0.4,2.2,2.4,2.3
	c0.9,0,1.1-0.4,1.1-1.1C53.6,80.1,53.6,78.2,53.6,76.3z M96.8,76.2c0,1.6,0,3.2,0,4.8c0,2.4-0.2,2.1,2.1,2.2c1.1,0,1.3-0.4,1.3-1.4
	c0-3.5,0-7,0-10.5c0-2.3,0.4-2.1-2.2-2.2c-1,0-1.2,0.4-1.2,1.3C96.9,72.3,96.8,74.2,96.8,76.2z M125.7,110.3c0-2.6,0-5.2,0-7.9
	c0-0.8-0.2-1.3-1.2-1.3c-0.9,0-1.1,0.5-1.1,1.2c0,5.3,0,10.6,0,15.9c0,0.8,0.2,1.2,1.1,1.2s1.1-0.3,1.1-1.2
	C125.7,115.6,125.7,113,125.7,110.3z M42.1,110.5c0-2.7,0-5.4,0-8.1c0-0.8-0.2-1.2-1.1-1.2c-0.8,0-1.1,0.3-1.1,1.1
	c0,5.4,0,10.7,0,16.1c0,0.8,0.2,1.1,1.1,1.1c0.9,0,1.2-0.3,1.2-1.2C42,115.7,42.1,113.1,42.1,110.5z M93.3,110.3c0,2.7,0,5.3,0,8
	c0,0.8,0.2,1.2,1,1.2c0.9,0,1-0.4,1-1.2c0-5.3,0-10.7,0-16c0-0.8-0.2-1.2-1.1-1.2s-1,0.4-1,1.2C93.3,105,93.3,107.7,93.3,110.3z
	 M24.5,110.3c0,2.6,0,5.3,0,7.9c0,0.7,0,1.3,0.9,1.3s1.1-0.4,1.1-1.2c0-5.3,0-10.6,0-15.9c0-0.7-0.1-1.2-1-1.2c-1,0-1.1,0.5-1,1.3
	C24.5,105.1,24.5,107.7,24.5,110.3z M57.2,110.3c0-2.7,0-5.3,0-8c0-0.8-0.2-1.2-1-1.2c-0.9,0-1,0.4-1,1.2c0,5.3,0,10.7,0,16
	c0,0.8,0.2,1.2,1.1,1.2c0.9,0,1-0.4,1-1.2C57.2,115.7,57.2,113,57.2,110.3z M108.4,110.3c0,2.6,0,5.2,0,7.9c0,0.7,0,1.3,1,1.3
	s1.1-0.5,1.1-1.3c0-5.2,0-10.5,0-15.7c0-0.7-0.1-1.3-1-1.3c-1,0-1,0.5-1,1.3C108.4,105.1,108.4,107.7,108.4,110.3z M127,118.3
	c0.1,0,0.2,0.1,0.3,0.1c0.6-1.2,1.3-2.5,1.9-3.8c0.3-0.7,1.3-1.5,0.1-2.3c-0.1-0.1-0.1-0.4-0.1-0.7c0-0.8,0-1.6,0-2.4
	c0-2.4,0-2.4,2.3-2.5c0.2,0,0.3,0,0.5,0c0.8-0.2,0.8-1,0.8-1.5c0.1-0.7-0.6-0.4-1-0.4c-1.3,0-2.5,0-3.8,0c-0.7,0-1.1,0.2-1.1,1
	C127,109.9,127,114.1,127,118.3z M75.7,25.2c1.1,0,2.3,0,3.4,0c2.2,0,2.2,0,2.1-2.2c0-0.6-0.2-0.9-0.9-0.9c-3.1,0-6.1,0-9.2,0
	c-0.7,0-0.9,0.3-0.9,0.9c0,0.4,0,0.7,0,1.1c-0.1,0.9,0.3,1.2,1.1,1.2C72.8,25.1,74.3,25.2,75.7,25.2z M64.6,29
	c-5.3,3.6-8.7,8.4-10.1,14.6c-0.1,0.6-0.1,1,0.7,0.9c0.3,0,0.7,0,1.1,0c0.9,0.1,1.2-0.3,1.3-1.1c0.2-1.4,0.5-2.7,1-4
	C59.7,35.5,61.9,32.1,64.6,29z M86.7,29.1c0.4,0.4,0.7,0.8,1.1,1.3c3.1,3.6,5,7.7,5.9,12.3c0.4,2,0.4,2,2.4,1.9c0.7,0,0.9-0.3,0.7-1
	C95.4,37.4,92,32.6,86.7,29.1z M23,118.5c0-0.6,0.1-0.9,0.1-1.2c0-3.9,0-7.8,0-11.7c0-0.5-0.2-0.8-0.8-0.8c-1.5,0-2.9,0-4.4,0
	c-0.3,0-0.7,0.1-0.6,0.5c0.1,0.8,0.3,1.6,1.4,1.5c2.7-0.1,2.3,0,2.3,2.4c0,0.2,0,0.4,0,0.6c-0.2,1.1,0.6,2.4-0.7,3.2
	c-0.1,0,0,0.4,0.1,0.5C21.1,115.1,21.8,116.7,23,118.5z M74.6,57.3L74.6,57.3c0-0.9,0-1.7,0-2.6c0-0.6-0.3-0.9-0.8-0.8
	c-1,0-2,0-3.1,0c-0.6,0-0.9,0.2-0.9,0.8c0,1.7,0,3.4,0,5.1c0,0.4,0,0.8,0.5,0.8c1.3,0.1,2.8,0.4,3.9-0.1c0.9-0.4,0.2-1.8,0.4-2.7
	C74.6,57.5,74.6,57.4,74.6,57.3z M80.7,57.2c0-0.7,0-1.4,0-2.1c0.1-0.9-0.2-1.3-1.2-1.2c-0.8,0.1-1.6,0.1-2.5,0s-1.2,0.2-1.2,1.1
	c0.1,1.4,0.1,2.8,0,4.2c-0.1,1.1,0.4,1.4,1.4,1.4C80.7,60.6,80.7,60.6,80.7,57.2z M68.4,57.2c0-0.8,0-1.6,0-2.3s-0.2-1-0.9-1
	c-0.9,0-1.8,0-2.7,0c-0.6,0-0.9,0.2-0.9,0.9c0,1.6,0,3.3,0,4.9c0,0.6,0.2,0.8,0.8,0.9c3.7,0.4,3.7,0.3,3.7-3.2
	C68.4,57.3,68.4,57.2,68.4,57.2z M86.6,57.3c0-3.5,0-3.5-3.5-3.4c-0.8,0-1.2,0.2-1.1,1.1c0,0.8,0,1.6,0,2.4c0,3.5,0,3.5,3.6,3.3
	c0.7,0,1-0.2,1-1C86.6,58.8,86.6,58,86.6,57.3z M30.8,97.7c-1.9,0-3.8,0-5.8,0c-1.1,0-1.3,0.3-1,1.3c0.2,0.8,0.8,0.8,1.4,0.8
	c3.9,0,7.8,0,11.6,0c0.5,0,1.2,0.2,1.2-0.7c-0.1-0.7-0.2-1.4-1.3-1.4C34.9,97.7,32.9,97.7,30.8,97.7z M48.7,76.1c0-1.9,0-3.8,0-5.8
	c0-0.7-0.1-1.2-1-1.2s-1.1,0.4-1.1,1.1c0,3.9,0,7.8,0,11.8c0,0.8,0.2,1.1,1.1,1.1c0.9,0,1-0.5,1-1.2C48.7,80,48.7,78.1,48.7,76.1z
	 M101.7,76.2c0,1.9,0,3.8,0,5.8c0,0.8,0.1,1.3,1.1,1.2c0.9,0,1-0.5,1-1.2c0-3.9,0-7.8,0-11.6c0-0.7-0.1-1.2-1-1.2s-1.1,0.4-1.1,1.2
	C101.8,72.2,101.8,74.2,101.7,76.2z M119.4,97.7L119.4,97.7c-2,0-4.1,0-6.1,0c-0.9,0-0.9,0.7-1,1.3c-0.1,0.6,0.2,0.8,0.7,0.8
	c4.1,0,8.1,0,12.2,0c0.9,0,0.9-0.7,1-1.3c0.1-0.8-0.5-0.7-1-0.7C123.2,97.6,121.3,97.7,119.4,97.7z M92,57.3c0-3.7,0-3.7-3.2-3.4
	h-0.1c-0.5,0-0.8,0.2-0.8,0.8c0,1.7,0,3.4,0,5.2c0,0.4,0.2,0.7,0.6,0.7c1.1,0,2.3,0.4,3.2-0.2c0.7-0.5,0.2-1.6,0.3-2.5
	C92,57.7,92,57.5,92,57.3z M62.6,57.3c0-3.6,0-3.6-3.1-3.4h-0.1c-0.6,0-0.9,0.2-0.9,0.8c0,1.7,0,3.4,0,5.1c0,0.7,0.4,0.9,1,0.8
	c1-0.2,2.3,0.7,3.1-0.6c0.1-0.1,0-0.4,0-0.6C62.6,58.7,62.6,58,62.6,57.3z M31.5,121c-2,0-4.1,0-6.1,0c-0.3,0-0.9-0.1-0.6,0.5
	c0.4,0.8,0.8,1.6,1.9,1.6c3.6,0,7.1,0,10.7,0c0.8,0,1.1-0.3,1.1-1.1c0-0.8-0.4-1-1.1-1C35.5,121,33.5,121,31.5,121z M118.9,121
	c-1.9,0-3.8,0-5.6,0c-0.7,0-1.3-0.1-1.3,1c0,1,0.6,1.1,1.3,1.1c3.3,0,6.6,0,9.9,0c0.9,0,1.5-0.3,1.9-1.1c0.1-0.3,0.5-0.5,0.4-0.8
	c-0.2-0.3-0.6-0.2-0.9-0.2C122.7,121,120.8,121,118.9,121z M73.8,144.5L73.8,144.5c0,1.1,0,2.1,0,3.2c-0.1,1.1,0.7,1,1.4,1
	c0.7,0,1.6,0.3,1.6-1c0-2.1,0-4.2,0-6.4c0-1-0.5-1.6-1.5-1.6s-1.5,0.6-1.5,1.6C73.8,142.4,73.8,143.4,73.8,144.5z M18.8,96
	c-0.3,0-0.5,0-0.8,0c-2.9,0-2.9,0-2.2,2.8c0.2,0.6,0.5,0.9,1,0.9c1.7,0,3.4,0,5.1,0c0.7,0,0.8-0.3,0.7-1C22.2,96,22.2,96,19.5,96
	C19.2,96,19,96,18.8,96z M130.8,99.7c0.8,0,1.6,0,2.5,0c0.7,0,1-0.3,1.1-0.9c0.1-0.5,0.2-1,0.2-1.5c0.2-0.9-0.1-1.3-1.1-1.3
	c-1,0.1-2,0-2.9,0c-2.7,0-2.7,0-3.1,2.6c-0.1,0.9,0.2,1.2,1,1.1C129.3,99.7,130,99.7,130.8,99.7z M93.3,57.2c0,0.4,0,0.8,0,1.2
	c0,2.4-0.4,2.2,2.3,2.2c0.8,0,1.2-0.3,1.1-1.1c0-1.1,0-2.2,0-3.3c0-2.6,0.4-2.3-2.4-2.3c-0.7,0-1,0.2-1,1
	C93.4,55.6,93.3,56.4,93.3,57.2z M65.2,144.2L65.2,144.2c0-0.9,0-1.9,0-2.8c0-1-0.7-1.8-1.5-1.7c-1,0.1-1.4,0.7-1.4,1.7
	c0,1.4,0,2.7,0,4.1c0,1.9,0.1,2,2,2.3c0.7,0.1,1.1-0.1,1-0.8C65.2,145.9,65.2,145.1,65.2,144.2z M85.3,144L85.3,144
	c0,0.8,0,1.6,0,2.5c0,0.5-0.2,1.1,0.6,1.2c1.1,0.1,2.3-0.5,2.4-1.2c0-1.8,0-3.5,0-5.3c0-0.9-0.6-1.5-1.5-1.5s-1.4,0.6-1.5,1.5
	C85.3,142.2,85.3,143.1,85.3,144z M75.7,11.1c1.1,0,2.1,0,3.2,0c0.8,0,1.1-0.3,0.7-1.1c-0.6-1.4-2.2-2.4-3.9-2.4
	c-1.6,0-3.2,1.1-3.8,2.5c-0.3,0.7-0.1,1,0.6,1C73.6,11.1,74.6,11.1,75.7,11.1z M57,57.3c0-0.5,0-0.9,0-1.4c0-2,0-2-2.1-2
	c-1,0-1.2,0.4-1.2,1.3c0,1.4,0.1,2.7,0,4.1c-0.1,1.3,0.5,1.4,1.6,1.4c0.9,0,1.9,0.1,1.7-1.3C56.9,58.6,57,57.9,57,57.3z M65.2,116.5
	L65.2,116.5c0-0.7,0-1.3,0-2c0-1-0.4-1.7-1.5-1.7c-0.9,0-1.5,0.6-1.5,1.7c0,1.2,0,2.4,0,3.6c-0.1,1.1,0.4,1.4,1.4,1.4
	c1.6-0.1,1.6,0,1.6-1.6C65.2,117.5,65.2,117,65.2,116.5z M76.7,116.5L76.7,116.5c0-0.7,0-1.5,0-2.2c0-0.9-0.5-1.5-1.4-1.5
	c-1,0-1.5,0.6-1.5,1.6c0,1.2,0.1,2.5,0,3.7c-0.1,1.1,0.4,1.4,1.4,1.4c1.6-0.1,1.6,0,1.6-1.6C76.7,117.5,76.7,117,76.7,116.5z
	 M88.3,116.5L88.3,116.5c0-0.7,0-1.5,0-2.2c0-0.9-0.6-1.5-1.5-1.4c-0.9,0-1.4,0.5-1.4,1.4c0,1.5,0,3,0,4.5c0,0.4,0.1,0.7,0.5,0.8
	c1.6,0.5,2.4-0.1,2.4-1.7C88.3,117.3,88.3,116.9,88.3,116.5z M50.1,116.5L50.1,116.5c0-0.8,0-1.6,0-2.3c-0.1-0.8-0.6-1.4-1.5-1.4
	s-1.4,0.5-1.4,1.4c0,1.5,0,3,0,4.5c0,0.4,0.1,0.7,0.6,0.8c1.8,0.4,2.3,0,2.3-1.8C50.1,117.3,50.1,116.9,50.1,116.5z M100.4,116.5
	L100.4,116.5c0,0.4,0,0.8,0,1.2c0,1.9,0.3,2.1,2.2,1.8c0.5-0.1,0.8-0.3,0.8-0.8c0-1.5,0-3,0-4.4c0-0.9-0.5-1.4-1.4-1.4
	s-1.4,0.5-1.5,1.5C100.4,115,100.4,115.7,100.4,116.5z M56.3,124.5c-1.3,0-2.5,0-3.8,0c-0.7,0-1,0.3-1,1c0,0.6,0.2,1.1,0.9,1.1
	c2.4,0,4.9,0,7.3,0c0.7,0,0.9-0.4,0.9-1s-0.2-1.1-0.9-1C58.6,124.5,57.4,124.5,56.3,124.5z M94.4,124.5c-1.2,0-2.4,0-3.5,0
	c-0.7,0-1.1,0.2-1.1,1c0,0.7,0.3,1.1,1,1.1c2.4,0,4.7,0,7.1,0c0.8,0,1-0.4,1-1.1s-0.2-1-1-1C96.7,124.5,95.5,124.5,94.4,124.5z
	 M94.3,130.1c1.1,0,2.3,0,3.4,0c0.8,0,1.1-0.2,1.1-1.1c0-0.8-0.4-1-1.1-1c-2.3,0-4.6,0-6.9,0c-0.7,0-1.1,0.2-1.1,1s0.4,1.1,1.1,1.1
	C92,130.1,93.2,130.1,94.3,130.1z M56.1,128.1c-1.2,0-2.4,0-3.6,0c-0.7,0-0.9,0.3-0.9,0.9c0,0.6,0.1,1.1,0.9,1.1c2.5,0,4.9,0,7.4,0
	c0.8,0,0.9-0.4,0.9-1.1c0-0.7-0.3-1-1-1C58.5,128.1,57.3,128.1,56.1,128.1z M75.8,12.6c-1.3,0-2.7,0-4,0c-0.6,0-0.7,0.2-0.5,0.8
	c0.3,0.9,0.8,1.4,1.9,1.3c1.7-0.1,3.4-0.1,5.2,0c1.1,0.1,1.5-0.5,1.9-1.3c0.3-0.6,0.1-0.8-0.5-0.8C78.5,12.6,77.2,12.6,75.8,12.6z
	 M103.3,127.3c0-0.5,0-1,0-1.5c0.1-1-0.4-1.3-1.3-1.2c-0.3,0-0.5,0-0.8,0c-0.7-0.1-1.1,0.2-1,1c0,1,0,2,0,3c0,1.5,0,1.5,1.6,1.5
	s1.6,0,1.6-1.6C103.3,128.1,103.3,127.7,103.3,127.3z M34.6,116.8L34.6,116.8c0-0.6,0-1.2,0-1.8c-0.1-0.9-0.7-1.5-1.4-1.8
	c-0.6-0.2-1,0.7-1.4,1.1c-0.3,0.3-0.2,0.7-0.2,1c0,0.9,0.1,1.8,0,2.7c-0.1,1.1,0.3,1.5,1.4,1.4c1.6-0.1,1.6,0,1.6-1.7
	C34.6,117.5,34.6,117.1,34.6,116.8z M115.5,116.6c0,0.8,0,1.4,0,2s0.3,0.9,0.9,0.8c0.7-0.1,1.8,0.5,2-0.6c0.2-1.4,0.1-2.8,0-4.2
	c-0.1-0.7-0.7-1.2-1.3-1.4c-0.6-0.2-0.9,0.5-1.2,0.9C115.1,114.9,115.6,115.9,115.5,116.6z M76.7,127.3L76.7,127.3
	c0-0.6,0-1.2,0-1.9c0-1.2-0.8-0.9-1.5-0.9s-1.5-0.2-1.5,0.9s0.1,2.1,0,3.2c-0.1,1.2,0.3,1.6,1.5,1.6s1.6-0.4,1.5-1.6
	C76.7,128.2,76.7,127.7,76.7,127.3z M65.2,127.4c0-0.4,0-0.7,0-1.1c0-1.9,0-1.9-2-1.9c-0.8,0-1.1,0.3-1,1.1c0,1.1,0.1,2.1,0,3.2
	c-0.1,1.1,0.4,1.4,1.4,1.4c1.5-0.1,1.6,0,1.6-1.6C65.2,128.2,65.2,127.8,65.2,127.4z M85.3,127.3L85.3,127.3c0,0.6,0,1.2,0,1.9
	c0,1.1,0.8,0.9,1.5,0.9s1.5,0.2,1.5-0.9c0-1.1-0.1-2.1,0-3.2c0.1-1.2-0.3-1.6-1.5-1.6s-1.7,0.4-1.5,1.5
	C85.3,126.4,85.3,126.9,85.3,127.3z M50.1,127.3c0-0.6,0-1.2,0-1.9c0-1.1-0.7-0.9-1.4-0.9s-1.6-0.3-1.6,0.9c0,1.1,0,2.1,0,3.2
	c0,1.5,0.1,1.5,1.5,1.5c1.1,0.1,1.6-0.3,1.5-1.4C50,128.2,50.1,127.8,50.1,127.3z M34.6,127.4c0-0.3,0-0.6,0-0.9c0-2-0.1-2-2-1.9
	c-0.7,0-1,0.3-1,1c0,1,0,2,0,3c0,1.6,0,1.5,1.5,1.6c1.1,0.1,1.6-0.4,1.5-1.5C34.6,128.2,34.6,127.8,34.6,127.4z M115.5,127.3
	L115.5,127.3c0,0.6,0,1.2,0,1.9c0,1,0.7,1,1.4,0.9c0.7,0,1.6,0.3,1.6-0.9c0-1.1-0.1-2.1,0-3.2c0.1-1.2-0.4-1.5-1.5-1.5
	c-1.2,0-1.6,0.4-1.5,1.6C115.5,126.4,115.5,126.9,115.5,127.3z M44.4,91L44.4,91c2.7,0.1,5.4,0.1,8.1,0.1c0.9,0,1.2-0.3,1.1-1.2
	c0-0.2,0-0.5,0-0.7c0.1-0.8-0.2-1.1-1.1-0.8C49.8,89.4,47.1,90.2,44.4,91z M106.1,91.2L106.1,91.2c-2.8-1-5.5-1.8-8.3-2.7
	c-0.3-0.1-0.6-0.3-0.8,0c-0.4,0.7-0.2,1.5-0.2,2.2c0.1,0.7,0.7,0.5,1.1,0.5C100.7,91.2,103.4,91.2,106.1,91.2z M50.2,57.2
	c0,0.8,0,1.6,0,2.5c0,0.7,0.3,1,1,1c0.6,0,1.1-0.2,1-0.9c0-1.6,0-3.3,0-4.9c0-0.8-0.4-0.9-1.1-0.9c-0.7,0-1,0.2-1,1
	C50.2,55.6,50.2,56.4,50.2,57.2z M98.2,57.1L98.2,57.1c0,0.9,0,1.7,0,2.6c0,0.7,0.4,0.9,1.1,0.9s1-0.2,1-1c0-1.6,0-3.1,0-4.7
	c0-0.7-0.2-1.1-1-1.1s-1.1,0.3-1.1,1.1C98.2,55.7,98.2,56.4,98.2,57.1z M75.1,18.5c0-2.5,0-2.5-2.1-2.3c-0.6,0-0.9,0.2-0.9,0.8
	c0,1,0,2,0,2.9c0,0.4,0.1,0.7,0.5,0.8c1.7,0.5,2.4,0,2.4-1.8C75.1,18.8,75.1,18.6,75.1,18.5z M130.5,101.2L130.5,101.2
	c-0.9,0-1.7,0-2.6,0c-0.7,0-0.9,0.3-0.9,0.9s0,1.1,0.8,1.1c1.6,0,3.3,0,4.9,0c0.9,0,0.9-0.8,1-1.5c0.1-0.8-0.6-0.5-1-0.5
	C132,101.2,131.3,101.2,130.5,101.2z M19.6,101.2L19.6,101.2c-0.7,0-1.5,0-2.2,0c-0.4,0-1.1-0.2-1,0.5c0.1,0.6,0,1.5,1.1,1.5
	c1.6,0,3.1,0,4.7,0c0.7,0,0.9-0.4,0.9-1.1s-0.2-1-1-1C21.3,101.2,20.5,101.2,19.6,101.2z M79.3,18.5c0-2.3,0-2.3-1.2-2.3
	c-1.5,0-1.5,0-1.5,1.5c0,0.7,0,1.5,0,2.2c0,0.4,0.1,0.7,0.5,0.8c1.4,0.5,2.2-0.1,2.2-1.5C79.3,18.9,79.3,18.7,79.3,18.5z
	 M42.8,128.1c-0.7,0-1.3,0-2,0s-1,0.3-1,1s0.2,1.1,1,1.1c1.2,0,2.4,0,3.6,0c0.8,0,1.2-0.2,1.2-1.1c0-0.9-0.5-1-1.2-1
	C43.9,128.1,43.4,128.1,42.8,128.1z M107.5,130.1c0.6,0,1.2,0,1.9,0c0.7,0,1.1-0.3,1.1-1c0-0.8-0.3-1-1-1c-1.2,0-2.4,0-3.6,0
	c-0.7,0-1.2,0.1-1.2,1s0.4,1.1,1.1,1.1C106.4,130.1,106.9,130.1,107.5,130.1z M107.5,126.6c0.6,0,1.2,0,1.8,0c0.8,0,1.3-0.1,1.3-1.1
	c0-0.9-0.5-1-1.2-1c-1.1,0-2.3,0-3.4,0c-0.8,0-1.3,0.1-1.2,1.1c0,1,0.6,1,1.3,1C106.4,126.6,106.9,126.6,107.5,126.6z M42.8,124.5
	c-0.6,0-1.3,0-1.9,0c-0.7,0-1.1,0.2-1.1,1c0,0.7,0.2,1.1,1,1.1c1.2,0,2.4,0,3.6,0c0.8,0,1.1-0.3,1.1-1.1c0-0.8-0.4-1-1.1-1
	C44,124.5,43.4,124.5,42.8,124.5z M69.4,130.1c0.6,0,1.2,0,1.9,0c0.8,0,1-0.4,1-1.1c0-0.7-0.3-1-1-1c-1.2,0-2.3,0-3.5,0
	c-0.7,0-1.1,0.1-1.1,0.9c0,0.8,0.3,1.1,1.1,1.1C68.3,130.1,68.8,130.1,69.4,130.1z M81,128.1c-0.5,0-1.1,0-1.6,0
	c-0.7,0-1.1,0.1-1.2,0.9c0,0.8,0.3,1.2,1.1,1.1c1.2,0,2.3,0,3.5,0c0.8,0,1-0.3,1-1.1s-0.4-1-1.1-1C82.1,128.1,81.6,128.1,81,128.1z
	 M81.1,124.5c-0.6,0-1.3,0-1.9,0c-0.8,0-1,0.3-1,1.1c0,0.8,0.4,1,1.1,1c1.1,0,2.3,0,3.4,0c0.8,0,1.1-0.2,1.1-1.1s-0.5-1-1.2-1
	C82.1,124.5,81.6,124.5,81.1,124.5z M69.4,126.6c0.6,0,1.2,0,1.8,0c0.7,0,1.1-0.2,1.1-1c0-0.7-0.2-1.1-1-1.1c-1.2,0-2.3,0-3.5,0
	c-0.7,0-1.1,0.2-1.1,1c0,0.7,0.3,1.1,1,1.1C68.3,126.6,68.8,126.6,69.4,126.6z M81.3,64.1L81.3,64.1c0.5,0,1.1,0,1.6,0
	c0.7,0,0.9-0.4,0.9-1S83.7,62,82.9,62c-0.9,0-1.9,0-2.8,0c-0.8,0-1.2,0.2-1.2,1.1c0,0.9,0.4,1.1,1.2,1
	C80.5,64.1,80.9,64.1,81.3,64.1z M75.2,62L75.2,62c-0.5,0-1,0-1.5,0c-0.8,0-0.8,0.5-0.8,1.1s0.2,1,0.9,0.9c0.9,0,1.9,0,2.8,0
	c0.8,0,1.1-0.2,1.1-1.1c0-0.9-0.5-1.1-1.2-1C76,62,75.6,62,75.2,62z M33.4,131.6c1.1,1.7,2.5,2.5,4.4,2.2c0.7-0.1,0.8-0.5,0.8-1.1
	c0-0.5,0.1-1.2-0.8-1.2C36.4,131.6,35,131.6,33.4,131.6z M68.9,64.1c0.5,0,0.9,0,1.4,0c0.7,0,1-0.3,1-1s-0.2-1.1-1-1.1
	c-0.9,0-1.8,0-2.7,0c-0.8,0-1,0.4-1,1.1c0,0.7,0.3,1,1,1C68.1,64.1,68.5,64.1,68.9,64.1z M62.8,64.1c0.4,0,0.9,0,1.3,0
	c0.7,0,1.1-0.3,1.1-1s-0.3-1.1-1-1.1c-0.8,0-1.6,0-2.5,0c-0.8,0-1.1,0.3-1.1,1.1s0.4,1,1.1,1C62.1,64.1,62.5,64.1,62.8,64.1z
	 M87.4,64.1c0.4,0,0.7,0,1.1,0c0.7,0,1.2,0,1.3-1c0-0.9-0.4-1.2-1.2-1.1c-0.7,0-1.4,0-2.1,0c-0.8,0-1.1,0.3-1.1,1.1s0.4,1,1.1,1
	C86.7,64.1,87.1,64.1,87.4,64.1z M117,131.6c-1.6,0-2.9,0-4.1,0c-0.9,0-0.9,0.5-0.9,1.2c0,0.6,0.1,1,0.9,1.1
	C114.7,134.1,115.7,133,117,131.6z M57.2,64.1c0.3,0,0.5,0,0.8,0c0.7,0,1.3,0,1.3-1c0-0.9-0.5-1.1-1.2-1.1c-0.6,0-1.2,0-1.9,0
	s-1.1,0.3-1.1,1s0.3,1.1,1,1.1C56.5,64.1,56.8,64.1,57.2,64.1z M93.3,64.1c0.3,0,0.6,0,0.9,0c0.7,0,1.2-0.1,1.2-1
	c0-0.8-0.4-1.1-1.2-1.1c-0.7,0-1.3,0-2,0s-1.1,0.3-1.1,1s0.3,1.1,1,1C92.6,64.1,92.9,64.1,93.3,64.1z M50.1,141.9c0-0.3,0-0.6,0-0.8
	c-0.1-0.8-0.6-1.4-1.5-1.4c-0.7,0-1.2,0.3-1.4,1c-0.3,0.9,0.2,1.3,1,1.6c0.3,0.1,0.5,0.2,0.7,0.4C50.1,143.2,50.1,143.2,50.1,141.9z
	 M100.4,141.6c0,1.5,0,1.5,1.3,0.9c0.4-0.2,0.7-0.3,1-0.5c0.8-0.5,0.9-1.3,0.1-1.9c-0.5-0.4-0.9-0.5-1.5-0.2
	C100.5,140.2,100.3,140.9,100.4,141.6z M51.8,64.1c0.2,0,0.4,0,0.5,0c0.7,0,1.3-0.1,1.3-1c0-1-0.6-1.1-1.3-1c-0.4,0-0.7,0-1.1,0
	c-1,0-1.5,0.9-1,1.7C50.7,64.4,51.3,64,51.8,64.1z M98.4,64.1c0.2,0,0.3,0,0.4,0c0.7,0,1.4,0.1,1.4-1S99.5,62,98.8,62
	c-0.3,0-0.6,0-0.9,0c-0.9-0.1-1.2,0.4-1.1,1.2C96.9,64.5,97.9,63.9,98.4,64.1z M27.1,124.5c0.4,0.8,0.8,1.3,1.3,1.8
	c0.5,0.4,1.1,0.4,1.7,0.1c0.5-0.3,0.3-0.9,0.3-1.4c-0.1-0.7-0.7-0.5-1.1-0.5C28.5,124.5,27.8,124.5,27.1,124.5z M120.8,126.6
	c0.7,0,2.2-1.1,2.1-1.7s-0.7-0.4-1-0.3c-0.7,0.1-1.9-0.6-1.9,0.9C119.9,126.1,120,126.7,120.8,126.6z M37.3,128.1
	c-0.7-0.1-1.2,0-1.2,0.9s0.4,1.1,1.2,1.1c0.7,0,1.3-0.1,1.3-1.1C38.6,128.1,38,128,37.3,128.1z M37.4,126.6c0.8,0.1,1.1-0.2,1.1-1.1
	c0-1-0.6-1-1.3-1s-1.2,0.1-1.2,1C36.1,126.5,36.6,126.7,37.4,126.6z M114.1,125.5c0.1-0.9-0.4-1-1.1-1s-1.1,0.2-1.1,1
	s0.3,1.1,1.1,1.1C113.8,126.6,114.3,126.4,114.1,125.5z M113,130.1c0.7,0.1,1.2-0.1,1.2-1c0-0.7-0.2-1.1-1-1c-0.7,0-1.2,0-1.2,0.9
	C111.9,129.8,112.2,130.2,113,130.1z"/>
<path class="st0" d="M120.7,82.6c-1.6,0-3.1,0-4.7,0c-2.2,0-3.7-1.4-3.8-3.3c-0.1-1.9,1.3-3.4,3.4-3.6c0.5-0.1,0.8-0.3,1.1-0.7
	c1.9-2.9,5.5-3.1,7.8-0.6c0.4,0.4,0.8,0.6,1.3,0.6c2.2,0.1,3.8,1.8,3.8,3.8c0,2.1-1.7,3.8-3.9,3.9c-0.1,0-0.2,0-0.2,0
	C123.9,82.6,122.3,82.6,120.7,82.6z M120.7,81.1L120.7,81.1c1.8,0,3.5,0,5.3,0c1.5-0.1,2.4-1.3,2.1-2.8c-0.2-1.3-1.5-2.3-2.8-2
	c-0.7,0.2-1.1,0.1-1.4-0.6c-0.7-1.3-1.9-1.9-3.3-1.8c-1.5,0.1-2.5,1-3,2.4c-0.2,0.7-0.5,0.9-1.3,0.7c-1.4-0.3-2.5,0.5-2.6,1.8
	c-0.1,1.2,0.8,2.1,2.2,2.1C117.5,81.1,119.1,81.1,120.7,81.1z"/>
<path class="st0" d="M120,106.2c-0.1,3.4,0.5,3-3,3c-3.3,0-2.7,0.4-2.8-2.8c0-0.6,0-1.2,0-1.8c-0.1-0.9,0.3-1.4,1.3-1.3
	c1.1,0,2.2,0,3.3,0c1,0,1.4,0.4,1.3,1.3C119.9,105.1,120,105.7,120,106.2z M115.5,105.9c0,1.8,0,1.8,1.4,1.8c1.5,0,1.5-0.1,1.6-1.5
	c0-1-0.1-1.7-1.4-1.6C116.1,104.8,115.1,104.6,115.5,105.9z"/>
<path class="st0" d="M75.2,109.2c-3.4,0-3,0.4-3-3c0-3.2-0.5-2.9,2.9-2.9c3.5,0,3-0.4,3.1,3.1C78.2,109.7,78.4,109.1,75.2,109.2z
	 M75.3,104.7c-1.5,0-1.5,0-1.5,1.5s0,1.5,1.5,1.6c1.1,0.1,1.6-0.3,1.5-1.4C76.7,104.8,76.7,104.8,75.3,104.7z"/>
<path class="st0" d="M102,109.2c-3.4-0.1-3,0.5-3-3.1c0-3.2-0.3-2.8,2.8-2.8c3.6,0,3.1-0.3,3.1,3S105.3,109.2,102,109.2z
	 M100.4,106.1c0,1.7,0,1.7,1.5,1.7c1.4,0,1.4-0.1,1.5-1.6c0.1-1.2-0.4-1.4-1.5-1.4C100.7,104.7,100.1,105,100.4,106.1z"/>
<path class="st0" d="M63.5,109.2c-3.2,0-2.8,0.4-2.8-2.8c0-3.4-0.5-3.1,3.2-3.1c3.1,0,2.8-0.3,2.8,2.8
	C66.6,109.7,67,109.1,63.5,109.2z M63.8,104.8c-1.1-0.2-1.7,0.1-1.6,1.4c0.1,1.5,0.1,1.6,1.5,1.6c1.5,0,1.5,0,1.6-1.4
	C65.2,105.3,65.1,104.4,63.8,104.8z"/>
<path class="st0" d="M86.8,109.2c-3.4,0-3,0.4-3-3c0-3.2-0.5-2.9,2.9-2.9c3.6,0,3.1-0.3,3.1,3.2C89.8,109.6,90.1,109.2,86.8,109.2z
	 M88.3,106c0.3-1.2-0.6-1.2-1.6-1.3c-1.2-0.1-1.4,0.5-1.4,1.5c0.1,1.4,0.1,1.5,1.6,1.5C88.2,107.7,88.3,107.7,88.3,106z"/>
</svg>
