<?xml version="1.0" encoding="utf-8"?>
<!-- Generator: Adobe Illustrator 22.0.1, SVG Export Plug-In . SVG Version: 6.00 Build 0)  -->
<svg version="1.1" id="Layer_1" xmlns="http://www.w3.org/2000/svg" xmlns:xlink="http://www.w3.org/1999/xlink" x="0px" y="0px"
	 viewBox="0 0 150 150" style="enable-background:new 0 0 150 150;" xml:space="preserve">
<style type="text/css">
	.st0{fill:#FFFFFF;}
</style>
<g>
	<path class="st0" d="M103.7,101.4c0.7-0.4,1.3-0.7,2-0.7c0.5,0,0.8,0.2,0.9,0.7s-0.2,0.9-0.7,0.9c-0.7,0.1-1.4,0.3-1.8,1
		c0.2,0.2,0.4,0.1,0.5,0.1c1.2,0.1,2.2,1.1,2.2,2.3c0,0.5-0.2,0.9-0.7,0.9c-0.5,0.1-0.8-0.2-0.9-0.7c-0.1-0.6-0.4-0.9-0.9-0.8
		c-0.4,0.1-0.7,0.4-0.7,1c0,3.5,0,6.9,0,10.3c0,0.4,0.2,0.5,0.5,0.5c0.8,0,22,0,22.8,0c0.6,0,1,0.5,0.9,1c-0.1,0.4-0.3,0.6-0.7,0.6
		c-0.2,0-20.7,0-21,0c-19,0-37.9,0-56.8,0c-0.2,0-26.5,0-26.7,0c-0.5,0-0.7-0.3-0.8-0.8c0-0.4,0.3-0.8,0.8-0.8c0.5,0,26.9,0,27.4,0
		c0.7,0,1.5,0,2.2,0c0.4,0,0.5-0.1,0.5-0.5c0-5.3,0-10.6,0-15.9c0-1-0.7-1.7-1.6-1.8c-0.8-0.1-1.5,0.6-1.7,1.6
		c-0.1,0.5-0.4,0.8-0.9,0.8s-0.7-0.3-0.7-0.9c-0.1-2,2-3.6,3.9-3.1c0.2,0.1,0.4,0.1,0.7,0.2c-0.2-1-0.8-1.6-1.5-2.1
		c-0.5-0.3-1-0.5-1.6-0.5c-0.1,0-0.3,0-0.4-0.1c-0.5-0.1-0.7-0.4-0.7-0.8c0-0.5,0.4-0.8,0.8-0.8c0.9,0,1.8,0.2,2.6,0.7
		c0.3,0.2,0.6,0.4,1,0.7c0-0.7,0-1.4,0-2c0-0.6,0.4-0.9,1-0.8c0.5,0.1,0.6,0.4,0.7,0.9c0,0.6,0,1.2,0,1.9c0.6-0.3,1.1-0.7,1.6-1
		c0.5-0.2,1.1-0.3,1.7-0.4c0.6-0.1,1.1,0.2,1.1,0.7c0.1,0.5-0.3,0.9-0.9,0.9c-1.1,0.1-2,0.5-2.7,1.3c-0.3,0.4-0.5,0.8-0.7,1.3
		c0.2,0.1,0.4,0,0.5-0.1c2-0.6,4,0.9,4,3c0,0.6-0.2,0.9-0.7,0.9s-0.8-0.2-0.9-0.8c-0.2-1-0.9-1.7-1.7-1.6c-0.9,0.1-1.5,0.8-1.5,1.9
		c0,5.2,0,10.4,0,15.6c0,0.6,0.2,0.7,0.7,0.7c1.6,0,3.1,0,4.6,0c0.5,0,0.6-0.2,0.6-0.6c0-2.1,0-4.1,0-6.3c0-14.7,0-29.5,0-44.2
		c0-0.2,0-0.5,0-0.7c0.1-0.5,0.3-0.7,0.8-0.8c0.2,0,0.3,0,0.5,0c8.7,0,17.4,0,26.2,0c1.1,0,1.2,0.2,1.2,1.3c0,16.8,0,33.7,0,50.4
		c0,0.9,0,0.9,0.9,0.9c0.4,0,0.8,0,1.2,0c0.5,0,0.6-0.1,0.4-0.6c-0.6-2.1-0.9-4.2-0.8-6.4c0.1-3.2,1-6.2,3-8.8
		c0.5-0.6,1.3-0.7,1.8,0c1.6,2.1,2.5,4.3,2.9,6.8c0.5,2.9,0.1,5.6-0.7,8.4c-0.2,0.5,0,0.6,0.5,0.6c1.2,0,2.3,0,3.5,0
		c0.4,0,0.5-0.1,0.5-0.5c0-3.5,0-6.9,0-10.4c0-0.5-0.2-0.9-0.7-0.9c-0.5-0.1-0.8,0.3-0.9,0.7c-0.2,0.7-0.5,0.9-1,0.8
		c-0.5-0.1-0.7-0.6-0.6-1.2c0.2-1.2,1.1-1.9,2.3-2c0.1,0,0.3,0.1,0.4-0.1c0-0.1-0.1-0.2-0.2-0.3c-0.4-0.5-0.9-0.6-1.5-0.7
		s-0.8-0.4-0.8-0.8c0-0.5,0.4-0.8,1-0.8s1.1,0.2,1.6,0.5c0.3,0.1,0.4,0.1,0.4-0.2c0-0.2,0-0.4,0-0.7c0.1-0.4,0.4-0.6,0.9-0.6
		c0.4,0,0.7,0.3,0.7,0.7C103.7,100.8,103.7,101.1,103.7,101.4z M62.2,93.4c0,7.6,0,15.2,0,22.7c0,0.7,0,0.7,0.7,0.7
		c2.4,0,4.8,0,7.2,0c0.5,0,0.6-0.2,0.6-0.6c0-1.4,0-2.7,0-4c0-1.9,1.6-3.7,3.4-3.8c2-0.1,3.8,1.3,4,3.3c0.2,1.5,0.1,3.1,0.1,4.5
		c0,0.5,0.2,0.7,0.7,0.7c2.6,0,5.2,0,7.8,0c0.8,0,0.8,0,0.8-0.8c0-15.1,0-30.2,0-45.3c0-0.8,0-0.8-0.8-0.8c-7.9,0-15.8,0-23.7,0
		c-0.8,0-0.8,0-0.8,0.9C62.2,78.4,62.2,85.9,62.2,93.4z M74.8,66c-2.3,0-4.5,0-6.7,0c-1.7,0-3.4,0-5,0c-0.8,0-0.8,0-0.8,0.9
		c0,0.3,0,0.5,0,0.8c0,0.9,0,0.9,0.9,0.9c7.8,0,15.7,0,23.5,0c0.1,0,0.3,0,0.4,0c0.3,0,0.5-0.1,0.5-0.5s0-0.9,0-1.3
		c0.1-0.6-0.2-0.7-0.7-0.7C82.8,66,78.8,66,74.8,66z M72.3,114.4c0,0.7,0,1.4,0,2.2c0,0.3,0.1,0.5,0.4,0.5c1.2,0,2.4,0,3.5,0
		c0.2,0,0.3-0.1,0.3-0.3c0-1.5,0.1-3.1-0.1-4.5c-0.2-1.2-1.1-2-2.1-1.9c-1.1,0.1-2,1.1-2,2.3C72.3,113.1,72.3,113.7,72.3,114.4z
		 M93.9,104.1c-1.3,2.5-1.6,5.2-1.4,7.9c0.1,1,0.2,1.9,0.4,2.8c0,0.2,0,0.4,0.3,0.4c0.4-0.1,0.7-0.2,0.7-0.7
		C93.9,111,93.9,107.6,93.9,104.1z M95.4,104.3c0,3.5,0,6.8,0,10.3c0,0.1,0,0.2,0,0.2c0.1,0.3,0.4,0.4,0.6,0.5
		c0.3,0.1,0.2-0.3,0.3-0.4c0.5-2.1,0.7-4.1,0.4-6.3C96.6,107.1,96.2,105.7,95.4,104.3z"/>
	<path class="st0" d="M99,68.4c2,0,3.6,1.6,3.5,3.6c0,1.9-1.7,3.6-3.6,3.6c-1.9,0-3.5-1.7-3.5-3.6C95.5,69.9,97.1,68.4,99,68.4z
		 M98.9,73.8c1.1,0,1.9-0.8,1.9-1.8c0-1.1-0.8-2-1.9-2c-1.1,0-1.9,0.9-1.9,1.9C97.1,73,97.8,73.8,98.9,73.8z"/>
	<path class="st0" d="M97.4,76.5c-0.3,0.7-0.6,1.5-1.2,2.1c-0.3,0.3-0.7,0.3-1,0c-0.3-0.2-0.4-0.6-0.3-0.9c0.3-0.6,0.6-1.2,0.9-1.8
		c0.2-0.3,0.5-0.5,0.9-0.3C97.2,75.7,97.4,76,97.4,76.5z"/>
	<path class="st0" d="M104.8,76c-0.7-0.3-1.6-0.6-2.2-1.2c-0.3-0.3-0.2-0.6,0-0.9s0.5-0.5,0.9-0.3c0.6,0.3,1.3,0.6,1.9,1
		c0.3,0.2,0.4,0.6,0.3,0.9C105.6,75.8,105.3,76,104.8,76z"/>
	<path class="st0" d="M103.4,70c-0.4-0.1-0.7-0.2-0.9-0.5c-0.2-0.4,0-0.7,0.2-0.9c0.6-0.4,1.2-0.8,1.8-1.1c0.3-0.1,0.6,0,0.8,0.2
		c0.2,0.3,0.3,0.7,0.1,0.9C105,69.5,104.1,69.7,103.4,70z"/>
	<path class="st0" d="M103.1,66.1c-0.3,0.7-0.6,1.5-1.3,2c-0.3,0.2-0.6,0.2-0.9-0.1c-0.3-0.2-0.4-0.6-0.2-0.9
		c0.3-0.7,0.6-1.3,1.1-1.8c0.2-0.3,0.5-0.3,0.9-0.2C102.9,65.4,103.1,65.6,103.1,66.1z"/>
	<path class="st0" d="M93.2,76.4c-0.4-0.1-0.6-0.2-0.8-0.5c-0.1-0.3-0.1-0.7,0.2-0.9c0.6-0.4,1.2-0.8,1.8-1.1c0.4-0.2,0.7-0.1,1,0.3
		c0.2,0.3,0.2,0.7,0,1c-0.6,0.5-1.2,0.9-1.9,1.3C93.3,76.4,93.2,76.4,93.2,76.4z"/>
	<path class="st0" d="M97,67.6c0,0.4-0.2,0.7-0.6,0.8c-0.4,0.1-0.7,0.1-0.9-0.3c-0.3-0.5-0.7-1-1-1.6c-0.2-0.4-0.2-0.8,0.2-1.1
		c0.4-0.3,0.8-0.2,1.1,0.2c0.3,0.5,0.7,1,1,1.5C96.9,67.3,97,67.4,97,67.6z"/>
	<path class="st0" d="M100,77.7c0,0.4,0,0.7,0,0.9c0,0.5-0.2,0.8-0.7,0.8s-0.8-0.3-0.8-0.7c-0.1-0.6-0.1-1.2-0.1-1.8
		c0-0.5,0.3-0.9,0.8-0.9s0.8,0.3,0.8,0.8C99.9,77.3,99.9,77.5,100,77.7z"/>
	<path class="st0" d="M98.1,66c0-0.3,0-0.7,0-1c0-0.5,0.3-0.7,0.8-0.7c0.5,0,0.8,0.3,0.8,0.7c0,0.6,0,1.2,0,1.9
		c0,0.5-0.4,0.8-0.8,0.8s-0.8-0.3-0.8-0.9C98.1,66.5,98.1,66.3,98.1,66L98.1,66z"/>
	<path class="st0" d="M100.9,76.2c0-0.3,0.2-0.5,0.5-0.7c0.4-0.1,0.7-0.1,0.9,0.3c0.4,0.6,0.7,1.1,1,1.7c0.2,0.3,0.1,0.6-0.1,0.9
		s-0.6,0.3-0.9,0.1C101.9,78.3,100.9,76.7,100.9,76.2z"/>
	<path class="st0" d="M95.2,69.6c0,0.5-0.5,1-1,0.8c-0.7-0.3-1.3-0.6-1.9-1c-0.3-0.2-0.4-0.6-0.2-0.9c0.2-0.4,0.5-0.6,0.8-0.4
		c0.7,0.2,1.4,0.7,2,1.1C95.1,69.2,95.2,69.4,95.2,69.6z"/>
	<path class="st0" d="M104.9,72.6c-0.3,0-0.6,0-0.9,0c-0.5,0-0.8-0.4-0.8-0.9s0.3-0.7,0.9-0.7c0.5,0,1.1,0,1.7,0s0.9,0.3,0.9,0.8
		s-0.3,0.7-0.9,0.8C105.4,72.6,105.2,72.6,104.9,72.6L104.9,72.6z"/>
	<path class="st0" d="M92.9,73c-0.3,0-0.6,0-0.8,0c-0.5,0-0.8-0.4-0.8-0.8c0-0.5,0.3-0.7,0.8-0.7c0.6,0,1.2-0.1,1.8-0.1
		c0.5,0,0.8,0.3,0.8,0.8S94.3,72.9,94,73C93.6,73,93.3,73,92.9,73C92.9,73.1,92.9,73,92.9,73z"/>
	<path class="st0" d="M74.4,88.2c-0.6,0-1.1,0-1.7,0s-0.9-0.4-1-0.9c0-0.9-0.1-1.8,0-2.6c0.2-1.5,1.3-2.4,2.8-2.3
		c1.3,0.1,2.4,1.1,2.5,2.5c0,0.8,0,1.6,0,2.4c0,0.6-0.3,0.9-0.9,0.9C75.5,88.2,75,88.2,74.4,88.2L74.4,88.2z M73.4,85.4L73.4,85.4
		c0,0.1,0,0.3,0,0.4c-0.1,0.5,0.1,0.7,0.6,0.7c1.5-0.1,1.3,0.2,1.3-1.4c0-0.1,0-0.2,0-0.3c-0.1-0.5-0.5-0.9-1-0.9s-0.9,0.4-1,0.9
		C73.4,85,73.4,85.2,73.4,85.4z"/>
	<path class="st0" d="M74.4,105c-0.6,0-1.1,0-1.7,0s-1-0.4-1-1c0-0.8-0.1-1.7,0-2.5c0.2-1.5,1.3-2.5,2.8-2.4c1.4,0,2.4,1.1,2.5,2.6
		c0,0.8,0,1.6,0,2.4c0,0.6-0.3,0.9-0.9,0.9H76C75.5,105,74.9,105,74.4,105L74.4,105z M73.4,102.3L73.4,102.3c0,0.2,0,0.4,0,0.6
		c0,0.3,0.1,0.4,0.4,0.4c1.8,0,1.5,0.2,1.5-1.4c0-0.1,0-0.2,0-0.3c-0.1-0.5-0.5-0.9-1-0.9s-0.9,0.4-0.9,0.9
		C73.4,101.8,73.4,102.1,73.4,102.3z"/>
	<path class="st0" d="M74.4,79.9c-0.6,0-1.1,0-1.7,0s-0.9-0.3-0.9-0.9c0-0.9-0.1-1.7,0-2.6c0.1-1.5,1.3-2.5,2.7-2.4
		c1.4,0,2.5,1.1,2.6,2.6c0.1,0.8,0,1.6,0,2.4c0,0.6-0.3,0.9-0.9,0.9C75.5,79.9,75,79.9,74.4,79.9z M75.4,77.3c0-0.2,0-0.4,0-0.6
		c0-0.6-0.4-1-1-1s-1,0.4-1,1c0,0.2,0,0.4,0,0.7c0,0.9,0,0.9,0.9,0.9C75.4,78.2,75.4,78.2,75.4,77.3z"/>
	<path class="st0" d="M74.4,96.5c-0.6,0-1.1,0-1.7,0c-0.5,0-0.9-0.3-0.9-0.9c0-0.9-0.1-1.8,0-2.7c0.2-1.4,1.3-2.4,2.7-2.3
		c1.4,0.1,2.5,1.1,2.5,2.6c0,0.8,0,1.6,0,2.4c0,0.6-0.3,0.9-1,0.9C75.5,96.5,74.9,96.5,74.4,96.5L74.4,96.5z M73.4,93.8L73.4,93.8
		c0,0.2,0,0.4,0,0.7c0,0.5,0.3,0.5,0.6,0.4c0.5-0.1,1.1,0.4,1.3-0.4c0.1-0.4,0-0.9,0-1.4c0-0.5-0.5-0.8-0.9-0.8
		c-0.5,0-0.9,0.3-1,0.8C73.4,93.4,73.4,93.6,73.4,93.8z"/>
	<path class="st0" d="M66.9,79.9c-0.6,0-1.1,0-1.7,0c-0.6,0-0.9-0.3-0.9-0.9c0-0.8,0-1.5,0-2.3c0-1.5,1.1-2.6,2.5-2.7
		c1.4,0,2.6,1,2.7,2.5c0.1,0.8,0,1.7,0,2.5c0,0.5-0.3,0.8-0.9,0.9C68.1,79.9,67.5,79.9,66.9,79.9L66.9,79.9z M65.9,77.3
		c0,1.1-0.1,1.1,1.1,1.1c0.2,0,0.4,0,0.6,0s0.3-0.1,0.3-0.3c0-0.5,0.1-1.1-0.1-1.6c-0.1-0.5-0.6-0.7-1-0.7c-0.5,0.1-0.8,0.4-0.9,0.9
		C65.9,76.8,65.9,77.1,65.9,77.3z"/>
	<path class="st0" d="M66.9,88.2c-0.6,0-1.1,0-1.7,0c-0.7,0-0.9-0.3-0.9-1c0-0.8,0-1.5,0-2.3c0-1.5,1.1-2.6,2.5-2.7
		c1.5,0,2.7,1,2.8,2.5c0.1,0.8,0,1.7,0,2.5c0,0.6-0.3,0.8-0.9,0.9C68.1,88.2,67.5,88.1,66.9,88.2L66.9,88.2z M65.9,85.4
		c0,1.2-0.1,1,1.1,1c0.2,0,0.4,0,0.6,0s0.3-0.1,0.3-0.3c0-0.5,0.1-1.1-0.1-1.6s-0.5-0.7-1-0.7s-0.9,0.4-0.9,0.9
		C65.9,85,65.9,85.2,65.9,85.4z"/>
	<path class="st0" d="M81.8,79.9c-0.6,0-1.1,0-1.7,0s-0.9-0.3-0.9-1c0-0.8,0-1.6,0-2.4c0-1.4,1.2-2.6,2.6-2.6s2.6,1.1,2.6,2.5
		c0,0.8,0,1.6,0,2.4c0,0.7-0.3,0.9-0.9,0.9C82.9,79.9,82.3,79.9,81.8,79.9z M82.7,77.3c0-0.2,0-0.4,0-0.5c0-0.6-0.5-1-1-1
		s-0.9,0.4-1,1c0,0.2,0,0.4,0,0.6c0,1,0,1,1,1C82.9,78.2,82.7,78.3,82.7,77.3z"/>
	<path class="st0" d="M81.7,88.2c-0.6,0-1.1,0-1.7,0c-0.7,0-1-0.3-1-1c0-0.8,0-1.5,0-2.3c0-1.5,1.2-2.6,2.6-2.6
		c1.5,0,2.6,1.1,2.6,2.6c0,0.8,0,1.5,0,2.3c0,0.7-0.3,1-1,1C82.8,88.2,82.3,88.2,81.7,88.2L81.7,88.2z M81.7,86.5
		c1.2,0,1,0.1,1.1-1.1c0-0.2,0-0.4,0-0.6c-0.1-0.6-0.5-0.9-1-0.9s-0.9,0.4-1,0.9c0,0.2,0,0.5,0,0.7C80.7,86.6,80.6,86.5,81.7,86.5z"
		/>
	<path class="st0" d="M66.9,105c-0.5,0-1.1,0-1.6,0c-0.7,0-1-0.3-1-1c0-0.8,0-1.5,0-2.3c0-1.4,1.1-2.6,2.5-2.6c1.5,0,2.7,1,2.7,2.4
		c0,0.8,0,1.7,0,2.5c0,0.6-0.3,0.9-1,0.9h-0.1C67.9,105,67.4,105,66.9,105z M65.9,102.3c0,1.1-0.1,1.1,1.1,1.1c0.2,0,0.4,0,0.6,0
		s0.3-0.1,0.3-0.3c0-0.5,0.1-1.1-0.1-1.6s-0.5-0.7-1-0.7s-0.9,0.4-0.9,0.9C65.9,101.8,65.9,102,65.9,102.3z"/>
	<path class="st0" d="M81.7,105c-0.5,0-1.1,0-1.6,0c-0.7,0-1-0.3-1-1.1c0-0.7,0-1.5,0-2.2c0-1.5,1.1-2.6,2.6-2.6s2.6,1.1,2.6,2.6
		c0,0.8,0,1.5,0,2.3c0,0.7-0.3,1-1,1C82.8,105,82.3,105,81.7,105z M80.7,102.2L80.7,102.2c0,0.1,0,0.3,0,0.4
		c-0.1,0.5,0.1,0.7,0.7,0.7c1.6-0.1,1.3,0.2,1.4-1.4c0-0.1,0-0.3,0-0.4c-0.1-0.5-0.5-0.9-1-0.8c-0.5,0-0.9,0.4-1,0.9
		C80.7,101.8,80.7,102,80.7,102.2z"/>
	<path class="st0" d="M81.7,96.6c-0.6,0-1.1,0-1.7,0s-0.9-0.3-0.9-0.9c0-0.8,0-1.6,0-2.4c0-1.4,1.2-2.5,2.6-2.5s2.6,1,2.7,2.4
		c0,0.8,0,1.7,0,2.5c0,0.6-0.3,0.9-0.9,0.9S82.3,96.6,81.7,96.6z M82.7,93.9c0-0.2,0-0.4,0-0.7c-0.1-0.6-0.4-0.9-1-0.9s-1,0.4-1,0.9
		c0,0.2,0,0.4,0,0.7c0,1.1-0.1,1,1,1C82.9,94.9,82.7,95,82.7,93.9z"/>
	<path class="st0" d="M66.9,96.6c-0.6,0-1.1,0-1.7,0c-0.7,0-0.9-0.3-1-1c0-0.8,0-1.5,0-2.3c0-1.4,1.1-2.6,2.4-2.6
		c1.5-0.1,2.7,1,2.8,2.4c0.1,0.9,0,1.7,0,2.6c0,0.6-0.3,0.8-0.9,0.9C68.1,96.6,67.5,96.6,66.9,96.6L66.9,96.6z M65.9,93.8
		c0,1.2-0.2,1.1,1.1,1.1c0.2,0,0.4,0,0.6,0s0.3-0.1,0.3-0.3c0-0.5,0.1-1.1-0.1-1.6c-0.1-0.5-0.5-0.7-1.1-0.7
		c-0.5,0.1-0.8,0.4-0.8,0.9C65.9,93.3,65.9,93.6,65.9,93.8z"/>
</g>
<path class="st0" d="M37.8,74.3c-2,0-3.8,0-5.8,0c-2.8,0-4.6-1.7-4.7-4.1c-0.1-2.4,1.6-4.1,4.2-4.4c0.7-0.1,1-0.4,1.4-0.9
	c2.4-3.6,6.8-3.9,9.7-0.7c0.5,0.5,1,0.7,1.7,0.8c2.7,0.2,4.6,2.2,4.6,4.6c0,2.7-2.1,4.7-4.8,4.8c-0.1,0-0.2,0-0.3,0
	C41.6,74.3,39.8,74.3,37.8,74.3z M37.7,72.4L37.7,72.4c2.2,0,4.3,0,6.5,0c1.9-0.1,3-1.6,2.7-3.5c-0.3-1.7-1.9-2.9-3.5-2.5
	c-0.9,0.2-1.4,0.1-1.8-0.7c-0.9-1.6-2.4-2.3-4.1-2.2c-1.9,0.1-3.2,1.3-3.8,3c-0.3,0.9-0.7,1.1-1.6,0.9c-1.8-0.4-3.2,0.6-3.3,2.3
	c-0.1,1.5,1,2.7,2.8,2.7C33.7,72.5,35.7,72.4,37.7,72.4z"/>
<path class="st0" d="M122.9,51.4c2.1-0.7,3.5-2.6,3.5-4.8c0-2.7-2.2-4.7-4.9-4.9c-0.7,0-1.3-0.2-1.8-0.8c-2.5-2.8-6.1-3.1-8.7-1
	C100.9,32.5,88.5,28.1,75.3,28C41.5,27.9,14.2,55.3,14,88.7C13.9,122.5,41.3,150,75,150c33.6,0,61.1-27.3,61-60.9
	C136,74.9,131.1,61.8,122.9,51.4z M114.5,40.4c1.9-0.1,3.5,0.6,4.3,2.4c0.5,0.8,1,1,1.9,0.7c1.8-0.5,3.5,0.8,3.8,2.6
	c0.3,2-0.9,3.6-2.8,3.7c-2.3,0.1-4.6,0-7,0l0,0c-2.1,0-4.2,0-6.3,0c-1.9,0-3.1-1.2-3-2.9c0.1-1.7,1.6-2.8,3.5-2.4c1,0.2,1.4,0,1.7-1
	c0.1-0.4,0.3-0.8,0.6-1.2l0,0c0.4-0.6,0.9-1.1,1.5-1.5l0,0C113,40.6,113.7,40.4,114.5,40.4z M75,147.9c-32.6,0-58.9-26.4-58.8-59
	c0.1-32.5,26.5-58.8,59.1-58.7c12.7,0,24.7,4.1,34.4,11.3c-0.1,0.1-0.1,0.2-0.2,0.2c-0.4,0.6-0.7,0.9-1.5,1
	c-2.8,0.3-4.6,2.3-4.4,4.7c0.1,2.6,2.2,4.3,5,4.3c2.1,0,4.1,0,6.2,0c2,0,3.9,0,5.8,0c8.5,10.3,13.5,23.5,13.3,38.1
	C133.5,121.9,107.4,147.9,75,147.9z"/>
</svg>
