<?xml version="1.0" encoding="utf-8"?>
<!-- Generator: Adobe Illustrator 22.0.1, SVG Export Plug-In . SVG Version: 6.00 Build 0)  -->
<svg version="1.1" id="Layer_1" xmlns="http://www.w3.org/2000/svg" xmlns:xlink="http://www.w3.org/1999/xlink" x="0px" y="0px"
	 viewBox="0 0 150 150" style="enable-background:new 0 0 150 150;" xml:space="preserve">
<style type="text/css">
	.st0{fill:#FFFFFF;}
</style>
<g>
	<path class="st0" d="M131.2,120.9c-0.6,0-1.3,0.1-1.8,0c-2-0.4-3.2,0.6-4.4,2.2c-7.5,11.3-17.8,19.1-30.6,23.6
		c-5.6,1.9-11.4,3.1-17.4,3.2c-23,0.4-40.9-9-53.6-27.9C18,114,15,105,14,95.5c-1.1-10.9,0.7-21.4,5.3-31.4c1.3-2.8,2.7-5.5,4.5-8.1
		c0.5-0.7,0.5-1-0.5-1c-2,0-3.5-1.3-3.6-3c-0.1-1.8,1.2-3.1,3.2-3.5c0.5-0.1,0.9-0.3,1.2-0.6c1.7-1.6,3.6-1.8,5.4-0.5
		c0.6,0.5,0.9,0.3,1.4-0.2c4.6-5,10-9.1,16.1-12.1c0.6-0.3,0.8-0.7,0.9-1.3c0.6-3.1,1.3-6.1,1.8-9.2c0.3-1.8,0.1-3.6,0.1-5.5
		c0-0.7-0.4-0.8-0.9-0.8s-1-0.1-0.9-0.8c0-0.7,0.6-0.7,1.1-0.7c2.5,0,5.1,0,7.6,0c0.5,0,1,0,1.1,0.7c0,0.8-0.5,0.8-1.1,0.8
		c-1.1-0.1-1.4,0.4-1.3,1.4c0,3.5,0,7.1,0,10.6c0,1.1,0.3,1.2,1.3,0.9c6.6-2,13.3-3.1,20.3-2.8C93,29.2,107,35.2,118.4,47
		c9.7,10,15.3,22,16.8,35.8c0.9,7.8,0.2,15.6-2,23.2c-0.2,0.5-0.3,1.1-0.4,1.6c-0.2,1,0.4,1.6,1.4,1.5c3.4-0.4,6.3,2.1,6.5,5.6
		c0.3,3.3-2.4,6.2-5.7,6.3C133.7,120.9,132.5,120.9,131.2,120.9L131.2,120.9z M95.7,51.2c-0.6,0.4-1,0.4-1.4,0.5
		c-3.1,0.3-6.2,0.5-9.3,0.8c-1.1,0.1-1.6,0.4-1.5,1.6c0.2,1.9,0.4,3.9,0.5,5.7c0.2,1.7,0.3,3.4,0.5,5.1c0.1,0.6,0.1,1.2,1,1.2
		c1.8,0,2.8,1,3.8,2.3c2.2,3.3,3.9,6.9,4.8,10.8c0.1,0.5,0.2,1,0.7,1.3c1.1,0.8,2.1,1.6,3.1,2.4c0.5,0.4,0.9,0.4,1.2-0.2
		c0.5-0.9,1.1-1.7,1.6-2.4c0.3-0.5,0.6-0.6,1.2-0.3c3.6,2.3,7.2,4.7,10.8,6.9c0.5,0.3,0.6,0.7,0.2,1.2c-0.6,0.9-1.2,1.8-1.8,2.6
		c-0.3,0.4-0.4,0.7,0,1.2c1,1.2,0.9,2.4,0.1,3.7c-0.9,1.4-1.8,2.7-2.6,4.1c-0.8,1.2-1.8,1.8-3.3,1.5c-0.3-0.1-0.7-0.2-0.9,0.1
		c-0.8,1.5-2.4,2.4-1.8,4.5c0.3,1,0.2,2,0,3c-0.6,3.4-3.3,5.7-6.6,5.5c-0.8,0-0.9,0.3-0.9,0.9c0,2.1-0.2,4.3,0.1,6.4
		c0.3,2.4-0.4,4.4-2.4,5.7c-0.7,0.4-0.9,1.1-0.9,1.9c0,5.3,0,10.5,0,15.7c0,1.1,0.3,1.3,1.3,0.9c6.2-1.9,11.9-5,17.1-8.8
		c5.6-4.2,10.4-9.2,14.3-15.2c0.5-0.8,0.4-1.1-0.6-1.1c-2,0-4,0-6,0c-3,0-5.5-2.5-5.5-5.5c0.1-3,2.6-5.5,5.6-5.3
		c0.8,0,1.2-0.2,1.5-0.9c2.1-4.1,6.9-5.5,10.9-3.1c1.1,0.7,1.3,0.3,1.5-0.7c2.5-9.2,2.9-18.3,1.2-27.7c-2.4-12.5-8.4-23.2-17.5-31.8
		c-6.8-6.5-14.8-11.1-23.9-13.7c-5.2-1.6-10.5-2.4-16-2.4c-0.9,0-1.2,0.2-1,1.2c0.6,3.3,1.1,6.6,1.7,10c0.1,0.5,0,1,0.7,1.2
		c0.6,0.2,1-0.2,1.3-0.5c2.2-1.9,4.4-3.9,6.6-5.8c0.6-0.6,1.3-1.1,2-1.8c0,0.7-0.2,1-0.4,1.3c-1.5,2.7-2.9,5.4-4.4,8.1
		c-0.2,0.3-0.6,0.7-0.2,1.1c0.3,0.4,0.7,0.1,1.1,0.1c2.5-0.5,5.1-1,7.7-1.4c1.5-0.2,2.9-0.7,4.6-0.7c-0.4,0.5-0.8,0.6-1.2,0.8
		c-2.9,1.6-5.9,3-8.9,4.6c-0.3,0.1-0.8,0.2-0.7,0.6c0.1,0.3,0.5,0.3,0.8,0.4c0.1,0.1,0.3,0.1,0.5,0.1C89,49.6,92.2,50.4,95.7,51.2z
		 M31,48.9c0.3,0.1,0.4,0.1,0.6,0.1c1.8,0.6,2.8,1.8,2.5,3.5C34,54,32.6,55,30.9,55c-1.4,0-2.6,0-4,0c-0.7,0-1.1,0.2-1.5,0.8
		c-1.2,1.8-2.2,3.5-3.2,5.3c-5.3,9.9-7.6,20.5-7,31.8c0.3,4.7,1.1,9.3,2.5,13.8c5.7,17.6,17.1,30.1,34.1,37.5
		c1.3,0.6,1.3,0.6,1.3-0.9c0-8.6,0.1-17.1-0.1-25.7c0-2.2,0.4-4.1,2.2-5.5c0.9-0.7,1.1-1.6,1.1-2.6c0-5.5,0-10.9,0-16.5
		c0-0.9,0.1-1.7,0.9-2.1c0.7-0.5,0.7-1,0.4-1.8c-0.6-1.7-1.1-3.2-1.5-4.9c-1.3-4.5-3.2-8.9-2.6-13.7c0.1-0.6-0.3-1.1-0.6-1.5
		c-1.9-3-3.8-6.1-5.7-9.2c-1.1-1.8-1.9-3.5-2.3-5.5c-0.7-3.1,0-6,0.6-9.1c0.6-2.8,1.1-5.7,1.7-8.7C42.9,38.2,33.8,45.2,31,48.9z
		 M87.4,130.2c2-1.9,3.9-3.7,5.7-5.5c0.5-0.5,0.5-1.1,0.5-1.7c0-12.2,0-24.2,0-36.4c0-6.3-1.8-12.2-5.4-17.4
		c-1.8-2.5-4.6-2.8-6.8-0.7c-0.5,0.5-1,1.1-1.6,1.6c-0.7,0.6-0.9,1.3-0.9,2c0,21.5,0,43,0,64.6c0,0.4-0.2,0.8,0.3,1.1
		c1.8-1.8,3.6-3.5,5.5-5.2c0.9-0.8,1.2-1.6,1.2-2.7c0-15.5,0-30.9,0-46.3c0-0.6-0.4-1.8,0.8-1.8c1.2,0,0.7,1.1,0.7,1.8
		c0,14.9,0,29.9,0,44.8C87.4,129.1,87.4,129.5,87.4,130.2z M62.1,136c2.1-2.1,4.2-4.1,6.2-6c0.6-0.6,0.9-1.2,0.9-2
		c0-5.3,0-10.5,0-15.7c0-0.4,0-0.7,0-1.1c0-0.4,0.3-0.6,0.7-0.6c0.4,0,0.7,0.2,0.7,0.6c0,0.4,0,0.8,0,1.2c0,4.6,0,9.2,0,13.7
		c0,0.4-0.2,0.9,0,1c2.2-2,4.4-4.1,6.6-6.1c0.4-0.4,0.3-1,0.3-1.5c0-8.8,0-17.6,0-26.4c0-0.3,0.2-0.7-0.4-1.1
		c-0.2,0.2-0.3,0.5-0.5,0.8c-4.6,4.6-9.1,9.2-13.6,13.6c-0.6,0.6-0.9,1.3-0.9,2.1c0,8.8,0,17.5,0,26.3
		C62.1,135.1,62.1,135.5,62.1,136z M80.5,67.3c-4.6,0-9.2,0-13.8,0c-0.5,0-0.9,0.2-1.3,0.5c-3.1,2.5-6.2,5.1-9.4,7.6
		c-0.6,0.5-0.8,1-0.5,1.7c1,3.2,1.9,6.4,2.9,9.6c0.2,0.7,0.5,1.4,0.7,2C66.2,81.6,73.3,74.5,80.5,67.3z M126.3,119.5
		c2.7,0,5.5,0.1,8.3,0c3-0.1,5-2.3,4.8-5.2c-0.3-2.6-2.6-4.5-5.5-3.9c-1,0.2-1.4-0.1-1.8-0.9c-1.5-2.4-3.6-3.5-6.4-3.1
		c-2.6,0.4-4.4,1.8-5.2,4.4c-0.3,0.9-0.6,1.1-1.6,0.9c-2.2-0.6-4.2,0.6-4.9,2.7c-0.8,2.7,1.2,5.1,4.3,5.2
		C120.9,119.6,123.5,119.5,126.3,119.5z M81.7,137.7c-1.1,1-1.9,1.8-2.9,2.7c-0.3,0.3-0.5,0.8-0.9,0.6c-0.5-0.2-0.3-0.8-0.3-1.2
		c0-5.4,0-10.6,0-16c0-0.4,0.1-0.9-0.1-1.3c-0.1,0-0.2,0-0.2,0.1c-3.5,3.5-7,7-10.4,10.6c-0.3,0.3-0.5,0.6-0.5,1.1
		c0,4.3,0,8.6,0,12.9c0,0.5,0.2,0.8,0.8,0.8c2.1,0.2,4.2,0.5,6.3,0.5c0.7,0,1.3-0.2,1.8-0.7c1.7-1.8,3.3-3.6,5.2-5.2
		C82.1,141.4,81.8,139.7,81.7,137.7z M53.6,67c0-0.4,0-0.8,0-1.1c0-13,0-26,0-39c0-1.8-0.1-1.8-1.8-1.8c-1.3,0-1.1,1-1.3,1.8
		c-1.3,6.2-2.4,12.6-3.7,18.9c-0.7,3.3-1.4,6.6-0.1,9.8C48.4,59.8,51.2,63.2,53.6,67z M94.9,98.3c0,1.3,0,2.5,0,3.8
		c0,3.2,0,3.1,2.7,4.8c0.7,0.4,1,0.3,1.4-0.4c1.2-1.9,2.4-3.8,3.7-5.6c0.3-0.5,0.4-0.8-0.1-1.3c-1.1-1.2-1.2-2.2-0.4-3.6
		c1-1.6,1.9-3.1,2.9-4.6c0.9-1.2,1.9-1.6,3.3-1.2c0.7,0.2,1,0.1,1.4-0.5c0.2-0.4,0.5-0.8,0.7-1.1c0.5-0.7,0.4-1.2-0.4-1.6
		c-2.7-1.7-5.4-3.4-8-5.2c-0.7-0.5-1.1-0.3-1.5,0.4c-1.1,1.7-1.9,3.4-3.2,5c-2.2,2.8-3.2,5.8-2.7,9.3C95,97.2,94.9,97.7,94.9,98.3z
		 M61.3,34.2c0.1-0.1,0.2-0.1,0.3-0.2c0.4,0.3,0.8,0.6,1.2,1c2.4,2.2,4.9,4.4,7.4,6.6c0.4,0.4,0.7,0.7,1.4,0.5
		c0.7-0.2,0.6-0.8,0.7-1.2c0.5-3.3,1-6.6,1.6-10c0.2-0.9-0.2-1.1-1-1.1c-1.4,0.1-2.8,0.1-4.2,0.3c-4.3,0.4-8.5,1.4-12.6,2.6
		c-0.5,0.2-0.9,0.4-0.9,1.1c0,2.6,0,5.4,0,8c0,0.6,0.3,0.9,0.8,1c3.3,0.6,6.5,1.2,9.8,1.8c0.9,0.2,1-0.3,0.6-1
		c-0.5-0.9-0.9-1.8-1.4-2.5C63.8,38.7,62.6,36.5,61.3,34.2z M60.7,108.9c-1.8,1.8-3.6,3.4-5.5,5.2c-0.6,0.5-0.8,1.1-0.8,1.8
		c0,9,0,17.8,0,26.8c0,0.3-0.2,0.6,0.1,0.8c1.8-1.8,3.5-3.4,5.3-5.1c0.6-0.6,0.9-1.2,0.9-2c0-6.5,0-13,0-19.6
		C60.7,114.2,60.7,111.5,60.7,108.9z M74.3,62.3c2.2,0,3.8-1.2,4.4-3.2c0.5-1.8,0.5-3.7,0.8-5.5c0.1-0.6-0.2-1-0.8-1.1
		c-1.5-0.3-2.7-1-3.8-1.8c-0.3-0.3-0.6-0.5-1-0.1c-1.2,1.1-2.6,1.7-4.1,1.9c-0.7,0.1-0.9,0.5-0.8,1.2c0.2,1.3,0.3,2.5,0.5,3.8
		C69.8,60.7,71.4,62.3,74.3,62.3z M77.6,78.8c-1.3,1-2,2-2.9,2.9C69.4,87,64.2,92.3,58.9,97.5c-0.4,0.4-0.9,0.7-0.9,1.2
		c0,1.4,0,2.6,0,4.1c0.3-0.2,0.4-0.2,0.4-0.3c6.2-6.2,12.5-12.5,18.7-18.7c0.3-0.3,0.6-0.7,0.6-1.1C77.6,81.6,77.6,80.3,77.6,78.8z
		 M77.6,85.4c-0.3,0.2-0.4,0.2-0.5,0.3c-6.2,6.2-12.5,12.5-18.6,18.7c-0.3,0.3-0.6,0.6-0.6,1c0,1.3,0,2.5,0,3.9
		c0.3-0.2,0.4-0.2,0.5-0.3c6.2-6.2,12.5-12.5,18.6-18.7c0.3-0.3,0.5-0.7,0.5-1.2C77.6,88,77.6,86.8,77.6,85.4z M55.1,74.3
		c3-2.4,5.9-4.8,8.8-7c0.7-0.5,0.7-0.9,0.1-1.5c-2.7-3-5.5-6-8.2-9.1c-0.2-0.2-0.3-0.5-0.7-0.4C55.1,62.3,55.1,68.2,55.1,74.3z
		 M57.9,96.4c0.5-0.5,0.9-0.8,1.2-1.1C64.7,89.7,70.2,84,76,78.5c1.8-1.8,1.7-3.6,1.6-5.6c-0.3-0.1-0.5,0.1-0.6,0.2
		c-6.1,6.1-12.4,12.4-18.5,18.5c-0.3,0.3-0.5,0.7-0.5,1.2C57.9,93.9,57.9,95.1,57.9,96.4z M81,52.9c0.5,0,0.6-0.2,0.8-0.4
		c2-2.2,1.6-5.5-1.2-7.3c-3.5-2.3-7.2-2.4-11.1-1c-1.5,0.6-2.6,1.5-3.4,2.8c-1.2,2-0.6,5,1.3,5.9c-0.1-4.1,1.9-6.4,6-6.7
		c2.1-0.2,4.2,0.3,5.8,1.7C80.9,49.2,81.3,51,81,52.9z M64.9,53.8c0.3-1.1-0.4-1.4-1.4-1.4c-2.5-0.2-5.1-0.4-7.6-0.6
		c-0.4,0-0.8-0.1-0.9,0.3c-0.1,0.8-0.3,1.6,0.3,2.2c2.6,2.9,5.2,5.7,7.8,8.6c0.2,0.2,0.3,0.4,0.6,0.3C64,63.1,64,63,64,62.8
		C64.3,59.7,64.6,56.8,64.9,53.8z M64.9,135.9c-3.1,2.9-6.2,5.9-9.3,9c-0.5,0.4-0.4,0.7,0.2,0.9c2.7,0.9,5.5,1.7,8.3,2.1
		c0.5,0.1,0.9,0.1,0.9-0.6C64.9,143.4,64.9,139.5,64.9,135.9z M27.5,53.6c1-0.1,2.4,0.2,3.9-0.1c1-0.2,1.6-1.1,1.4-1.8
		c-0.3-0.9-1-1.5-1.8-1.2c-0.9,0.2-1.2-0.1-1.5-0.9c-0.8-1.8-2.9-2.4-4.2-1.2c-0.9,0.9-1.7,1.7-2.9,1.4c-0.2,0-0.4,0.2-0.6,0.3
		c-0.7,0.5-0.8,1.3-0.6,1.9c0.2,1,1.1,1.4,1.9,1.4C24.3,53.7,25.7,53.6,27.5,53.6z M90.1,129.8c-2.4,1.7-2.6,2-2.6,4.6
		c0,1,0,1.9,0,2.9c0,2.9,0,5.9,0,8.9c0,0.4-0.2,0.9,0.5,1.1c1.2,0.2,2.2-0.7,2.2-1.8c0-4.8,0-9.6,0-14.4
		C90.1,130.6,90.1,130.3,90.1,129.8z M78.8,63.3c0,3-0.3,2.6,2.4,2.6c0.1,0,0.2,0,0.2,0c1.8,0,1.8-0.1,1.7-1.9
		c-0.3-2.8-0.6-5.7-0.9-8.6c0-0.4,0.2-1.1-0.3-1.2c-0.5-0.1-1,0.4-1.3,0.9c-0.2,0.3-0.2,0.8-0.2,1.2c-0.2,1.4-0.2,2.9-1,4.2
		C78.9,61.5,78.7,62.5,78.8,63.3z M86,134c-0.2-0.1-0.3-0.3-0.5-0.4c-0.5,0.7-1.1,1.4-1.6,1.9c-0.4,0.5-0.6,1-0.6,1.6
		c0,3.2,0,6.5,0,9.7c0,0.6,0,1.2,0.9,1c0.7-0.2,1.8,0.2,1.8-1.1C86,142.6,86,138.3,86,134z M66.3,54.3c-0.4,3.5-0.7,6.8-1.1,10.2
		c-0.1,0.6,0.2,0.9,0.6,1.2c0.4,0.3,3.2,0.5,3.6,0.2c0.1-0.1,0.3-0.2,0.3-0.4c0-1.3,0.5-2.7-0.2-3.9c-1.1-1.7-1.5-3.4-1.6-5.3
		C67.8,55.4,67.5,54.7,66.3,54.3z M110.2,93.6c0-1.3-0.9-1.7-1.8-2c-0.7-0.3-1.5-0.2-1.9,0.5c-1.1,1.5-2,3-3,4.6
		c-0.6,0.9-0.2,1.8,0.7,2.3c0.8,0.6,1.8,1.3,2.5,0.3c1.4-1.6,2.3-3.3,3.4-5.2C110.2,94,110.2,93.7,110.2,93.6z M64.1,48.4
		c-0.2-0.3-0.2-0.4-0.2-0.4c-2.6-1.4-5.4-2.8-8-4.2c-0.6-0.3-0.7,0-0.7,0.5c0,1.8,0,3.6,0,5.5c0,0.5,0.2,0.7,0.7,0.6
		C58.5,49.8,61.2,49.1,64.1,48.4z M101,106.2c-0.5,0.8-1.1,1.5-1.5,2.2c-0.4,0.7-0.9,0.8-1.5,0.3c-0.7-0.5-1.5-0.9-2.1-1.4
		c-0.8-0.5-1-0.2-0.9,0.6c0,1.4,0,2.6,0,4c0,0.8,0.3,1,1.1,1.1C99.3,113,101.7,109.9,101,106.2z M74.2,47.7c-0.5,0-1,0-1.5,0.1
		c-1.6,0.4-3,0.9-3.7,2.6c-0.2,0.7-0.1,0.9,0.6,0.7c1.4-0.3,2.5-0.9,3.5-1.8c1.1-1.1,1.1-1.1,2.2,0c0.6,0.6,1.3,1.1,2,1.4
		c0.6,0.2,1.5,1,1.8,0.2c0.4-0.7-0.3-1.5-0.9-1.9C77.1,48,75.7,47.6,74.2,47.7z M74.2,66c0.6,0,1.2-0.1,1.8,0
		c1.1,0.1,1.6-0.3,1.5-1.5c0-0.2,0-0.5,0-0.7c0-0.7-0.1-1-0.9-0.7c-1.2,0.5-2.4,0.5-3.6,0.3c-1.8-0.3-1.8-0.3-1.7,1.5
		c0,0.8,0.3,1,1.1,1C72.9,66,73.5,66,74.2,66z M53.6,21L53.6,21c0-0.6,0-1.2,0-1.8c0-1.1-0.7-1-1.4-1c-0.7,0-1.4-0.1-1.4,1
		c0,1.1,0.1,2.1,0,3.2c-0.1,0.9,0.4,1.2,1.2,1.1c1.5,0,1.5,0,1.5-1.5C53.6,21.8,53.6,21.4,53.6,21z M95,89c1-1.5,1.8-2.7,2.5-4
		c0.2-0.3,0.1-0.5-0.1-0.7c-0.9-0.6-1.6-1.4-2.7-1.9C95,84.6,94.8,86.6,95,89z M81.8,143.6c-2.2,1.7-2.8,2.4-2.7,3.9
		c0,0.7,0.2,1.1,1,1c0.7-0.1,1.8,0.3,1.8-0.9C81.8,146.3,81.8,145,81.8,143.6z"/>
	<path class="st0" d="M52.5,15c-1.3,0-2.4,0-3.7,0c-0.5,0-1,0.1-1-0.7c0-0.6,0.5-0.7,0.9-0.7c0.8,0.1,1-0.4,1-1.1c0-1,0-1.9,0-2.9
		c0-1.9,1.3-3.2,3.2-3.2c0.8,0,1.4-0.2,1.8-1c0.6-1.1,1.8-1.4,2.9-1.5c0.6,0,0.9,0.3,0.8,0.9c0,1.1,0.1,2.1,0,3.2
		c-0.1,1.4-0.9,2.4-2.1,2.9c-1.1,0.4-0.9,1.2-0.9,1.9c0,0.9,0.7,0.7,1.2,0.7s0.9,0.1,0.9,0.7c0,0.6-0.5,0.6-1,0.6
		C55.1,15,53.8,15,52.5,15z M53.2,10L53.2,10c0.4,0,0.8,0,1.2,0c1.7-0.1,2.4-0.8,2.6-2.3c0.1-0.4,0-0.9,0-1.3c0-0.3,0.1-0.7-0.3-0.8
		C56.5,5.5,56.2,5.7,56,6c-0.2,0.2-0.4,0.5-0.4,0.8c-0.1,1-0.7,1.1-1.5,1.1s-1.7-0.1-2.3,0.4c-0.5,0.4-0.8,0.9-0.7,1.4
		c0.1,0.6,0.8,0.4,1.2,0.4C52.6,10,53,10,53.2,10z M52.3,13.6c0.3,0,0.4,0,0.5,0c0.8,0.1,1.4,0,1.4-1.1s-0.6-1.2-1.4-1.2
		c-0.3,0-0.6,0-0.8,0c-0.7-0.1-0.9,0.3-1,1C50.8,13.6,51.4,13.8,52.3,13.6z"/>
</g>
</svg>
