<?xml version="1.0" encoding="utf-8"?>
<!-- Generator: Adobe Illustrator 22.0.1, SVG Export Plug-In . SVG Version: 6.00 Build 0)  -->
<svg version="1.1" id="Layer_1" xmlns="http://www.w3.org/2000/svg" xmlns:xlink="http://www.w3.org/1999/xlink" x="0px" y="0px"
	 viewBox="0 0 151.3 150" style="enable-background:new 0 0 151.3 150;" xml:space="preserve">
<style type="text/css">
	.st0{fill:#FFFFFF;}
</style>
<g>
	<path class="st0" d="M76.6,15.1c0,3.4,0,6.8,0,10.3c0,1,0.3,1.3,1.3,1.3c11.1,0.4,21.5,3.5,30.9,9.6c14.2,9.1,23.1,21.9,27.2,38.1
		c0.6,2.4,1,4.9,1.3,7.4c0.1,0.7,0.3,1.1,1,1.4c1.5,0.7,2.7,1.7,3.5,3c0.4,0.7,1,0.8,1.7,0.8c3.6-0.4,7,2.1,7.6,5.7
		c0.6,3.9-1.8,7.4-5.5,8.1c-2.2,0.5-4.6,0.2-6.8,0.3c-2.7,0-2.2-0.2-2.9,2.2c-4.2,16.3-13.4,28.9-27.6,37.8c-7.6,4.8-16,7.7-25,8.7
		c-18.1,2-34-3-47.8-14.7c-4.3-3.6-7.9-7.8-10.9-12.5c-0.5-0.8-1.2-1.2-2.1-1.2c-1,0.1-2,0-2.9,0c-2.6-0.1-4.7-1.9-5.2-4.4
		c-0.4-2.3,0.9-4.8,3.2-5.7c0.8-0.3,0.8-0.7,0.6-1.4c-2.8-7.7-4.2-15.7-3.8-23.9c0.5-10.3,3.3-19.8,8.5-28.7c2.7-4.6,6-8.8,9.8-12.6
		c0.6-0.6,0.7-0.9,0-1.6c-2.1-2.2-0.9-5.7,2.1-6.2c1-0.2,1.7-0.5,2.4-1.2c1.6-1.5,4-1.7,5.8-0.5c0.7,0.5,1.2,0.5,1.9,0.1
		c6.8-4.1,14.2-6.7,22.1-7.9c2.2-0.3,4.6-0.6,6.9-0.6c1.6,0,1.6,0,1.6-1.6c0-6.5,0-13.2,0-19.7c0-0.7-0.5-1.8,0.7-1.8
		c1.2,0,0.7,1.1,0.7,1.8C76.7,8.5,76.6,11.8,76.6,15.1z M29.3,69.5c0.4-0.4,0.9-0.5,1.4-0.6c3.9-1.4,7.8-2.7,11.7-4
		c1-0.3,1.1-0.7,0.5-1.5c-0.7-0.9-1.2-1.9-1.9-2.7c-0.8-1.2-0.7-1.2,0.7-1.6c7.1-1.7,14.3-3.4,21.4-5.1c0.7-0.2,1.4-0.4,1.7-1.2
		c0.2-0.9-0.3-1.4-0.9-1.9c-1.8-1.5-3.5-2.8-5.3-4.3c-0.3-0.3-1-0.4-0.7-0.9c0.2-0.4,0.7-0.2,1.1-0.2c2.7,0,5.5,0,8.3,0
		c0.9,0,1.3-0.3,1.2-1.2c-0.1-0.7,0.1-1.5,0-2.1c-0.1-1.2,0.4-1.6,1.5-1.5c1.5,0.1,2.9,0,4.4,0c0.8,0,1.1-0.3,1.1-1.1
		c0-3.6,0-7.2,0-10.8c0-0.8-0.4-1.1-1.1-1c-1.6,0.2-3.2,0.3-4.8,0.4C61,29.2,53.1,32,45.7,36.2c-0.3,0.2-0.9,0.3-0.8,0.8
		c0.1,0.5,0.6,0.3,1,0.4c2.1,0.4,3.3,2.1,3.1,3.8c-0.2,1.9-1.7,3-3.7,3c-3.1,0-6.2,0-9.5,0c-0.7,0-1.2,0.2-1.7,0.7
		c-1.4,1.5-2.7,2.8-4,4.3C19.8,61.4,15,75.4,15.7,91.3c0.3,6.3,1.6,12.5,3.8,18.4c0.2,0.4,0.2,1,0.8,1.1c0.6,0.2,0.8-0.5,1.1-0.8
		c3-3.6,8.8-3.2,11.1,0.8c0.4,0.6,0.7,0.9,1.5,0.9c3.9,0.2,6,4.1,3.9,7.2c-1.1,1.6-2.6,2.2-4.4,2.2c-2.1,0-4.2,0-6.2,0
		c-0.5,0-1.2-0.2-1.5,0.2c-0.2,0.4,0.4,0.8,0.6,1.2c1,1.6,2.1,2.9,3.2,4.3c7.9,9.4,17.7,15.8,29.5,19.3c1.4,0.4,1.5,0.4,1.5-1.1
		c0-4.1,0-8.2,0-12.3c0-1.9-0.2-3.7-0.6-5.5c-2.6-12.3-5.3-24.6-7.8-36.9c-0.2-1.2-0.7-1.5-1.9-1.5c-3.3,0.1-6.2-1.2-8.5-3.5
		c-1.4-1.4-2.1-2.9-2.4-4.9c-0.1-1.1,0.3-1.4,1.3-1.4c3.3,0,3.2-0.1,3.3-3.3c0-1-0.4-1.4-1.3-1.7c-4.1-1.4-8.2-2.7-12.3-4.2
		C30.1,70,29.6,70,29.3,69.5z M122.5,69.4c-0.4,0.6-0.9,0.6-1.3,0.8c-3.4,1.2-6.9,2.3-10.3,3.5c-3.2,1.1-3.2,1.1-3.1,4.6
		c0,0.8,0.3,1.1,1.1,1.1c0.8,0,1.7,0,2.4,0c0.7,0,1,0.3,1,1c0,1.2-0.3,2.1-0.9,3.1c-2.2,3.8-5.7,5.6-10.1,5.6
		c-1.2,0-1.7,0.4-1.9,1.5c-2,9.7-4.1,19.2-6.1,28.8c-0.9,4.3-2.1,8.5-2.1,12.9c-0.1,4.3,0,8.7,0,13c0,1.4,0,1.4,1.4,1
		c4.1-1.2,8-2.7,11.6-4.8c15.8-8.7,25.9-21.8,30.3-39.3c0.3-1.4,0.3-1.4-1.1-1.4c-3.4-0.1-6.8,0.2-10.3-0.2c-3-0.3-5.6-2.9-5.6-6.1
		c-0.1-3.5,2.7-6.3,6.3-6.4c0.7,0,1.5,0.3,2-0.8c1.7-3.6,4.6-5.5,8.6-5.4c1.1,0,1.4-0.4,1.2-1.4c-0.3-2-0.6-3.9-1.1-5.8
		c-3.9-16.2-13-28.8-27-37.8c-9-5.7-19-8.5-29.8-9.1c-0.9,0-1.2,0.3-1.2,1.2c0,3.5,0,7,0,10.5c0,1,0.4,1.3,1.4,1.3
		c1.4-0.1,2.6,0,4,0c1.2-0.1,1.8,0.3,1.6,1.6c-0.1,0.6,0,1.3,0,1.9c-0.1,1.1,0.4,1.4,1.4,1.4c2.7-0.1,5.5,0,8.3,0
		c0.3,0,0.8-0.1,1,0.3c0.1,0.3-0.3,0.5-0.6,0.7c-1.9,1.6-3.8,3-5.7,4.6c-0.6,0.5-0.9,1-0.7,1.8c0.2,0.7,0.7,1,1.4,1.2
		c1.6,0.4,3.2,0.8,4.8,1.2c5.7,1.4,11.2,2.6,16.9,4c1.3,0.3,1.3,0.4,0.6,1.6c-0.6,1-1.3,2-1.9,2.8c-0.5,0.7-0.4,1.1,0.5,1.4
		c1.7,0.5,3.3,1.1,4.9,1.7C117,67.5,119.7,68.5,122.5,69.4z M65.8,89.1c-1.8,0-1.6,0-1.4,1.5c0.1,1.2,0.2,2.3,0.3,3.5
		c1,9,2.6,17.8,4.8,26.6c0.7,2.7,1.6,5.4,1.6,8.2c-0.1,6.2,0,12.3,0,18.5c0,1,0.3,1.3,1.3,1.4c2.3,0.1,4.6,0.2,6.9,0
		c1.2-0.1,1.5-0.5,1.5-1.6c0-5.5,0-10.8,0-16.3c0-2.2,0.3-4.4,0.8-6.5c2.7-10.7,4.9-21.7,6-32.8c0.2-2.2,0-2.4-2.1-2.3
		c-0.6,0-0.9,0.3-1,0.9c-0.2,2.1-0.5,4.3-0.7,6.4c-0.8,6.8-1.8,13.7-3.3,20.3c-0.6,2.5-1.3,5.2-2.6,7.4c-1,1.6-2.2,1.6-3.2,0
		c-0.9-1.5-1.6-3-2-4.7c-2.6-9.5-3.7-19.1-4.8-28.8C67.5,89.1,67.5,89.1,65.8,89.1z M76,80.8c-11.1,0-22.2,0-33.3,0
		c-1.9,0-2.1,0.3-1.1,2c0.3,0.6,0.7,1.2,1.2,1.7c2.1,2.1,4.7,3.2,7.7,3.2c17,0,34,0,51,0c0.6,0,1.1,0,1.7-0.1
		c3.2-0.6,5.9-2.1,7.4-5.1c0.8-1.5,0.6-1.7-1-1.7C98.2,80.8,87.1,80.8,76,80.8z M105.2,59.4c-0.6-0.1-0.9-0.2-1.3-0.3
		c-5.2-1.3-10.4-2.4-15.6-3.7C87,55.1,86,54.5,85.7,53c-0.3-1.4,0.3-2.3,1.4-3.1c1.2-0.9,2.2-1.9,3.5-2.9c-10,0-19.5,0-29.4,0
		c1.5,1.2,2.7,2.2,4,3.4c1.1,1,1.3,2.3,0.5,3.6c-0.5,0.7-1.2,1.1-2,1.3c-2.2,0.6-4.5,1.1-6.7,1.7c-3.3,0.8-6.5,1.6-9.9,2.3v0.1
		C66.4,59.4,85.6,59.4,105.2,59.4z M134.1,99.3c3.3,0,6.6,0,10.1,0c2.3,0,4.1-1.1,5.2-3.1c1-2.1,0.9-4.2-0.6-6
		c-1.5-1.9-3.5-2.4-5.8-2c-0.8,0.2-1.2,0.1-1.6-0.7c-1.7-3-4.3-4.5-7.7-4.2c-3.3,0.3-5.7,2.2-6.6,5.6c-0.3,0.9-0.6,1.1-1.5,0.8
		c-2-0.6-3.8-0.2-5.1,1.5c-1.3,1.6-1.7,3.3-0.8,5.2c0.9,2,2.4,2.8,4.5,2.8C127.3,99.3,130.6,99.3,134.1,99.3z M116.8,70.2
		c-27.3,0-54.4,0-81.8,0c3.1,1.1,5.9,2.1,8.7,3c0.7,0.3,1.5,0.4,2.1,0.4c20,0,40,0,60,0c0.4,0,0.9,0,1.3-0.1
		C110.3,72.5,113.5,71.4,116.8,70.2z M35.6,68.9c26.9,0,53.8,0,80.7,0c-1.8-0.8-3.6-1.3-5.4-2.1c-2.3-0.9-4.7-1.2-7.1-1.2
		c-18.4,0.1-36.7,0.1-55.2-0.1C43.8,65.5,39.8,67.5,35.6,68.9z M76,61c-10.4,0-20.9,0-31.3,0c-0.4,0-0.7,0-1.1,0
		c-0.3,0-0.4,0.2-0.3,0.5c0.3,1.4,2,2.7,3.4,2.7c19.3,0,38.7,0,58.1,0c1.7,0,2.7-0.4,3.3-1.9c0.2-0.4,0.8-0.8,0.5-1.3
		c-0.2-0.4-0.8-0.2-1.3-0.2C96.9,61,86.4,61,76,61z M65,137.8c-0.2-2.9,0.3-6.4-0.4-9.9c-2.6-12.3-5.2-24.6-7.8-36.9
		c-0.5-2.1-0.1-1.9-2.4-2c-1,0-1.1,0.3-0.9,1.2c2.1,10,4.2,20,6.4,30c1.3,5.9,2.2,11.7,2,17.8c-0.1,2.3,0,4.7,0,7.1
		c0,2.1-0.4,1.8,1.9,2.3c1.1,0.3,1.3-0.1,1.3-1.1C65,143.7,65,141,65,137.8z M86.8,137.1c0,3.9,0,6.5,0,9.2c0,0.4-0.1,0.9,0.4,1.2
		c1,0.5,2.7-0.6,2.7-1.7c0-3.8,0-7.7,0-11.5c0-2.1,0.1-4.3,0.5-6.4c1.7-7.9,3.3-15.8,5-23.7c1-4.5,2-9,2.8-13.5c0.1-0.4,0.5-1,0-1.3
		c-0.9-0.7-2.8,0.1-3.1,1.3c-1.9,8.7-3.7,17.4-5.6,26.1C88.1,123.6,86,130.8,86.8,137.1z M28,119.7c1.5,0,3.5,0,5.6,0
		c1.5,0,2.6-0.5,3.2-1.9c0.5-1.2,0.4-2.3-0.4-3.4c-0.9-1.2-2.1-1.5-3.5-1.1c-0.8,0.2-1.1,0-1.3-0.7c-0.7-2.1-2.2-3.4-4.5-3.6
		c-2.3-0.2-4.2,0.7-5.4,2.7c-0.4,0.7-0.8,0.8-1.6,0.7c-1.2-0.3-2.2-0.2-3.2,0.6c-1.4,1.1-1.9,2.8-1.3,4.4c0.6,1.6,2.2,2.6,4.1,2.5
		C22.5,119.6,25,119.8,28,119.7z M60.3,89.1c-0.4,0-0.8,0-1.2,0c-1.2-0.2-1.3,0.4-1.1,1.4c2.4,11.4,4.9,22.8,7.3,34.3
		c0.6,2.6,0,2.2,2.9,2.3c1,0,1.3-0.3,1-1.3c-1-4-2-7.9-2.8-11.9c-1.7-7.4-2.7-14.9-3.4-22.5C62.8,88.8,63.4,89.1,60.3,89.1z
		 M91.4,89.1c-0.1,0-0.2,0-0.4,0c-2.1,0-2.1,0-2.3,2.2c-0.2,3.6-0.8,7.2-1.3,10.8c-1.2,7.6-2.9,15.2-4.8,22.8
		c-0.5,2.1-0.5,2.1,1.7,2.1c1.2,0,1.7-0.3,1.9-1.5c2.3-11.3,4.8-22.7,7.1-34C93.9,88.9,94.2,89.1,91.4,89.1z M40.1,42.9L40.1,42.9
		c1.7,0,3.4,0,5.1,0c1.5,0,2.3-1,2.1-2.3c-0.1-1.2-1.2-2-2.4-1.7c-0.8,0.2-1.1-0.1-1.4-0.8c-0.6-1.4-1.7-2.2-3-2.3
		c-1.5-0.2-2.5,0.5-3.3,1.7c-0.4,0.6-0.8,0.8-1.6,0.7c-1.6-0.2-2.8,0.8-2.9,2.1c-0.1,1.5,1.1,2.5,2.7,2.6
		C37,42.9,38.6,42.9,40.1,42.9z M82.1,138.3c0,2.9,0,5.9,0,8.7c0,0.4-0.2,0.9,0.2,1.1c0.8,0.4,1.7,0,2.4-0.2
		c0.7-0.1,0.5-0.7,0.5-1.2c0-5.8,0-11.5,0-17.2c0-1.3-0.7-1.3-1.6-1.3c-0.9,0-1.8-0.2-1.7,1.3C82.2,132.4,82.1,135.4,82.1,138.3z
		 M69.7,138.3c0-2.9,0-5.9,0-8.7c0-0.4,0.2-0.9-0.3-1.1c-0.8-0.3-1.8-0.3-2.5,0c-0.6,0.2-0.4,0.9-0.4,1.4c0,5.4,0,10.7,0,16.1
		c0,2,0,2,2,2.2c1,0.2,1.3-0.2,1.3-1.2C69.7,144.1,69.7,141.2,69.7,138.3z M72.2,112.8L72.2,112.8c0.1-7.1,0.1-14.4,0.1-21.5
		c0-2.4,0.5-2.2-2.3-2.2c-0.8,0-1.1,0.3-1,1.1c0.6,4.4,1.1,8.8,1.7,13.2C71.1,106.6,71.7,109.7,72.2,112.8z M79.5,112.5L79.5,112.5
		c0.2-0.2,0.2-0.5,0.3-0.7c1.3-6.9,2.3-14,2.9-21c0.2-1.9,0.2-1.9-1.7-1.8c-0.1,0-0.2,0-0.2,0c-1-0.1-1.3,0.3-1.3,1.3
		C79.5,97.8,79.5,105.1,79.5,112.5z M75.8,45.6c1.8,0,3.4,0,5.2,0c0.8,0,1.2-0.3,1.1-1.2c0-0.4,0-0.8,0-1.2c0-0.6-0.3-1-0.9-1
		c-3.5,0-7,0-10.6,0c-0.7,0-1,0.3-0.9,0.9c0,0.4,0,0.8,0,1.2c-0.1,0.9,0.3,1.2,1.2,1.2C72.4,45.5,74.1,45.6,75.8,45.6z M48.5,74.9
		c-3.4,0-3.4,0-3.2,3.4c0,0.6,0.2,1,0.9,1c1.6,0,3.1,0,4.7,0c0.5,0,0.8-0.2,0.9-0.7c0.5-3.3,0.2-3.6-3-3.6
		C48.6,74.9,48.6,74.9,48.5,74.9z M56.3,74.9c-0.8,0-1.5,0-2.2,0c-0.7,0-1.1,0.2-1,1c0,0.8,0,1.7,0,2.4c0,0.6,0.2,1,0.9,1
		c1.6,0,3.1,0,4.7,0c0.6,0,0.8-0.2,0.9-0.8C59.9,75,59.9,75,56.3,74.9C56.4,74.9,56.3,74.9,56.3,74.9z M64,79.3
		c3.9-0.1,3.2,0.8,3.3-3.3c0-0.1,0-0.2,0-0.2c0-0.6-0.3-0.8-0.8-0.8c-1.6,0-3.2,0-4.8,0c-0.4,0-0.8,0.1-0.8,0.6
		c0,1.2-0.4,2.5,0.2,3.4C61.7,79.7,63,79.2,64,79.3C63.9,79.3,64,79.3,64,79.3z M95.6,74.9c-3.4,0-3.4,0-3.3,3.2
		c0,0.9,0.3,1.2,1.2,1.2c1.4-0.1,2.7-0.1,4.1,0c0.9,0,1.3-0.3,1.3-1.2C98.8,74.9,98.8,74.9,95.6,74.9z M103.2,79.3
		c3.4,0,3.4,0,3.3-3.3c0-0.8-0.3-1.1-1.1-1.1c-1.4,0-2.8,0.1-4.2,0c-1,0-1.2,0.3-1.2,1.3C100.1,79.3,100,79.3,103.2,79.3z
		 M87.7,74.9c-3.4,0-3.4,0-3.1,3.3v0.1c0,0.6,0.2,0.9,0.9,0.9c1.6,0,3,0,4.6,0c0.5,0,0.8-0.2,0.9-0.7c0.6-3.1,0.1-3.6-2.9-3.6
		C87.8,74.9,87.7,74.9,87.7,74.9z M80,74.9c-0.8,0-1.5,0-2.2,0c-0.7,0-1.1,0.2-1,1c0,0.8,0,1.7,0,2.4c0,0.7,0.3,1,1,1
		c1.4,0,2.8,0,4.2,0c0.8,0,1.1-0.3,1.1-1.2C82.9,74.2,83.5,75,80,74.9z M72,79.3c3.7-0.1,3.1,0.8,3.2-3.4c0-0.1,0-0.2,0-0.2
		c0-0.6-0.3-0.8-0.8-0.8c-1.6,0-3.1,0-4.7,0c-0.5,0-0.7,0.2-0.8,0.7C68.3,78.6,68.8,79.2,72,79.3C71.9,79.3,71.9,79.3,72,79.3z
		 M75.8,93.6c-2.3,0-2.2,0-2.1,2.2c0,0.6,0.2,1,0.9,1c0.9,0,1.8,0,2.6,0c0.4,0,0.8-0.1,0.9-0.6c0.5-2,0-2.5-2-2.5
		C76,93.6,75.9,93.6,75.8,93.6z M75.8,101.5L75.8,101.5c0.5,0,1,0,1.4,0c0.5,0,0.8-0.2,0.8-0.8c0.3-2.1,0.1-2.4-2.1-2.4
		c-0.2,0-0.5,0-0.7,0c-1.7,0-1.7,0-1.7,1.7c0,1.6,0,1.6,1.6,1.6C75.4,101.5,75.6,101.5,75.8,101.5z M75.9,102.8
		c-2.4,0-2.4,0-2.2,2.2v0.1c0,0.6,0.3,0.8,0.8,0.8c0.9,0,1.9,0,2.7,0c0.4,0,0.7-0.1,0.8-0.5c0.6-1.8-0.1-2.6-1.9-2.6
		C76.1,102.8,76,102.8,75.9,102.8z M75.9,110.7c2.3,0,2.3,0,2.1-2.2c0-0.6-0.3-1-0.9-1s-1.3,0-1.9,0c-1.6,0-1.6,0-1.6,1.6
		c0,1.7,0,1.7,1.6,1.7C75.5,110.7,75.7,110.7,75.9,110.7z M75.9,112c-2.3,0-2.3,0-2.2,2.2c0,0.7,0.3,1,1,1c0.8,0,1.7,0,2.4,0
		c0.4,0,0.8,0,0.9-0.6c0.5-1.9,0-2.6-1.9-2.6C76,112,76,112,75.9,112z M75.9,89.1c-2.4,0-2.4,0-2.2,2.3c0,0.6,0.2,0.9,0.9,0.9
		c0.9,0,1.9,0,2.7,0c0.4,0,0.7-0.1,0.8-0.5c0.5-1.9,0-2.6-1.9-2.6C76.1,89.1,76,89.1,75.9,89.1z M75.9,119.9L75.9,119.9
		c0.4,0,0.9,0,1.3,0c0.3,0,0.7-0.1,0.8-0.4c0.1-0.8,0.2-1.6,0-2.3c-0.2-0.6-0.8-0.5-1.2-0.5c-1,0.1-2.2-0.6-2.9,0.4
		c-0.9,1.3,0.1,2.8,1.7,2.8C75.6,119.9,75.8,119.9,75.9,119.9z M76,121.2c-0.4,0.3-1.3-0.4-1.4,0.5c-0.1,0.5,1,2.1,1.4,2.1
		c0.3,0,1.4-1.8,1.3-2.1C77.1,120.8,76.4,121.5,76,121.2z"/>
</g>
</svg>
