<?xml version="1.0" encoding="utf-8"?>
<!-- Generator: Adobe Illustrator 22.0.1, SVG Export Plug-In . SVG Version: 6.00 Build 0)  -->
<svg version="1.1" id="Layer_1" xmlns="http://www.w3.org/2000/svg" xmlns:xlink="http://www.w3.org/1999/xlink" x="0px" y="0px"
	 viewBox="0 0 150 150" style="enable-background:new 0 0 150 150;" xml:space="preserve">
<style type="text/css">
	.st0{fill:#FFFFFF;}
</style>
<g>
	<path class="st0" d="M136.4,88.7c-0.4,17.5-6.8,32.6-19.6,44.7c-9.2,8.7-20.2,14-32.7,15.8c-19,2.6-35.9-2.4-50.3-15.1
		c-10.8-9.5-17.3-21.7-19.6-35.8c-2.4-14.5,0.3-28.1,7.5-40.9c0.5-0.8,0.8-1.6,1-2.5c0.8-3.8,2.1-7.6,1.7-11.7c0-0.4-0.1-0.9,0.6-1
		c0.7,0,0.7,0.5,0.7,1c0.1,2.1-0.2,4.1,0.4,6.2c0.1,0.3,0,0.7,0.4,0.8c0.3,0.1,0.4-0.3,0.6-0.5c7.9-9.7,17.8-16.4,29.8-20.1
		c3.8-1.2,7.8-2,11.9-2.4c1-0.1,1.3-0.5,1.5-1.4c1.2-7,2.4-13.9,3.6-20.9C73.9,4.7,73.9,4.4,74,4c0.1-0.5,0.2-0.9,0.8-1
		c0.7,0,0.8,0.4,0.9,0.9c0.4,2.1,0.8,4.1,1.1,6.3c1,5.3,1.9,10.7,2.7,16c0.1,0.8,0.5,1.1,1.3,1.2c6.3,0.6,12.3,2.2,18.1,4.6
		c2,0.9,3.9,1.8,5.8,2.8c0.6,0.4,1.1,0.4,1.7-0.1c2.6-2,6.1-1.5,8.2,1.1c0.4,0.4,0.7,0.6,1.3,0.6c2.2,0,3.7,1,4.5,2.9
		c0.8,2.1,0.2,3.8-1.5,5.3c-0.4,0.3-0.5,0.6-0.1,1c1.4,1.4,2.6,2.8,3.9,4.4c0.4,0.5,0.6,0.4,0.8-0.2c0.5-1.8,0.5-3.5,0.5-5.3
		c0-0.4,0-0.8,0-1.2c0-0.5,0-1.1,0.8-1.1s0.7,0.7,0.7,1.1c-0.4,4.2,1,8.2,1.8,12.3c0.1,0.6,0.4,1.1,0.6,1.5c4.5,7.6,7.3,16,8.2,24.8
		C136.3,84.2,136.5,86.5,136.4,88.7z M47.5,98.9c0-2.6,0-5.3,0-7.8c0-1.5,0.1-1.5,1.6-1.5c3.1,0,6.4,0,9.5,0c1.7,0,1.7,0,1.7-1.6
		c0-7.3,0-14.6,0-21.9c0-0.9,0.2-1.6,1.3-1.5c0.6,0,0.8-0.4,0.8-1c0-0.4,0-0.9,0-1.3c0-0.7,0.1-1.3,1-1.2c0.4,0,0.8-0.1,0.9-0.6
		c0.4-2.7,1.2-5.5,1.3-8.2c0.1-2.8,0-5.7,0-8.4c0-0.8,0-1.5-1.1-1.5c-0.3,0-0.5-0.2-0.6-0.5c-0.1-1.4-0.5-2.7,0.2-3.9
		c0.5-0.9,1.8-0.3,2.7-0.4c0.1,0,0.2,0,0.4,0c0.8,0.1,1.2-0.3,1.3-1.1c0.4-2.3,0.8-4.5,1.2-6.9c0.1-0.8-0.2-1.1-1-1
		c-1.2,0.2-2.4,0.3-3.5,0.5C49.6,32,37.1,39.4,27.3,51.7c-0.5,0.6-0.5,1.2-0.4,1.9c2.3,10.4,4.5,20.8,7,31.2
		c1.4,5.7,2.3,11.4,1.9,17.2c-0.1,1.6,0,3.2,0,4.8c0,0.5-0.3,1.1,0.3,1.3c0.6,0.2,1-0.4,1.3-0.9c0.2-0.4,0.3-0.9,0.5-1.3
		c0.1-0.2,0-0.6,0.3-0.6c1.6-0.2,1.2-1.5,1.2-2.5c0-0.5,0-0.9,0.7-1.1c1.3-0.4,1.5-1,0.4-2c-0.5-0.4-0.6-1-0.1-1.3
		c0.5-0.3,0.7-0.6,0.8-1.1c0.1-0.4,0.4-0.5,0.8-0.4c0.3,0,0.5,0.2,0.6,0.5s0,0.7,0.4,0.8c1.2,0.5,1,1,0,1.6
		c-0.6,0.4-0.6,1.7,0.1,1.7c1.4,0.1,1.2,0.9,1.2,1.8c0,0.5-0.3,1.4,0.3,1.5c1,0.2,1.2,0.9,1.3,1.7c0.1,0.4,0.3,0.8,0.7,1.1
		c0.3,0.2,0.5,0.6,0.9,0.4c0.3-0.2,0.2-0.6,0.2-0.9C47.5,104.4,47.5,101.7,47.5,98.9z M89.5,77.1c0,3.7,0,7.4,0,11.2
		c0,1.1,0.4,1.4,1.4,1.4c3.2-0.1,6.5,0,9.8,0c1.6,0,1.6,0,1.6,1.6c0,5.2,0,10.4,0,15.7c0,0.4-0.2,1,0.3,1.2c0.5,0.1,0.8-0.4,1.1-0.7
		c0.2-0.2,0.3-0.5,0.4-0.7c0.2-0.8,0.2-1.7,1.4-1.8c0.3,0,0.3-0.4,0.3-0.7c0-0.5,0-1,0-1.6c0-0.5,0.2-0.9,0.8-1
		c0.4,0,0.8-0.1,0.9-0.6c0-0.5,0.1-0.9-0.4-1.3c-0.8-0.5-0.9-1.1,0.1-1.6c0.4-0.2,0.4-0.5,0.5-0.8c0.1-0.4,0.3-0.5,0.7-0.5
		s0.6,0.2,0.7,0.5c0.1,0.2,0.1,0.6,0.2,0.6c1.4,0.7,1.1,1.2,0,2c-0.4,0.3-0.5,1.4,0.2,1.5c1.6,0.2,1.3,1.2,1.3,2.2
		c0,0.5-0.2,1.2,0.4,1.3c1.1,0.2,1.2,0.9,1.3,1.7c0.1,0.4,0.3,0.8,0.7,1.1c0.3,0.2,0.5,0.6,0.9,0.4c0.3-0.2,0.2-0.6,0.2-0.9
		c0-2.7,0-5.6,0-8.3c0-2.9,0.1-5.9,0.8-8.8c2.7-12.1,5.4-24.1,8-36.3c0.1-0.7,0.2-1.3-0.3-1.9c-1.5-1.9-3-3.6-4.7-5.4
		c-0.5-0.5-1-0.7-1.7-0.7c-4,0-8,0-12.2,0c-2.6,0-4.5-1.7-4.6-4.2c-0.1-2.2,1.9-4,4.3-4.2c0.5,0,0.9-0.1,1-0.6
		c0.2-0.6-0.4-0.6-0.7-0.8c-5.1-2.8-10.6-4.9-16.4-6.2c-2.2-0.5-4.3-0.9-6.5-1c-0.6,0-1.2,0-1,0.9c0.4,2.4,0.9,4.7,1.3,7.1
		c0.1,0.8,0.6,1,1.3,1c0.8,0,1.5,0,2.3,0c0.7,0,1.1,0.3,1,1c0,1,0,2,0,2.9c0,0.6-0.2,0.9-0.8,1c-0.7,0-0.9,0.4-0.9,1
		c-0.1,5.7-0.2,11.3,1.2,16.9c0.1,0.6,0.3,1,1,0.9c0.8-0.1,0.9,0.4,0.9,1.1c0,0.5,0,1,0,1.4c0,0.6,0.2,0.9,0.8,0.9
		c1.2-0.1,1.3,0.6,1.3,1.6C89.5,69.8,89.5,73.5,89.5,77.1z M74.9,11.1c-0.1,0.8-0.2,1.4-0.2,1.9c-0.4,3.8-0.7,7.6-1,11.5
		c-0.7,6.2-1.3,12.4-1.9,18.7c-0.5,5.7-1,11.4-1.6,17.1c-0.1,0.8,0.1,1.1,0.9,1.1c2.3,0,4.5,0,6.7,0c1.7,0,1.7,0,1.6-1.7
		c0-0.2,0-0.4-0.1-0.6c-0.5-5.6-1.1-11.3-1.6-16.9c-0.4-4.5-0.8-9-1.3-13.5C76,23,75.5,17.2,74.9,11.1z M64.9,96.7
		c1.1,0.2,1,1,1,1.7c0,4.3,0,8.5,0,12.8c0,1,0.2,1.5,1.4,1.5c5.1-0.1,10.3-0.1,15.4,0c1.1,0,1.3-0.4,1.3-1.4c0-4.3,0-8.7,0-13
		c0-0.7,0.1-1.3,1.2-1.5c-3.4-1.6-6.6-3-9.7-4.5c-0.4-0.2-0.8-0.2-1.1,0C71.2,93.7,68,95.2,64.9,96.7z M65.9,133.4c0,2.9,0,6,0,8.9
		c0,1.2,0.5,1.3,1.5,1.4c1.1,0,1.4-0.4,1.3-1.4c0-3.5,0-7.2,0-10.7c0-3.7,2.6-6.5,6.2-6.5c3.4,0,6.2,2.8,6.2,6.5c0,3.5,0,7.2,0,10.7
		c0,1.2,0.4,1.4,1.5,1.4s1.6-0.2,1.6-1.4c-0.1-5.3-0.1-10.7,0-16c0-1.6-0.3-3.1-0.7-4.6c-0.2-0.7-0.5-1-1.2-1c-4.8,0-9.6,0-14.5,0
		c-0.7,0-1,0.3-1.2,0.9c-0.3,1.3-0.6,2.5-0.6,3.8C65.9,128.1,65.9,130.8,65.9,133.4z M25.1,53.9c-0.1,0.3-0.2,0.4-0.2,0.5
		c-0.6,4.7-1.2,9.4-1.8,14.1c-0.7,5.4-1.4,10.9-2.1,16.3c-0.3,2.2-0.6,4.3-0.8,6.6c-0.1,0.6-0.2,1.3,0.8,1.3c2.6,0,5.3,0,8,0
		c0.6,0,0.8-0.3,0.7-0.8c-0.2-1.3-0.3-2.5-0.5-3.8c-0.8-6.8-1.7-13.4-2.5-20.2C26.2,63.3,25.6,58.7,25.1,53.9z M124.8,54.2
		c-0.1,0-0.1,0-0.2,0c0,0.2,0,0.4-0.1,0.6c-0.7,6-1.5,12-2.2,17.9c-0.8,6.3-1.5,12.5-2.4,18.7c-0.1,1,0.2,1.1,1.1,1.1
		c2.5,0,4.9,0,7.3,0c0.9,0,1.2-0.2,1.1-1.1c-0.8-5.9-1.5-11.8-2.2-17.7C126.5,67.3,125.6,60.8,124.8,54.2z M53.2,132.2
		c0,3.3,0,6.8,0,10.1c0,1.2,0.4,1.5,1.5,1.5c1.4-0.1,2.6-0.1,4,0c1.2,0.1,1.6-0.3,1.6-1.5c-0.1-5.4-0.1-10.7,0-16.1
		c0-1.6-0.3-3-0.7-4.5c-0.2-0.7-0.5-0.9-1.2-0.9c-1.3,0-2.5,0.1-3.9,0c-1.1-0.1-1.4,0.3-1.4,1.4C53.2,125.4,53.2,128.8,53.2,132.2z
		 M96.5,132.3c0-3.4,0-6.9,0-10.2c0-0.7,0.1-1.3-0.9-1.3c-1.5,0-2.9,0-4.5,0c-0.4,0-0.8,0.2-0.9,0.6c-0.3,1.1-0.7,2.3-0.7,3.3
		c-0.1,6,0,12,0,17.9c0,0.8,0.3,1,1.1,1c1.5,0,2.9-0.1,4.5,0c1.1,0.1,1.5-0.3,1.5-1.5C96.5,138.9,96.5,135.6,96.5,132.3z
		 M89.5,108.7c0,3.1,0,6.2,0,9.3c0,1.2,0.6,1.3,1.5,1.2c0.9,0,1.6,0,1.5-1.2c-0.1-2.2,0-4.2,0-6.4c0-0.5-0.1-1.2,0.7-1.1
		c0.8,0,0.7,0.7,0.7,1.2c0,2.2,0,4.2,0,6.4c0,1,0.4,1.3,1.3,1.2c0.9,0,1.6,0,1.6-1.2c0-6.2,0-12.3,0-18.6c0-0.9-0.4-1.2-1.2-1.1
		c-1.6,0-3,0.1-4.6,0c-0.9,0-1.3,0.3-1.2,1.2C89.5,102.7,89.5,105.7,89.5,108.7z M53.2,108.7c0,3.1,0,6.2,0,9.3
		c0,0.5-0.1,1.1,0.6,1.2c1.5,0.4,2.2-0.1,2.2-1.6c0-0.6,0-1.1,0-1.7c0-1.6,0-3,0-4.6c0-0.5,0.1-0.9,0.7-0.9c0.5,0,0.7,0.4,0.7,0.8
		c0,0.4,0,0.7,0,1.1c0,1.9,0,3.7,0,5.7c0,1.1,0.5,1.3,1.4,1.3c0.8,0,1.5,0,1.5-1.2c0-6.3,0-12.4,0-18.7c0-0.8-0.3-1.1-1.1-1.1
		c-1.6,0-3.1,0.1-4.7,0c-1,0-1.3,0.4-1.3,1.3C53.2,102.7,53.2,105.7,53.2,108.7z M65.9,83.3L65.9,83.3c0,1.7,0,3.3,0,5.1
		c0,1.1,0.4,1.4,1.4,1.3c1,0,1.5-0.2,1.4-1.3c-0.1-3-0.1-6.1,0-9c0-3.4,2.8-6.2,6.3-6.2c3.3,0,6.1,2.7,6.1,6.2c0,2.8,0,5.7,0,8.4
		c0,1.9,0.2,2.1,2.2,1.8c0.5-0.1,0.8-0.3,0.8-0.8c-0.1-3.7,0.3-7.4-0.2-11.1c-0.6-4.3-4.7-7.6-9-7.5c-4.7,0.2-8.5,3.8-8.7,8.3
		C65.9,80.1,65.9,81.7,65.9,83.3z M109.9,44.2C109.9,44.2,109.9,44.1,109.9,44.2c2.3,0,4.5,0,6.7-0.1c1.7-0.1,3-1.9,2.8-3.5
		c-0.2-1.8-2.2-3.2-3.8-2.7c-0.8,0.2-1.3,0.2-1.7-0.7c-1-1.8-2.5-2.5-4.4-2.3c-2,0.2-3.2,1.3-3.8,3.1c-0.2,0.8-0.5,1.1-1.3,0.8
		c-1.2-0.4-2.2,0-2.9,0.9c-0.7,0.9-0.8,1.9-0.4,2.8c0.5,1.2,1.4,1.6,2.6,1.6C105.7,44.1,107.8,44.2,109.9,44.2z M119.6,106
		c0,2.3,0,4.5,0,6.7c0,1,0.5,1.2,1.3,1.2c0.8,0,1.2-0.2,1.2-1.1c-0.1-1.8,0-3.6,0-5.4c0-1.9,1-3,2.6-3c1.6,0,2.6,1.2,2.6,2.9
		s0,3.6,0,5.4c0,0.4-0.1,1,0.5,1.1c0.5,0.1,1.1,0.2,1.5-0.2s0.5-1,0.5-1.5c0-4.2,0-8.4,0-12.5c0-0.8-0.2-1.2-1.1-1.1
		c-2.7,0-5.4,0-8.1,0c-0.9,0-1.1,0.3-1.1,1.1C119.6,101.7,119.6,103.8,119.6,106z M30.1,106.1c0-2.2,0-4.3,0-6.5
		c0-0.9-0.3-1.3-1.3-1.2c-2.6,0-5.3,0.1-7.8,0c-1,0-1.2,0.4-1.2,1.3c0,4.1,0,8.2,0,12.3c0,0.3,0,0.6,0.1,0.8
		c0.2,0.9,0.8,1.1,1.6,1.1c0.9,0,0.9-0.7,0.9-1.3c0-1.9,0-3.7,0-5.5c0.1-2.2,2.2-3.4,4-2.5c1.1,0.6,1.5,1.7,1.5,2.7
		c0,1.8,0,3.5,0,5.3c0,0.9,0.4,1.2,1.2,1.2c0.9,0,1.2-0.3,1.2-1.2C30.1,110.5,30.1,108.2,30.1,106.1z M54.9,145
		c13.3,4.7,26.6,4.7,39.9,0C81.5,145,68.1,145,54.9,145z M79.7,137.8c0-1.6,0-3.2,0-4.8c0-1-0.3-1.3-1.2-1.2c-2.4,0-4.6,0.1-7,0
		c-1.1,0-1.5,0.3-1.5,1.4c0.1,2.5,0,5.2,0,7.7c0,3.1-0.5,2.6,2.8,2.7c0.9,0,1.1-0.3,1.1-1.1c0-2.3,0-4.5,0-6.7
		c0-0.5-0.2-1.2,0.7-1.3c0.9,0,0.8,0.7,0.8,1.3c0,1.6,0,3.2,0,4.8c0.1,3.4-0.6,2.8,3.1,2.9c0.8,0,1.1-0.3,1-1.1
		C79.7,141,79.7,139.4,79.7,137.8z M47.5,135.3c0-1.9,0-3.7,0-5.7c0-0.8-0.2-1.2-1.1-1.2c-3.2,0-6.5,0-9.6,0c-0.7,0-1,0.3-1,1
		c0,0.8,0.1,1.7,0,2.5c-0.3,1.7,0.4,2.8,1.8,3.7c0.4,0.2,0.8,0.9,1.3,0.7c0.4-0.2,0.1-0.9,0.2-1.3c0.1-1.5,1.2-2.6,2.5-2.6
		c1.5,0,2.6,1.1,2.7,2.6c0,1,0.2,2.1,0,3c-0.3,1.9,0.6,2.9,2.3,3.5h0.1c0.7,0.4,0.9,0.2,0.9-0.5C47.5,139.1,47.5,137.2,47.5,135.3z
		 M102.1,135.3c0,1.6,0,3.2,0,4.8c0,2,0,2,1.7,1.1c1.2-0.6,1.7-1.3,1.5-2.5c-0.1-1.2-0.1-2.4,0-3.5c0.1-1.6,1.2-2.7,2.6-2.7
		c1.4-0.1,2.5,0.9,2.7,2.5c0,0.3,0.1,0.6,0.1,0.8c0,0.9,0.3,0.8,0.9,0.4c1.5-1,2.5-2.2,2.2-4.1c-0.1-0.7-0.1-1.4,0-2.2
		c0-0.9-0.3-1.2-1.2-1.2c-3.1,0-6.3,0-9.4,0c-1,0-1.2,0.4-1.2,1.3C102.1,131.6,102.1,133.4,102.1,135.3z M75,113.9
		c-2.6,0-5.3,0-7.9,0c-0.8,0-1.2,0.2-1.2,1.1c0,1.1,0,2.2,0,3.3c0,0.4,0,0.8,0.5,1c1.8,0.7,2.9-0.1,2.9-2c0-0.2,0-0.5,0-0.7
		c0-0.4,0.2-0.7,0.7-0.7c0.4,0,0.7,0.2,0.7,0.7c0,0.6,0,1.3,0,1.9c0,0.5,0.2,0.7,0.7,0.8c2.2,0.4,2.7,0,2.7-2.2c0-0.3,0-0.6,0.1-0.8
		c0.1-0.3,0.3-0.4,0.6-0.4s0.6,0.1,0.6,0.4c0.1,0.3,0.1,0.6,0.1,0.9c0,2.1,0,2.1,2.1,2c0.1,0,0.2,0,0.4,0c0.7,0,1-0.3,1-1
		c0-0.6,0-1.1,0-1.7c0-0.5,0.2-0.7,0.7-0.7s0.7,0.3,0.7,0.7c0,0.3,0,0.6,0,0.8c0,1.8,0,1.8,1.9,1.8c0.2,0,0.5,0,0.7,0
		c0.7,0,0.9-0.3,0.9-0.9c0-1.1-0.1-2.2,0-3.3c0.1-0.9-0.3-1.2-1.2-1.1C80.2,113.9,77.5,113.9,75,113.9z M73.2,91.3
		c0-0.1-0.1-0.2-0.1-0.2c-6.3,0-12.6,0-18.9,0c-0.8,0-1.1,0.4-1,1.1c0,0.7,0,1.4,0,2.2c0,3-0.4,2.6,2.6,2.6c2.7,0,5.4,0.2,8-1.3
		C66.9,94,70.1,92.8,73.2,91.3z M76.5,91c0,0.1,0,0.2,0,0.2c3.9,1.8,7.8,3.6,11.8,5.4c0.4,0.2,0.8,0.2,1.2,0.2c2,0,4,0,6,0
		c0.9,0,1.2-0.4,1.2-1.2c0-1.2,0-2.4,0-3.5c0-0.9-0.3-1.2-1.2-1.2c-1.9,0-3.7,0-5.7,0C85.3,91,80.9,91,76.5,91z M83.9,73.9
		c0-2.5,0-4.6,0-6.9c0-0.6-0.2-1-0.9-1c-5.4,0-10.8,0-16.2,0c-0.8,0-1,0.5-1,1.1c0,1.9,0,3.7,0,5.5c0,0.2-0.1,0.6,0.2,0.7
		C70.4,67.5,79.2,67.1,83.9,73.9z M72.4,22L72.4,22c-0.2,0.4-0.3,0.8-0.3,1.2c-2.1,12-4.1,23.9-6.3,35.9c-0.5,2.5-0.4,2.6,2.3,2.4
		c0.5-0.1,0.8-0.3,0.8-0.8c0.4-4.3,0.8-8.6,1.2-12.9c0.4-4.6,0.9-9.3,1.3-13.9C71.8,29.7,72.1,25.8,72.4,22z M77.5,22.2L77.5,22.2
		c0.2,2.8,0.4,5.7,0.7,8.5c0.4,4.6,0.8,9.3,1.3,13.9c0.4,4.8,0.9,9.7,1.4,14.5c0.2,2.2,0.2,2.2,2.3,2.2c0.9,0,1.2-0.3,1-1.2
		c-0.3-1.2-0.4-2.4-0.6-3.6C81.5,45.1,79.5,33.7,77.5,22.2z M100.7,108.8c0-3,0-6.1,0-9c0-1.1-0.4-1.4-1.5-1.4c-1,0-1.4,0.3-1.4,1.4
		c0,6.1,0,12.1,0,18.1c0,1,0.2,1.5,1.4,1.5c1.1,0,1.5-0.4,1.5-1.5C100.7,114.8,100.7,111.9,100.7,108.8z M49,108.8c0,3,0,6.1,0,9.2
		c0,1.1,0.4,1.4,1.4,1.4c1,0,1.4-0.3,1.4-1.4c0-6.1,0-12.3,0-18.3c0-1.1-0.4-1.3-1.4-1.3c-0.9,0-1.5,0.1-1.5,1.3
		C49,102.7,49,105.7,49,108.8z M88.1,134.3c0-2.6,0-5.3,0-8c0-1.1-0.3-1.5-1.4-1.5c-1,0-1.6,0.1-1.6,1.4c0.1,5.3,0.1,10.7,0,16
		c0,1.2,0.5,1.4,1.5,1.4c1.2,0,1.5-0.4,1.5-1.5C88.1,139.6,88.1,137,88.1,134.3z M61.7,134.3c0,2.7,0,5.4,0,8.1
		c0,1.2,0.5,1.3,1.5,1.3c0.9,0,1.4-0.2,1.4-1.2c0-5.4,0-10.8,0-16.2c0-1.1-0.4-1.4-1.4-1.4c-1,0-1.5,0.2-1.5,1.3
		C61.7,128.9,61.7,131.7,61.7,134.3z M88.1,107.1c0-2.5-0.1-5,0-7.5c0-1.2-0.6-1.2-1.4-1.1c-0.8,0-1.6-0.1-1.6,1.2
		c0.1,4.9,0.1,9.9,0,14.8c0,1.2,0.6,1.2,1.4,1.2c0.8,0,1.6,0.1,1.6-1.2C88.1,111.9,88.1,109.4,88.1,107.1z M97.9,129.2
		c0,2.5,0,4.9,0,7.4c0,0.9,0.3,1.3,1.2,1.2c0.8-0.1,1.6,0.1,1.6-1.1c0-4.9,0-9.9,0-14.8c0-1.2-0.7-1.2-1.6-1.2s-1.3,0.2-1.3,1.2
		C98,124.3,97.9,126.8,97.9,129.2z M49,129.2c0,2.5,0,4.9,0,7.4c0,1.1,0.5,1.3,1.4,1.2c0.8,0,1.5,0,1.4-1.2c0-4.9,0-9.9,0-14.8
		c0-1.1-0.6-1.2-1.4-1.2c-0.9,0-1.4,0.2-1.4,1.2C49,124.3,49,126.8,49,129.2z M64.4,107c0-2.5,0-5,0-7.5c0-1-0.5-1.1-1.3-1.1
		c-0.7,0-1.6-0.2-1.6,1.1c0,5,0,9.9,0,14.9c0,1.2,0.7,1.1,1.5,1.1s1.4-0.1,1.3-1.1C64.3,111.9,64.4,109.4,64.4,107z M27.8,63.1
		C27.8,63.1,27.7,63.1,27.8,63.1c0.2,2.5,0.5,5.1,0.9,7.5c0.9,6.8,1.7,13.6,2.5,20.4c0.2,1.5-0.1,1.7,2,1.7c0.9,0,1.2-0.3,1-1.2
		c-0.5-2-0.9-4-1.4-6C31,78,29.3,70.5,27.8,63.1z M122,63.4C122,63.4,121.9,63.4,122,63.4c-0.7,2.5-1.3,5.3-1.9,7.9
		c-1.5,6.7-2.9,13.4-4.4,20.1c-0.1,0.4-0.3,0.8,0.1,1.1c0.9,0.6,2.5-0.1,2.7-1.2c0.6-4.7,1.2-9.3,1.8-14
		C121,72.8,121.5,68.1,122,63.4z M74.9,64.6c3.3,0,6.6,0,9.9,0c0.8,0,1.3-0.1,1.3-1.1s-0.6-1-1.3-1c-6.6,0-13.1,0-19.7,0
		c-0.7,0-1.4,0-1.4,1s0.6,1,1.3,1C68.3,64.6,71.7,64.6,74.9,64.6z M41.6,119.2c1.1,0,2.2,0,3.1,0c3,0,2.6,0.4,2.7-2.7
		c0-0.9-0.3-1.3-1.2-1.3c-2.5,0-5.2,0-7.7,0c-3,0-2.6-0.5-2.7,2.8c0,0.8,0.3,1.2,1.1,1.1C38.4,119.2,40,119.2,41.6,119.2z
		 M108,115.3L108,115.3c-1.1,0-2.2,0-3.1,0c-3,0-2.6-0.4-2.6,2.7c0,1,0.3,1.3,1.3,1.3c2.5,0,5.2,0,7.7,0c2.9,0,2.6,0.5,2.6-2.9
		c0-0.8-0.3-1.1-1.1-1.1C111.2,115.3,109.6,115.3,108,115.3z M127.7,64L127.7,64c-0.1,0.5,0,1.1,0,1.6c0.6,4.9,1.2,9.9,1.8,14.8
		c0.5,3.7,0.9,7.5,1.4,11.3c0.1,0.9,1,1.2,2.4,0.9c1-0.2,0.4-0.9,0.3-1.3c-0.9-4.4-1.9-8.8-2.8-13.2C129.7,73.5,128.7,68.7,127.7,64
		z M108,120.7c-1.7,0-3.3,0-4.9,0c-0.7,0-1,0.3-1,1c0,1.2,0,2.3,0,3.4c0,0.7,0.2,0.9,0.9,0.6c1.3-0.7,2.6-1.4,3.9-2.1
		c0.7-0.4,1.4-0.4,2.1,0c1.3,0.7,2.5,1.3,3.7,2c0.7,0.4,1.1,0.4,1.1-0.6c0-1.1,0-2.2,0-3.1c0-0.8-0.3-1.1-1.1-1.1
		C111.2,120.8,109.6,120.7,108,120.7z M41.8,120.7c-1.7,0-3.3,0-4.9,0c-0.7,0-1,0.2-1,1c0,1.2,0,2.3,0,3.4c0,0.8,0.3,0.9,0.9,0.5
		c1.3-0.7,2.5-1.3,3.7-2c0.9-0.5,1.6-0.5,2.5,0c1.2,0.7,2.5,1.3,3.6,1.9c0.7,0.4,1,0.4,1-0.6c0-1.1,0-2.2,0-3.3c0-0.8-0.3-1.1-1.1-1
		C44.9,120.8,43.3,120.7,41.8,120.7z M22.3,63.8L22.3,63.8c-0.2,0.6-0.3,1.1-0.5,1.7c-1.9,8.6-3.8,17.3-5.7,25.9
		c-0.2,0.9-0.2,1.3,0.9,1.3c1.8-0.1,1.8,0,2-1.9c0.7-5.5,1.4-11,2.1-16.5C21.5,70.9,21.9,67.4,22.3,63.8z M14.9,90.2
		c2.1-9.4,4.1-18.7,6.2-28.1C16.4,70.9,14.6,80.3,14.9,90.2z M115.4,106c0,2.3,0,4.5,0,6.7c0,1,0.5,1.2,1.3,1.2
		c0.8,0,1.5,0.1,1.5-1.1c0-4.4,0-8.8,0-13.3c0-1.2-0.7-1.1-1.5-1.1c-0.8,0-1.4,0.1-1.3,1.1C115.4,101.7,115.4,103.8,115.4,106z
		 M31.6,106.1c0,2.2,0,4.3,0,6.5c0,1.1,0.3,1.4,1.4,1.4c1,0,1.5-0.2,1.4-1.3c-0.1-4.3-0.1-8.6,0-12.9c0-1.1-0.5-1.3-1.4-1.3
		c-1,0-1.4,0.3-1.4,1.4C31.7,101.8,31.6,103.9,31.6,106.1z M134.7,89.9c1.3-6.3-2.8-24.3-6.2-27.8C130.6,71.4,132.6,80.7,134.7,89.9
		z M47.4,112.3c0.4-2.1,0.3-2.2-1.3-3.1c-0.4-0.3-1-0.6-1.1-1.1c-0.6-1.8-1.9-1.8-3.3-1.7c-0.5,0-1,0-1.6,0c-0.6,0-1,0.2-1.3,0.8
		c-0.3,0.8-0.9,1.5-1.7,2c-1.6,1-1.7,1.3-1.3,3.1C39.3,108.9,43.8,108.9,47.4,112.3z M102.1,112.5c3.9-3.6,7.7-3.6,11.6-0.3
		c0.4-2,0.3-2.2-1.2-3c-0.5-0.3-1-0.6-1.2-1.1c-0.5-1.7-1.8-1.8-3.1-1.7c-0.6,0.1-1.2,0-1.8,0c-0.6,0-1,0.2-1.2,0.8
		c-0.4,1.1-1.1,1.9-2.2,2.3c-0.8,0.3-1,0.8-1,1.5C102.1,111.3,102.1,111.8,102.1,112.5z M88.1,75.7c0-1.5,0-2.9,0-4.3
		c0-1.2-0.8-1-1.5-1s-1.5-0.2-1.5,1c0,2.9,0,5.9,0,8.8c0,1.2,0.8,1,1.5,1s1.5,0.3,1.5-1C88.1,78.6,88.1,77.2,88.1,75.7z
		 M124.1,115.3c-0.6,0-1.2,0-1.8,0c-3.2,0.1-2.7-0.6-2.8,3c0,0.7,0.3,1,1,1c1.7,0,3.3,0,5,0c0.5,0,0.9-0.2,1.2-0.6
		c0.5-0.9,1-1.7,1.5-2.5c0.4-0.7,0.1-0.8-0.6-0.8C126.5,115.3,125.3,115.3,124.1,115.3z M25.7,115.3L25.7,115.3c-1.3,0-2.5,0-3.7,0
		c-0.6,0-0.8,0.1-0.5,0.8c1.3,3,1.6,3.2,4.8,3.2c0.4,0,0.8,0,1.2,0c3-0.1,2.7,0.6,2.7-2.9v-0.1c0-0.7-0.3-0.9-1-0.9
		C28,115.3,26.9,115.3,25.7,115.3z M115.4,132.6c0.1,0.1,0.3,0.2,0.4,0.2c0.7-0.7,1.3-1.5,2-2.2c0.3-0.3,0.4-0.6,0.4-1
		c0-2.7,0-5.4,0-8.1c0-1.1-0.9-0.8-1.5-0.8c-0.6,0-1.3-0.1-1.3,0.8C115.4,125.2,115.4,128.8,115.4,132.6z M33.9,132.7
		c0.1-0.1,0.2-0.1,0.3-0.2c0-0.2,0.1-0.4,0.1-0.6c0-3.3,0-6.8,0-10.1c0-1.2-0.6-1.2-1.5-1.2c-0.9,0-1.4,0.2-1.4,1.2
		c0.1,2.5,0,4.9,0,7.3c0,0.5,0,0.9,0.4,1.3C32.7,131.3,33.2,132,33.9,132.7z M61.7,75.7c0,1.4,0,2.8,0,4.2c0,1.2,0.7,1.1,1.5,1.1
		c0.8,0,1.4,0,1.4-1.1c-0.1-2.8,0-5.7,0-8.5c0-1-0.5-1.1-1.3-1.1c-0.7,0-1.6-0.2-1.6,1.1C61.7,72.9,61.7,74.3,61.7,75.7z
		 M124.7,96.9c1.4,0,2.7,0,4.1,0c1.1,0,1-0.7,1-1.5c0-0.8,0.1-1.4-1.1-1.4c-2.7,0-5.5,0-8.2,0c-1.1,0-1,0.7-1,1.5
		c0,0.8,0,1.5,1.1,1.4C121.9,96.9,123.3,96.9,124.7,96.9z M25.1,94.1c-1.4,0-2.7,0-4.1,0c-1,0-1.2,0.5-1.1,1.4
		c0,0.7-0.2,1.6,1.1,1.5c2.7,0,5.5,0,8.2,0c1.1,0,1-0.7,1.1-1.5c0-0.8,0-1.5-1.1-1.4C27.8,94.1,26.4,94.1,25.1,94.1z M74.8,130.3
		c1.3,0,2.5,0,3.7,0c0.7,0,0.9-0.2,0.7-0.9c-0.6-1.6-2.5-2.8-4.4-2.7c-2,0-3.7,1.2-4.3,2.8c-0.3,0.7,0,0.9,0.7,0.9
		C72.4,130.3,73.6,130.3,74.8,130.3z M125.6,120.7c-1.4,0-2.4,0-3.4,0c-2.9,0-2.5-0.4-2.5,2.5c0,1.6,0,3.2,0,5.2
		C121.9,126,123.7,123.5,125.6,120.7z M24.1,120.7c1.8,2.7,3.5,5.2,5.7,7.5c0.2-0.7,0.3-6.3,0.2-6.9c-0.1-0.4-0.3-0.6-0.7-0.6
		C27.8,120.7,26.1,120.7,24.1,120.7z M75.6,82.6L75.6,82.6c0,0.6,0,1.2,0,1.8c0,0.7,0.4,1,1,0.9c1.1-0.2,2.5,0.7,3-0.6
		c0.4-1.3,0.4-2.8-0.1-4.2c-0.3-0.9-1.1-1.3-2.1-1.3c-1,0.1-1.6,0.7-1.8,1.6C75.6,81.3,75.6,81.9,75.6,82.6z M79.3,78.1
		c-0.6-2.2-2.5-3.6-4.6-3.5c-2.2,0-3.9,1.5-4.4,3.6c1.5-0.8,2.8-0.6,4.1,0.4c0.3,0.2,0.6,0.3,0.9,0C76.5,77.5,77.7,77.4,79.3,78.1z
		 M74,82.6c0-0.6,0-1.1,0-1.7c-0.1-1.2-0.8-1.9-1.9-1.9c-1.2,0-2,0.6-2.1,1.8C70,81.9,70.1,83,70,84c0,0.8,0.3,1.1,1.1,1.1
		C74.6,85.1,74,85.4,74,82.6z M123.4,110C123.3,110,123.3,110,123.4,110c0,1,0,2,0,2.9c0,0.8,0.5,0.9,1.1,0.8
		c0.6-0.1,1.6,0.4,1.6-0.7c0.1-2.1,0-4,0-6.1c0-0.8-0.5-1.4-1.4-1.3c-0.9,0-1.3,0.6-1.3,1.4C123.3,108,123.4,109,123.4,110z
		 M88.1,86.1c0-0.6,0-1.2,0-1.8c0-2-0.1-2.2-2.2-1.9c-0.5,0.1-0.8,0.3-0.8,0.8c0,1.9,0,3.7,0,5.6c0,0.3,0.1,0.5,0.4,0.7
		c1.3,0.6,2.5-0.1,2.5-1.5C88.1,87.4,88.1,86.8,88.1,86.1z M26.3,110L26.3,110c0-1,0-2,0-2.9c0-0.8-0.4-1.4-1.3-1.4
		c-0.8,0-1.2,0.5-1.2,1.3c0,2,0,4,0,6c0,1,0.8,0.8,1.4,0.9c0.6,0,1.2,0,1.2-0.9C26.3,112,26.3,111,26.3,110z M64.4,86
		c0-0.9,0-1.8,0-2.6c0-1-0.6-1-1.3-0.9c-0.7,0-1.6-0.3-1.6,0.9c0,1.8,0,3.6,0,5.4c0,1.2,0.9,0.9,1.6,0.9c0.7,0.1,1.3,0,1.2-1
		C64.4,87.8,64.4,86.9,64.4,86z M41.7,113.8c1.3,0,2.5,0,3.9,0c0.3,0,0.6,0.1,0.8-0.2c0.2-0.3-0.2-0.5-0.3-0.7
		c-2.1-2.5-6.6-2.5-8.7,0.1c-0.2,0.2-0.4,0.4-0.3,0.6c0.1,0.3,0.5,0.2,0.7,0.2C39,113.8,40.4,113.8,41.7,113.8z M108,113.8
		c1.4,0,2.6,0,4,0c0.2,0,0.5,0.1,0.7-0.2c0.1-0.3-0.1-0.4-0.2-0.6c-2-2.5-7-2.5-8.8,0c-0.1,0.2-0.3,0.4-0.3,0.5
		c0.1,0.3,0.4,0.2,0.6,0.2C105.3,113.8,106.7,113.8,108,113.8z M18.5,108.9c0-3,0-6.2,0-9.2c0-1-0.3-1.5-1.4-1.3c-0.3,0-0.6,0-1,0
		c-0.5,0-0.7,0.3-0.6,0.8C16.3,102.5,17.2,105.8,18.5,108.9z M131.2,108.8c1.3-2.9,2.2-6.1,2.7-9.2c0.1-0.5,0.5-1.2-0.6-1.3
		c-1.8-0.2-2.2,0-2.2,1.1C131.2,102.6,131.2,105.7,131.2,108.8z M97.9,94c0,0.6,0,1.2,0,1.8c-0.1,1,0.4,1.2,1.3,1.2s1.6-0.1,1.5-1.2
		c-0.1-1.2,0-2.4,0-3.5c0-0.9-0.4-1.2-1.2-1.2c-1.5,0-1.6,0-1.6,1.6C97.9,93.1,97.9,93.5,97.9,94z M51.8,94c0-0.7,0-1.4,0-2
		c0.1-1.1-0.7-1.1-1.4-1.1c-0.8,0-1.4,0.1-1.4,1.1c0.1,1.2,0,2.5,0,3.6c0,0.9,0.3,1.2,1.2,1.2c1.5,0,1.6-0.1,1.6-1.6
		C51.8,94.9,51.8,94.5,51.8,94z M42.9,137L42.9,137c0-0.7,0-1.4-0.1-2.1c-0.1-0.7-0.6-1.1-1.3-1.1s-1.2,0.5-1.3,1.2s0,1.4,0,2
		c0,0.7,1.8,2.5,2.4,2.3c0.8-0.4,0.2-1.2,0.3-1.9C43,137.2,42.9,137.1,42.9,137z M77.6,86.7c-2.2,0-2.4,0.3-2.1,2.3
		c0.1,0.8,0.6,0.8,1.1,0.7c1-0.2,2.5,0.7,2.9-0.6c0.7-1.7,0.1-2.4-1.8-2.4C77.8,86.7,77.7,86.7,77.6,86.7z M97.9,141.4L97.9,141.4
		c0,0.6,0,1.1,0,1.7c0,0.4,0.2,0.7,0.5,0.6c0.8-0.2,1.8-0.3,2.1-1.1c0.3-1,0.4-2.2-0.1-3.2c0-0.1-0.2-0.1-0.3-0.2
		c-1.5-0.5-2.3,0.1-2.3,1.6C97.9,140.9,97.9,141.2,97.9,141.4z M51.8,141.5c0-0.3,0-0.6,0-1c0.1-1.1-0.3-1.4-1.4-1.5
		c-1.2,0-1.5,0.5-1.4,1.6c0,0.4,0,0.7,0,1.1c0,1.1,1.1,2.1,2.2,2s0.4-1.1,0.6-1.7C51.8,141.8,51.8,141.6,51.8,141.5z M72.1,89.6
		c2,0,2,0,2-1.4c0-1.6,0-1.6-1.6-1.6c-0.4,0-0.7,0-1.1,0c-1.2-0.2-1.4,0.4-1.4,1.5c0,1.1,0.2,1.7,1.5,1.5
		C71.7,89.5,71.9,89.6,72.1,89.6z M106.9,136.7L106.9,136.7c0,0.6,0,1.1,0,1.7c0,0.7,0.3,0.8,0.9,0.5c1.5-0.9,2.2-2.6,1.6-4.2
		c-0.2-0.6-0.7-0.9-1.3-0.9s-1.1,0.4-1.1,1C106.9,135.4,106.9,136.1,106.9,136.7z M37.6,126.8c0,0.1,0,0.1,0.1,0.2c2.6,0,5.4,0,8,0
		c-1.2-0.8-2.4-1.4-3.5-2c-0.4-0.2-0.8-0.2-1.1,0C39.9,125.5,38.7,126.1,37.6,126.8z M103.9,126.8c0,0.1,0,0.1,0.1,0.2
		c2.7,0,5.5,0,8.2,0c-1.2-0.8-2.5-1.5-3.8-2.1c-0.3-0.2-0.6-0.1-0.9,0C106.4,125.5,105.2,126.2,103.9,126.8z M115.3,117.3
		c0.3,0.7-0.4,1.6,0.6,2c1.4,0.6,2.3-0.1,2.3-1.6c0-0.2,0-0.5,0-0.7c0-1.7-0.2-1.8-1.9-1.7C114.8,115.4,115.6,116.6,115.3,117.3z
		 M34.3,117.3L34.3,117.3c0-0.4,0-0.7,0-1.1c0-0.7-0.3-1-1-1c-1.6-0.1-1.8,0-1.8,1.7c0,0.4,0,0.7,0,1.1c-0.1,1.1,0.4,1.4,1.4,1.4
		s1.6-0.2,1.4-1.3C34.3,117.8,34.3,117.6,34.3,117.3z M86.8,120.7c-0.2,0-0.5,0-0.7,0c-1.6,0-1.6,0-1.2,1.5c0,0.2,0.1,0.3,0.1,0.5
		c0.1,0.6,0.4,0.9,1,0.8c0.8-0.1,1.9,0.4,2.4-0.4c0.4-0.6,0.7-1.4,0.4-2c-0.3-0.6-1.1-0.2-1.6-0.3C87,120.7,86.9,120.7,86.8,120.7z
		 M63,120.7c-2.4,0-2.4,0-1.8,2c0.2,0.5,0.4,0.9,1,0.8c0.8-0.1,1.8,0.5,2.4-0.4c0.4-0.6,0.7-1.4,0.4-2c-0.3-0.6-1.1-0.2-1.6-0.3
		C63.2,120.7,63.1,120.7,63,120.7z M18.4,95.5c0.3-1.2-0.3-1.5-1.4-1.5c-1,0-1.6,0.1-1.5,1.4c0,1.1,0.2,1.6,1.5,1.6
		C18,96.9,18.7,96.9,18.4,95.5z M86.8,66.2c-1.1-0.2-1.5,0.2-1.6,1.4c0,1.2,0.5,1.5,1.5,1.5c1,0,1.5-0.2,1.5-1.4
		C88.1,66.5,87.9,65.9,86.8,66.2z M134,95.5c0.4-1.3-0.4-1.4-1.5-1.4c-1,0-1.5,0.3-1.5,1.4c0,1.1,0.3,1.6,1.5,1.5
		C133.6,96.9,134.3,96.8,134,95.5z M34.3,95.6c0.2-1-0.2-1.5-1.3-1.5c-1,0-1.5,0.3-1.5,1.4c0,1,0.2,1.6,1.4,1.5
		C33.9,96.9,34.5,96.7,34.3,95.6z M115.4,95.4c-0.2,1,0.1,1.6,1.3,1.5c1,0,1.6-0.2,1.5-1.4c0-1-0.2-1.6-1.4-1.5
		C115.8,94.1,115.1,94.2,115.4,95.4z M64.4,67.5c0.2-1.2-0.3-1.4-1.4-1.4c-1.1,0-1.4,0.4-1.4,1.5c0,1.1,0.4,1.4,1.5,1.4
		C64.2,68.9,64.6,68.6,64.4,67.5z M86.9,119.2c0.9,0.2,1.4-0.1,1.4-1.2c0-1.3-0.8-1.1-1.6-1.1c-0.9,0-1.4,0-1.4,1.2
		C85.2,119.3,85.9,119.3,86.9,119.2z M63.1,117c-0.8,0-1.6-0.1-1.6,1.1c0,1,0.4,1.3,1.3,1.3c0.9,0,1.5,0,1.5-1.2
		C64.4,117.1,64,116.9,63.1,117z M66.4,41.1c1.1,0.2,1.4-0.4,1.4-1.4c0.1-1-0.7-0.6-1.1-0.6c-0.7,0-1.5-0.3-1.5,0.9
		C65.2,40.9,65.6,41.2,66.4,41.1z M83.1,39.1C82.5,39.1,82,39,82,40c0.1,0.9,0.5,1.2,1.4,1.2c0.8,0,1.2-0.2,1.2-1.1
		C84.5,39,83.8,39.1,83.1,39.1z"/>
	<path class="st0" d="M43.6,70.6c-1.3,0-2.5,0-3.7,0c-2.1-0.1-3.4-1.3-3.6-3.1c-0.1-1.8,1.2-3.2,3.2-3.5c0.6-0.1,0.9-0.4,1.3-0.7
		c1.9-1.9,4.9-1.6,6.4,0.7c0.3,0.5,0.7,0.7,1.2,0.8c1.7,0.3,2.7,1.6,2.6,3c-0.1,1.5-1.3,2.6-2.9,2.8c-0.1,0-0.2,0-0.4,0
		C46.4,70.6,45,70.6,43.6,70.6z M43.7,69.1L43.7,69.1c1.4,0,2.8,0,4.2,0c1.1,0,1.7-0.8,1.6-1.8c-0.1-0.9-1-1.6-2-1.4
		c-0.8,0.2-1.1,0-1.3-0.7c-0.4-1.2-1.3-1.8-2.5-2c-1.1-0.1-2,0.4-2.5,1.3c-0.4,0.6-0.7,0.8-1.4,0.7c-1.3-0.2-2.2,0.6-2.3,1.7
		c-0.1,1.2,0.7,2,2.1,2.1C41.1,69.1,42.5,69.1,43.7,69.1z"/>
	<path class="st0" d="M75.6,45.7c0,1.9,0,3.7,0,5.5c0,0.5,0,1.1-0.8,1.1c-0.8,0-0.7-0.6-0.7-1.1c0-3.7,0-7.4,0-11.1
		c0-0.5,0-1.1,0.8-1.1c0.8,0,0.7,0.6,0.7,1.1C75.6,42,75.6,43.9,75.6,45.7z"/>
	<path class="st0" d="M81,103.3c0,3.2-2.8,6.1-6.1,6.1c-3.3,0-6.2-2.8-6.2-6.2c0-3.3,2.7-6.1,6.1-6.1S81,100,81,103.3z M79.5,103.3
		c0-2.6-2-4.7-4.6-4.8c-2.6,0-4.7,2-4.7,4.5c-0.1,2.7,1.9,4.8,4.5,4.8C77.4,108,79.5,106,79.5,103.3z"/>
	<path class="st0" d="M25,88.7c-0.5,0-0.7-0.3-0.7-0.7c0-0.5,0-1,0-1.4c0-0.9,0.1-1.8-1.3-1.7c-0.4,0-0.6-0.4-0.6-0.8
		c0-0.4,0.3-0.6,0.7-0.7c1.3-0.3,1.3-0.3,0.4-1.3c-0.3-0.3-0.3-0.9-0.1-0.9c1.1-0.1,0.7-2.3,2-1.5c0.5,0.3,0.9,1.2,1.4,1.8
		c0.2,0.2,0,0.7-0.4,0.8c-0.4,0.1-0.6,0.2-0.5,0.6c0.1,0.4,0.4,0.5,0.7,0.5c0.5,0.1,1.1,0,1.1,0.7c0,0.9-0.6,0.8-1.2,0.8
		s-0.7,0.4-0.7,0.9c0,0.7,0,1.4,0,2.2C25.7,88.4,25.5,88.7,25,88.7z"/>
	<path class="st0" d="M124.7,79.7c0.3,0,1.9,1.9,1.9,2.2c0,0.3-0.1,0.5-0.4,0.5c-0.4,0.1-0.7,0.2-0.6,0.7c0.1,0.5,0.5,0.4,0.9,0.5
		c0.5,0.1,1,0.2,0.9,0.8c0,0.6-0.5,0.7-0.9,0.7c-0.8,0-1,0.4-0.9,1c0,0.7,0,1.4,0,2c0,0.5-0.2,0.7-0.8,0.7c-0.5,0-0.7-0.3-0.7-0.8
		c0-0.6,0-1.3,0-1.9c0-0.7-0.1-1.2-1-1.1c-0.5,0-0.9-0.1-0.9-0.7c0-0.6,0.4-0.7,0.8-0.8c0.4-0.1,0.9,0,1-0.5
		c0.1-0.5-0.3-0.6-0.6-0.7c-0.1-0.1-0.2-0.2-0.3-0.4C122.9,81.5,124.2,79.7,124.7,79.7z"/>
	<path class="st0" d="M58.8,94.6c-0.5,0-1,0-1.5,0c-0.4,0-0.7-0.2-0.7-0.7c0-0.4,0.2-0.7,0.6-0.7c1,0,2.1,0,3,0
		c0.4,0,0.7,0.2,0.7,0.7c0,0.4-0.2,0.7-0.7,0.7C59.8,94.6,59.3,94.6,58.8,94.6z"/>
	<path class="st0" d="M91,93.3c0.5,0,1,0,1.5,0c0.4,0,0.6,0.2,0.6,0.6s-0.2,0.7-0.6,0.7c-1.1,0-2.2,0-3.2,0c-0.4,0-0.5-0.3-0.5-0.6
		c0-0.4,0.2-0.6,0.6-0.6C89.8,93.3,90.4,93.3,91,93.3L91,93.3z"/>
	<path class="st0" d="M74.1,102.3c0-0.3,0-0.5,0-0.8c0-0.5,0.3-0.7,0.8-0.7c0.4,0,0.7,0.2,0.7,0.6c-0.2,1.3,0.4,2.3,1.3,3.1
		c0.3,0.3,0.3,0.6,0,0.9c-0.2,0.2-0.6,0.5-0.8,0.1C75.1,104.6,73.8,103.9,74.1,102.3z"/>
</g>
</svg>
